<?xml version="1.0" encoding="UTF-8"?><svg xmlns="http://www.w3.org/2000/svg" viewBox="0 0 94.04 111.82"><defs><style>.d{fill:#e8cd07;}.e{fill:#e65100;}.f{fill:#fff;}.g{fill:#af9309;}.h{fill:#c4aa10;}.i{fill:#dbd8d7;}</style></defs><g id="a"/><g id="b"><g id="c"><g><g><path class="d" d="M67.33,89.36c-4.11,.29-8.26,.02-12.3-.79-1.2-.24-2.67-.53-4.14-.94-.37-.1-.73-.21-1.09-.33-1.54-.51-2.99-1.17-4.02-2.08-1.41-1.25-2.58-3.8-2.43-5.95,.05-.72,.25-1.4,.63-1.96,.02-.04,.05-.07,.07-.1,.41-.56,.97-.95,1.6-1.19,1.22-.48,2.73-.4,4,.04,1.74,.61,3.23,1.77,4.82,2.72,.16,.1,.33,.19,.5,.29,3.87,2.14,8.49,2.57,12.91,2.19,4.04-.35,8.1-1.37,11.52-3.55,3.92-2.5,6.96-6.85,7.05-11.61,.11-5.85-8.59-14.94-12.61-6.73-.85,1.74-.94,3.76-.61,5.67,.04,.24,.1,.56,.15,.93,.37,2.51,.71,7.32-2.98,5.97-1.19-.43-1.95-1.58-2.54-2.7-.86-1.64-1.51-3.43-1.89-5.27-.62-3.01-.5-6.16,.67-9.04,3.31-8.15,12.08-9.01,18.76-4.56,6.27,4.18,9.72,11.95,8.37,19.43-2.24,12.38-14.92,18.77-26.42,19.56Z"/><path class="d" d="M70.39,71.93c-1.19-.43-1.95-1.58-2.54-2.7-.86-1.64-1.51-3.43-1.89-5.27,.26-.18,.59-.19,.98,.11,.7,.54,1.25,1.65,1.76,2.37-.13-.18,.4-1.27,.5-1.45,.29-.49,.64-.7,1.12-.29,.68,.58,1.18,1.37,1.41,2.23,.23-.66,.95-.97,1.64-.96,.37,2.51,.71,7.32-2.98,5.97Z"/><path class="d" d="M83.71,57.01c-1.63-2.48-4.82-3.31-7.53-2.19-2.95,1.22-4.54,4.23-4.63,7.31-.01,.42,.64,.48,.66,.05,.08-2.74,1.38-5.4,3.93-6.63,2.52-1.21,5.53-.47,7.07,1.88,.23,.35,.73-.08,.5-.43Z"/><path class="d" d="M70.54,62.56c-.39-1.07,.07-2.56,.46-3.57,.4-1.04,1-1.97,1.76-2.78,.28-.31-.14-.81-.43-.5-1.56,1.69-3.23,4.77-2.38,7.13,.14,.4,.74,.11,.59-.28Z"/><path class="d" d="M67.33,62.62c-.21-1.76-.05-3.49,.46-5.18,.12-.41-.5-.63-.62-.22-.54,1.8-.71,3.65-.48,5.51,.05,.42,.7,.3,.65-.12Z"/><path class="d" d="M68.39,55.46c.46-1.33,1.24-2.46,2.32-3.37,.32-.27-.11-.77-.43-.5-1.16,.98-2.01,2.21-2.51,3.65-.14,.4,.48,.62,.62,.22Z"/><path class="d" d="M77.1,49.22c-1.82-.33-3.64,.03-5.19,1.04-.35,.23-.07,.83,.28,.59,1.47-.96,3.12-1.29,4.85-.97,.42,.08,.47-.58,.05-.66Z"/><path class="d" d="M71.12,54.53c1-1.36,2.31-2.32,3.88-2.91,.4-.15,.11-.74-.28-.59-1.68,.62-3.08,1.69-4.15,3.13-.25,.34,.29,.71,.55,.37Z"/><path class="d" d="M68.83,58.73c.17-.95,.55-1.83,1.11-2.62,.25-.35-.3-.72-.55-.37-.63,.88-1.03,1.87-1.22,2.94-.07,.42,.58,.47,.66,.05Z"/><path class="d" d="M79.02,53.08c-1.63-.49-3.24-.04-4.77,.56-.39,.16-.11,.75,.28,.59,1.36-.54,2.81-.97,4.27-.54,.41,.12,.63-.5,.22-.62Z"/><path class="d" d="M82.38,52.76c-1.47-.95-3.11-1.53-4.85-1.71-.42-.05-.48,.61-.05,.66,1.63,.18,3.15,.72,4.53,1.6,.36,.23,.73-.31,.37-.55Z"/><path class="d" d="M85.75,51.86c-1.72-1.57-3.78-2.57-6.09-2.92-.42-.06-.47,.59-.05,.66,2.12,.33,4.06,1.25,5.65,2.7,.31,.28,.81-.15,.5-.43Z"/><path class="d" d="M91.92,59.3c-.63-1.03-1.28-2.06-1.95-3.07-.56-.85-1.04-1.8-1.95-2.32-.37-.21-.74,.34-.37,.55,.88,.5,1.37,1.52,1.91,2.34,.6,.92,1.19,1.85,1.76,2.79,.22,.36,.82,.08,.59-.28Z"/><path class="d" d="M87.42,55.61c-.79-1.16-1.8-2.1-3.01-2.8-.36-.21-.74,.33-.37,.55,1.17,.68,2.12,1.57,2.88,2.69,.24,.35,.73-.08,.5-.43Z"/><path class="d" d="M86.87,57.74c-.52-1.37-1.44-2.49-2.68-3.27-.36-.23-.73,.32-.37,.55,1.15,.73,1.97,1.73,2.45,3.01,.15,.4,.74,.11,.59-.28Z"/><path class="d" d="M87.8,67.3c.04-3.09-.25-6.32-2.72-8.48-.32-.28-.69,.27-.37,.55,2.27,1.98,2.47,5.07,2.44,7.88,0,.42,.65,.48,.66,.05Z"/><path class="d" d="M90.94,62.31c-.44-1.68-1.09-3.26-1.98-4.75-.22-.36-.81-.08-.59,.28,.86,1.44,1.5,2.96,1.92,4.58,.11,.41,.76,.29,.65-.12Z"/><path class="d" d="M92.77,67.91c.51-2.22,.4-4.42-.34-6.58-.14-.4-.73-.11-.59,.28,.67,1.97,.78,4.04,.31,6.07-.09,.41,.53,.63,.62,.22Z"/><path class="d" d="M89.06,63.05c-.04-1.31-.34-2.55-.92-3.72-.19-.38-.78-.1-.59,.28,.53,1.07,.82,2.2,.86,3.39,.01,.42,.67,.48,.66,.05Z"/><path class="d" d="M90.56,70.53c.61-2.04,1.38-4.59,.72-6.7-.12-.4-.77-.29-.65,.12,.62,1.98-.13,4.45-.7,6.36-.12,.41,.5,.63,.62,.22Z"/><path class="d" d="M89.23,69.16c.76-1.15,.25-2.89,.12-4.16-.04-.42-.69-.3-.65,.12,.07,.64,.13,1.29,.2,1.93,.06,.6,.13,1.21-.22,1.74-.23,.35,.31,.72,.55,.37Z"/><path class="d" d="M84.15,76.04c.97-.81,1.66-1.82,2.19-2.96,.56-1.2,1.14-2.55,1.12-3.9,0-.42-.67-.48-.66-.05,.04,2.22-1.41,5.02-3.09,6.42-.33,.27,.11,.77,.43,.5Z"/><path class="d" d="M91.27,74.98c.15-.89,.64-1.65,.94-2.5,.29-.82,.38-1.69,.47-2.55,.04-.42-.61-.48-.66-.05-.1,.98-.23,1.94-.62,2.85-.31,.73-.66,1.41-.79,2.19-.07,.42,.59,.47,.66,.05Z"/><path class="d" d="M89.02,75.67c.67-1.11,1.18-2.3,1.54-3.55,.12-.41-.5-.63-.62-.22-.34,1.2-.82,2.33-1.46,3.4-.22,.36,.33,.73,.55,.37Z"/><path class="d" d="M86.95,74.51c.68-.98,1.25-2.02,1.74-3.1,.17-.39-.45-.6-.62-.22-.46,1.04-1.02,2.02-1.67,2.95-.24,.35,.3,.72,.55,.37Z"/><path class="d" d="M90.14,76.78c.26-.33-.28-.7-.55-.37-1.48,1.84-2.99,3.68-5.05,4.88-.36,.21-.08,.81,.28,.59,2.17-1.27,3.76-3.17,5.32-5.11Z"/><path class="d" d="M83.93,80.12c1.42-1,2.71-2.13,3.9-3.39,.29-.31-.14-.81-.43-.5-1.19,1.26-2.49,2.39-3.9,3.39-.35,.24,.09,.74,.43,.5Z"/><path class="d" d="M84.5,77.6c.6-.58,1.19-1.16,1.79-1.74,.3-.29-.13-.79-.43-.5-.6,.58-1.19,1.16-1.79,1.74-.3,.29,.13,.79,.43,.5Z"/><path class="d" d="M82.52,77.14c.32-.27-.11-.77-.43-.5-1.53,1.3-3.08,2.57-5.1,2.97-.42,.08-.3,.73,.12,.65,2.13-.42,3.79-1.74,5.41-3.12Z"/><path class="d" d="M82.39,79.13c.36-.21,.08-.81-.28-.59-1.37,.81-2.76,1.57-4.18,2.28-.38,.19-.1,.78,.28,.59,1.42-.71,2.81-1.47,4.18-2.28Z"/><path class="d" d="M82.68,81.44c.37-.2,.09-.8-.28-.59-.93,.51-1.89,.93-2.89,1.26-.4,.13-.11,.73,.28,.59,1-.33,1.96-.75,2.89-1.26Z"/><path class="d" d="M83.64,82.78c.3-.3-.13-.8-.43-.5-.67,.67-1.42,1.21-2.26,1.63-.38,.19-.1,.78,.28,.59,.9-.45,1.7-1.02,2.41-1.73Z"/><path class="d" d="M79.26,85.14c.36-.22,.08-.82-.28-.59-1.8,1.11-3.74,1.83-5.83,2.15-.42,.07-.3,.71,.12,.65,2.14-.34,4.15-1.07,6-2.21Z"/><path class="d" d="M78.17,83.2c-.92,.4-1.86,.74-2.82,1.02-.4,.12-.29,.77,.12,.65,1.02-.3,2.01-.66,2.99-1.08,.39-.17,.1-.76-.28-.59Z"/><path class="d" d="M76.94,82.5c.38-.19,.09-.79-.28-.59-1.8,.91-3.65,1.63-5.59,2.17-.41,.11-.29,.76,.12,.65,2-.55,3.91-1.29,5.76-2.22Z"/><path class="d" d="M74.58,80.79c-2.17,.86-4.43,1.34-6.75,1.46-.42,.02-.3,.67,.12,.65,2.39-.12,4.7-.63,6.92-1.51,.39-.16,.11-.75-.28-.59Z"/><path class="d" d="M73.35,84.83c-1.28,.49-2.6,.72-3.96,.71-.42,0-.48,.65-.05,.66,1.48,.02,2.91-.24,4.3-.77,.4-.15,.11-.75-.28-.59Z"/><path class="d" d="M68.91,63.01c-.22-.65-.19-1.33,.06-1.96,.16-.39-.46-.61-.62-.22-.32,.8-.32,1.65-.04,2.46,.14,.4,.73,.11,.59-.28Z"/><path class="d" d="M72.42,64.9c-.05-.43-.1-.86-.15-1.29-.05-.42-.7-.3-.65,.12l.16,1.29c.05,.42,.7,.3,.65-.12Z"/><path class="d" d="M70.58,87.3c-1.78,.39-3.57,.4-5.36,0-.41-.09-.63,.53-.22,.62,1.89,.42,3.79,.44,5.69,.03,.41-.09,.3-.74-.12-.65Z"/><path class="d" d="M69.3,83.95c-1.68,.27-3.36,.37-5.06,.45-.42,.02-.3,.67,.12,.65,1.69-.08,3.38-.17,5.06-.45,.42-.07,.3-.72-.12-.65Z"/><path class="d" d="M66.02,82.54c-1.87,.13-3.63,.09-5.45-.41-.41-.11-.63,.51-.22,.62,1.92,.53,3.81,.57,5.78,.44,.42-.03,.3-.68-.12-.65Z"/><path class="d" d="M66.39,85.8c-1.99,.17-3.95-.1-5.93-.29-.42-.04-.48,.62-.05,.66,2.05,.2,4.05,.47,6.1,.29,.42-.04,.3-.68-.12-.65Z"/><path class="d" d="M63.43,87.62c-1.96-.05-3.89-.29-5.8-.74-.41-.1-.63,.52-.22,.62,1.96,.46,3.95,.73,5.96,.78,.42,.01,.48-.65,.05-.66Z"/><path class="d" d="M61.45,83.62c-1.46,.11-2.88-.17-4.2-.78-.39-.18-.6,.44-.22,.62,1.43,.66,2.96,.92,4.53,.81,.42-.03,.3-.68-.12-.65Z"/><path class="d" d="M58.96,81.34c-1.4-.23-2.77-.57-4.11-1.02-.4-.13-.62,.49-.22,.62,1.4,.46,2.82,.82,4.27,1.06,.42,.07,.47-.59,.05-.66Z"/><path class="d" d="M59.58,85.87c-.52-.19-1.06-.31-1.61-.37-.42-.04-.48,.61-.05,.66,.5,.05,.98,.16,1.45,.33,.4,.14,.62-.48,.22-.62Z"/></g><path class="d" d="M18.6,2.7c-2.72-2.34-6.2-4.59-8.32-.17-2.72,5.68-1.17,13.27-.43,19.23,1.35,10.9,6.27,6.01,9.02,2.98,2.17-2.4,9.14-11.94,9.14-11.94,.89-1.2-7.17-8.08-7.98-8.83-.44-.4-.92-.84-1.42-1.27Z"/><path class="i" d="M12.42,10.09c.03-.82,.12-1.65,.47-2.39,.36-.74,1.03-1.36,1.84-1.45,.88-.1,1.7,.42,2.41,.93,1.71,1.23,3.34,2.59,4.85,4.05,.31,.3,.64,.69,.54,1.11-.04,.19-.17,.34-.29,.49-1.04,1.25-6.86,10.28-8.42,6.24-1.08-2.81-1.53-5.98-1.41-8.98Z"/><path class="d" d="M46.37,2.7c2.72-2.34,6.2-4.59,8.32-.17,2.72,5.68,1.17,13.27,.43,19.23-1.35,10.9-6.27,6.01-9.02,2.98-2.17-2.4-9.14-11.94-9.14-11.94-.89-1.2,7.17-8.08,7.98-8.83,.44-.4,.92-.84,1.42-1.27Z"/><path class="i" d="M52.56,10.09c-.03-.82-.12-1.65-.47-2.39-.36-.74-1.03-1.36-1.84-1.45-.88-.1-1.7,.42-2.41,.93-1.71,1.23-3.34,2.59-4.85,4.05-.31,.3-.64,.69-.54,1.11,.04,.19,.17,.34,.29,.49,1.04,1.25,6.86,10.28,8.42,6.24,1.08-2.81,1.53-5.98,1.41-8.98Z"/><path class="g" d="M11.4,109.05c.61,2.34,4.58,.28,5.75-.53,1.87-1.3,2.97-3.62,2.88-5.85-.11-2.63-3.61-2.14-5.01-.79-.79,.76-1.36,2.1-2.02,3.01-.85,1.16-1.99,2.62-1.59,4.16Z"/><path class="g" d="M47.94,109.05c-.61,2.34-4.58,.28-5.75-.53-1.87-1.3-2.97-3.62-2.88-5.85,.11-2.63,3.61-2.14,5.01-.79,.79,.76,1.36,2.1,2.02,3.01,.85,1.16,2,2.62,1.59,4.16Z"/><path class="d" d="M29.65,108.41c-11.24-.26-23.51-7.47-20.28-25.4,3.51-18.73,9.09-46.15,20.12-46.59,11.03,.45,17.05,28.34,20.12,46.59,2.29,17.93-8.72,25.15-19.96,25.4Z"/><path class="g" d="M29.37,89.74c-.29,.36-.6,.7-.92,1-.11-1.97-.91-4.11-.81-5.85-.51,2-.61,4.1-1.58,6.09-.92-1.18-.76-2.5-.83-3.92-1.13,1.23-.53,2.66-1.15,3.9-.05-.05-.1-.1-.15-.15,.06,1.07,.1,2.13,.14,3.2,.06,1.51,.12,3.02,.2,4.54,.14,2.48,.39,5.58-1.73,7.32-1.19,.97-2.21,.83-2.71,2.7-.44,1.64,.04,2.48,1.74,3.04,1.17,.39,3.43,.12,4.54-.14,2.35-.56,2.6-1.54,2.93-3.68,.49-3.2-.38-6.23-.23-9.45,.14-2.87,.37-5.74,.55-8.61Z"/><path class="g" d="M29.77,89.74c.29,.36,.6,.7,.92,1,.11-1.97,.91-4.11,.81-5.85,.51,2,.61,4.1,1.58,6.09,.93-1.18,.76-2.5,.83-3.92,1.13,1.23,.53,2.66,1.15,3.9,.05-.05,.1-.1,.15-.15-.06,1.07-.1,2.13-.14,3.2-.06,1.51-.12,3.02-.2,4.54-.14,2.48-.39,5.58,1.73,7.32,1.19,.97,2.21,.83,2.7,2.7,.44,1.64-.04,2.48-1.74,3.04-1.17,.39-3.43,.12-4.54-.14-2.35-.56-2.6-1.54-2.93-3.68-.49-3.2,.38-6.23,.23-9.45-.14-2.87-.37-5.74-.55-8.61Z"/><path class="h" d="M53.45,85.16c-3.5-2.73-7.33,4.14-8.62,6.41-1.64,2.88-5.03,5.35-2.97,9.17,.54,1,.47,1.26,1.86,1.33,3.62,.17,8.16-3.77,10.21-6.61,1.69-2.34,2.15-8.24-.49-10.3Z"/><path class="h" d="M7.61,86.21c3.5-2.73,7.33,4.14,8.62,6.41,1.64,2.88,5.02,5.35,2.97,9.16-.54,1-.47,1.26-1.86,1.33-3.63,.17-8.16-3.78-10.22-6.61-1.69-2.34-2.15-8.24,.49-10.3Z"/><path class="e" d="M58.71,39.88c2.5,13.55-13.05,16.14-29.14,16.14S-2.86,53.26,.42,39.88C3.89,25.76,13.47,12.01,29.57,12.01s26.41,13.02,29.14,27.88Z"/><path class="d" d="M58.71,39.88c2.5,13.55-13.05,16.14-29.14,16.14S-2.86,53.26,.42,39.88C3.89,25.76,13.47,12.01,29.57,12.01s26.41,13.02,29.14,27.88Z"/><path d="M29.57,39.94c2.05,0,5.53,0,6.14,1.16,0,2.86-3.14,2.3-4.16,3.43-1.02,1.14-.22,2.57-1.98,3.4-1.51-1.08-.96-2.26-1.98-3.4-1.03-1.14-3.43-.02-4.16-3.43,1.24-1.16,4.1-1.16,6.15-1.16Z"/><path class="f" d="M33.36,33.63c1.79,4.88,6.19,7.74,9.83,6.41,3.63-1.33,5.13-6.37,3.33-11.25-1.79-4.87-6.19-7.74-9.83-6.41-3.63,1.34-5.13,6.37-3.33,11.24Z"/><path class="f" d="M25.78,33.63c-1.79,4.88-6.19,7.74-9.83,6.41-3.63-1.33-5.13-6.37-3.33-11.25,1.79-4.87,6.19-7.74,9.83-6.41,3.63,1.34,5.13,6.37,3.33,11.24Z"/><g><path d="M25.12,30.94c0,2.39-1.93,4.32-4.32,4.32s-4.32-1.94-4.32-4.32,1.93-4.32,4.32-4.32,4.32,1.94,4.32,4.32Z"/><path class="f" d="M19.23,29.53c0,.46-.37,.83-.83,.83s-.83-.37-.83-.83,.37-.83,.83-.83,.83,.37,.83,.83Z"/></g><g><path d="M42.64,30.94c0,2.39-1.93,4.32-4.32,4.32s-4.32-1.94-4.32-4.32,1.93-4.32,4.32-4.32,4.32,1.94,4.32,4.32Z"/><path class="f" d="M36.75,29.53c0,.46-.37,.83-.83,.83s-.83-.37-.83-.83,.37-.83,.83-.83,.83,.37,.83,.83Z"/></g><path d="M29.43,51.15c-1.75,.06-3.32-.78-4.32-2.11-.01,.16-.01,.32,0,.48,.09,2.46,2.07,4.38,4.42,4.3,2.36-.08,4.2-2.14,4.11-4.6,0-.16-.02-.32-.04-.48-.9,1.4-2.42,2.35-4.16,2.41Z"/></g></g></g></svg>