<?xml version="1.0" encoding="UTF-8"?><svg xmlns="http://www.w3.org/2000/svg" viewBox="0 0 71.13 113.98"><defs><style>.d{fill:#f4a200;}.e{fill:#e8da31;}.f{fill:#fff;}.g{fill:#d13b5f;}.h{fill:#e29103;}.i{fill:#dd9007;}.j{fill:#a5203c;}.k{fill:#3c2415;}.l{fill:#59101c;}.m{fill:#770529;}.n{fill:#82af4e;}</style></defs><g id="a"/><g id="b"><g id="c"><path class="d" d="M46.09,108.88c.18,.67,.87,1.08,1.67,.73,.16-.06,.32-.16,.49-.3l.1-.09c.09-.08,.18-.17,.27-.27,.13-.15,.25-.32,.36-.5,.09-.13,.17-.27,.25-.42,.08-.14,.15-.27,.23-.41,.03-.07,.07-.13,.11-.19,.11-.19,.22-.38,.34-.56,.14-.21,.29-.4,.48-.58,.11-.11,.22-.21,.36-.29,.02,.1,.04,.21,.06,.31,.04,.21,.09,.42,.12,.63,.04,.19,.08,.38,.11,.56l.13,.62c.01,.06,.02,.13,.04,.19,.03,.14,.06,.28,.09,.42,.04,.19,.09,.39,.15,.58,.05,.2,.11,.4,.18,.6,.07,.2,.15,.4,.26,.59,.06,.12,.13,.25,.22,.37,.04,.06,.08,.12,.12,.18,.12,.16,.29,.31,.46,.43,.53,.37,1.22,.52,1.71,.12,.27-.22,.39-.53,.42-.87,.03-.22,.02-.45-.02-.67-.01-.11-.04-.23-.06-.33l-.06-.24c-.03-.11-.07-.22-.1-.33-.06-.19-.11-.38-.18-.57-.07-.19-.13-.37-.2-.56-.1-.29-.21-.57-.32-.85-.08-.19-.15-.38-.24-.56-.04-.12-.1-.24-.15-.36-.07-.18-.15-.36-.23-.53-.11-.23-.21-.47-.31-.7,.68,.22,1.38,.39,2.09,.53,.24,.04,.48,.09,.72,.12,.36,.06,.73,.1,1.09,.14,.23,.02,.45,.04,.68,.05,.2,0,.39,.02,.58,.02,.06,0,.11,0,.17,0,.17,0,.35,0,.53-.03,.28-.04,.55-.13,.74-.33,.34-.35,.3-.94,.02-1.34-.03-.05-.07-.1-.11-.14-.1-.12-.23-.21-.36-.29-.11-.07-.24-.13-.37-.17-.18-.07-.37-.12-.57-.14-.06-.01-.11-.02-.18-.02-.22-.02-.44-.05-.66-.07-.21-.02-.41-.04-.62-.07-.42-.05-.83-.12-1.22-.2-.21-.05-.42-.11-.61-.17-.35-.11-.68-.26-.98-.44-.17-.1-.33-.21-.48-.33-.28-.21-.53-.46-.76-.76-.04-.05-.08-.1-.12-.15-.07-.1-.14-.21-.21-.32h0c-.24-.4-.44-.82-.62-1.24-.07-.18-.15-.35-.21-.53-.14-.37-.27-.74-.4-1.12-.07-.2-.14-.39-.2-.59-.05-.13-.09-.26-.14-.39-.12-.35-.24-.7-.36-1.05-.06-.18-.12-.36-.18-.54-.13-.42-.26-.84-.39-1.26-.05-.19-.11-.38-.17-.58-.11-.39-.21-.78-.32-1.17-.05-.2-.1-.4-.15-.6-.1-.38-.18-.75-.27-1.13-.04-.19-.09-.38-.13-.58-.07-.32-.14-.65-.2-.97-.01-.04-.02-.08-.03-.12-.03-.15-.06-.31-.08-.46-.11-.59-.21-1.18-.29-1.78-.04-.24-.08-.49-.11-.72-.05-.38-.1-.76-.14-1.14,0,0,0-.02,0-.02-.03-.25-.03-.5-.04-.77,0-.49,.02-1-.03-1.48-.02-.21-.05-.41-.09-.6-.01-.06-.03-.12-.04-.17-.22-.73-.72-1.39-1.41-1.72-.69-.33-1.56-.29-2.16,.19-.69,.54-.91,1.52-.77,2.4,.05,.36,.16,.7,.29,1.04,.07,.18,.14,.35,.23,.53,.13,.29,.28,.58,.42,.88,.12,.23,.23,.47,.33,.7,.09,.18,.17,.35,.24,.53,.18,.39,.34,.78,.5,1.17,.07,.18,.15,.36,.22,.54,.19,.47,.36,.93,.53,1.41,.07,.19,.13,.38,.2,.56,.1,.27,.19,.54,.28,.81,.07,.19,.13,.37,.19,.56,.12,.36,.23,.71,.35,1.07,.06,.19,.12,.38,.18,.57,.15,.47,.3,.95,.44,1.42,.06,.18,.11,.36,.16,.55,.05,.15,.1,.3,.14,.45,.08,.26,.16,.53,.23,.79l.14,.5c.13,.47,.26,.95,.37,1.43,.05,.18,.09,.38,.13,.57,.07,.33,.13,.66,.17,.99,.03,.19,.06,.38,.08,.58,.05,.45,.07,.91,.06,1.37,0,.08,0,.18,0,.26,0,.1-.01,.2-.02,.3-.04,.52-.12,1.05-.28,1.55-.05,.19-.12,.38-.2,.56-.04,.1-.08,.21-.13,.31-.04,.08-.07,.15-.11,.22-.06,.1-.12,.21-.18,.3-.09,.13-.17,.26-.27,.38-.14,.17-.29,.33-.45,.48-.2,.21-.4,.41-.6,.61-.15,.15-.3,.3-.44,.47-.06,.06-.12,.13-.17,.2-.02,.02-.03,.04-.04,.07-.13,.16-.21,.32-.27,.49-.04,.09-.06,.18-.08,.27-.05,.23-.04,.45,.02,.65Z"/><path class="i" d="M43.7,83.78c.07,.18,.14,.35,.23,.53,.2-.07,.41-.13,.61-.21,.83-.31,2.27-.77,3.35-1.45-.02-.21-.05-.41-.09-.6-1.1,.77-2.88,1.3-3.69,1.59-.14,.05-.27,.09-.41,.14Z"/><path class="i" d="M44.69,85.89c.09,.18,.17,.35,.24,.53,1.13-.25,2.18-.75,3.03-1.51-.03-.25-.03-.5-.04-.77-.84,.92-1.99,1.5-3.23,1.76Z"/><path class="i" d="M45.43,87.58c.07,.18,.15,.36,.22,.54,.86-.29,1.84-.71,2.56-1.33-.04-.24-.08-.49-.11-.72-.67,.74-1.77,1.22-2.67,1.51Z"/><path class="i" d="M46.18,89.53c.07,.19,.13,.38,.2,.56,.21-.04,.41-.09,.61-.15,.51-.16,1.09-.43,1.62-.78-.01-.04-.02-.08-.03-.12-.03-.15-.06-.31-.08-.46-.71,.5-1.61,.82-2.32,.96Z"/><path class="i" d="M46.66,90.9c.07,.19,.13,.37,.19,.56,.25-.05,.51-.12,.79-.21,.46-.15,.9-.32,1.3-.54-.04-.19-.09-.38-.13-.58-.42,.24-.88,.41-1.35,.57-.29,.09-.55,.16-.8,.2Z"/><path class="i" d="M47.37,93.1c.7-.03,1.39-.25,1.98-.66-.05-.2-.1-.4-.15-.6-.59,.46-1.29,.69-2.01,.69,.06,.19,.12,.38,.18,.57Z"/><path class="i" d="M47.98,95.07c.49-.14,1.21-.46,1.86-.88-.05-.19-.11-.38-.17-.58-.63,.41-1.36,.74-1.86,.91,.06,.18,.11,.36,.16,.55Z"/><path class="i" d="M48.49,96.81c.68-.08,1.31-.37,1.91-.82-.06-.18-.12-.36-.18-.54-.23,.2-.49,.38-.77,.53-.39,.2-.75,.3-1.1,.33l.14,.5Z"/><path class="i" d="M49,98.8c.2-.01,.41-.04,.62-.09,.56-.13,1.06-.37,1.48-.69-.07-.2-.14-.39-.2-.59-.55,.46-1.25,.75-2.03,.8,.05,.18,.09,.38,.13,.57Z"/><path class="i" d="M49.25,100.37c.24-.02,.48-.05,.72-.1,.55-.11,1.19-.3,1.74-.6-.07-.18-.15-.35-.21-.53-.71,.41-1.62,.61-2.26,.65-.02,0-.05,0-.07,0,.03,.19,.06,.38,.08,.58Z"/><path class="i" d="M49.29,102.3c.43,.08,.88,.09,1.35,0,.74-.14,1.46-.46,2.03-.92-.04-.05-.08-.1-.12-.15-.07-.1-.14-.21-.21-.32h0c-.62,.53-1.45,.85-2.26,.89-.26,.01-.52,0-.77-.06,0,.08,0,.18,0,.26,0,.1-.01,.2-.02,.3Z"/><path class="i" d="M48.81,104.42c.54,.09,1.11,.1,1.71-.02,1.33-.26,2.44-1,3.38-1.92-.17-.1-.33-.21-.48-.33-.73,.7-1.57,1.27-2.56,1.57-.65,.2-1.26,.23-1.85,.14-.05,.19-.12,.38-.2,.56Z"/><path class="i" d="M48.39,105.25c1.02,.22,2.08,.25,3.12,.03,1.25-.26,3.04-1.03,3.99-2.2-.21-.05-.42-.11-.61-.17-1.06,1.15-3.09,1.83-4.35,1.92-.63,.05-1.26,0-1.86-.11-.04,.08-.07,.15-.11,.22-.06,.1-.12,.21-.18,.3Z"/><path class="i" d="M55.04,105.55c.24,.04,.48,.09,.72,.12,.67-.69,1.22-1.48,1.58-2.31-.21-.02-.41-.04-.62-.07-.38,.82-.98,1.6-1.69,2.27Z"/><path class="i" d="M51.16,108.12c.15-.01,.3-.03,.45-.06,.76-.14,1.53-.46,2.26-.89-.08-.19-.15-.38-.24-.56-.83,.5-1.72,.83-2.6,.89l.13,.62Z"/><path class="i" d="M46.63,107.2c.85,.38,1.72,.68,2.6,.85,.08-.14,.15-.27,.23-.41,.03-.07,.07-.13,.11-.19-.84-.13-1.68-.38-2.49-.71-.15,.15-.3,.3-.44,.47Z"/><path class="i" d="M56.85,105.81c.23,.02,.45,.04,.68,.05,.5-.7,.9-1.47,1.21-2.27-.18-.07-.37-.12-.57-.14-.32,.84-.77,1.65-1.32,2.36Z"/><path class="i" d="M51.43,109.32c.43-.02,.85-.07,1.28-.16,.59-.12,1.15-.32,1.68-.58-.07-.19-.13-.37-.2-.56-.75,.38-1.58,.62-2.47,.69-.15,.01-.29,.02-.44,.02,.04,.19,.09,.39,.15,.58Z"/><path class="i" d="M58.12,105.88c.06,0,.11,0,.17,0,.17,0,.35,0,.53-.03,.31-.53,.57-1.09,.76-1.67-.03-.05-.07-.1-.11-.14-.1-.12-.23-.21-.36-.29-.23,.74-.56,1.46-.99,2.12Z"/><path class="i" d="M51.61,109.91c.07,.2,.15,.4,.26,.59,.51-.01,1.01-.08,1.51-.23,.46-.14,.91-.32,1.35-.55l-.06-.24c-.03-.11-.07-.22-.1-.33-.44,.24-.9,.42-1.37,.57-.51,.15-1.04,.21-1.59,.2Z"/><path class="i" d="M46.14,107.95c.8,.41,1.62,.75,2.47,1,.13-.15,.25-.32,.36-.5-.88-.22-1.74-.57-2.56-.99-.13,.16-.21,.32-.27,.49Z"/><path class="i" d="M46.09,108.88c.53,.28,1.09,.52,1.67,.73,.16-.06,.32-.16,.49-.3l.1-.09c-.35-.13-.69-.26-1.02-.39-.43-.18-.86-.39-1.26-.61-.05,.23-.04,.45,.02,.65Z"/><path class="i" d="M50.92,106.94c.88-.04,1.74-.34,2.56-.69-.07-.18-.15-.36-.23-.53-.83,.35-1.63,.58-2.46,.59,.04,.21,.09,.42,.12,.63Z"/><path class="i" d="M47.67,106.11c.7,.32,1.42,.59,2.14,.75,.03,0,.06,.01,.09,.01,.14-.21,.29-.4,.48-.58-.42-.03-.85-.12-1.3-.29-.32-.12-.64-.24-.96-.38-.14,.17-.29,.33-.45,.48Z"/><path class="i" d="M52.08,110.86c.04,.06,.08,.12,.12,.18,.12,.16,.29,.31,.46,.43,.24-.02,.47-.07,.7-.13,.49-.14,.97-.37,1.43-.62,.03-.22,.02-.45-.02-.67-.89,.46-1.73,.79-2.7,.81Z"/><path class="l" d="M49.05,87.26c-.26,.85-.68,1.82-1.62,2.16-.73,.27-1.52,.04-2.18-.25-1.34-.58-2.51-1.42-3.42-2.44-.61-.68-1.11-1.45-1.29-2.32s0-1.86,.64-2.62c.58-.7,1.47-1.15,2.35-1.53,1.2-.52,2.88-1.33,4.19-1.39,1.19-.06,1.9,1.05,2.27,1.93,.77,1.81-.37,4.59-.95,6.47Z"/><path class="n" d="M23.36,54.86c.89-.38,1.78-.76,2.56-1.3,1.14-.79,2.14-1.88,2.55-3.21,.17-.53,.23-1.13-.02-1.62s-.91-.8-1.39-.53c.14-.56,.4-1.09,.55-1.64,.15-.56,.19-1.19-.11-1.68-.3-.49-1.03-.75-1.49-.4,.16-.45,.28-.93,.24-1.41-.05-.48-.29-.96-.7-1.2-.72-.42-1.65,0-2.31,.51,.09-.67-.11-1.37-.54-1.89-.14-.17-.32-.33-.53-.38-.36-.08-.71,.16-.96,.42-.3,.3-.56,.65-.76,1.04-.09-.72-.53-1.43-1.2-1.72-.21-.09-.43-.14-.65-.09-.54,.12-.74,.78-.85,1.32-.18-.51-.49-.97-.88-1.35-.26-.25-.59-.47-.95-.44-.37,.03-.67,.32-.83,.65s-.19,.71-.22,1.08c-.24-.66-.69-1.24-1.27-1.64-.49-.34-1.21-.52-1.64-.11-.18,.17-.27,.42-.32,.66-.13,.53-.14,1.09-.04,1.63-.26-.36-.54-.72-.91-.97s-.87-.35-1.27-.15c-.39,.2-.6,.64-.63,1.07s.08,.86,.2,1.28c-.35-.38-.76-.74-1.25-.91-.49-.17-1.08-.14-1.49,.19-.4,.33-.55,.89-.49,1.4,.05,.51,.28,.99,.53,1.44-.4-.16-.87-.39-1.3-.41s-.89,.15-1.12,.52c-.3,.5,.03,1.26,.61,1.37-.79-.01-1.72-.42-2.3,.12-.35,.33-.37,.9-.19,1.35,.19,.44,.54,.79,.89,1.13-.69-.22-1.53,.21-1.73,.91s.25,1.52,.95,1.71c-.56-.13-1.21-.25-1.65,.11-.46,.37-.45,1.11-.15,1.61,.3,.51,.82,.84,1.31,1.15-.42-.12-.91-.13-1.26,.14-.45,.36-.44,1.1-.13,1.59s.84,.79,1.35,1.08c-.55-.08-1.24,.04-1.41,.57-.07,.2-.03,.43,.04,.63,.37,1.05,1.56,1.54,2.63,1.85,1.44,.42,2.89,.77,4.37,1.04,2.67,.49,5.22-.31,7.54-1.59,2.41-1.33,4.63-2.99,7.09-4.24,.5-.25,1.02-.47,1.54-.7Z"/><path class="e" d="M26.78,49.03c-.49-.74-1.84-.83-2.18,0,.31-.97,.46-1.99,.44-3-.01-.68-.18-1.48-.79-1.78-.51-.26-1.15-.06-1.57,.33-.42,.38-.66,.91-.9,1.43-.05-.72-.1-1.46-.44-2.1-.23-.43-.81-1-1.33-1.04-.82-.07-.96,1.49-1.01,2.08-.14-.88-.28-1.29-.59-1.75-.19-.29-.42-.58-.7-.79-.19-.14-.42-.25-.65-.25-.28,0-.55,.14-.73,.36-.38,.46-.38,.99-.37,1.55,0,.17,.02,.34,.09,.77-.47-.94-1.01-1.51-1.77-1.66-.77-.15-1.2,.2-1.61,.87-.4,.67-.23,1.54,0,2.29-.56-.62-1.14-1.26-1.91-1.59-.76-.34-1.76-.29-2.32,.34-.48,.55-.49,1.38-.22,2.06,.27,.67,.77,1.22,1.26,1.76-.5-.39-1.02-.79-1.63-.99s-1.33-.17-1.81,.25c-.7,.6-.63,1.74-.22,2.57,.41,.83,1.09,1.51,1.49,2.35-.78-.48-1.43-1.5-2.32-1.29-.42,.1-.73,.48-.92,.87-.7,1.49,.12,3.5,1.67,4.08-.47,.12-.91-.29-1.4-.33-.66-.06-1.22,.62-1.22,1.28,0,.67,.42,1.26,.93,1.7,.87,.74,1.98,1.13,3.06,1.49,2.12,.71,4.36,1.44,6.55,1,3.49-.69,5.99-3.87,8.72-5.91,1.72-1.29,6.1-4.36,4.39-6.92Z"/><g><path class="d" d="M60.24,2.3c.4-.38,.97,.52,.57,.9-1.64,1.56-1.13,6.06-.44,8.46,.19,.67-.56,1.01-.75,.34-.84-2.95-1.34-7.84,.61-9.7Z"/><path class="d" d="M57.49,2.09c.08-.65,.93-.43,.85,.22-.39,3.22,.31,6.5,1.08,9.79,.16,.69-.67,.75-.82,.06-.8-3.4-1.51-6.77-1.11-10.08Z"/><path class="d" d="M56.2,1.87c.57,3.54,1.31,7.06,2.24,10.55,.18,.68-.65,.74-.82,.06-.93-3.5-1.67-7.01-2.24-10.55-.11-.69,.71-.76,.82-.06Z"/><path class="d" d="M50.02,5.15c-.55-.15-.58,.9-.03,1.05,2.24,.6,4.13,4.76,4.78,7.18,.18,.67,1.01,.63,.83-.05-.8-2.96-2.9-7.46-5.57-8.18Z"/><path class="d" d="M52.3,3.58c-.41-.53-1.03,.05-.62,.59,2.01,2.62,3.1,5.81,4.14,9.04,.22,.67,.97,.34,.75-.33-1.07-3.33-2.19-6.6-4.27-9.3Z"/><path class="d" d="M53.27,2.66c1.35,3.35,2.52,6.76,3.52,10.24,.2,.68,.95,.35,.75-.32-1-3.48-2.18-6.88-3.52-10.24-.26-.65-1.02-.33-.75,.33Z"/></g><path class="e" d="M59.42,3.17c.26,.83,1.15,1.29,1.98,1.03,.83-.26,1.29-1.15,1.03-1.98-.26-.83-1.15-1.29-1.98-1.03s-1.29,1.15-1.03,1.98Z"/><path class="n" d="M56.95,2.05c.26,.83,1.15,1.29,1.98,1.03,.83-.26,1.29-1.15,1.03-1.98s-1.15-1.29-1.98-1.03c-.83,.26-1.29,1.15-1.03,1.98Z"/><path class="e" d="M54.27,2.09c.26,.83,1.15,1.29,1.98,1.03,.83-.26,1.29-1.15,1.03-1.98-.26-.83-1.15-1.29-1.98-1.03-.83,.26-1.29,1.15-1.03,1.98Z"/><path class="n" d="M51.76,2.89c.26,.83,1.15,1.29,1.98,1.03,.83-.26,1.29-1.15,1.03-1.98-.26-.83-1.15-1.29-1.98-1.03-.83,.26-1.29,1.15-1.03,1.98Z"/><path class="e" d="M49.98,4.18c.26,.83,1.15,1.29,1.98,1.03,.83-.26,1.29-1.15,1.03-1.98-.26-.83-1.15-1.29-1.98-1.03-.83,.26-1.29,1.15-1.03,1.98Z"/><path class="n" d="M48.48,5.98c.26,.83,1.15,1.29,1.98,1.03,.83-.26,1.29-1.15,1.03-1.98s-1.15-1.29-1.98-1.03c-.83,.26-1.29,1.15-1.03,1.98Z"/><path class="j" d="M52.56,6.48c.18,.85-.37,1.69-1.22,1.86-.85,.18-1.69-.37-1.86-1.22-.18-.85,.37-1.69,1.22-1.86,.85-.18,1.69,.37,1.86,1.22Z"/><path class="g" d="M53.77,4.59c.18,.85-.37,1.69-1.22,1.86-.85,.18-1.69-.37-1.86-1.22-.18-.85,.37-1.69,1.22-1.86,.85-.18,1.69,.37,1.86,1.22Z"/><path class="j" d="M55.52,3.69c.18,.85-.37,1.69-1.22,1.86-.85,.18-1.69-.37-1.86-1.22-.18-.85,.37-1.69,1.22-1.86,.85-.18,1.69,.37,1.86,1.22Z"/><path class="g" d="M58.11,3.16c.18,.85-.37,1.69-1.22,1.86-.85,.18-1.69-.37-1.86-1.22-.18-.85,.37-1.69,1.22-1.86,.85-.18,1.69,.37,1.86,1.22Z"/><path class="j" d="M60.28,3.41c.18,.85-.37,1.69-1.22,1.86-.85,.18-1.69-.37-1.86-1.22-.18-.85,.37-1.69,1.22-1.86,.85-.18,1.69,.37,1.86,1.22Z"/><path class="g" d="M62.47,4.25c.18,.85-.37,1.69-1.22,1.86-.85,.18-1.69-.37-1.86-1.22-.18-.85,.37-1.69,1.22-1.86,.85-.18,1.69,.37,1.86,1.22Z"/><path class="g" d="M8.11,55.12c.09-.34,.26-.69,.56-.87,.53-.31,1.22,.03,1.62,.5s.66,1.05,1.14,1.44c-1.05-1.41-1.57-3.21-1.41-4.96,.03-.3,.1-.64,.35-.8,.26-.16,.59-.07,.86,.04,.85,.36,1.59,.99,2.08,1.77-.45-.82-.81-1.69-1.08-2.59-.13-.42-.23-.87-.15-1.3,.08-.43,.4-.85,.83-.92,.32-.05,.64,.09,.92,.26,.76,.47,1.34,1.22,1.61,2.06-.14-.93-.06-1.89,.23-2.78,.09-.27,.22-.57,.48-.67,.37-.15,.76,.15,1.01,.46,.59,.73,.95,1.65,1.01,2.59,.09-.56,.19-1.11,.29-1.67,.1-.56,.51-1.17,1.08-1.12,.53,.04,.84,.62,.98,1.14,.22,.76,.31,1.54,.29,2.33,.27-.43,.4-.81,.62-1.21,.23-.39,.7-.73,1.12-.54,.44,.2,.46,.81,.43,1.3-.1,1.35-.2,3.09,.63,4.26,.82,1.15,2.91,1.55,4.19,1.89,1.8,.47,3.68,.7,5.54,.52,5.09-.48,11.91-4.26,14.86-8.45,2.59-3.67,2.83-8.49,2.42-12.96-.45-4.87-1.48-9.73-.7-14.62,.62-3.91,2.74-8.83,6.68-10.35,3.93-1.51,8.85,.42,11.04,3.91,2.47,3.94,1.76,9.44-1.27,12.97-.79,.93-1.81,1.77-3.02,1.91-.78,.09-1.6-.12-2.35,.12-1.61,.49-2,2.56-2,4.24,0,2.58,.25,5.15,.75,7.68,2.64,13.26,6.69,31.62-5.73,41.34-4.3,3.37-9.68,5.17-15.09,5.89-7.43,1-16.24-.02-21.7-5.69-2.55-2.65-3.36-5.69-4.31-9.14-1.23-4.47-2.27-9.03-4-13.33-.6-1.48-1.23-3.09-.81-4.64Z"/><path class="d" d="M62.94,23.17c.02,.23,.05,.45,.09,.67,.2,.9,.7,1.72,1.51,2.21,.82,.5,1.81,.6,2.76,.8,.47,.09,.95,.23,1.39,.43h0c.3,.14,.57,.32,.81,.55,.11,.09,.21,.21,.29,.33,.32,.45,.46,1.01,.6,1.54,.51-1.43,.76-2.95,.73-4.47-.02-.89-.13-1.79-.45-2.61-.44-1.13-1.31-2.09-2.37-2.67-1.48-.81-3.76-.81-4.75,.76-.46,.72-.66,1.6-.61,2.47Z"/><path class="h" d="M65.62,20.57c.02-.15,.13-.21,.25-.2,.02,0,.04,0,.06,0,.31,.02,.54,.18,.71,.43,.15,.23,.26,.58-.04,.74-.24,.13-.56,0-.74-.18-.22-.21-.28-.49-.24-.79Z"/><path class="h" d="M62.94,23.17c.02,.23,.05,.45,.09,.67,.84,.32,1.76,.38,2.67,.6,1.58,.38,2.45,1.5,2.99,2.84h0c.3,.14,.57,.32,.81,.55-.38-1.27-.96-2.48-2.07-3.27-1.34-.95-3.08-.69-4.49-1.39Z"/><ellipse class="k" cx="61.59" cy="16.77" rx="1.52" ry="2.25"/><path class="f" d="M61.71,15.93c0,.25,.2,.46,.46,.46s.46-.2,.46-.46-.2-.46-.46-.46-.46,.2-.46,.46Z"/><path class="k" d="M64.59,16.24c0,1.16,.64,2.1,1.42,2.1s1.42-.94,1.42-2.1-.64-2.1-1.42-2.1-1.42,.94-1.42,2.1Z"/><path class="f" d="M66.12,15.46c0,.23,.19,.42,.42,.42s.42-.19,.42-.42-.19-.42-.42-.42-.42,.19-.42,.42Z"/><path class="m" d="M54.75,59.85c.17,.7,.15,1.44,.07,2.18-.11,1.11-.16,2.2-.34,3.31-.23,1.37-.56,2.71-.97,4.04-.42,1.39-.96,2.83-2.12,3.71-.42,.32-.93,.56-1.46,.5-.52-.06-1.02-.49-1.02-1.02-.34,1.33-1.22,2.51-2.39,3.22-.16,.1-.33,.19-.51,.19-.43,0-.72-.43-.92-.82-.42,.75-.92,1.44-1.5,2.07-.32,.35-.67,.68-1.1,.86-.43,.18-.97,.19-1.34-.09-.65-.48-.56-1.46-.85-2.22-.4,.91-.94,1.66-1.55,2.44-.26,.33-.55,.66-.93,.85-.38,.19-.87,.21-1.2-.04-.41-.31-.46-.9-.47-1.42-.41,.86-1.05,1.61-1.85,2.13-.64,.42-1.5,.7-2.16,.31-.78-.45-.86-1.54-.73-2.43-.36,.67-.85,1.27-1.44,1.74-.56,.45-1.34,.79-1.99,.47-.45-.22-.7-.72-.77-1.21-.06-.49,.03-.99,.13-1.48-.69,.52-1.41,.83-2.17,1.25-.36,.2-.8,.39-1.17,.22-.3-.13-.46-.46-.55-.77-.12-.43-.13-.89-.03-1.32-.49,.4-1,.8-1.6,1-.6,.2-1.31,.17-1.8-.24-.77-.63-.66-1.87-.16-2.74-.89,.44-1.97,.87-2.84,.39-.4-.22-.68-.61-.87-1.03-.38-.87-.34-1.92,.12-2.76,.03-.05-.12,.04-.17,.06-.52,.18-1.21,.32-1.54-.13-.27-.38-.07-.91,.18-1.3,1.65-2.61,4.69-3.88,7.33-5.21,3.37-1.7,6.77-3.2,10.3-4.54,.57-.22,1.13-.43,1.7-.64,4.82-1.81,9.62-3.36,14.83-2.95,1.92,.15,4.26,.55,5.37,2.31,.22,.35,.37,.72,.46,1.11Z"/><path class="j" d="M42.77,51.01c-2.44,.67-4.85,1.84-7.04,2.91-3.03,1.47-5.89,3.28-8.63,5.24-2.2,1.57-4.34,3.26-6.23,5.21-1.37,1.41-3.98,4.19-2.54,6.4,.58,.9,1.88,.98,2.91,.71,1.03-.28,2.25-.58,3.08-.83-1.06,.62-1.05,1.87-.91,2.3,.63,1.96,3.09,.86,4.21,.19,.77-.46,1.61-.98,2.3-1.39-.54,.68-1.26,3.32-.06,3.77,.75,.28,2.35-.69,2.95-1.06,1.18-.73,2.17-1.77,2.82-3.01-.47,.89-.25,3.2,.9,3.41,2.04,.38,4.7-2.72,5.45-4.26-.2,.42-.2,2.44,.13,2.84,1.08,1.33,3.21-.63,3.88-1.47,.9-1.12,1.65-2.36,2.23-3.67-.44,1.21,.68,2.69,1.96,2.59,.63-.05,1.21-.4,1.69-.81,2.19-1.86,3.01-4.89,3.23-7.76,.16-2,.07-4.04-.55-5.94-1.42-4.31-5.2-6.44-9.65-5.82-.71,.1-1.43,.25-2.14,.45Z"/><path class="l" d="M58.45,39.56c-.04-.37,.54-.37,.58,0,.06,.53,.07,1.06,.04,1.59-.02,.37-.6,.37-.58,0,.03-.53,.02-1.06-.04-1.59Z"/><path class="l" d="M58.93,42.52v1.73c0,.37-.58,.37-.58,0v-1.73c0-.37,.58-.37,.58,0Z"/><path class="l" d="M58.86,45.7v1.37c0,.37-.58,.37-.58,0v-1.37c0-.37,.58-.37,.58,0Z"/><path class="l" d="M58,48.59c.02-.37,.6-.37,.58,0l-.1,2.02c-.02,.37-.6,.37-.58,0l.1-2.02Z"/><path class="l" d="M57.83,52.06c.02-.37,.59-.37,.58,0-.03,.63-.08,1.25-.15,1.87-.04,.37-.62,.37-.58,0,.07-.62,.12-1.25,.15-1.87Z"/><path class="l" d="M58.06,55.74v1.52c0,.37-.58,.37-.58,0v-1.52c0-.37,.58-.37,.58,0Z"/><path class="l" d="M57.42,58.84c.04-.37,.62-.37,.58,0l-.17,1.66c-.04,.37-.62,.37-.58,0l.17-1.66Z"/><path class="l" d="M57.7,62.38c-.01,.63,.01,1.25,.08,1.88,.04,.37-.54,.37-.58,0-.07-.62-.1-1.25-.08-1.88,0-.37,.59-.37,.58,0Z"/><path class="l" d="M57.63,65.85v1.59c0,.37-.58,.37-.58,0v-1.59c0-.37,.58-.37,.58,0Z"/><path class="l" d="M57.55,69.31c0,.51,.05,1.01,.16,1.51,.08,.36-.48,.52-.56,.15-.12-.55-.18-1.1-.18-1.66,0-.37,.58-.37,.58,0Z"/><path class="l" d="M57.77,72.56c.08,.67,.15,1.35,.23,2.02,.04,.37-.54,.37-.58,0-.08-.67-.15-1.35-.23-2.02-.04-.37,.54-.37,.58,0Z"/><path class="l" d="M58.06,75.67c.03,.26,.06,.53,.09,.79,.04,.37-.54,.37-.58,0-.03-.26-.06-.53-.09-.79-.04-.37,.54-.37,.58,0Z"/><path class="l" d="M59.94,44.18v1.88c0,.37-.58,.37-.58,0v-1.88c0-.37,.58-.37,.58,0Z"/><path class="l" d="M59.94,47.72v1.95c0,.37-.58,.37-.58,0v-1.95c0-.37,.58-.37,.58,0Z"/><path class="l" d="M59.87,51.19v1.81c0,.37-.58,.37-.58,0v-1.81c0-.37,.58-.37,.58,0Z"/><path class="l" d="M59.56,54.58c.02,.91,.05,1.83,.08,2.74,.01,.37-.57,.37-.58,0-.03-.91-.05-1.83-.08-2.74-.01-.37,.57-.37,.58,0Z"/><path class="l" d="M59.49,58.7c.03,.58,.06,1.15,.09,1.73,.02,.37-.56,.37-.58,0l-.09-1.73c-.02-.37,.56-.37,.58,0Z"/><path class="l" d="M59.29,61.8v2.67c0,.37-.58,.37-.58,0v-2.67c0-.37,.58-.37,.58,0Z"/><path class="l" d="M59.29,65.77v1.59c0,.37-.58,.37-.58,0v-1.59c0-.37,.58-.37,.58,0Z"/><path class="l" d="M59.28,69.1c.03,.58,.06,1.15,.09,1.73,.02,.37-.56,.37-.58,0-.03-.58-.06-1.15-.09-1.73-.02-.37,.56-.37,.58,0Z"/><path class="l" d="M59.36,73.28v1.44c0,.37-.58,.37-.58,0v-1.44c0-.37,.58-.37,.58,0Z"/><path class="l" d="M59.97,70.47c.07-.37,.62-.21,.56,.15-.13,.7-.26,1.39-.38,2.09-.07,.37-.62,.21-.56-.15,.13-.7,.26-1.39,.38-2.09Z"/><path class="l" d="M60.27,66.42c-.05-.36,.5-.52,.56-.15,.15,1.02,.13,2.02-.07,3.04-.07,.36-.63,.21-.56-.15,.18-.9,.2-1.82,.07-2.73Z"/><path class="l" d="M61.57,64.11c.08-.36,.63-.21,.56,.15-.14,.66-.22,1.33-.25,2.01-.01,.37-.59,.37-.58,0,.03-.73,.12-1.45,.27-2.16Z"/><path class="l" d="M60.95,62.38v2.53c0,.37-.58,.37-.58,0v-2.53c0-.37,.58-.37,.58,0Z"/><path class="l" d="M62.18,60.21v2.17c0,.37-.58,.37-.58,0v-2.17c0-.37,.58-.37,.58,0Z"/><path class="l" d="M61.54,56.82c.03-.37,.6-.37,.58,0-.03,.46-.02,.91,.04,1.37,.05,.36-.5,.52-.56,.15-.07-.51-.1-1.01-.06-1.52Z"/><path class="l" d="M61.47,52.64c.21,.9,.36,1.81,.45,2.73,.04,.37-.54,.37-.58,0-.09-.87-.23-1.73-.43-2.58-.08-.36,.47-.52,.56-.15Z"/><path class="l" d="M61.16,49.74c.16,.57,.24,1.15,.23,1.74,0,.37-.58,.37-.58,0,0-.54-.06-1.06-.21-1.58-.1-.36,.45-.51,.56-.15Z"/><path class="l" d="M60.88,53.93v2.96c0,.37-.58,.37-.58,0v-2.96c0-.37,.58-.37,.58,0Z"/><path class="l" d="M61.02,58.48v2.46c0,.37-.58,.37-.58,0v-2.46c0-.37,.58-.37,.58,0Z"/><path class="l" d="M60.88,48.01v.58c0,.37-.58,.37-.58,0v-.58c0-.37,.58-.37,.58,0Z"/><path class="l" d="M56.05,67.29c0-.37,.59-.37,.58,0-.02,.95-.12,1.88-.27,2.82-.06,.37-.62,.21-.56-.15,.15-.88,.23-1.77,.25-2.66Z"/><path class="l" d="M55.75,71.55c.03-.37,.61-.37,.58,0-.05,.7-.11,1.39-.16,2.09-.03,.37-.61,.37-.58,0,.05-.7,.11-1.39,.16-2.09Z"/><path class="l" d="M55.5,75.16c.05-.37,.61-.21,.56,.15-.11,.82-.22,1.63-.33,2.45-.05,.37-.61,.21-.56-.15,.11-.82,.22-1.63,.33-2.45Z"/><path class="l" d="M54.27,80.06c.29-.39,.47-.82,.56-1.3,.06-.37,.62-.21,.56,.15-.09,.52-.3,1.01-.61,1.43-.22,.3-.72,0-.5-.29Z"/><path class="l" d="M56.46,74.58c-.03-.37,.55-.37,.58,0,.08,1.04,.02,2.07-.14,3.11-.06,.37-.62,.21-.56-.15,.16-.98,.19-1.96,.12-2.95Z"/><path class="l" d="M56.04,65.77c.17-.69,.27-1.38,.3-2.09,.01-.37,.59-.37,.58,0-.03,.76-.13,1.5-.32,2.24-.09,.36-.65,.21-.56-.15Z"/><path class="d" d="M29.92,108.78c-.03,.69,.5,1.29,1.36,1.21,.17-.01,.36-.06,.56-.13l.12-.05c.12-.05,.23-.11,.33-.17,.17-.1,.34-.23,.5-.36,.13-.1,.25-.21,.37-.32,.12-.11,.23-.21,.34-.32,.05-.05,.11-.1,.16-.15,.16-.15,.32-.29,.5-.43,.2-.16,.4-.29,.63-.4,.14-.07,.28-.13,.43-.17l-.03,.31c-.02,.21-.05,.43-.08,.64-.02,.19-.04,.38-.06,.57l-.07,.62c0,.06-.02,.13-.02,.19-.02,.14-.03,.28-.05,.43-.02,.2-.03,.4-.04,.6-.02,.21-.02,.42-.01,.62,0,.21,.02,.43,.06,.64,.02,.14,.05,.28,.1,.42,.02,.07,.04,.14,.06,.21,.07,.19,.18,.38,.31,.55,.39,.52,1.01,.87,1.59,.64,.32-.13,.53-.39,.67-.7,.1-.2,.16-.42,.19-.65,.02-.11,.03-.23,.05-.34l.02-.24c0-.12,0-.23,0-.35,0-.2,.01-.4,0-.59,0-.2,0-.39-.02-.59-.01-.31-.03-.61-.05-.91-.02-.2-.03-.4-.05-.61,0-.13-.02-.26-.03-.39-.01-.19-.03-.39-.05-.58-.03-.25-.05-.51-.08-.76,.58,.42,1.2,.8,1.83,1.14,.21,.12,.43,.23,.65,.34,.33,.17,.66,.32,1,.47,.21,.09,.42,.17,.64,.25,.18,.07,.36,.14,.55,.2,.05,.02,.1,.04,.16,.06,.16,.05,.34,.11,.51,.14,.28,.05,.56,.05,.8-.09,.43-.23,.57-.8,.43-1.27-.01-.06-.03-.12-.06-.17-.06-.14-.15-.27-.25-.39-.09-.1-.19-.2-.3-.27-.15-.12-.32-.23-.5-.31-.05-.03-.1-.05-.16-.08-.2-.09-.4-.18-.61-.27-.19-.09-.38-.17-.57-.26-.38-.18-.75-.36-1.1-.57-.18-.12-.36-.23-.53-.35-.29-.21-.57-.45-.8-.72-.13-.14-.25-.3-.36-.46-.2-.28-.36-.6-.49-.96-.02-.06-.05-.12-.06-.18-.03-.12-.07-.24-.1-.37h0c-.11-.46-.17-.91-.21-1.37-.02-.19-.03-.38-.04-.57-.02-.39-.03-.79-.03-1.18,0-.21-.01-.42-.01-.62,0-.14,0-.28-.01-.42-.01-.37-.02-.74-.02-1.11,0-.19,0-.38,0-.57,0-.44,0-.88,.02-1.32,0-.2,.01-.4,.02-.6,.02-.4,.03-.81,.06-1.21,.01-.21,.02-.41,.04-.62,.02-.39,.06-.77,.09-1.16,.02-.2,.03-.39,.06-.59,.03-.33,.07-.66,.11-.99,0-.04,0-.09,.01-.13,.02-.16,.04-.31,.06-.47,.08-.6,.16-1.19,.27-1.78,.03-.24,.08-.49,.12-.72,.07-.38,.14-.76,.21-1.13,0,0,0-.02,0-.02,.05-.24,.12-.49,.2-.75,.15-.47,.32-.95,.43-1.42,.05-.2,.08-.4,.1-.6,0-.06,.01-.12,.01-.18,.01-.76-.26-1.55-.81-2.07-.55-.52-1.4-.75-2.11-.49-.83,.31-1.33,1.17-1.47,2.05-.06,.36-.06,.72-.04,1.08,.01,.19,.03,.38,.06,.58,.03,.32,.09,.64,.13,.96,.04,.25,.08,.51,.1,.77,.03,.2,.05,.39,.07,.58,.05,.42,.09,.84,.12,1.27,.02,.19,.03,.39,.04,.58,.03,.5,.06,1,.08,1.5,0,.2,.01,.4,.02,.59,.01,.29,.02,.57,.02,.86,0,.2,0,.39,0,.59,0,.38,0,.75,0,1.12,0,.2,0,.4,0,.59,0,.5,0,.99-.02,1.49,0,.19,0,.38-.01,.57,0,.16,0,.32,0,.47,0,.27-.01,.55-.02,.82l-.02,.52c-.02,.49-.04,.98-.08,1.47-.01,.19-.03,.39-.05,.58-.03,.33-.08,.67-.14,1-.03,.19-.06,.38-.1,.57-.09,.44-.21,.89-.36,1.32-.02,.08-.05,.17-.08,.25-.03,.1-.08,.19-.11,.28-.2,.49-.44,.96-.74,1.39-.11,.16-.23,.32-.36,.47-.07,.09-.14,.17-.22,.25-.06,.06-.12,.12-.17,.18-.09,.08-.17,.16-.27,.23-.12,.1-.24,.19-.38,.28-.18,.12-.38,.23-.57,.32-.25,.14-.51,.27-.76,.4-.19,.09-.38,.2-.56,.31-.08,.04-.15,.09-.23,.14-.02,.02-.04,.03-.06,.05-.17,.11-.3,.24-.41,.38-.06,.08-.11,.15-.16,.23-.12,.21-.17,.42-.18,.63Z"/><path class="i" d="M35.35,84.16c.01,.19,.03,.38,.06,.58,.21,0,.43,0,.64-.01,.88-.04,2.39-.03,3.63-.35,.05-.2,.08-.4,.1-.6-1.28,.39-3.14,.36-4,.38-.14,0-.28,0-.43,0Z"/><path class="i" d="M35.64,86.47c.03,.2,.05,.39,.07,.58,1.15,.11,2.3-.05,3.34-.51,.05-.24,.12-.49,.2-.75-1.09,.62-2.36,.81-3.61,.68Z"/><path class="i" d="M35.83,88.31c.02,.19,.03,.39,.04,.58,.91-.01,1.96-.11,2.84-.48,.03-.24,.08-.49,.12-.72-.86,.5-2.06,.62-3,.62Z"/><path class="i" d="M35.94,90.39c0,.2,.01,.4,.02,.59,.21,.03,.42,.04,.63,.04,.54,0,1.17-.08,1.78-.24,0-.04,0-.09,.01-.13,.02-.16,.04-.31,.06-.47-.83,.25-1.78,.29-2.5,.2Z"/><path class="i" d="M35.98,91.85c0,.2,0,.39,0,.59,.25,.03,.52,.04,.81,.04,.49,0,.95-.03,1.4-.12,.02-.2,.03-.39,.06-.59-.47,.1-.96,.12-1.46,.13-.3,0-.57-.01-.82-.05Z"/><path class="i" d="M35.98,94.15c.68,.18,1.4,.18,2.09-.02,.01-.21,.02-.41,.04-.62-.7,.25-1.44,.26-2.12,.04,0,.2,0,.4,0,.59Z"/><path class="i" d="M35.95,96.22c.51,.01,1.29-.06,2.04-.27,0-.2,.01-.4,.02-.6-.72,.2-1.53,.29-2.04,.29,0,.19,0,.38-.01,.57Z"/><path class="i" d="M35.91,98.03c.67,.13,1.36,.05,2.07-.2,0-.19,0-.38,0-.57-.28,.12-.58,.21-.9,.27-.43,.07-.8,.06-1.15-.02l-.02,.52Z"/><path class="i" d="M35.78,100.08c.2,.05,.4,.09,.62,.1,.57,.05,1.12-.02,1.62-.2,0-.21-.01-.42-.01-.62-.67,.27-1.42,.33-2.18,.14-.01,.19-.03,.39-.05,.58Z"/><path class="i" d="M35.54,101.65c.23,.06,.47,.1,.72,.13,.56,.06,1.22,.08,1.84-.04-.02-.19-.03-.38-.04-.57-.8,.17-1.73,.08-2.35-.07-.02,0-.05-.01-.06-.02-.03,.19-.06,.38-.1,.57Z"/><path class="i" d="M34.98,103.51c.39,.21,.81,.35,1.28,.41,.75,.09,1.53,.01,2.21-.25-.02-.06-.05-.12-.06-.18-.03-.12-.07-.24-.1-.37h0c-.76,.31-1.65,.36-2.43,.16-.25-.07-.49-.17-.71-.29-.02,.08-.05,.17-.08,.25-.03,.1-.08,.19-.11,.28Z"/><path class="i" d="M33.88,105.37c.49,.25,1.02,.43,1.63,.5,1.35,.16,2.63-.2,3.81-.79-.13-.14-.25-.3-.36-.46-.91,.44-1.88,.73-2.92,.71-.68-.01-1.27-.17-1.8-.43-.11,.16-.23,.32-.36,.47Z"/><path class="i" d="M33.23,106.04c.91,.52,1.9,.87,2.96,.99,1.27,.14,3.21-.05,4.48-.87-.18-.12-.36-.23-.53-.35-1.36,.77-3.51,.8-4.73,.5-.62-.15-1.2-.38-1.74-.67-.06,.06-.12,.12-.17,.18-.09,.08-.17,.16-.27,.23Z"/><path class="i" d="M39.46,108.36c.21,.12,.43,.23,.65,.34,.85-.45,1.62-1.03,2.21-1.72-.19-.09-.38-.17-.57-.26-.62,.66-1.42,1.22-2.3,1.64Z"/><path class="i" d="M34.98,109.62c.14,.03,.29,.06,.44,.08,.77,.1,1.6,.03,2.43-.15-.02-.2-.03-.4-.05-.61-.94,.22-1.89,.26-2.75,.05l-.07,.62Z"/><path class="i" d="M30.96,107.35c.69,.62,1.43,1.18,2.21,1.6,.12-.11,.23-.21,.34-.32,.05-.05,.11-.1,.16-.15-.76-.38-1.48-.87-2.15-1.44-.19,.09-.38,.2-.56,.31Z"/><path class="i" d="M41.11,109.16c.21,.09,.42,.17,.64,.25,.69-.51,1.31-1.12,1.84-1.79-.15-.12-.32-.23-.5-.31-.57,.7-1.24,1.33-1.98,1.84Z"/><path class="i" d="M34.87,110.84c.41,.12,.83,.2,1.27,.24,.6,.06,1.2,.05,1.77-.03,0-.2,0-.39-.02-.59-.83,.13-1.7,.1-2.56-.1-.14-.03-.28-.07-.42-.12-.02,.2-.03,.4-.04,.6Z"/><path class="i" d="M42.3,109.61c.05,.02,.1,.04,.16,.06,.16,.05,.34,.11,.51,.14,.46-.41,.88-.87,1.24-1.36-.01-.06-.03-.12-.06-.17-.06-.14-.15-.27-.25-.39-.44,.64-.98,1.21-1.59,1.72Z"/><path class="i" d="M34.86,111.46c0,.21,.02,.43,.06,.64,.49,.14,.99,.24,1.51,.24,.48,0,.97-.03,1.46-.11l.02-.24c0-.12,0-.23,0-.35-.49,.09-.99,.13-1.48,.12-.53-.01-1.06-.12-1.57-.3Z"/><path class="i" d="M30.26,107.92c.64,.64,1.31,1.21,2.04,1.71,.17-.1,.34-.23,.5-.36-.77-.48-1.48-1.07-2.13-1.73-.17,.11-.3,.24-.41,.38Z"/><path class="i" d="M29.92,108.78c.42,.43,.88,.83,1.36,1.21,.17-.01,.36-.06,.56-.13l.12-.05c-.29-.23-.58-.46-.85-.69-.36-.31-.7-.63-1.02-.96-.12,.21-.17,.42-.18,.63Z"/><path class="i" d="M35.12,108.42c.85,.23,1.76,.21,2.65,.13-.01-.19-.03-.39-.05-.58-.9,.08-1.73,.06-2.52-.19-.02,.21-.05,.43-.08,.64Z"/><path class="i" d="M32.28,106.64c.57,.52,1.17,1,1.81,1.37,.03,.02,.05,.03,.08,.04,.2-.16,.4-.29,.63-.4-.39-.16-.77-.38-1.15-.68-.27-.21-.54-.43-.8-.65-.18,.12-.38,.23-.57,.32Z"/><path class="i" d="M35.02,112.51c.02,.07,.04,.14,.06,.21,.07,.19,.18,.38,.31,.55,.23,.05,.47,.08,.7,.09,.51,.02,1.04-.06,1.55-.16,.1-.2,.16-.42,.19-.65-.99,.16-1.89,.23-2.82-.05Z"/><path class="l" d="M39.37,89.12c-.51,.73-1.21,1.52-2.2,1.56-.78,.03-1.46-.43-2-.91-1.09-.96-1.95-2.12-2.51-3.37-.37-.83-.61-1.72-.51-2.61,.1-.88,.57-1.76,1.42-2.3,.77-.49,1.75-.64,2.71-.73,1.3-.12,3.15-.38,4.42-.04,1.15,.31,1.49,1.58,1.57,2.53,.18,1.96-1.76,4.26-2.89,5.87Z"/></g></g></svg>