<?xml version="1.0" encoding="UTF-8"?><svg xmlns="http://www.w3.org/2000/svg" viewBox="0 0 9786.97 95.36"><defs><style>.d{fill:#8db300;}.e{fill:#215b19;}.f{fill:#231c19;}.g{fill:#3f7400;}</style></defs><g id="a"/><g id="b"><g id="c"><path class="g" d="M24.27,95.36c-1.2-18.29-6.21-42.04-23.51-49.42,0,0-3.02,26.02,6.88,49.42H24.27Z"/><path class="f" d="M7.39,60.71c1.94,5.88,4.09,11.62,5.88,17.59,1.68,5.62,3.19,11.32,4.62,17.06h1.1c-1.53-6.17-3.15-12.3-4.97-18.35-1.74-5.77-3.85-11.3-5.74-16.98-1.9-5.73-3.95-11.43-7.47-15.79-.44-.54-1.1,.32-.66,.87,3.43,4.33,5.38,9.97,7.24,15.61Z"/><path class="g" d="M169.33,95.36h24.56C186.92,65.05,167.25,2.25,123.99,2.58c0,0,7.97,60.31,45.35,92.77Z"/><path class="f" d="M122.7,1.12c7.96,4.84,13.94,13.32,19.69,21.73,5.91,8.65,12.13,16.88,17.83,25.78,9.59,14.99,18.36,30.83,27.06,46.72h1.24c-8.84-16.24-17.78-32.39-27.55-47.7-5.83-9.13-12.23-17.55-18.3-26.4C137,12.98,131,4.78,123.17,.06c-.54-.33-1.02,.72-.47,1.06Z"/><path class="e" d="M116.1,95.36c.02-32.24-6.34-70.83-33.7-88.16,0,0-9.84,43.64,1.9,88.16h31.79Z"/><path class="f" d="M92.38,37.48c2.37,11.14,5.16,22.07,7.22,33.33,1.49,8.14,2.79,16.33,3.99,24.54h1.07c-1.26-8.66-2.63-17.3-4.22-25.88-2.12-11.5-5.01-22.68-7.44-34.06-2.34-10.97-4.96-22.06-10.54-31.05-.38-.61-1.04,.26-.66,.87,5.72,9.31,8.17,20.95,10.57,32.25Z"/><path class="d" d="M118.84,95.36h47.72c-16.48-25.37-53.28-71.66-92.66-52.58,0,0,16.12,32.34,44.94,52.58Z"/><path class="f" d="M72.3,42.02c9.72,1.03,18.47,7,27.05,12.6,8.25,5.39,16.63,10.27,24.73,16.07,10.76,7.71,21.23,16.11,31.61,24.67h1.93c-11.06-9.16-22.2-18.14-33.69-26.36-8.3-5.93-16.93-10.89-25.39-16.41-8.31-5.42-16.83-10.86-26.23-11.8-.6-.06-.6,1.16,0,1.23Z"/><path class="g" d="M572.48,95.36h-24.56c6.97-30.31,26.64-93.11,69.91-92.77,0,0-7.97,60.31-45.35,92.77Z"/><path class="f" d="M619.12,1.12c-7.96,4.84-13.94,13.32-19.69,21.73-5.91,8.65-12.13,16.88-17.83,25.78-9.59,14.99-18.36,30.83-27.06,46.72h-1.24c8.84-16.24,17.78-32.39,27.55-47.7,5.83-9.13,12.23-17.55,18.3-26.4,5.67-8.27,11.67-16.47,19.5-21.19,.54-.33,1.02,.72,.47,1.06Z"/><path class="e" d="M625.71,95.36c-.02-32.24,6.34-70.83,33.7-88.16,0,0,9.84,43.64-1.9,88.16h-31.79Z"/><path class="f" d="M649.44,37.48c-2.37,11.14-5.16,22.07-7.22,33.33-1.49,8.14-2.79,16.33-3.99,24.54h-1.07c1.26-8.66,2.63-17.3,4.22-25.88,2.12-11.5,5.01-22.68,7.44-34.06,2.34-10.97,4.96-22.06,10.54-31.05,.38-.61,1.04,.26,.66,.87-5.72,9.31-8.17,20.95-10.57,32.25Z"/><path class="d" d="M622.98,95.36h-47.72c16.48-25.37,53.28-71.66,92.66-52.58,0,0-16.12,32.34-44.94,52.58Z"/><path class="f" d="M669.51,42.02c-9.72,1.03-18.47,7-27.05,12.6-8.25,5.39-16.63,10.27-24.73,16.07-10.76,7.71-21.23,16.11-31.61,24.67h-1.93c11.06-9.16,22.2-18.14,33.69-26.36,8.3-5.93,16.93-10.89,25.39-16.41,8.31-5.42,16.83-10.86,26.23-11.8,.6-.06,.6,1.16,0,1.23Z"/><path class="d" d="M55.88,95.36c10.83-29.65,8.46-60.07,8.46-60.07-20.7,9.07-28.77,36.58-31.81,60.07h23.36Z"/><path class="f" d="M41.7,95.36c1.5-5.34,3.06-10.65,4.72-15.92,2.52-8.02,5.56-15.68,8.3-23.56,2.73-7.84,5.52-15.82,10.36-21.86,.44-.55-.22-1.41-.66-.87-4.59,5.67-7.42,13.05-10.03,20.45-2.78,7.89-5.84,15.61-8.42,23.63-1.92,5.98-3.71,12.03-5.42,18.12h1.14Z"/><path class="g" d="M414.98,95.36c-1.2-18.29-6.21-42.04-23.51-49.42,0,0-3.02,26.02,6.88,49.42h16.63Z"/><path class="f" d="M398.1,60.71c1.94,5.88,4.09,11.62,5.88,17.59,1.68,5.62,3.19,11.32,4.62,17.06h1.1c-1.53-6.17-3.15-12.3-4.97-18.35-1.74-5.77-3.85-11.3-5.74-16.98-1.9-5.73-3.95-11.43-7.47-15.79-.44-.54-1.1,.32-.66,.87,3.43,4.33,5.38,9.97,7.24,15.61Z"/><path class="d" d="M446.59,95.36c10.83-29.65,8.46-60.07,8.46-60.07-20.7,9.07-28.77,36.58-31.81,60.07h23.36Z"/><path class="f" d="M432.42,95.36c1.5-5.34,3.06-10.65,4.72-15.92,2.52-8.02,5.56-15.68,8.3-23.56,2.73-7.84,5.52-15.82,10.36-21.86,.44-.55-.22-1.41-.66-.87-4.59,5.67-7.42,13.05-10.03,20.45-2.78,7.89-5.84,15.61-8.42,23.63-1.92,5.98-3.71,12.03-5.42,18.12h1.14Z"/><path class="g" d="M862,95.36c-1.2-18.29-6.21-42.04-23.51-49.42,0,0-3.02,26.02,6.88,49.42h16.63Z"/><path class="f" d="M845.12,60.71c1.94,5.88,4.09,11.62,5.88,17.59,1.68,5.62,3.19,11.32,4.62,17.06h1.1c-1.53-6.17-3.15-12.3-4.97-18.35-1.74-5.77-3.85-11.3-5.74-16.98-1.9-5.73-3.95-11.43-7.47-15.79-.44-.54-1.1,.32-.66,.87,3.43,4.33,5.38,9.97,7.24,15.61Z"/><path class="g" d="M1007.07,95.36h24.56c-6.97-30.31-26.64-93.11-69.91-92.77,0,0,7.97,60.31,45.35,92.77Z"/><path class="f" d="M960.43,1.12c7.96,4.84,13.94,13.32,19.69,21.73,5.91,8.65,12.13,16.88,17.83,25.78,9.59,14.99,18.36,30.83,27.06,46.72h1.24c-8.84-16.24-17.78-32.39-27.55-47.7-5.83-9.13-12.23-17.55-18.3-26.4-5.67-8.27-11.67-16.47-19.5-21.19-.54-.33-1.02,.72-.47,1.06Z"/><path class="e" d="M953.84,95.36c.02-32.24-6.34-70.83-33.7-88.16,0,0-9.84,43.64,1.9,88.16h31.79Z"/><path class="f" d="M930.12,37.48c2.37,11.14,5.16,22.07,7.22,33.33,1.49,8.14,2.79,16.33,3.99,24.54h1.07c-1.26-8.66-2.63-17.3-4.22-25.88-2.12-11.5-5.01-22.68-7.44-34.06-2.34-10.97-4.96-22.06-10.54-31.05-.38-.61-1.04,.26-.66,.87,5.72,9.31,8.17,20.95,10.57,32.25Z"/><path class="d" d="M956.58,95.36h47.72c-16.48-25.37-53.28-71.66-92.66-52.58,0,0,16.12,32.34,44.94,52.58Z"/><path class="f" d="M910.04,42.02c9.72,1.03,18.47,7,27.05,12.6,8.25,5.39,16.63,10.27,24.73,16.07,10.76,7.71,21.23,16.11,31.61,24.67h1.93c-11.06-9.16-22.2-18.14-33.69-26.36-8.3-5.93-16.93-10.89-25.39-16.41-8.31-5.42-16.83-10.86-26.23-11.8-.6-.06-.6,1.16,0,1.23Z"/><path class="g" d="M1410.22,95.36h-24.56c6.97-30.31,26.64-93.11,69.91-92.77,0,0-7.97,60.31-45.35,92.77Z"/><path class="f" d="M1456.86,1.12c-7.96,4.84-13.94,13.32-19.69,21.73-5.91,8.65-12.13,16.88-17.83,25.78-9.59,14.99-18.36,30.83-27.06,46.72h-1.24c8.84-16.24,17.78-32.39,27.55-47.7,5.83-9.13,12.23-17.55,18.3-26.4,5.67-8.27,11.67-16.47,19.5-21.19,.54-.33,1.02,.72,.47,1.06Z"/><path class="e" d="M1463.45,95.36c-.02-32.24,6.34-70.83,33.7-88.16,0,0,9.84,43.64-1.9,88.16h-31.79Z"/><path class="f" d="M1487.18,37.48c-2.37,11.14-5.16,22.07-7.22,33.33-1.49,8.14-2.79,16.33-3.99,24.54h-1.07c1.26-8.66,2.63-17.3,4.22-25.88,2.12-11.5,5.01-22.68,7.44-34.06,2.34-10.97,4.96-22.06,10.54-31.05,.38-.61,1.04,.26,.66,.87-5.72,9.31-8.17,20.95-10.57,32.25Z"/><path class="d" d="M1460.72,95.36h-47.72c16.48-25.37,53.28-71.66,92.66-52.58,0,0-16.12,32.34-44.94,52.58Z"/><path class="f" d="M1507.25,42.02c-9.72,1.03-18.47,7-27.05,12.6-8.25,5.39-16.63,10.27-24.73,16.07-10.76,7.71-21.23,16.11-31.61,24.67h-1.93c11.06-9.16,22.2-18.14,33.69-26.36,8.3-5.93,16.93-10.89,25.39-16.41,8.31-5.42,16.83-10.86,26.23-11.8,.6-.06,.6,1.16,0,1.23Z"/><path class="d" d="M893.62,95.36c10.83-29.65,8.46-60.07,8.46-60.07-20.7,9.07-28.77,36.58-31.81,60.07h23.36Z"/><path class="f" d="M879.44,95.36c1.5-5.34,3.06-10.65,4.72-15.92,2.52-8.02,5.56-15.68,8.3-23.56,2.73-7.84,5.52-15.82,10.36-21.86,.44-.55-.22-1.41-.66-.87-4.59,5.67-7.42,13.05-10.03,20.45-2.78,7.89-5.84,15.61-8.42,23.63-1.92,5.98-3.71,12.03-5.42,18.12h1.14Z"/><path class="g" d="M1252.72,95.36c-1.2-18.29-6.21-42.04-23.51-49.42,0,0-3.02,26.02,6.88,49.42h16.63Z"/><path class="f" d="M1235.84,60.71c1.94,5.88,4.09,11.62,5.88,17.59,1.68,5.62,3.19,11.32,4.62,17.06h1.1c-1.53-6.17-3.15-12.3-4.97-18.35-1.74-5.77-3.85-11.3-5.74-16.98-1.9-5.73-3.95-11.43-7.47-15.79-.44-.54-1.1,.32-.66,.87,3.43,4.33,5.38,9.97,7.24,15.61Z"/><path class="d" d="M1284.33,95.36c10.83-29.65,8.46-60.07,8.46-60.07-20.7,9.07-28.77,36.58-31.81,60.07h23.36Z"/><path class="f" d="M1270.16,95.36c1.5-5.34,3.06-10.65,4.72-15.92,2.52-8.02,5.56-15.68,8.3-23.56,2.73-7.84,5.52-15.82,10.36-21.86,.44-.55-.22-1.41-.66-.87-4.59,5.67-7.42,13.05-10.03,20.45-2.78,7.89-5.84,15.61-8.42,23.63-1.92,5.98-3.71,12.03-5.42,18.12h1.14Z"/><path class="g" d="M1673.13,95.36c-1.2-18.29-6.21-42.04-23.51-49.42,0,0-3.02,26.02,6.88,49.42h16.63Z"/><path class="f" d="M1656.25,60.71c1.94,5.88,4.09,11.62,5.88,17.59,1.68,5.62,3.19,11.32,4.62,17.06h1.1c-1.53-6.17-3.15-12.3-4.97-18.35-1.74-5.77-3.85-11.3-5.74-16.98-1.9-5.73-3.95-11.43-7.47-15.79-.44-.54-1.1,.32-.66,.87,3.43,4.33,5.38,9.97,7.24,15.61Z"/><path class="g" d="M1818.19,95.36h24.56c-6.97-30.31-26.64-93.11-69.91-92.77,0,0,7.97,60.31,45.35,92.77Z"/><path class="f" d="M1771.56,1.12c7.96,4.84,13.94,13.32,19.69,21.73,5.91,8.65,12.13,16.88,17.83,25.78,9.59,14.99,18.36,30.83,27.06,46.72h1.24c-8.84-16.24-17.78-32.39-27.55-47.7-5.83-9.13-12.23-17.55-18.3-26.4-5.67-8.27-11.67-16.47-19.5-21.19-.54-.33-1.02,.72-.47,1.06Z"/><path class="e" d="M1764.96,95.36c.02-32.24-6.34-70.83-33.7-88.16,0,0-9.84,43.64,1.9,88.16h31.79Z"/><path class="f" d="M1741.24,37.48c2.37,11.14,5.16,22.07,7.22,33.33,1.49,8.14,2.79,16.33,3.99,24.54h1.07c-1.26-8.66-2.63-17.3-4.22-25.88-2.12-11.5-5.01-22.68-7.44-34.06-2.34-10.97-4.96-22.06-10.54-31.05-.38-.61-1.04,.26-.66,.87,5.72,9.31,8.17,20.95,10.57,32.25Z"/><path class="g" d="M2221.34,95.36h-24.56c6.97-30.31,26.64-93.11,69.91-92.77,0,0-7.97,60.31-45.35,92.77Z"/><path class="f" d="M2267.98,1.12c-7.96,4.84-13.94,13.32-19.69,21.73-5.91,8.65-12.13,16.88-17.83,25.78-9.59,14.99-18.36,30.83-27.06,46.72h-1.24c8.84-16.24,17.78-32.39,27.55-47.7,5.83-9.13,12.23-17.55,18.3-26.4,5.67-8.27,11.67-16.47,19.5-21.19,.54-.33,1.02,.72,.47,1.06Z"/><path class="e" d="M2274.57,95.36c-.02-32.24,6.34-70.83,33.7-88.16,0,0,9.84,43.64-1.9,88.16h-31.79Z"/><path class="f" d="M2298.3,37.48c-2.37,11.14-5.16,22.07-7.22,33.33-1.49,8.14-2.79,16.33-3.99,24.54h-1.07c1.26-8.66,2.63-17.3,4.22-25.88,2.12-11.5,5.01-22.68,7.44-34.06,2.34-10.97,4.96-22.06,10.54-31.05,.38-.61,1.04,.26,.66,.87-5.72,9.31-8.17,20.95-10.57,32.25Z"/><path class="d" d="M2271.84,95.36h-47.72c16.48-25.37,53.28-71.66,92.66-52.58,0,0-16.12,32.34-44.94,52.58Z"/><path class="f" d="M2318.37,42.02c-9.72,1.03-18.47,7-27.05,12.6-8.25,5.39-16.63,10.27-24.73,16.07-10.76,7.71-21.23,16.11-31.61,24.67h-1.93c11.06-9.16,22.2-18.14,33.69-26.36,8.3-5.93,16.93-10.89,25.39-16.41,8.31-5.42,16.83-10.86,26.23-11.8,.6-.06,.6,1.16,0,1.23Z"/><path class="d" d="M1704.74,95.36c10.83-29.65,8.46-60.07,8.46-60.07-20.7,9.07-28.77,36.58-31.81,60.07h23.36Z"/><path class="f" d="M1690.56,95.36c1.5-5.34,3.06-10.65,4.72-15.92,2.52-8.02,5.56-15.68,8.3-23.56,2.73-7.84,5.52-15.82,10.36-21.86,.44-.55-.22-1.41-.66-.87-4.59,5.67-7.42,13.05-10.03,20.45-2.78,7.89-5.84,15.61-8.42,23.63-1.92,5.98-3.71,12.03-5.42,18.12h1.14Z"/><path class="g" d="M2063.84,95.36c-1.2-18.29-6.21-42.04-23.51-49.42,0,0-3.02,26.02,6.88,49.42h16.63Z"/><path class="f" d="M2046.96,60.71c1.94,5.88,4.09,11.62,5.88,17.59,1.68,5.62,3.19,11.32,4.62,17.06h1.1c-1.53-6.17-3.15-12.3-4.97-18.35-1.74-5.77-3.85-11.3-5.74-16.98-1.9-5.73-3.95-11.43-7.47-15.79-.44-.54-1.1,.32-.66,.87,3.43,4.33,5.38,9.97,7.24,15.61Z"/><path class="d" d="M2095.45,95.36c10.83-29.65,8.46-60.07,8.46-60.07-20.7,9.07-28.77,36.58-31.81,60.07h23.36Z"/><path class="f" d="M2081.28,95.36c1.5-5.34,3.06-10.65,4.72-15.92,2.52-8.02,5.56-15.68,8.3-23.56,2.73-7.84,5.52-15.82,10.36-21.86,.44-.55-.22-1.41-.66-.87-4.59,5.67-7.42,13.05-10.03,20.45-2.78,7.89-5.84,15.61-8.42,23.63-1.92,5.98-3.71,12.03-5.42,18.12h1.14Z"/><path class="g" d="M2488.16,95.36c-1.2-18.29-6.21-42.04-23.51-49.42,0,0-3.02,26.02,6.88,49.42h16.63Z"/><path class="f" d="M2471.28,60.71c1.94,5.88,4.09,11.62,5.88,17.59,1.68,5.62,3.19,11.32,4.62,17.06h1.1c-1.53-6.17-3.15-12.3-4.97-18.35-1.74-5.77-3.85-11.3-5.74-16.98-1.9-5.73-3.95-11.43-7.47-15.79-.44-.54-1.1,.32-.66,.87,3.43,4.33,5.38,9.97,7.24,15.61Z"/><path class="g" d="M2633.22,95.36h24.56c-6.97-30.31-26.64-93.11-69.91-92.77,0,0,7.97,60.31,45.35,92.77Z"/><path class="f" d="M2586.59,1.12c7.96,4.84,13.94,13.32,19.69,21.73,5.91,8.65,12.13,16.88,17.83,25.78,9.59,14.99,18.36,30.83,27.06,46.72h1.24c-8.84-16.24-17.78-32.39-27.55-47.7-5.83-9.13-12.23-17.55-18.3-26.4-5.67-8.27-11.67-16.47-19.5-21.19-.54-.33-1.02,.72-.47,1.06Z"/><path class="e" d="M2579.99,95.36c.02-32.24-6.34-70.83-33.7-88.16,0,0-9.84,43.64,1.9,88.16h31.79Z"/><path class="f" d="M2556.27,37.48c2.37,11.14,5.16,22.07,7.22,33.33,1.49,8.14,2.79,16.33,3.99,24.54h1.07c-1.26-8.66-2.63-17.3-4.22-25.88-2.12-11.5-5.01-22.68-7.44-34.06-2.34-10.97-4.96-22.06-10.54-31.05-.38-.61-1.04,.26-.66,.87,5.72,9.31,8.17,20.95,10.57,32.25Z"/><path class="d" d="M2582.73,95.36h47.72c-16.48-25.37-53.28-71.66-92.66-52.58,0,0,16.12,32.34,44.94,52.58Z"/><path class="f" d="M2536.19,42.02c9.72,1.03,18.47,7,27.05,12.6,8.25,5.39,16.63,10.27,24.73,16.07,10.76,7.71,21.23,16.11,31.61,24.67h1.93c-11.06-9.16-22.2-18.14-33.69-26.36-8.3-5.93-16.93-10.89-25.39-16.41-8.31-5.42-16.83-10.86-26.23-11.8-.6-.06-.6,1.16,0,1.23Z"/><path class="g" d="M3036.37,95.36h-24.56c6.97-30.31,26.64-93.11,69.91-92.77,0,0-7.97,60.31-45.35,92.77Z"/><path class="f" d="M3083.01,1.12c-7.96,4.84-13.94,13.32-19.69,21.73-5.91,8.65-12.13,16.88-17.83,25.78-9.59,14.99-18.36,30.83-27.06,46.72h-1.24c8.84-16.24,17.78-32.39,27.55-47.7,5.83-9.13,12.23-17.55,18.3-26.4,5.67-8.27,11.67-16.47,19.5-21.19,.54-.33,1.02,.72,.47,1.06Z"/><path class="e" d="M3089.6,95.36c-.02-32.24,6.34-70.83,33.7-88.16,0,0,9.84,43.64-1.9,88.16h-31.79Z"/><path class="f" d="M3113.33,37.48c-2.37,11.14-5.16,22.07-7.22,33.33-1.49,8.14-2.79,16.33-3.99,24.54h-1.07c1.26-8.66,2.63-17.3,4.22-25.88,2.12-11.5,5.01-22.68,7.44-34.06,2.34-10.97,4.96-22.06,10.54-31.05,.38-.61,1.04,.26,.66,.87-5.72,9.31-8.17,20.95-10.57,32.25Z"/><path class="d" d="M3086.87,95.36h-47.72c16.48-25.37,53.28-71.66,92.66-52.58,0,0-16.12,32.34-44.94,52.58Z"/><path class="f" d="M3133.4,42.02c-9.72,1.03-18.47,7-27.05,12.6-8.25,5.39-16.63,10.27-24.73,16.07-10.76,7.71-21.23,16.11-31.61,24.67h-1.93c11.06-9.16,22.2-18.14,33.69-26.36,8.3-5.93,16.93-10.89,25.39-16.41,8.31-5.42,16.83-10.86,26.23-11.8,.6-.06,.6,1.16,0,1.23Z"/><path class="d" d="M2519.77,95.36c10.83-29.65,8.46-60.07,8.46-60.07-20.7,9.07-28.77,36.58-31.81,60.07h23.36Z"/><path class="f" d="M2505.59,95.36c1.5-5.34,3.06-10.65,4.72-15.92,2.52-8.02,5.56-15.68,8.3-23.56,2.73-7.84,5.52-15.82,10.36-21.86,.44-.55-.22-1.41-.66-.87-4.59,5.67-7.42,13.05-10.03,20.45-2.78,7.89-5.84,15.61-8.42,23.63-1.92,5.98-3.71,12.03-5.42,18.12h1.14Z"/><path class="g" d="M2878.87,95.36c-1.2-18.29-6.21-42.04-23.51-49.42,0,0-3.02,26.02,6.88,49.42h16.63Z"/><path class="f" d="M2861.99,60.71c1.94,5.88,4.09,11.62,5.88,17.59,1.68,5.62,3.19,11.32,4.62,17.06h1.1c-1.53-6.17-3.15-12.3-4.97-18.35-1.74-5.77-3.85-11.3-5.74-16.98-1.9-5.73-3.95-11.43-7.47-15.79-.44-.54-1.1,.32-.66,.87,3.43,4.33,5.38,9.97,7.24,15.61Z"/><path class="d" d="M2910.48,95.36c10.83-29.65,8.46-60.07,8.46-60.07-20.7,9.07-28.77,36.58-31.81,60.07h23.36Z"/><path class="f" d="M2896.31,95.36c1.5-5.34,3.06-10.65,4.72-15.92,2.52-8.02,5.56-15.68,8.3-23.56,2.73-7.84,5.52-15.82,10.36-21.86,.44-.55-.22-1.41-.66-.87-4.59,5.67-7.42,13.05-10.03,20.45-2.78,7.89-5.84,15.61-8.42,23.63-1.92,5.98-3.71,12.03-5.42,18.12h1.14Z"/><path class="g" d="M3325.89,95.36c-1.2-18.29-6.21-42.04-23.51-49.42,0,0-3.02,26.02,6.88,49.42h16.63Z"/><path class="f" d="M3309.01,60.71c1.94,5.88,4.09,11.62,5.88,17.59,1.68,5.62,3.19,11.32,4.62,17.06h1.1c-1.53-6.17-3.15-12.3-4.97-18.35-1.74-5.77-3.85-11.3-5.74-16.98-1.9-5.73-3.95-11.43-7.47-15.79-.44-.54-1.1,.32-.66,.87,3.43,4.33,5.38,9.97,7.24,15.61Z"/><path class="g" d="M3470.96,95.36h24.56c-6.97-30.31-26.64-93.11-69.91-92.77,0,0,7.97,60.31,45.35,92.77Z"/><path class="f" d="M3424.32,1.12c7.96,4.84,13.94,13.32,19.69,21.73,5.91,8.65,12.13,16.88,17.83,25.78,9.59,14.99,18.36,30.83,27.06,46.72h1.24c-8.84-16.24-17.78-32.39-27.55-47.7-5.83-9.13-12.23-17.55-18.3-26.4-5.67-8.27-11.67-16.47-19.5-21.19-.54-.33-1.02,.72-.47,1.06Z"/><path class="e" d="M3417.73,95.36c.02-32.24-6.34-70.83-33.7-88.16,0,0-9.84,43.64,1.9,88.16h31.79Z"/><path class="f" d="M3394.01,37.48c2.37,11.14,5.16,22.07,7.22,33.33,1.49,8.14,2.79,16.33,3.99,24.54h1.07c-1.26-8.66-2.63-17.3-4.22-25.88-2.12-11.5-5.01-22.68-7.44-34.06-2.34-10.97-4.96-22.06-10.54-31.05-.38-.61-1.04,.26-.66,.87,5.72,9.31,8.17,20.95,10.57,32.25Z"/><path class="d" d="M3420.47,95.36h47.72c-16.48-25.37-53.28-71.66-92.66-52.58,0,0,16.12,32.34,44.94,52.58Z"/><path class="f" d="M3373.93,42.02c9.72,1.03,18.47,7,27.05,12.6,8.25,5.39,16.63,10.27,24.73,16.07,10.76,7.71,21.23,16.11,31.61,24.67h1.93c-11.06-9.16-22.2-18.14-33.69-26.36-8.3-5.93-16.93-10.89-25.39-16.41-8.31-5.42-16.83-10.86-26.23-11.8-.6-.06-.6,1.16,0,1.23Z"/><path class="g" d="M3874.11,95.36h-24.56c6.97-30.31,26.64-93.11,69.91-92.77,0,0-7.97,60.31-45.35,92.77Z"/><path class="f" d="M3920.75,1.12c-7.96,4.84-13.94,13.32-19.69,21.73-5.91,8.65-12.13,16.88-17.83,25.78-9.59,14.99-18.36,30.83-27.06,46.72h-1.24c8.84-16.24,17.78-32.39,27.55-47.7,5.83-9.13,12.23-17.55,18.3-26.4,5.67-8.27,11.67-16.47,19.5-21.19,.54-.33,1.02,.72,.47,1.06Z"/><path class="e" d="M3927.34,95.36c-.02-32.24,6.34-70.83,33.7-88.16,0,0,9.84,43.64-1.9,88.16h-31.79Z"/><path class="f" d="M3951.07,37.48c-2.37,11.14-5.16,22.07-7.22,33.33-1.49,8.14-2.79,16.33-3.99,24.54h-1.07c1.26-8.66,2.63-17.3,4.22-25.88,2.12-11.5,5.01-22.68,7.44-34.06,2.34-10.97,4.96-22.06,10.54-31.05,.38-.61,1.04,.26,.66,.87-5.72,9.31-8.17,20.95-10.57,32.25Z"/><path class="d" d="M3924.61,95.36h-47.72c16.48-25.37,53.28-71.66,92.66-52.58,0,0-16.12,32.34-44.94,52.58Z"/><path class="f" d="M3971.14,42.02c-9.72,1.03-18.47,7-27.05,12.6-8.25,5.39-16.63,10.27-24.73,16.07-10.76,7.71-21.23,16.11-31.61,24.67h-1.93c11.06-9.16,22.2-18.14,33.69-26.36,8.3-5.93,16.93-10.89,25.39-16.41,8.31-5.42,16.83-10.86,26.23-11.8,.6-.06,.6,1.16,0,1.23Z"/><path class="d" d="M3357.51,95.36c10.83-29.65,8.46-60.07,8.46-60.07-20.7,9.07-28.77,36.58-31.81,60.07h23.36Z"/><path class="f" d="M3343.33,95.36c1.5-5.34,3.06-10.65,4.72-15.92,2.52-8.02,5.56-15.68,8.3-23.56,2.73-7.84,5.52-15.82,10.36-21.86,.44-.55-.22-1.41-.66-.87-4.59,5.67-7.42,13.05-10.03,20.45-2.78,7.89-5.84,15.61-8.42,23.63-1.92,5.98-3.71,12.03-5.42,18.12h1.14Z"/><path class="g" d="M3716.61,95.36c-1.2-18.29-6.21-42.04-23.51-49.42,0,0-3.02,26.02,6.88,49.42h16.63Z"/><path class="f" d="M3699.73,60.71c1.94,5.88,4.09,11.62,5.88,17.59,1.68,5.62,3.19,11.32,4.62,17.06h1.1c-1.53-6.17-3.15-12.3-4.97-18.35-1.74-5.77-3.85-11.3-5.74-16.98-1.9-5.73-3.95-11.43-7.47-15.79-.44-.54-1.1,.32-.66,.87,3.43,4.33,5.38,9.97,7.24,15.61Z"/><path class="d" d="M3748.22,95.36c10.83-29.65,8.46-60.07,8.46-60.07-20.7,9.07-28.77,36.58-31.81,60.07h23.36Z"/><path class="f" d="M3734.05,95.36c1.5-5.34,3.06-10.65,4.72-15.92,2.52-8.02,5.56-15.68,8.3-23.56,2.73-7.84,5.52-15.82,10.36-21.86,.44-.55-.22-1.41-.66-.87-4.59,5.67-7.42,13.05-10.03,20.45-2.78,7.89-5.84,15.61-8.42,23.63-1.92,5.98-3.71,12.03-5.42,18.12h1.14Z"/><path class="g" d="M4137.02,95.36c-1.2-18.29-6.21-42.04-23.51-49.42,0,0-3.02,26.02,6.88,49.42h16.63Z"/><path class="f" d="M4120.14,60.71c1.94,5.88,4.09,11.62,5.88,17.59,1.68,5.62,3.19,11.32,4.62,17.06h1.1c-1.53-6.17-3.15-12.3-4.97-18.35-1.74-5.77-3.85-11.3-5.74-16.98-1.9-5.73-3.95-11.43-7.47-15.79-.44-.54-1.1,.32-.66,.87,3.43,4.33,5.38,9.97,7.24,15.61Z"/><path class="g" d="M4282.08,95.36h24.56c-6.97-30.31-26.64-93.11-69.91-92.77,0,0,7.97,60.31,45.35,92.77Z"/><path class="f" d="M4235.45,1.12c7.96,4.84,13.94,13.32,19.69,21.73,5.91,8.65,12.13,16.88,17.83,25.78,9.59,14.99,18.36,30.83,27.06,46.72h1.24c-8.84-16.24-17.78-32.39-27.55-47.7-5.83-9.13-12.23-17.55-18.3-26.4-5.67-8.27-11.67-16.47-19.5-21.19-.54-.33-1.02,.72-.47,1.06Z"/><path class="e" d="M4228.85,95.36c.02-32.24-6.34-70.83-33.7-88.16,0,0-9.84,43.64,1.9,88.16h31.79Z"/><path class="f" d="M4205.13,37.48c2.37,11.14,5.16,22.07,7.22,33.33,1.49,8.14,2.79,16.33,3.99,24.54h1.07c-1.26-8.66-2.63-17.3-4.22-25.88-2.12-11.5-5.01-22.68-7.44-34.06-2.34-10.97-4.96-22.06-10.54-31.05-.38-.61-1.04,.26-.66,.87,5.72,9.31,8.17,20.95,10.57,32.25Z"/><path class="g" d="M4685.23,95.36h-24.56c6.97-30.31,26.64-93.11,69.91-92.77,0,0-7.97,60.31-45.35,92.77Z"/><path class="f" d="M4731.87,1.12c-7.96,4.84-13.94,13.32-19.69,21.73-5.91,8.65-12.13,16.88-17.83,25.78-9.59,14.99-18.36,30.83-27.06,46.72h-1.24c8.84-16.24,17.78-32.39,27.55-47.7,5.83-9.13,12.23-17.55,18.3-26.4,5.67-8.27,11.67-16.47,19.5-21.19,.54-.33,1.02,.72,.47,1.06Z"/><path class="e" d="M4738.46,95.36c-.02-32.24,6.34-70.83,33.7-88.16,0,0,9.84,43.64-1.9,88.16h-31.79Z"/><path class="f" d="M4762.19,37.48c-2.37,11.14-5.16,22.07-7.22,33.33-1.49,8.14-2.79,16.33-3.99,24.54h-1.07c1.26-8.66,2.63-17.3,4.22-25.88,2.12-11.5,5.01-22.68,7.44-34.06,2.34-10.97,4.96-22.06,10.54-31.05,.38-.61,1.04,.26,.66,.87-5.72,9.31-8.17,20.95-10.57,32.25Z"/><path class="d" d="M4735.73,95.36h-47.72c16.48-25.37,53.28-71.66,92.66-52.58,0,0-16.12,32.34-44.94,52.58Z"/><path class="f" d="M4782.26,42.02c-9.72,1.03-18.47,7-27.05,12.6-8.25,5.39-16.63,10.27-24.73,16.07-10.76,7.71-21.23,16.11-31.61,24.67h-1.93c11.06-9.16,22.2-18.14,33.69-26.36,8.3-5.93,16.93-10.89,25.39-16.41,8.31-5.42,16.83-10.86,26.23-11.8,.6-.06,.6,1.16,0,1.23Z"/><path class="d" d="M4168.63,95.36c10.83-29.65,8.46-60.07,8.46-60.07-20.7,9.07-28.77,36.58-31.81,60.07h23.36Z"/><path class="f" d="M4154.45,95.36c1.5-5.34,3.06-10.65,4.72-15.92,2.52-8.02,5.56-15.68,8.3-23.56,2.73-7.84,5.52-15.82,10.36-21.86,.44-.55-.22-1.41-.66-.87-4.59,5.67-7.42,13.05-10.03,20.45-2.78,7.89-5.84,15.61-8.42,23.63-1.92,5.98-3.71,12.03-5.42,18.12h1.14Z"/><path class="g" d="M4527.73,95.36c-1.2-18.29-6.21-42.04-23.51-49.42,0,0-3.02,26.02,6.88,49.42h16.63Z"/><path class="f" d="M4510.85,60.71c1.94,5.88,4.09,11.62,5.88,17.59,1.68,5.62,3.19,11.32,4.62,17.06h1.1c-1.53-6.17-3.15-12.3-4.97-18.35-1.74-5.77-3.85-11.3-5.74-16.98-1.9-5.73-3.95-11.43-7.47-15.79-.44-.54-1.1,.32-.66,.87,3.43,4.33,5.38,9.97,7.24,15.61Z"/><path class="d" d="M4559.34,95.36c10.83-29.65,8.46-60.07,8.46-60.07-20.7,9.07-28.77,36.58-31.81,60.07h23.36Z"/><path class="f" d="M4545.17,95.36c1.5-5.34,3.06-10.65,4.72-15.92,2.52-8.02,5.56-15.68,8.3-23.56,2.73-7.84,5.52-15.82,10.36-21.86,.44-.55-.22-1.41-.66-.87-4.59,5.67-7.42,13.05-10.03,20.45-2.78,7.89-5.84,15.61-8.42,23.63-1.92,5.98-3.71,12.03-5.42,18.12h1.14Z"/><path class="g" d="M5028.51,95.36c-1.2-18.29-6.21-42.04-23.51-49.42,0,0-3.02,26.02,6.88,49.42h16.63Z"/><path class="f" d="M5011.64,60.71c1.94,5.88,4.09,11.62,5.88,17.59,1.68,5.62,3.19,11.32,4.62,17.06h1.1c-1.53-6.17-3.15-12.3-4.97-18.35-1.74-5.77-3.85-11.3-5.74-16.98-1.9-5.73-3.95-11.43-7.47-15.79-.44-.54-1.1,.32-.66,.87,3.43,4.33,5.38,9.97,7.24,15.61Z"/><path class="g" d="M5173.58,95.36h24.56c-6.97-30.31-26.64-93.11-69.91-92.77,0,0,7.97,60.31,45.35,92.77Z"/><path class="f" d="M5126.95,1.12c7.96,4.84,13.94,13.32,19.69,21.73,5.91,8.65,12.13,16.88,17.83,25.78,9.59,14.99,18.36,30.83,27.06,46.72h1.24c-8.84-16.24-17.78-32.39-27.55-47.7-5.83-9.13-12.23-17.55-18.3-26.4-5.67-8.27-11.67-16.47-19.5-21.19-.54-.33-1.02,.72-.47,1.06Z"/><path class="e" d="M5120.35,95.36c.02-32.24-6.34-70.83-33.7-88.16,0,0-9.84,43.64,1.9,88.16h31.79Z"/><path class="f" d="M5096.63,37.48c2.37,11.14,5.16,22.07,7.22,33.33,1.49,8.14,2.79,16.33,3.99,24.54h1.07c-1.26-8.66-2.63-17.3-4.22-25.88-2.12-11.5-5.01-22.68-7.44-34.06-2.34-10.97-4.96-22.06-10.54-31.05-.38-.61-1.04,.26-.66,.87,5.72,9.31,8.17,20.95,10.57,32.25Z"/><path class="d" d="M5123.09,95.36h47.72c-16.48-25.37-53.28-71.66-92.66-52.58,0,0,16.12,32.34,44.94,52.58Z"/><path class="f" d="M5076.55,42.02c9.72,1.03,18.47,7,27.05,12.6,8.25,5.39,16.63,10.27,24.73,16.07,10.76,7.71,21.23,16.11,31.61,24.67h1.93c-11.06-9.16-22.2-18.14-33.69-26.36-8.3-5.93-16.93-10.89-25.39-16.41-8.31-5.42-16.83-10.86-26.23-11.8-.6-.06-.6,1.16,0,1.23Z"/><path class="g" d="M5576.73,95.36h-24.56c6.97-30.31,26.64-93.11,69.91-92.77,0,0-7.97,60.31-45.35,92.77Z"/><path class="f" d="M5623.37,1.12c-7.96,4.84-13.94,13.32-19.69,21.73-5.91,8.65-12.13,16.88-17.83,25.78-9.59,14.99-18.36,30.83-27.06,46.72h-1.24c8.84-16.24,17.78-32.39,27.55-47.7,5.83-9.13,12.23-17.55,18.3-26.4,5.67-8.27,11.67-16.47,19.5-21.19,.54-.33,1.02,.72,.47,1.06Z"/><path class="e" d="M5629.96,95.36c-.02-32.24,6.34-70.83,33.7-88.16,0,0,9.84,43.64-1.9,88.16h-31.79Z"/><path class="f" d="M5653.69,37.48c-2.37,11.14-5.16,22.07-7.22,33.33-1.49,8.14-2.79,16.33-3.99,24.54h-1.07c1.26-8.66,2.63-17.3,4.22-25.88,2.12-11.5,5.01-22.68,7.44-34.06,2.34-10.97,4.96-22.06,10.54-31.05,.38-.61,1.04,.26,.66,.87-5.72,9.31-8.17,20.95-10.57,32.25Z"/><path class="d" d="M5627.23,95.36h-47.72c16.48-25.37,53.28-71.66,92.66-52.58,0,0-16.12,32.34-44.94,52.58Z"/><path class="f" d="M5673.76,42.02c-9.72,1.03-18.47,7-27.05,12.6-8.25,5.39-16.63,10.27-24.73,16.07-10.76,7.71-21.23,16.11-31.61,24.67h-1.93c11.06-9.16,22.2-18.14,33.69-26.36,8.3-5.93,16.93-10.89,25.39-16.41,8.31-5.42,16.83-10.86,26.23-11.8,.6-.06,.6,1.16,0,1.23Z"/><path class="d" d="M5060.13,95.36c10.83-29.65,8.46-60.07,8.46-60.07-20.7,9.07-28.77,36.58-31.81,60.07h23.36Z"/><path class="f" d="M5045.95,95.36c1.5-5.34,3.06-10.65,4.72-15.92,2.52-8.02,5.56-15.68,8.3-23.56,2.73-7.84,5.52-15.82,10.36-21.86,.44-.55-.22-1.41-.66-.87-4.59,5.67-7.42,13.05-10.03,20.45-2.78,7.89-5.84,15.61-8.42,23.63-1.92,5.98-3.71,12.03-5.42,18.12h1.14Z"/><path class="g" d="M5419.23,95.36c-1.2-18.29-6.21-42.04-23.51-49.42,0,0-3.02,26.02,6.88,49.42h16.63Z"/><path class="f" d="M5402.35,60.71c1.94,5.88,4.09,11.62,5.88,17.59,1.68,5.62,3.19,11.32,4.62,17.06h1.1c-1.53-6.17-3.15-12.3-4.97-18.35-1.74-5.77-3.85-11.3-5.74-16.98-1.9-5.73-3.95-11.43-7.47-15.79-.44-.54-1.1,.32-.66,.87,3.43,4.33,5.38,9.97,7.24,15.61Z"/><path class="d" d="M5450.84,95.36c10.83-29.65,8.46-60.07,8.46-60.07-20.7,9.07-28.77,36.58-31.81,60.07h23.36Z"/><path class="f" d="M5436.67,95.36c1.5-5.34,3.06-10.65,4.72-15.92,2.52-8.02,5.56-15.68,8.3-23.56,2.73-7.84,5.52-15.82,10.36-21.86,.44-.55-.22-1.41-.66-.87-4.59,5.67-7.42,13.05-10.03,20.45-2.78,7.89-5.84,15.61-8.42,23.63-1.92,5.98-3.71,12.03-5.42,18.12h1.14Z"/><path class="g" d="M5866.25,95.36c-1.2-18.29-6.21-42.04-23.51-49.42,0,0-3.02,26.02,6.88,49.42h16.63Z"/><path class="f" d="M5849.37,60.71c1.94,5.88,4.09,11.62,5.88,17.59,1.68,5.62,3.19,11.32,4.62,17.06h1.1c-1.53-6.17-3.15-12.3-4.97-18.35-1.74-5.77-3.85-11.3-5.74-16.98-1.9-5.73-3.95-11.43-7.47-15.79-.44-.54-1.1,.32-.66,.87,3.43,4.33,5.38,9.97,7.24,15.61Z"/><path class="g" d="M6011.32,95.36h24.56c-6.97-30.31-26.64-93.11-69.91-92.77,0,0,7.97,60.31,45.35,92.77Z"/><path class="f" d="M5964.68,1.12c7.96,4.84,13.94,13.32,19.69,21.73,5.91,8.65,12.13,16.88,17.83,25.78,9.59,14.99,18.36,30.83,27.06,46.72h1.24c-8.84-16.24-17.78-32.39-27.55-47.7-5.83-9.13-12.23-17.55-18.3-26.4-5.67-8.27-11.67-16.47-19.5-21.19-.54-.33-1.02,.72-.47,1.06Z"/><path class="e" d="M5958.09,95.36c.02-32.24-6.34-70.83-33.7-88.16,0,0-9.84,43.64,1.9,88.16h31.79Z"/><path class="f" d="M5934.37,37.48c2.37,11.14,5.16,22.07,7.22,33.33,1.49,8.14,2.79,16.33,3.99,24.54h1.07c-1.26-8.66-2.63-17.3-4.22-25.88-2.12-11.5-5.01-22.68-7.44-34.06-2.34-10.97-4.96-22.06-10.54-31.05-.38-.61-1.04,.26-.66,.87,5.72,9.31,8.17,20.95,10.57,32.25Z"/><path class="d" d="M5960.83,95.36h47.72c-16.48-25.37-53.28-71.66-92.66-52.58,0,0,16.12,32.34,44.94,52.58Z"/><path class="f" d="M5914.29,42.02c9.72,1.03,18.47,7,27.05,12.6,8.25,5.39,16.63,10.27,24.73,16.07,10.76,7.71,21.23,16.11,31.61,24.67h1.93c-11.06-9.16-22.2-18.14-33.69-26.36-8.3-5.93-16.93-10.89-25.39-16.41-8.31-5.42-16.83-10.86-26.23-11.8-.6-.06-.6,1.16,0,1.23Z"/><path class="g" d="M6414.47,95.36h-24.56c6.97-30.31,26.64-93.11,69.91-92.77,0,0-7.97,60.31-45.35,92.77Z"/><path class="f" d="M6461.11,1.12c-7.96,4.84-13.94,13.32-19.69,21.73-5.91,8.65-12.13,16.88-17.83,25.78-9.59,14.99-18.36,30.83-27.06,46.72h-1.24c8.84-16.24,17.78-32.39,27.55-47.7,5.83-9.13,12.23-17.55,18.3-26.4,5.67-8.27,11.67-16.47,19.5-21.19,.54-.33,1.02,.72,.47,1.06Z"/><path class="e" d="M6467.7,95.36c-.02-32.24,6.34-70.83,33.7-88.16,0,0,9.84,43.64-1.9,88.16h-31.79Z"/><path class="f" d="M6491.42,37.48c-2.37,11.14-5.16,22.07-7.22,33.33-1.49,8.14-2.79,16.33-3.99,24.54h-1.07c1.26-8.66,2.63-17.3,4.22-25.88,2.12-11.5,5.01-22.68,7.44-34.06,2.34-10.97,4.96-22.06,10.54-31.05,.38-.61,1.04,.26,.66,.87-5.72,9.31-8.17,20.95-10.57,32.25Z"/><path class="d" d="M6464.96,95.36h-47.72c16.48-25.37,53.28-71.66,92.66-52.58,0,0-16.12,32.34-44.94,52.58Z"/><path class="f" d="M6511.5,42.02c-9.72,1.03-18.47,7-27.05,12.6-8.25,5.39-16.63,10.27-24.73,16.07-10.76,7.71-21.23,16.11-31.61,24.67h-1.93c11.06-9.16,22.2-18.14,33.69-26.36,8.3-5.93,16.93-10.89,25.39-16.41,8.31-5.42,16.83-10.86,26.23-11.8,.6-.06,.6,1.16,0,1.23Z"/><path class="d" d="M5897.87,95.36c10.83-29.65,8.46-60.07,8.46-60.07-20.7,9.07-28.77,36.58-31.81,60.07h23.36Z"/><path class="f" d="M5883.69,95.36c1.5-5.34,3.06-10.65,4.72-15.92,2.52-8.02,5.56-15.68,8.3-23.56,2.73-7.84,5.52-15.82,10.36-21.86,.44-.55-.22-1.41-.66-.87-4.59,5.67-7.42,13.05-10.03,20.45-2.78,7.89-5.84,15.61-8.42,23.63-1.92,5.98-3.71,12.03-5.42,18.12h1.14Z"/><path class="g" d="M6256.97,95.36c-1.2-18.29-6.21-42.04-23.51-49.42,0,0-3.02,26.02,6.88,49.42h16.63Z"/><path class="f" d="M6240.09,60.71c1.94,5.88,4.09,11.62,5.88,17.59,1.68,5.62,3.19,11.32,4.62,17.06h1.1c-1.53-6.17-3.15-12.3-4.97-18.35-1.74-5.77-3.85-11.3-5.74-16.98-1.9-5.73-3.95-11.43-7.47-15.79-.44-.54-1.1,.32-.66,.87,3.43,4.33,5.38,9.97,7.24,15.61Z"/><path class="d" d="M6288.58,95.36c10.83-29.65,8.46-60.07,8.46-60.07-20.7,9.07-28.77,36.58-31.81,60.07h23.36Z"/><path class="f" d="M6274.41,95.36c1.5-5.34,3.06-10.65,4.72-15.92,2.52-8.02,5.56-15.68,8.3-23.56,2.73-7.84,5.52-15.82,10.36-21.86,.44-.55-.22-1.41-.66-.87-4.59,5.67-7.42,13.05-10.03,20.45-2.78,7.89-5.84,15.61-8.42,23.63-1.92,5.98-3.71,12.03-5.42,18.12h1.14Z"/><path class="g" d="M6677.38,95.36c-1.2-18.29-6.21-42.04-23.51-49.42,0,0-3.02,26.02,6.88,49.42h16.63Z"/><path class="f" d="M6660.5,60.71c1.94,5.88,4.09,11.62,5.88,17.59,1.68,5.62,3.19,11.32,4.62,17.06h1.1c-1.53-6.17-3.15-12.3-4.97-18.35-1.74-5.77-3.85-11.3-5.74-16.98-1.9-5.73-3.95-11.43-7.47-15.79-.44-.54-1.1,.32-.66,.87,3.43,4.33,5.38,9.97,7.24,15.61Z"/><path class="g" d="M6822.44,95.36h24.56c-6.97-30.31-26.64-93.11-69.91-92.77,0,0,7.97,60.31,45.35,92.77Z"/><path class="f" d="M6775.81,1.12c7.96,4.84,13.94,13.32,19.69,21.73,5.91,8.65,12.13,16.88,17.83,25.78,9.59,14.99,18.36,30.83,27.06,46.72h1.24c-8.84-16.24-17.78-32.39-27.55-47.7-5.83-9.13-12.23-17.55-18.3-26.4-5.67-8.27-11.67-16.47-19.5-21.19-.54-.33-1.02,.72-.47,1.06Z"/><path class="e" d="M6769.21,95.36c.02-32.24-6.34-70.83-33.7-88.16,0,0-9.84,43.64,1.9,88.16h31.79Z"/><path class="f" d="M6745.49,37.48c2.37,11.14,5.16,22.07,7.22,33.33,1.49,8.14,2.79,16.33,3.99,24.54h1.07c-1.26-8.66-2.63-17.3-4.22-25.88-2.12-11.5-5.01-22.68-7.44-34.06-2.34-10.97-4.96-22.06-10.54-31.05-.38-.61-1.04,.26-.66,.87,5.72,9.31,8.17,20.95,10.57,32.25Z"/><path class="g" d="M7225.59,95.36h-24.56c6.97-30.31,26.64-93.11,69.91-92.77,0,0-7.97,60.31-45.35,92.77Z"/><path class="f" d="M7272.23,1.12c-7.96,4.84-13.94,13.32-19.69,21.73-5.91,8.65-12.13,16.88-17.83,25.78-9.59,14.99-18.36,30.83-27.06,46.72h-1.24c8.84-16.24,17.78-32.39,27.55-47.7,5.83-9.13,12.23-17.55,18.3-26.4,5.67-8.27,11.67-16.47,19.5-21.19,.54-.33,1.02,.72,.47,1.06Z"/><path class="e" d="M7278.82,95.36c-.02-32.24,6.34-70.83,33.7-88.16,0,0,9.84,43.64-1.9,88.16h-31.79Z"/><path class="f" d="M7302.55,37.48c-2.37,11.14-5.16,22.07-7.22,33.33-1.49,8.14-2.79,16.33-3.99,24.54h-1.07c1.26-8.66,2.63-17.3,4.22-25.88,2.12-11.5,5.01-22.68,7.44-34.06,2.34-10.97,4.96-22.06,10.54-31.05,.38-.61,1.04,.26,.66,.87-5.72,9.31-8.17,20.95-10.57,32.25Z"/><path class="d" d="M7276.09,95.36h-47.72c16.48-25.37,53.28-71.66,92.66-52.58,0,0-16.12,32.34-44.94,52.58Z"/><path class="f" d="M7322.62,42.02c-9.72,1.03-18.47,7-27.05,12.6-8.25,5.39-16.63,10.27-24.73,16.07-10.76,7.71-21.23,16.11-31.61,24.67h-1.93c11.06-9.16,22.2-18.14,33.69-26.36,8.3-5.93,16.93-10.89,25.39-16.41,8.31-5.42,16.83-10.86,26.23-11.8,.6-.06,.6,1.16,0,1.23Z"/><path class="d" d="M6708.99,95.36c10.83-29.65,8.46-60.07,8.46-60.07-20.7,9.07-28.77,36.58-31.81,60.07h23.36Z"/><path class="f" d="M6694.81,95.36c1.5-5.34,3.06-10.65,4.72-15.92,2.52-8.02,5.56-15.68,8.3-23.56,2.73-7.84,5.52-15.82,10.36-21.86,.44-.55-.22-1.41-.66-.87-4.59,5.67-7.42,13.05-10.03,20.45-2.78,7.89-5.84,15.61-8.42,23.63-1.92,5.98-3.71,12.03-5.42,18.12h1.14Z"/><path class="g" d="M7068.09,95.36c-1.2-18.29-6.21-42.04-23.51-49.42,0,0-3.02,26.02,6.88,49.42h16.63Z"/><path class="f" d="M7051.21,60.71c1.94,5.88,4.09,11.62,5.88,17.59,1.68,5.62,3.19,11.32,4.62,17.06h1.1c-1.53-6.17-3.15-12.3-4.97-18.35-1.74-5.77-3.85-11.3-5.74-16.98-1.9-5.73-3.95-11.43-7.47-15.79-.44-.54-1.1,.32-.66,.87,3.43,4.33,5.38,9.97,7.24,15.61Z"/><path class="d" d="M7099.7,95.36c10.83-29.65,8.46-60.07,8.46-60.07-20.7,9.07-28.77,36.58-31.81,60.07h23.36Z"/><path class="f" d="M7085.53,95.36c1.5-5.34,3.06-10.65,4.72-15.92,2.52-8.02,5.56-15.68,8.3-23.56,2.73-7.84,5.52-15.82,10.36-21.86,.44-.55-.22-1.41-.66-.87-4.59,5.67-7.42,13.05-10.03,20.45-2.78,7.89-5.84,15.61-8.42,23.63-1.92,5.98-3.71,12.03-5.42,18.12h1.14Z"/><path class="g" d="M7492.4,95.36c-1.2-18.29-6.21-42.04-23.51-49.42,0,0-3.02,26.02,6.88,49.42h16.63Z"/><path class="f" d="M7475.53,60.71c1.94,5.88,4.09,11.62,5.88,17.59,1.68,5.62,3.19,11.32,4.62,17.06h1.1c-1.53-6.17-3.15-12.3-4.97-18.35-1.74-5.77-3.85-11.3-5.74-16.98-1.9-5.73-3.95-11.43-7.47-15.79-.44-.54-1.1,.32-.66,.87,3.43,4.33,5.38,9.97,7.24,15.61Z"/><path class="g" d="M7637.47,95.36h24.56c-6.97-30.31-26.64-93.11-69.91-92.77,0,0,7.97,60.31,45.35,92.77Z"/><path class="f" d="M7590.84,1.12c7.96,4.84,13.94,13.32,19.69,21.73,5.91,8.65,12.13,16.88,17.83,25.78,9.59,14.99,18.36,30.83,27.06,46.72h1.24c-8.84-16.24-17.78-32.39-27.55-47.7-5.83-9.13-12.23-17.55-18.3-26.4-5.67-8.27-11.67-16.47-19.5-21.19-.54-.33-1.02,.72-.47,1.06Z"/><path class="e" d="M7584.24,95.36c.02-32.24-6.34-70.83-33.7-88.16,0,0-9.84,43.64,1.9,88.16h31.79Z"/><path class="f" d="M7560.52,37.48c2.37,11.14,5.16,22.07,7.22,33.33,1.49,8.14,2.79,16.33,3.99,24.54h1.07c-1.26-8.66-2.63-17.3-4.22-25.88-2.12-11.5-5.01-22.68-7.44-34.06-2.34-10.97-4.96-22.06-10.54-31.05-.38-.61-1.04,.26-.66,.87,5.72,9.31,8.17,20.95,10.57,32.25Z"/><path class="d" d="M7586.98,95.36h47.72c-16.48-25.37-53.28-71.66-92.66-52.58,0,0,16.12,32.34,44.94,52.58Z"/><path class="f" d="M7540.44,42.02c9.72,1.03,18.47,7,27.05,12.6,8.25,5.39,16.63,10.27,24.73,16.07,10.76,7.71,21.23,16.11,31.61,24.67h1.93c-11.06-9.16-22.2-18.14-33.69-26.36-8.3-5.93-16.93-10.89-25.39-16.41-8.31-5.42-16.83-10.86-26.23-11.8-.6-.06-.6,1.16,0,1.23Z"/><path class="g" d="M8040.62,95.36h-24.56c6.97-30.31,26.64-93.11,69.91-92.77,0,0-7.97,60.31-45.35,92.77Z"/><path class="f" d="M8087.26,1.12c-7.96,4.84-13.94,13.32-19.69,21.73-5.91,8.65-12.13,16.88-17.83,25.78-9.59,14.99-18.36,30.83-27.06,46.72h-1.24c8.84-16.24,17.78-32.39,27.55-47.7,5.83-9.13,12.23-17.55,18.3-26.4,5.67-8.27,11.67-16.47,19.5-21.19,.54-.33,1.02,.72,.47,1.06Z"/><path class="e" d="M8093.85,95.36c-.02-32.24,6.34-70.83,33.7-88.16,0,0,9.84,43.64-1.9,88.16h-31.79Z"/><path class="f" d="M8117.58,37.48c-2.37,11.14-5.16,22.07-7.22,33.33-1.49,8.14-2.79,16.33-3.99,24.54h-1.07c1.26-8.66,2.63-17.3,4.22-25.88,2.12-11.5,5.01-22.68,7.44-34.06,2.34-10.97,4.96-22.06,10.54-31.05,.38-.61,1.04,.26,.66,.87-5.72,9.31-8.17,20.95-10.57,32.25Z"/><path class="d" d="M8091.12,95.36h-47.72c16.48-25.37,53.28-71.66,92.66-52.58,0,0-16.12,32.34-44.94,52.58Z"/><path class="f" d="M8137.65,42.02c-9.72,1.03-18.47,7-27.05,12.6-8.25,5.39-16.63,10.27-24.73,16.07-10.76,7.71-21.23,16.11-31.61,24.67h-1.93c11.06-9.16,22.2-18.14,33.69-26.36,8.3-5.93,16.93-10.89,25.39-16.41,8.31-5.42,16.83-10.86,26.23-11.8,.6-.06,.6,1.16,0,1.23Z"/><path class="d" d="M7524.02,95.36c10.83-29.65,8.46-60.07,8.46-60.07-20.7,9.07-28.77,36.58-31.81,60.07h23.36Z"/><path class="f" d="M7509.84,95.36c1.5-5.34,3.06-10.65,4.72-15.92,2.52-8.02,5.56-15.68,8.3-23.56,2.73-7.84,5.52-15.82,10.36-21.86,.44-.55-.22-1.41-.66-.87-4.59,5.67-7.42,13.05-10.03,20.45-2.78,7.89-5.84,15.61-8.42,23.63-1.92,5.98-3.71,12.03-5.42,18.12h1.14Z"/><path class="g" d="M7883.12,95.36c-1.2-18.29-6.21-42.04-23.51-49.42,0,0-3.02,26.02,6.88,49.42h16.63Z"/><path class="f" d="M7866.24,60.71c1.94,5.88,4.09,11.62,5.88,17.59,1.68,5.62,3.19,11.32,4.62,17.06h1.1c-1.53-6.17-3.15-12.3-4.97-18.35-1.74-5.77-3.85-11.3-5.74-16.98-1.9-5.73-3.95-11.43-7.47-15.79-.44-.54-1.1,.32-.66,.87,3.43,4.33,5.38,9.97,7.24,15.61Z"/><path class="d" d="M7914.73,95.36c10.83-29.65,8.46-60.07,8.46-60.07-20.7,9.07-28.77,36.58-31.81,60.07h23.36Z"/><path class="f" d="M7900.56,95.36c1.5-5.34,3.06-10.65,4.72-15.92,2.52-8.02,5.56-15.68,8.3-23.56,2.73-7.84,5.52-15.82,10.36-21.86,.44-.55-.22-1.41-.66-.87-4.59,5.67-7.42,13.05-10.03,20.45-2.78,7.89-5.84,15.61-8.42,23.63-1.92,5.98-3.71,12.03-5.42,18.12h1.14Z"/><path class="g" d="M8330.14,95.36c-1.2-18.29-6.21-42.04-23.51-49.42,0,0-3.02,26.02,6.88,49.42h16.63Z"/><path class="f" d="M8313.26,60.71c1.94,5.88,4.09,11.62,5.88,17.59,1.68,5.62,3.19,11.32,4.62,17.06h1.1c-1.53-6.17-3.15-12.3-4.97-18.35-1.74-5.77-3.85-11.3-5.74-16.98-1.9-5.73-3.95-11.43-7.47-15.79-.44-.54-1.1,.32-.66,.87,3.43,4.33,5.38,9.97,7.24,15.61Z"/><path class="g" d="M8475.21,95.36h24.56c-6.97-30.31-26.64-93.11-69.91-92.77,0,0,7.97,60.31,45.35,92.77Z"/><path class="f" d="M8428.57,1.12c7.96,4.84,13.94,13.32,19.69,21.73,5.91,8.65,12.13,16.88,17.83,25.78,9.59,14.99,18.36,30.83,27.06,46.72h1.24c-8.84-16.24-17.78-32.39-27.55-47.7-5.83-9.13-12.23-17.55-18.3-26.4-5.67-8.27-11.67-16.47-19.5-21.19-.54-.33-1.02,.72-.47,1.06Z"/><path class="e" d="M8421.98,95.36c.02-32.24-6.34-70.83-33.7-88.16,0,0-9.84,43.64,1.9,88.16h31.79Z"/><path class="f" d="M8398.26,37.48c2.37,11.14,5.16,22.07,7.22,33.33,1.49,8.14,2.79,16.33,3.99,24.54h1.07c-1.26-8.66-2.63-17.3-4.22-25.88-2.12-11.5-5.01-22.68-7.44-34.06-2.34-10.97-4.96-22.06-10.54-31.05-.38-.61-1.04,.26-.66,.87,5.72,9.31,8.17,20.95,10.57,32.25Z"/><path class="d" d="M8424.72,95.36h47.72c-16.48-25.37-53.28-71.66-92.66-52.58,0,0,16.12,32.34,44.94,52.58Z"/><path class="f" d="M8378.18,42.02c9.72,1.03,18.47,7,27.05,12.6,8.25,5.39,16.63,10.27,24.73,16.07,10.76,7.71,21.23,16.11,31.61,24.67h1.93c-11.06-9.16-22.2-18.14-33.69-26.36-8.3-5.93-16.93-10.89-25.39-16.41-8.31-5.42-16.83-10.86-26.23-11.8-.6-.06-.6,1.16,0,1.23Z"/><path class="g" d="M8878.36,95.36h-24.56c6.97-30.31,26.64-93.11,69.91-92.77,0,0-7.97,60.31-45.35,92.77Z"/><path class="f" d="M8925,1.12c-7.96,4.84-13.94,13.32-19.69,21.73-5.91,8.65-12.13,16.88-17.83,25.78-9.59,14.99-18.36,30.83-27.06,46.72h-1.24c8.84-16.24,17.78-32.39,27.55-47.7,5.83-9.13,12.23-17.55,18.3-26.4,5.67-8.27,11.67-16.47,19.5-21.19,.54-.33,1.02,.72,.47,1.06Z"/><path class="e" d="M8931.59,95.36c-.02-32.24,6.34-70.83,33.7-88.16,0,0,9.84,43.64-1.9,88.16h-31.79Z"/><path class="f" d="M8955.31,37.48c-2.37,11.14-5.16,22.07-7.22,33.33-1.49,8.14-2.79,16.33-3.99,24.54h-1.07c1.26-8.66,2.63-17.3,4.22-25.88,2.12-11.5,5.01-22.68,7.44-34.06,2.34-10.97,4.96-22.06,10.54-31.05,.38-.61,1.04,.26,.66,.87-5.72,9.31-8.17,20.95-10.57,32.25Z"/><path class="d" d="M8928.85,95.36h-47.72c16.48-25.37,53.28-71.66,92.66-52.58,0,0-16.12,32.34-44.94,52.58Z"/><path class="f" d="M8975.39,42.02c-9.72,1.03-18.47,7-27.05,12.6-8.25,5.39-16.63,10.27-24.73,16.07-10.76,7.71-21.23,16.11-31.61,24.67h-1.93c11.06-9.16,22.2-18.14,33.69-26.36,8.3-5.93,16.93-10.89,25.39-16.41,8.31-5.42,16.83-10.86,26.23-11.8,.6-.06,.6,1.16,0,1.23Z"/><path class="d" d="M8361.76,95.36c10.83-29.65,8.46-60.07,8.46-60.07-20.7,9.07-28.77,36.58-31.81,60.07h23.36Z"/><path class="f" d="M8347.58,95.36c1.5-5.34,3.06-10.65,4.72-15.92,2.52-8.02,5.56-15.68,8.3-23.56,2.73-7.84,5.52-15.82,10.36-21.86,.44-.55-.22-1.41-.66-.87-4.59,5.67-7.42,13.05-10.03,20.45-2.78,7.89-5.84,15.61-8.42,23.63-1.92,5.98-3.71,12.03-5.42,18.12h1.14Z"/><path class="g" d="M8720.86,95.36c-1.2-18.29-6.21-42.04-23.51-49.42,0,0-3.02,26.02,6.88,49.42h16.63Z"/><path class="f" d="M8703.98,60.71c1.94,5.88,4.09,11.62,5.88,17.59,1.68,5.62,3.19,11.32,4.62,17.06h1.1c-1.53-6.17-3.15-12.3-4.97-18.35-1.74-5.77-3.85-11.3-5.74-16.98-1.9-5.73-3.95-11.43-7.47-15.79-.44-.54-1.1,.32-.66,.87,3.43,4.33,5.38,9.97,7.24,15.61Z"/><path class="d" d="M8752.47,95.36c10.83-29.65,8.46-60.07,8.46-60.07-20.7,9.07-28.77,36.58-31.81,60.07h23.36Z"/><path class="f" d="M8738.3,95.36c1.5-5.34,3.06-10.65,4.72-15.92,2.52-8.02,5.56-15.68,8.3-23.56,2.73-7.84,5.52-15.82,10.36-21.86,.44-.55-.22-1.41-.66-.87-4.59,5.67-7.42,13.05-10.03,20.45-2.78,7.89-5.84,15.61-8.42,23.63-1.92,5.98-3.71,12.03-5.42,18.12h1.14Z"/><path class="g" d="M9141.27,95.36c-1.2-18.29-6.21-42.04-23.51-49.42,0,0-3.02,26.02,6.88,49.42h16.63Z"/><path class="f" d="M9124.39,60.71c1.94,5.88,4.09,11.62,5.88,17.59,1.68,5.62,3.19,11.32,4.62,17.06h1.1c-1.53-6.17-3.15-12.3-4.97-18.35-1.74-5.77-3.85-11.3-5.74-16.98-1.9-5.73-3.95-11.43-7.47-15.79-.44-.54-1.1,.32-.66,.87,3.43,4.33,5.38,9.97,7.24,15.61Z"/><path class="g" d="M9286.33,95.36h24.56c-6.97-30.31-26.64-93.11-69.91-92.77,0,0,7.97,60.31,45.35,92.77Z"/><path class="f" d="M9239.7,1.12c7.96,4.84,13.94,13.32,19.69,21.73,5.91,8.65,12.13,16.88,17.83,25.78,9.59,14.99,18.36,30.83,27.06,46.72h1.24c-8.84-16.24-17.78-32.39-27.55-47.7-5.83-9.13-12.23-17.55-18.3-26.4-5.67-8.27-11.67-16.47-19.5-21.19-.54-.33-1.02,.72-.47,1.06Z"/><path class="e" d="M9233.1,95.36c.02-32.24-6.34-70.83-33.7-88.16,0,0-9.84,43.64,1.9,88.16h31.79Z"/><path class="f" d="M9209.38,37.48c2.37,11.14,5.16,22.07,7.22,33.33,1.49,8.14,2.79,16.33,3.99,24.54h1.07c-1.26-8.66-2.63-17.3-4.22-25.88-2.12-11.5-5.01-22.68-7.44-34.06-2.34-10.97-4.96-22.06-10.54-31.05-.38-.61-1.04,.26-.66,.87,5.72,9.31,8.17,20.95,10.57,32.25Z"/><path class="g" d="M9689.48,95.36h-24.56c6.97-30.31,26.64-93.11,69.91-92.77,0,0-7.97,60.31-45.35,92.77Z"/><path class="f" d="M9736.12,1.12c-7.96,4.84-13.94,13.32-19.69,21.73-5.91,8.65-12.13,16.88-17.83,25.78-9.59,14.99-18.36,30.83-27.06,46.72h-1.24c8.84-16.24,17.78-32.39,27.55-47.7,5.83-9.13,12.23-17.55,18.3-26.4,5.67-8.27,11.67-16.47,19.5-21.19,.54-.33,1.02,.72,.47,1.06Z"/><path class="e" d="M9742.71,95.36c-.02-32.24,6.34-70.83,33.7-88.16,0,0,9.84,43.64-1.9,88.16h-31.79Z"/><path class="f" d="M9766.44,37.48c-2.37,11.14-5.16,22.07-7.22,33.33-1.49,8.14-2.79,16.33-3.99,24.54h-1.07c1.26-8.66,2.63-17.3,4.22-25.88,2.12-11.5,5.01-22.68,7.44-34.06,2.34-10.97,4.96-22.06,10.54-31.05,.38-.61,1.04,.26,.66,.87-5.72,9.31-8.17,20.95-10.57,32.25Z"/><path class="d" d="M9739.98,95.36h-47.72c16.48-25.37,53.28-71.66,92.66-52.58,0,0-16.12,32.34-44.94,52.58Z"/><path class="f" d="M9786.51,42.02c-9.72,1.03-18.47,7-27.05,12.6-8.25,5.39-16.63,10.27-24.73,16.07-10.76,7.71-21.23,16.11-31.61,24.67h-1.93c11.06-9.16,22.2-18.14,33.69-26.36,8.3-5.93,16.93-10.89,25.39-16.41,8.31-5.42,16.83-10.86,26.23-11.8,.6-.06,.6,1.16,0,1.23Z"/><path class="d" d="M9172.88,95.36c10.83-29.65,8.46-60.07,8.46-60.07-20.7,9.07-28.77,36.58-31.81,60.07h23.36Z"/><path class="f" d="M9158.7,95.36c1.5-5.34,3.06-10.65,4.72-15.92,2.52-8.02,5.56-15.68,8.3-23.56,2.73-7.84,5.52-15.82,10.36-21.86,.44-.55-.22-1.41-.66-.87-4.59,5.67-7.42,13.05-10.03,20.45-2.78,7.89-5.84,15.61-8.42,23.63-1.92,5.98-3.71,12.03-5.42,18.12h1.14Z"/><path class="g" d="M9531.98,95.36c-1.2-18.29-6.21-42.04-23.51-49.42,0,0-3.02,26.02,6.88,49.42h16.63Z"/><path class="f" d="M9515.1,60.71c1.94,5.88,4.09,11.62,5.88,17.59,1.68,5.62,3.19,11.32,4.62,17.06h1.1c-1.53-6.17-3.15-12.3-4.97-18.35-1.74-5.77-3.85-11.3-5.74-16.98-1.9-5.73-3.95-11.43-7.47-15.79-.44-.54-1.1,.32-.66,.87,3.43,4.33,5.38,9.97,7.24,15.61Z"/><path class="d" d="M9563.59,95.36c10.83-29.65,8.46-60.07,8.46-60.07-20.7,9.07-28.77,36.58-31.81,60.07h23.36Z"/><path class="f" d="M9549.42,95.36c1.5-5.34,3.06-10.65,4.72-15.92,2.52-8.02,5.56-15.68,8.3-23.56,2.73-7.84,5.52-15.82,10.36-21.86,.44-.55-.22-1.41-.66-.87-4.59,5.67-7.42,13.05-10.03,20.45-2.78,7.89-5.84,15.61-8.42,23.63-1.92,5.98-3.71,12.03-5.42,18.12h1.14Z"/></g></g></svg>