<?xml version="1.0" encoding="UTF-8"?><svg xmlns="http://www.w3.org/2000/svg" viewBox="0 0 9901.66 80.38"><defs><style>.d{fill:#729a19;}.e{fill:#9fcd00;}.f{fill:#b6de90;}.g{fill:#231c19;}.h{fill:#3d8100;}.i{fill:#6f5312;}.j{fill:#95b119;}</style></defs><g id="a"/><g id="b"><g id="c"><g><g><rect class="f" y="10.45" width="1258.81" height="69.93"/><g><path class="j" d="M380.68,52.5c3.57,17.78-33.46,18.03-39.84,5.88-1.23-2.35-2-5.59,.93-6.87,4.84-2.11,7.59,4.78,10.27,6.99-1.2-3.75-2.6-14.6,4.03-13.85,5.55,.63,4.77,9.03,5.33,12.88,.81-3.18,1.85-13.53,7.55-12.57,4.56,.77,1.89,10.26,.01,12.27,2.15-3.68,10.05-13.07,11.72-4.73Z"/><path class="d" d="M419.89,28.2c2.26,11.29-21.24,11.45-25.29,3.73-.78-1.49-1.27-3.55,.59-4.36,3.07-1.34,4.81,3.03,6.52,4.44-.76-2.38-1.65-9.26,2.56-8.79,3.52,.4,3.03,5.73,3.39,8.17,.51-2.02,1.18-8.59,4.79-7.98,2.89,.49,1.2,6.51,0,7.79,1.37-2.33,6.38-8.3,7.44-3Z"/></g><path class="j" d="M1097.89,50.05c3.57,17.78-33.46,18.03-39.84,5.88-1.23-2.35-2-5.59,.93-6.87,4.84-2.11,7.59,4.78,10.27,6.99-1.2-3.75-2.6-14.6,4.03-13.85,5.55,.63,4.77,9.03,5.33,12.88,.81-3.18,1.85-13.53,7.55-12.57,4.56,.77,1.89,10.26,.01,12.27,2.15-3.68,10.05-13.07,11.72-4.73Z"/><path class="j" d="M679.21,35.26c3.57,17.78-33.46,18.03-39.84,5.88-1.23-2.35-2-5.59,.93-6.87,4.84-2.11,7.59,4.78,10.27,6.99-1.2-3.75-2.6-14.6,4.03-13.85,5.55,.63,4.77,9.03,5.33,12.88,.81-3.18,1.85-13.53,7.55-12.57,4.56,.77,1.89,10.26,.01,12.27,2.15-3.68,10.05-13.07,11.72-4.73Z"/><path class="d" d="M1201.9,28.2c2.26,11.29-21.24,11.45-25.29,3.73-.78-1.49-1.27-3.55,.59-4.36,3.07-1.34,4.81,3.03,6.52,4.44-.76-2.38-1.65-9.26,2.56-8.79,3.52,.4,3.03,5.73,3.39,8.17,.51-2.02,1.18-8.59,4.79-7.98,2.89,.49,1.2,6.51,0,7.79,1.37-2.33,6.38-8.3,7.44-3Z"/><path class="d" d="M174,53.67c2.26,11.29-21.24,11.45-25.29,3.73-.78-1.49-1.27-3.55,.59-4.36,3.07-1.34,4.81,3.03,6.52,4.44-.76-2.38-1.65-9.26,2.56-8.79,3.52,.4,3.03,5.73,3.39,8.17,.51-2.02,1.18-8.59,4.79-7.98,2.89,.49,1.2,6.51,0,7.79,1.37-2.33,6.38-8.3,7.44-3Z"/><g><path class="i" d="M97.22,56.94l-.3-14.34c-.08-3.71,2.64-6.89,6.31-7.4l1.37-.19c4.61-.63,8.63,3.14,8.29,7.78l-1.07,14.53c-.28,3.76-3.37,6.69-7.14,6.77h0c-4.04,.09-7.38-3.12-7.47-7.16Z"/><path class="e" d="M109.83,41.99c-1.07-.01-2.12,.2-3.09,.65-1.36,.63-3.77,1.39-6.83,.88-4.83-.8-12.37-.7-13.87-.83-1.01-.09-4.28-1.57-6.32-2.52-1.22-.57-2.25-1.46-2.98-2.58s-1.51-2.57-1.61-3.75c-.18-2.27,.42-4.86,.59-6.73,.16-1.87,1.62-1.37,2.6-3.92,.97-2.55-.94-6.49-.44-7.95,.5-1.46,4.53-4.5,5.38-5.56,.84-1.06,3.25-2.73,4.13-4.16,.54-.88,2.85-2.73,4.57-4.03,1.25-.95,2.76-1.47,4.32-1.48,2.87-.03,7.4,.01,8.11,.58,.72,.57,3.89,1.01,5.84,1.23,1.06,.12,2.08,.47,2.99,1.03l2.45,1.5c.75,.46,1.58,.78,2.45,.95,2.09,.4,6.04,1.14,6.85,1.21,1.12,.1,4.73,1.92,5.69,3.89,.96,1.97,1.41,5.39,1.69,6.55,.28,1.15,.73,4.58,.73,4.58l.24,1.82c.13,.95,.43,1.88,.9,2.71,.45,.78,.94,1.8,.89,2.42-.1,1.12-.36,4.11-1.2,5.17-.84,1.06-2.16,3.2-3.79,4.57-1.62,1.37-1.66,1.74-3.59,2.33-1.31,.4-3.33,.91-4.49,1.19-.6,.15-1.2,.22-1.82,.21l-3.77-.04c-.14,0-.27,0-.41,0-1.69,.08-4.41,.07-6.22,.05Z"/><path class="g" d="M85.21,31.64c3.9,4.93,10.21,6.28,15.92,3.79,.57-.25,.16-1.16-.42-.99-5.21,1.54-10.95,1.05-14.26-3.76-.65-.95-1.96,.06-1.25,.96h0Z"/><path class="g" d="M89.41,40.06c5.73,5.09,15.95,6.74,21.52,.53,.63-.7-.32-1.63-1.03-1.03-5.57,4.75-14.01,4.07-19.52-.46-.67-.55-1.63,.37-.96,.96h0Z"/><path class="g" d="M107.48,41.58c5.35,2.13,11.19,1.92,16.37-.57,.59-.28,.17-1.26-.44-1.05-5.13,1.75-10.41,2.18-15.53,.16-.91-.36-1.29,1.1-.4,1.46h0Z"/><path class="g" d="M98.97,31c2.49,.69,4.99,.37,7.31-.71,.62-.29,.08-1.19-.53-.91-2.05,.92-4.32,1.21-6.51,.66-.62-.16-.89,.79-.27,.96h0Z"/><path class="g" d="M100.57,34.86c2.19,1.99,5.03,2.32,7.87,2.11,.63-.05,.64-1.03,0-.99-2.53,.15-5.21-.06-7.21-1.78-.45-.39-1.11,.25-.66,.66h0Z"/><path class="g" d="M116.93,33.19c2.85-.34,5.39-1.64,7.48-3.58,.4-.37-.13-1.08-.58-.76-2.04,1.46-4.36,2.72-6.89,2.96-.89,.08-.88,1.49,0,1.38h0Z"/><path class="g" d="M128.61,29.15c-1.3,1.6-2.91,3.02-4.81,3.85-.65,.29-.18,1.42,.49,1.15,2.12-.85,3.82-2.32,5.43-3.9,.74-.72-.48-1.88-1.11-1.11h0Z"/><path class="g" d="M123.96,22.05c-.89,1.28-1.95,2.44-3,3.59-.4,.44,.12,1.21,.66,.86,1.44-.94,2.46-2.22,3.6-3.47,.79-.85-.6-1.94-1.27-.98h0Z"/></g><g><polygon class="i" points="791.02 64.1 790.42 44.67 807.35 42.34 805.11 63.8 791.02 64.1"/><path class="h" d="M801.69,50.59s-3.25,2.37-8.12,1.57c-4.87-.8-12.48-.7-13.99-.84-1.51-.13-8.07-3.36-8.07-3.36,0,0-2.75-3.28-2.94-5.58-.18-2.3,.43-4.9,.59-6.79,.16-1.89,1.64-1.38,2.62-3.95,.98-2.58-.95-6.54-.44-8.02,.51-1.48,4.58-4.54,5.43-5.61,.85-1.07,3.28-2.76,4.17-4.2,.89-1.44,6.56-5.51,6.56-5.51,0,0,9.53-.31,10.59,.54,1.07,.85,7.48,1.41,7.48,1.41l5.05,3.1s7.1,1.38,8.23,1.48c1.13,.1,4.77,1.94,5.74,3.92,.97,1.98,1.43,5.44,1.71,6.61,.28,1.17,.74,4.63,.74,4.63l.46,3.46s1.69,2.43,1.59,3.56c-.1,1.13-.36,4.15-1.21,5.22-.85,1.07-2.18,3.23-3.82,4.61-1.64,1.38-1.67,1.75-3.62,2.35-1.95,.59-5.45,1.43-5.45,1.43l-4.94-.05c-2.67,.15-8.36,.04-8.36,.04Z"/><path class="g" d="M778.75,40.18c3.94,4.98,10.3,6.33,16.06,3.82,.57-.25,.16-1.17-.42-.99-5.26,1.56-11.05,1.07-14.38-3.79-.66-.95-1.98,.06-1.26,.97h0Z"/><path class="g" d="M782.98,48.67c5.78,5.14,16.09,6.8,21.71,.53,.64-.71-.32-1.65-1.04-1.04-5.62,4.79-14.14,4.11-19.7-.47-.67-.55-1.64,.38-.97,.97h0Z"/><path class="g" d="M801.22,50.2c5.4,2.15,11.29,1.94,16.52-.57,.59-.28,.17-1.27-.45-1.06-5.18,1.77-10.5,2.2-15.67,.16-.92-.36-1.31,1.11-.41,1.47h0Z"/><path class="g" d="M792.63,39.53c2.51,.69,5.03,.38,7.38-.72,.62-.29,.08-1.2-.54-.92-2.07,.93-4.36,1.22-6.57,.66-.63-.16-.9,.8-.27,.97h0Z"/><path class="g" d="M794.24,43.43c2.21,2.01,5.07,2.34,7.94,2.13,.64-.05,.64-1.04,0-1-2.55,.15-5.26-.06-7.28-1.79-.45-.39-1.12,.26-.66,.66h0Z"/><path class="g" d="M810.74,41.74c2.87-.35,5.44-1.66,7.54-3.62,.4-.37-.14-1.09-.59-.77-2.06,1.47-4.4,2.75-6.96,2.99-.9,.08-.89,1.5,0,1.4h0Z"/><path class="g" d="M822.53,37.66c-1.31,1.62-2.94,3.05-4.85,3.89-.66,.29-.18,1.43,.49,1.16,2.14-.85,3.85-2.34,5.48-3.93,.75-.72-.49-1.9-1.12-1.12h0Z"/><path class="g" d="M817.84,30.5c-.9,1.29-1.97,2.46-3.02,3.62-.4,.45,.12,1.22,.66,.86,1.45-.95,2.48-2.24,3.64-3.5,.8-.86-.6-1.96-1.28-.98h0Z"/></g><rect class="f" x="1243.68" y="10.45" width="1258.81" height="69.93"/><g><path class="j" d="M1624.36,52.5c3.57,17.78-33.46,18.03-39.84,5.88-1.23-2.35-2-5.59,.93-6.87,4.84-2.11,7.59,4.78,10.27,6.99-1.2-3.75-2.6-14.6,4.03-13.85,5.55,.63,4.77,9.03,5.33,12.88,.81-3.18,1.85-13.53,7.55-12.57,4.56,.77,1.89,10.26,.01,12.27,2.15-3.68,10.05-13.07,11.72-4.73Z"/><path class="d" d="M1663.57,28.2c2.26,11.29-21.24,11.45-25.29,3.73-.78-1.49-1.27-3.55,.59-4.36,3.07-1.34,4.81,3.03,6.52,4.44-.76-2.38-1.65-9.26,2.56-8.79,3.52,.4,3.03,5.73,3.39,8.17,.51-2.02,1.18-8.59,4.79-7.98,2.89,.49,1.2,6.51,0,7.79,1.37-2.33,6.38-8.3,7.44-3Z"/></g><path class="j" d="M2341.56,50.05c3.57,17.78-33.46,18.03-39.84,5.88-1.23-2.35-2-5.59,.93-6.87,4.84-2.11,7.59,4.78,10.27,6.99-1.2-3.75-2.6-14.6,4.03-13.85,5.55,.63,4.77,9.03,5.33,12.88,.81-3.18,1.85-13.53,7.55-12.57,4.56,.77,1.89,10.26,.01,12.27,2.15-3.68,10.05-13.07,11.72-4.73Z"/><path class="j" d="M1922.89,35.26c3.57,17.78-33.46,18.03-39.84,5.88-1.23-2.35-2-5.59,.93-6.87,4.84-2.11,7.59,4.78,10.27,6.99-1.2-3.75-2.6-14.6,4.03-13.85,5.55,.63,4.77,9.03,5.33,12.88,.81-3.18,1.85-13.53,7.55-12.57,4.56,.77,1.89,10.26,.01,12.27,2.15-3.68,10.05-13.07,11.72-4.73Z"/><path class="d" d="M2445.57,28.2c2.26,11.29-21.24,11.45-25.29,3.73-.78-1.49-1.27-3.55,.59-4.36,3.07-1.34,4.81,3.03,6.52,4.44-.76-2.38-1.65-9.26,2.56-8.79,3.52,.4,3.03,5.73,3.39,8.17,.51-2.02,1.18-8.59,4.79-7.98,2.89,.49,1.2,6.51,0,7.79,1.37-2.33,6.38-8.3,7.44-3Z"/><path class="d" d="M1417.68,53.67c2.26,11.29-21.24,11.45-25.29,3.73-.78-1.49-1.27-3.55,.59-4.36,3.07-1.34,4.81,3.03,6.52,4.44-.76-2.38-1.65-9.26,2.56-8.79,3.52,.4,3.03,5.73,3.39,8.17,.51-2.02,1.18-8.59,4.79-7.98,2.89,.49,1.2,6.51,0,7.79,1.37-2.33,6.38-8.3,7.44-3Z"/><g><path class="i" d="M1340.9,56.94l-.3-14.34c-.08-3.71,2.64-6.89,6.31-7.4l1.37-.19c4.61-.63,8.63,3.14,8.29,7.78l-1.07,14.53c-.28,3.76-3.37,6.69-7.14,6.77h0c-4.04,.09-7.38-3.12-7.47-7.16Z"/><path class="e" d="M1353.5,41.99c-1.07-.01-2.12,.2-3.09,.65-1.36,.63-3.77,1.39-6.83,.88-4.83-.8-12.37-.7-13.87-.83-1.01-.09-4.28-1.57-6.32-2.52-1.22-.57-2.25-1.46-2.98-2.58s-1.51-2.57-1.61-3.75c-.18-2.27,.42-4.86,.59-6.73,.16-1.87,1.62-1.37,2.6-3.92,.97-2.55-.94-6.49-.44-7.95,.5-1.46,4.53-4.5,5.38-5.56,.84-1.06,3.25-2.73,4.13-4.16,.54-.88,2.85-2.73,4.57-4.03,1.25-.95,2.76-1.47,4.32-1.48,2.87-.03,7.4,.01,8.11,.58,.72,.57,3.89,1.01,5.84,1.23,1.06,.12,2.08,.47,2.99,1.03l2.45,1.5c.75,.46,1.58,.78,2.45,.95,2.09,.4,6.04,1.14,6.85,1.21,1.12,.1,4.73,1.92,5.69,3.89,.96,1.97,1.41,5.39,1.69,6.55,.28,1.15,.73,4.58,.73,4.58l.24,1.82c.13,.95,.43,1.88,.9,2.71,.45,.78,.94,1.8,.89,2.42-.1,1.12-.36,4.11-1.2,5.17-.84,1.06-2.16,3.2-3.79,4.57-1.62,1.37-1.66,1.74-3.59,2.33-1.31,.4-3.33,.91-4.49,1.19-.6,.15-1.2,.22-1.82,.21l-3.77-.04c-.14,0-.27,0-.41,0-1.69,.08-4.41,.07-6.22,.05Z"/><path class="g" d="M1328.89,31.64c3.9,4.93,10.21,6.28,15.92,3.79,.57-.25,.16-1.16-.42-.99-5.21,1.54-10.95,1.05-14.26-3.76-.65-.95-1.96,.06-1.25,.96h0Z"/><path class="g" d="M1333.09,40.06c5.73,5.09,15.95,6.74,21.52,.53,.63-.7-.32-1.63-1.03-1.03-5.57,4.75-14.01,4.07-19.52-.46-.67-.55-1.63,.37-.96,.96h0Z"/><path class="g" d="M1351.16,41.58c5.35,2.13,11.19,1.92,16.37-.57,.59-.28,.17-1.26-.44-1.05-5.13,1.75-10.41,2.18-15.53,.16-.91-.36-1.29,1.1-.4,1.46h0Z"/><path class="g" d="M1342.65,31c2.49,.69,4.99,.37,7.31-.71,.62-.29,.08-1.19-.53-.91-2.05,.92-4.32,1.21-6.51,.66-.62-.16-.89,.79-.27,.96h0Z"/><path class="g" d="M1344.25,34.86c2.19,1.99,5.03,2.32,7.87,2.11,.63-.05,.64-1.03,0-.99-2.53,.15-5.21-.06-7.21-1.78-.45-.39-1.11,.25-.66,.66h0Z"/><path class="g" d="M1360.6,33.19c2.85-.34,5.39-1.64,7.48-3.58,.4-.37-.13-1.08-.58-.76-2.04,1.46-4.36,2.72-6.89,2.96-.89,.08-.88,1.49,0,1.38h0Z"/><path class="g" d="M1372.29,29.15c-1.3,1.6-2.91,3.02-4.81,3.85-.65,.29-.18,1.42,.49,1.15,2.12-.85,3.82-2.32,5.43-3.9,.74-.72-.48-1.88-1.11-1.11h0Z"/><path class="g" d="M1367.63,22.05c-.89,1.28-1.95,2.44-3,3.59-.4,.44,.12,1.21,.66,.86,1.44-.94,2.46-2.22,3.6-3.47,.79-.85-.6-1.94-1.27-.98h0Z"/></g><g><polygon class="i" points="2034.69 64.1 2034.1 44.67 2051.03 42.34 2048.78 63.8 2034.69 64.1"/><path class="h" d="M2045.37,50.59s-3.25,2.37-8.12,1.57c-4.87-.8-12.48-.7-13.99-.84-1.51-.13-8.07-3.36-8.07-3.36,0,0-2.75-3.28-2.94-5.58-.18-2.3,.43-4.9,.59-6.79,.16-1.89,1.64-1.38,2.62-3.95,.98-2.58-.95-6.54-.44-8.02,.51-1.48,4.58-4.54,5.43-5.61,.85-1.07,3.28-2.76,4.17-4.2,.89-1.44,6.56-5.51,6.56-5.51,0,0,9.53-.31,10.59,.54,1.07,.85,7.48,1.41,7.48,1.41l5.05,3.1s7.1,1.38,8.23,1.48c1.13,.1,4.77,1.94,5.74,3.92,.97,1.98,1.43,5.44,1.71,6.61,.28,1.17,.74,4.63,.74,4.63l.46,3.46s1.69,2.43,1.59,3.56c-.1,1.13-.36,4.15-1.21,5.22-.85,1.07-2.18,3.23-3.82,4.61-1.64,1.38-1.67,1.75-3.62,2.35-1.95,.59-5.45,1.43-5.45,1.43l-4.94-.05c-2.67,.15-8.36,.04-8.36,.04Z"/><path class="g" d="M2022.42,40.18c3.94,4.98,10.3,6.33,16.06,3.82,.57-.25,.16-1.17-.42-.99-5.26,1.56-11.05,1.07-14.38-3.79-.66-.95-1.98,.06-1.26,.97h0Z"/><path class="g" d="M2026.66,48.67c5.78,5.14,16.09,6.8,21.71,.53,.64-.71-.32-1.65-1.04-1.04-5.62,4.79-14.14,4.11-19.7-.47-.67-.55-1.64,.38-.97,.97h0Z"/><path class="g" d="M2044.89,50.2c5.4,2.15,11.29,1.94,16.52-.57,.59-.28,.17-1.27-.45-1.06-5.18,1.77-10.5,2.2-15.67,.16-.92-.36-1.31,1.11-.41,1.47h0Z"/><path class="g" d="M2036.3,39.53c2.51,.69,5.03,.38,7.38-.72,.62-.29,.08-1.2-.54-.92-2.07,.93-4.36,1.22-6.57,.66-.63-.16-.9,.8-.27,.97h0Z"/><path class="g" d="M2037.92,43.43c2.21,2.01,5.07,2.34,7.94,2.13,.64-.05,.64-1.04,0-1-2.55,.15-5.26-.06-7.28-1.79-.45-.39-1.12,.26-.66,.66h0Z"/><path class="g" d="M2054.42,41.74c2.87-.35,5.44-1.66,7.54-3.62,.4-.37-.14-1.09-.59-.77-2.06,1.47-4.4,2.75-6.96,2.99-.9,.08-.89,1.5,0,1.4h0Z"/><path class="g" d="M2066.21,37.66c-1.31,1.62-2.94,3.05-4.85,3.89-.66,.29-.18,1.43,.49,1.16,2.14-.85,3.85-2.34,5.48-3.93,.75-.72-.49-1.9-1.12-1.12h0Z"/><path class="g" d="M2061.51,30.5c-.9,1.29-1.97,2.46-3.02,3.62-.4,.45,.12,1.22,.66,.86,1.45-.95,2.48-2.24,3.64-3.5,.8-.86-.6-1.96-1.28-.98h0Z"/></g><rect class="f" x="2476.72" y="10.45" width="1258.81" height="69.93"/><g><path class="j" d="M2857.4,52.5c3.57,17.78-33.46,18.03-39.84,5.88-1.23-2.35-2-5.59,.93-6.87,4.84-2.11,7.59,4.78,10.27,6.99-1.2-3.75-2.6-14.6,4.03-13.85,5.55,.63,4.77,9.03,5.33,12.88,.81-3.18,1.85-13.53,7.55-12.57,4.56,.77,1.89,10.26,.01,12.27,2.15-3.68,10.05-13.07,11.72-4.73Z"/><path class="d" d="M2896.61,28.2c2.26,11.29-21.24,11.45-25.29,3.73-.78-1.49-1.27-3.55,.59-4.36,3.07-1.34,4.81,3.03,6.52,4.44-.76-2.38-1.65-9.26,2.56-8.79,3.52,.4,3.03,5.73,3.39,8.17,.51-2.02,1.18-8.59,4.79-7.98,2.89,.49,1.2,6.51,0,7.79,1.37-2.33,6.38-8.3,7.44-3Z"/></g><path class="j" d="M3574.61,50.05c3.57,17.78-33.46,18.03-39.84,5.88-1.23-2.35-2-5.59,.93-6.87,4.84-2.11,7.59,4.78,10.27,6.99-1.2-3.75-2.6-14.6,4.03-13.85,5.55,.63,4.77,9.03,5.33,12.88,.81-3.18,1.85-13.53,7.55-12.57,4.56,.77,1.89,10.26,.01,12.27,2.15-3.68,10.05-13.07,11.72-4.73Z"/><path class="j" d="M3155.93,35.26c3.57,17.78-33.46,18.03-39.84,5.88-1.23-2.35-2-5.59,.93-6.87,4.84-2.11,7.59,4.78,10.27,6.99-1.2-3.75-2.6-14.6,4.03-13.85,5.55,.63,4.77,9.03,5.33,12.88,.81-3.18,1.85-13.53,7.55-12.57,4.56,.77,1.89,10.26,.01,12.27,2.15-3.68,10.05-13.07,11.72-4.73Z"/><path class="d" d="M3678.62,28.2c2.26,11.29-21.24,11.45-25.29,3.73-.78-1.49-1.27-3.55,.59-4.36,3.07-1.34,4.81,3.03,6.52,4.44-.76-2.38-1.65-9.26,2.56-8.79,3.52,.4,3.03,5.73,3.39,8.17,.51-2.02,1.18-8.59,4.79-7.98,2.89,.49,1.2,6.51,0,7.79,1.37-2.33,6.38-8.3,7.44-3Z"/><path class="d" d="M2650.72,53.67c2.26,11.29-21.24,11.45-25.29,3.73-.78-1.49-1.27-3.55,.59-4.36,3.07-1.34,4.81,3.03,6.52,4.44-.76-2.38-1.65-9.26,2.56-8.79,3.52,.4,3.03,5.73,3.39,8.17,.51-2.02,1.18-8.59,4.79-7.98,2.89,.49,1.2,6.51,0,7.79,1.37-2.33,6.38-8.3,7.44-3Z"/><g><path class="i" d="M2573.94,56.94l-.3-14.34c-.08-3.71,2.64-6.89,6.31-7.4l1.37-.19c4.61-.63,8.63,3.14,8.29,7.78l-1.07,14.53c-.28,3.76-3.37,6.69-7.14,6.77h0c-4.04,.09-7.38-3.12-7.47-7.16Z"/><path class="e" d="M2586.55,41.99c-1.07-.01-2.12,.2-3.09,.65-1.36,.63-3.77,1.39-6.83,.88-4.83-.8-12.37-.7-13.87-.83-1.01-.09-4.28-1.57-6.32-2.52-1.22-.57-2.25-1.46-2.98-2.58s-1.51-2.57-1.61-3.75c-.18-2.27,.42-4.86,.59-6.73,.16-1.87,1.62-1.37,2.6-3.92,.97-2.55-.94-6.49-.44-7.95,.5-1.46,4.53-4.5,5.38-5.56,.84-1.06,3.25-2.73,4.13-4.16,.54-.88,2.85-2.73,4.57-4.03,1.25-.95,2.76-1.47,4.32-1.48,2.87-.03,7.4,.01,8.11,.58,.72,.57,3.89,1.01,5.84,1.23,1.06,.12,2.08,.47,2.99,1.03l2.45,1.5c.75,.46,1.58,.78,2.45,.95,2.09,.4,6.04,1.14,6.85,1.21,1.12,.1,4.73,1.92,5.69,3.89,.96,1.97,1.41,5.39,1.69,6.55,.28,1.15,.73,4.58,.73,4.58l.24,1.82c.13,.95,.43,1.88,.9,2.71,.45,.78,.94,1.8,.89,2.42-.1,1.12-.36,4.11-1.2,5.17-.84,1.06-2.16,3.2-3.79,4.57-1.62,1.37-1.66,1.74-3.59,2.33-1.31,.4-3.33,.91-4.49,1.19-.6,.15-1.2,.22-1.82,.21l-3.77-.04c-.14,0-.27,0-.41,0-1.69,.08-4.41,.07-6.22,.05Z"/><path class="g" d="M2561.93,31.64c3.9,4.93,10.21,6.28,15.92,3.79,.57-.25,.16-1.16-.42-.99-5.21,1.54-10.95,1.05-14.26-3.76-.65-.95-1.96,.06-1.25,.96h0Z"/><path class="g" d="M2566.13,40.06c5.73,5.09,15.95,6.74,21.52,.53,.63-.7-.32-1.63-1.03-1.03-5.57,4.75-14.01,4.07-19.52-.46-.67-.55-1.63,.37-.96,.96h0Z"/><path class="g" d="M2584.21,41.58c5.35,2.13,11.19,1.92,16.37-.57,.59-.28,.17-1.26-.44-1.05-5.13,1.75-10.41,2.18-15.53,.16-.91-.36-1.29,1.1-.4,1.46h0Z"/><path class="g" d="M2575.69,31c2.49,.69,4.99,.37,7.31-.71,.62-.29,.08-1.19-.53-.91-2.05,.92-4.32,1.21-6.51,.66-.62-.16-.89,.79-.27,.96h0Z"/><path class="g" d="M2577.29,34.86c2.19,1.99,5.03,2.32,7.87,2.11,.63-.05,.64-1.03,0-.99-2.53,.15-5.21-.06-7.21-1.78-.45-.39-1.11,.25-.66,.66h0Z"/><path class="g" d="M2593.65,33.19c2.85-.34,5.39-1.64,7.48-3.58,.4-.37-.13-1.08-.58-.76-2.04,1.46-4.36,2.72-6.89,2.96-.89,.08-.88,1.49,0,1.38h0Z"/><path class="g" d="M2605.33,29.15c-1.3,1.6-2.91,3.02-4.81,3.85-.65,.29-.18,1.42,.49,1.15,2.12-.85,3.82-2.32,5.43-3.9,.74-.72-.48-1.88-1.11-1.11h0Z"/><path class="g" d="M2600.68,22.05c-.89,1.28-1.95,2.44-3,3.59-.4,.44,.12,1.21,.66,.86,1.44-.94,2.46-2.22,3.6-3.47,.79-.85-.6-1.94-1.27-.98h0Z"/></g><g><polygon class="i" points="3267.74 64.1 3267.14 44.67 3284.07 42.34 3281.83 63.8 3267.74 64.1"/><path class="h" d="M3278.41,50.59s-3.25,2.37-8.12,1.57c-4.87-.8-12.48-.7-13.99-.84-1.51-.13-8.07-3.36-8.07-3.36,0,0-2.75-3.28-2.94-5.58-.18-2.3,.43-4.9,.59-6.79,.16-1.89,1.64-1.38,2.62-3.95,.98-2.58-.95-6.54-.44-8.02,.51-1.48,4.58-4.54,5.43-5.61,.85-1.07,3.28-2.76,4.17-4.2,.89-1.44,6.56-5.51,6.56-5.51,0,0,9.53-.31,10.59,.54,1.07,.85,7.48,1.41,7.48,1.41l5.05,3.1s7.1,1.38,8.23,1.48c1.13,.1,4.77,1.94,5.74,3.92,.97,1.98,1.43,5.44,1.71,6.61,.28,1.17,.74,4.63,.74,4.63l.46,3.46s1.69,2.43,1.59,3.56c-.1,1.13-.36,4.15-1.21,5.22-.85,1.07-2.18,3.23-3.82,4.61-1.64,1.38-1.67,1.75-3.62,2.35-1.95,.59-5.45,1.43-5.45,1.43l-4.94-.05c-2.67,.15-8.36,.04-8.36,.04Z"/><path class="g" d="M3255.47,40.18c3.94,4.98,10.3,6.33,16.06,3.82,.57-.25,.16-1.17-.42-.99-5.26,1.56-11.05,1.07-14.38-3.79-.66-.95-1.98,.06-1.26,.97h0Z"/><path class="g" d="M3259.7,48.67c5.78,5.14,16.09,6.8,21.71,.53,.64-.71-.32-1.65-1.04-1.04-5.62,4.79-14.14,4.11-19.7-.47-.67-.55-1.64,.38-.97,.97h0Z"/><path class="g" d="M3277.94,50.2c5.4,2.15,11.29,1.94,16.52-.57,.59-.28,.17-1.27-.45-1.06-5.18,1.77-10.5,2.2-15.67,.16-.92-.36-1.31,1.11-.41,1.47h0Z"/><path class="g" d="M3269.35,39.53c2.51,.69,5.03,.38,7.38-.72,.62-.29,.08-1.2-.54-.92-2.07,.93-4.36,1.22-6.57,.66-.63-.16-.9,.8-.27,.97h0Z"/><path class="g" d="M3270.96,43.43c2.21,2.01,5.07,2.34,7.94,2.13,.64-.05,.64-1.04,0-1-2.55,.15-5.26-.06-7.28-1.79-.45-.39-1.12,.26-.66,.66h0Z"/><path class="g" d="M3287.46,41.74c2.87-.35,5.44-1.66,7.54-3.62,.4-.37-.14-1.09-.59-.77-2.06,1.47-4.4,2.75-6.96,2.99-.9,.08-.89,1.5,0,1.4h0Z"/><path class="g" d="M3299.25,37.66c-1.31,1.62-2.94,3.05-4.85,3.89-.66,.29-.18,1.43,.49,1.16,2.14-.85,3.85-2.34,5.48-3.93,.75-.72-.49-1.9-1.12-1.12h0Z"/><path class="g" d="M3294.56,30.5c-.9,1.29-1.97,2.46-3.02,3.62-.4,.45,.12,1.22,.66,.86,1.45-.95,2.48-2.24,3.64-3.5,.8-.86-.6-1.96-1.28-.98h0Z"/></g><rect class="f" x="3720.4" y="10.45" width="1258.81" height="69.93"/><g><path class="j" d="M4101.08,52.5c3.57,17.78-33.46,18.03-39.84,5.88-1.23-2.35-2-5.59,.93-6.87,4.84-2.11,7.59,4.78,10.27,6.99-1.2-3.75-2.6-14.6,4.03-13.85,5.55,.63,4.77,9.03,5.33,12.88,.81-3.18,1.85-13.53,7.55-12.57,4.56,.77,1.89,10.26,.01,12.27,2.15-3.68,10.05-13.07,11.72-4.73Z"/><path class="d" d="M4140.29,28.2c2.26,11.29-21.24,11.45-25.29,3.73-.78-1.49-1.27-3.55,.59-4.36,3.07-1.34,4.81,3.03,6.52,4.44-.76-2.38-1.65-9.26,2.56-8.79,3.52,.4,3.03,5.73,3.39,8.17,.51-2.02,1.18-8.59,4.79-7.98,2.89,.49,1.2,6.51,0,7.79,1.37-2.33,6.38-8.3,7.44-3Z"/></g><path class="j" d="M4818.29,50.05c3.57,17.78-33.46,18.03-39.84,5.88-1.23-2.35-2-5.59,.93-6.87,4.84-2.11,7.59,4.78,10.27,6.99-1.2-3.75-2.6-14.6,4.03-13.85,5.55,.63,4.77,9.03,5.33,12.88,.81-3.18,1.85-13.53,7.55-12.57,4.56,.77,1.89,10.26,.01,12.27,2.15-3.68,10.05-13.07,11.72-4.73Z"/><path class="j" d="M4399.61,35.26c3.57,17.78-33.46,18.03-39.84,5.88-1.23-2.35-2-5.59,.93-6.87,4.84-2.11,7.59,4.78,10.27,6.99-1.2-3.75-2.6-14.6,4.03-13.85,5.55,.63,4.77,9.03,5.33,12.88,.81-3.18,1.85-13.53,7.55-12.57,4.56,.77,1.89,10.26,.01,12.27,2.15-3.68,10.05-13.07,11.72-4.73Z"/><path class="d" d="M4922.29,28.2c2.26,11.29-21.24,11.45-25.29,3.73-.78-1.49-1.27-3.55,.59-4.36,3.07-1.34,4.81,3.03,6.52,4.44-.76-2.38-1.65-9.26,2.56-8.79,3.52,.4,3.03,5.73,3.39,8.17,.51-2.02,1.18-8.59,4.79-7.98,2.89,.49,1.2,6.51,0,7.79,1.37-2.33,6.38-8.3,7.44-3Z"/><path class="d" d="M3894.4,53.67c2.26,11.29-21.24,11.45-25.29,3.73-.78-1.49-1.27-3.55,.59-4.36,3.07-1.34,4.81,3.03,6.52,4.44-.76-2.38-1.65-9.26,2.56-8.79,3.52,.4,3.03,5.73,3.39,8.17,.51-2.02,1.18-8.59,4.79-7.98,2.89,.49,1.2,6.51,0,7.79,1.37-2.33,6.38-8.3,7.44-3Z"/><g><path class="i" d="M3817.62,56.94l-.3-14.34c-.08-3.71,2.64-6.89,6.31-7.4l1.37-.19c4.61-.63,8.63,3.14,8.29,7.78l-1.07,14.53c-.28,3.76-3.37,6.69-7.14,6.77h0c-4.04,.09-7.38-3.12-7.47-7.16Z"/><path class="e" d="M3830.22,41.99c-1.07-.01-2.12,.2-3.09,.65-1.36,.63-3.77,1.39-6.83,.88-4.83-.8-12.37-.7-13.87-.83-1.01-.09-4.28-1.57-6.32-2.52-1.22-.57-2.25-1.46-2.98-2.58s-1.51-2.57-1.61-3.75c-.18-2.27,.42-4.86,.59-6.73,.16-1.87,1.62-1.37,2.6-3.92,.97-2.55-.94-6.49-.44-7.95,.5-1.46,4.53-4.5,5.38-5.56,.84-1.06,3.25-2.73,4.13-4.16,.54-.88,2.85-2.73,4.57-4.03,1.25-.95,2.76-1.47,4.32-1.48,2.87-.03,7.4,.01,8.11,.58,.72,.57,3.89,1.01,5.84,1.23,1.06,.12,2.08,.47,2.99,1.03l2.45,1.5c.75,.46,1.58,.78,2.45,.95,2.09,.4,6.04,1.14,6.85,1.21,1.12,.1,4.73,1.92,5.69,3.89,.96,1.97,1.41,5.39,1.69,6.55,.28,1.15,.73,4.58,.73,4.58l.24,1.82c.13,.95,.43,1.88,.9,2.71,.45,.78,.94,1.8,.89,2.42-.1,1.12-.36,4.11-1.2,5.17-.84,1.06-2.16,3.2-3.79,4.57-1.62,1.37-1.66,1.74-3.59,2.33-1.31,.4-3.33,.91-4.49,1.19-.6,.15-1.2,.22-1.82,.21l-3.77-.04c-.14,0-.27,0-.41,0-1.69,.08-4.41,.07-6.22,.05Z"/><path class="g" d="M3805.61,31.64c3.9,4.93,10.21,6.28,15.92,3.79,.57-.25,.16-1.16-.42-.99-5.21,1.54-10.95,1.05-14.26-3.76-.65-.95-1.96,.06-1.25,.96h0Z"/><path class="g" d="M3809.81,40.06c5.73,5.09,15.95,6.74,21.52,.53,.63-.7-.32-1.63-1.03-1.03-5.57,4.75-14.01,4.07-19.52-.46-.67-.55-1.63,.37-.96,.96h0Z"/><path class="g" d="M3827.88,41.58c5.35,2.13,11.19,1.92,16.37-.57,.59-.28,.17-1.26-.44-1.05-5.13,1.75-10.41,2.18-15.53,.16-.91-.36-1.29,1.1-.4,1.46h0Z"/><path class="g" d="M3819.37,31c2.49,.69,4.99,.37,7.31-.71,.62-.29,.08-1.19-.53-.91-2.05,.92-4.32,1.21-6.51,.66-.62-.16-.89,.79-.27,.96h0Z"/><path class="g" d="M3820.97,34.86c2.19,1.99,5.03,2.32,7.87,2.11,.63-.05,.64-1.03,0-.99-2.53,.15-5.21-.06-7.21-1.78-.45-.39-1.11,.25-.66,.66h0Z"/><path class="g" d="M3837.32,33.19c2.85-.34,5.39-1.64,7.48-3.58,.4-.37-.13-1.08-.58-.76-2.04,1.46-4.36,2.72-6.89,2.96-.89,.08-.88,1.49,0,1.38h0Z"/><path class="g" d="M3849.01,29.15c-1.3,1.6-2.91,3.02-4.81,3.85-.65,.29-.18,1.42,.49,1.15,2.12-.85,3.82-2.32,5.43-3.9,.74-.72-.48-1.88-1.11-1.11h0Z"/><path class="g" d="M3844.35,22.05c-.89,1.28-1.95,2.44-3,3.59-.4,.44,.12,1.21,.66,.86,1.44-.94,2.46-2.22,3.6-3.47,.79-.85-.6-1.94-1.27-.98h0Z"/></g><g><polygon class="i" points="4511.41 64.1 4510.82 44.67 4527.75 42.34 4525.5 63.8 4511.41 64.1"/><path class="h" d="M4522.09,50.59s-3.25,2.37-8.12,1.57c-4.87-.8-12.48-.7-13.99-.84-1.51-.13-8.07-3.36-8.07-3.36,0,0-2.75-3.28-2.94-5.58-.18-2.3,.43-4.9,.59-6.79,.16-1.89,1.64-1.38,2.62-3.95,.98-2.58-.95-6.54-.44-8.02,.51-1.48,4.58-4.54,5.43-5.61,.85-1.07,3.28-2.76,4.17-4.2,.89-1.44,6.56-5.51,6.56-5.51,0,0,9.53-.31,10.59,.54,1.07,.85,7.48,1.41,7.48,1.41l5.05,3.1s7.1,1.38,8.23,1.48c1.13,.1,4.77,1.94,5.74,3.92,.97,1.98,1.43,5.44,1.71,6.61,.28,1.17,.74,4.63,.74,4.63l.46,3.46s1.69,2.43,1.59,3.56c-.1,1.13-.36,4.15-1.21,5.22-.85,1.07-2.18,3.23-3.82,4.61-1.64,1.38-1.67,1.75-3.62,2.35-1.95,.59-5.45,1.43-5.45,1.43l-4.94-.05c-2.67,.15-8.36,.04-8.36,.04Z"/><path class="g" d="M4499.14,40.18c3.94,4.98,10.3,6.33,16.06,3.82,.57-.25,.16-1.17-.42-.99-5.26,1.56-11.05,1.07-14.38-3.79-.66-.95-1.98,.06-1.26,.97h0Z"/><path class="g" d="M4503.38,48.67c5.78,5.14,16.09,6.8,21.71,.53,.64-.71-.32-1.65-1.04-1.04-5.62,4.79-14.14,4.11-19.7-.47-.67-.55-1.64,.38-.97,.97h0Z"/><path class="g" d="M4521.61,50.2c5.4,2.15,11.29,1.94,16.52-.57,.59-.28,.17-1.27-.45-1.06-5.18,1.77-10.5,2.2-15.67,.16-.92-.36-1.31,1.11-.41,1.47h0Z"/><path class="g" d="M4513.02,39.53c2.51,.69,5.03,.38,7.38-.72,.62-.29,.08-1.2-.54-.92-2.07,.93-4.36,1.22-6.57,.66-.63-.16-.9,.8-.27,.97h0Z"/><path class="g" d="M4514.64,43.43c2.21,2.01,5.07,2.34,7.94,2.13,.64-.05,.64-1.04,0-1-2.55,.15-5.26-.06-7.28-1.79-.45-.39-1.12,.26-.66,.66h0Z"/><path class="g" d="M4531.14,41.74c2.87-.35,5.44-1.66,7.54-3.62,.4-.37-.14-1.09-.59-.77-2.06,1.47-4.4,2.75-6.96,2.99-.9,.08-.89,1.5,0,1.4h0Z"/><path class="g" d="M4542.93,37.66c-1.31,1.62-2.94,3.05-4.85,3.89-.66,.29-.18,1.43,.49,1.16,2.14-.85,3.85-2.34,5.48-3.93,.75-.72-.49-1.9-1.12-1.12h0Z"/><path class="g" d="M4538.23,30.5c-.9,1.29-1.97,2.46-3.02,3.62-.4,.45,.12,1.22,.66,.86,1.45-.95,2.48-2.24,3.64-3.5,.8-.86-.6-1.96-1.28-.98h0Z"/></g></g><g><rect class="f" x="4922.45" y="10.45" width="1258.81" height="69.93"/><g><path class="j" d="M5303.13,52.5c3.57,17.78-33.46,18.03-39.84,5.88-1.23-2.35-2-5.59,.93-6.87,4.84-2.11,7.59,4.78,10.27,6.99-1.2-3.75-2.6-14.6,4.03-13.85,5.55,.63,4.77,9.03,5.33,12.88,.81-3.18,1.85-13.53,7.55-12.57,4.56,.77,1.89,10.26,.01,12.27,2.15-3.68,10.05-13.07,11.72-4.73Z"/><path class="d" d="M5342.34,28.2c2.26,11.29-21.24,11.45-25.29,3.73-.78-1.49-1.27-3.55,.59-4.36,3.07-1.34,4.81,3.03,6.52,4.44-.76-2.38-1.65-9.26,2.56-8.79,3.52,.4,3.03,5.73,3.39,8.17,.51-2.02,1.18-8.59,4.79-7.98,2.89,.49,1.2,6.51,0,7.79,1.37-2.33,6.38-8.3,7.44-3Z"/></g><path class="j" d="M6020.34,50.05c3.57,17.78-33.46,18.03-39.84,5.88-1.23-2.35-2-5.59,.93-6.87,4.84-2.11,7.59,4.78,10.27,6.99-1.2-3.75-2.6-14.6,4.03-13.85,5.55,.63,4.77,9.03,5.33,12.88,.81-3.18,1.85-13.53,7.55-12.57,4.56,.77,1.89,10.26,.01,12.27,2.15-3.68,10.05-13.07,11.72-4.73Z"/><path class="j" d="M5601.66,35.26c3.57,17.78-33.46,18.03-39.84,5.88-1.23-2.35-2-5.59,.93-6.87,4.84-2.11,7.59,4.78,10.27,6.99-1.2-3.75-2.6-14.6,4.03-13.85,5.55,.63,4.77,9.03,5.33,12.88,.81-3.18,1.85-13.53,7.55-12.57,4.56,.77,1.89,10.26,.01,12.27,2.15-3.68,10.05-13.07,11.72-4.73Z"/><path class="d" d="M6124.34,28.2c2.26,11.29-21.24,11.45-25.29,3.73-.78-1.49-1.27-3.55,.59-4.36,3.07-1.34,4.81,3.03,6.52,4.44-.76-2.38-1.65-9.26,2.56-8.79,3.52,.4,3.03,5.73,3.39,8.17,.51-2.02,1.18-8.59,4.79-7.98,2.89,.49,1.2,6.51,0,7.79,1.37-2.33,6.38-8.3,7.44-3Z"/><path class="d" d="M5096.45,53.67c2.26,11.29-21.24,11.45-25.29,3.73-.78-1.49-1.27-3.55,.59-4.36,3.07-1.34,4.81,3.03,6.52,4.44-.76-2.38-1.65-9.26,2.56-8.79,3.52,.4,3.03,5.73,3.39,8.17,.51-2.02,1.18-8.59,4.79-7.98,2.89,.49,1.2,6.51,0,7.79,1.37-2.33,6.38-8.3,7.44-3Z"/><g><path class="i" d="M5019.67,56.94l-.3-14.34c-.08-3.71,2.64-6.89,6.31-7.4l1.37-.19c4.61-.63,8.63,3.14,8.29,7.78l-1.07,14.53c-.28,3.76-3.37,6.69-7.14,6.77h0c-4.04,.09-7.38-3.12-7.47-7.16Z"/><path class="e" d="M5032.27,41.99c-1.07-.01-2.12,.2-3.09,.65-1.36,.63-3.77,1.39-6.83,.88-4.83-.8-12.37-.7-13.87-.83-1.01-.09-4.28-1.57-6.32-2.52-1.22-.57-2.25-1.46-2.98-2.58s-1.51-2.57-1.61-3.75c-.18-2.27,.42-4.86,.59-6.73,.16-1.87,1.62-1.37,2.6-3.92,.97-2.55-.94-6.49-.44-7.95,.5-1.46,4.53-4.5,5.38-5.56,.84-1.06,3.25-2.73,4.13-4.16,.54-.88,2.85-2.73,4.57-4.03,1.25-.95,2.76-1.47,4.32-1.48,2.87-.03,7.4,.01,8.11,.58,.72,.57,3.89,1.01,5.84,1.23,1.06,.12,2.08,.47,2.99,1.03l2.45,1.5c.75,.46,1.58,.78,2.45,.95,2.09,.4,6.04,1.14,6.85,1.21,1.12,.1,4.73,1.92,5.69,3.89,.96,1.97,1.41,5.39,1.69,6.55,.28,1.15,.73,4.58,.73,4.58l.24,1.82c.13,.95,.43,1.88,.9,2.71,.45,.78,.94,1.8,.89,2.42-.1,1.12-.36,4.11-1.2,5.17-.84,1.06-2.16,3.2-3.79,4.57-1.62,1.37-1.66,1.74-3.59,2.33-1.31,.4-3.33,.91-4.49,1.19-.6,.15-1.2,.22-1.82,.21l-3.77-.04c-.14,0-.27,0-.41,0-1.69,.08-4.41,.07-6.22,.05Z"/><path class="g" d="M5007.66,31.64c3.9,4.93,10.21,6.28,15.92,3.79,.57-.25,.16-1.16-.42-.99-5.21,1.54-10.95,1.05-14.26-3.76-.65-.95-1.96,.06-1.25,.96h0Z"/><path class="g" d="M5011.86,40.06c5.73,5.09,15.95,6.74,21.52,.53,.63-.7-.32-1.63-1.03-1.03-5.57,4.75-14.01,4.07-19.52-.46-.67-.55-1.63,.37-.96,.96h0Z"/><path class="g" d="M5029.93,41.58c5.35,2.13,11.19,1.92,16.37-.57,.59-.28,.17-1.26-.44-1.05-5.13,1.75-10.41,2.18-15.53,.16-.91-.36-1.29,1.1-.4,1.46h0Z"/><path class="g" d="M5021.42,31c2.49,.69,4.99,.37,7.31-.71,.62-.29,.08-1.19-.53-.91-2.05,.92-4.32,1.21-6.51,.66-.62-.16-.89,.79-.27,.96h0Z"/><path class="g" d="M5023.02,34.86c2.19,1.99,5.03,2.32,7.87,2.11,.63-.05,.64-1.03,0-.99-2.53,.15-5.21-.06-7.21-1.78-.45-.39-1.11,.25-.66,.66h0Z"/><path class="g" d="M5039.37,33.19c2.85-.34,5.39-1.64,7.48-3.58,.4-.37-.13-1.08-.58-.76-2.04,1.46-4.36,2.72-6.89,2.96-.89,.08-.88,1.49,0,1.38h0Z"/><path class="g" d="M5051.06,29.15c-1.3,1.6-2.91,3.02-4.81,3.85-.65,.29-.18,1.42,.49,1.15,2.12-.85,3.82-2.32,5.43-3.9,.74-.72-.48-1.88-1.11-1.11h0Z"/><path class="g" d="M5046.4,22.05c-.89,1.28-1.95,2.44-3,3.59-.4,.44,.12,1.21,.66,.86,1.44-.94,2.46-2.22,3.6-3.47,.79-.85-.6-1.94-1.27-.98h0Z"/></g><g><polygon class="i" points="5713.46 64.1 5712.87 44.67 5729.8 42.34 5727.55 63.8 5713.46 64.1"/><path class="h" d="M5724.14,50.59s-3.25,2.37-8.12,1.57c-4.87-.8-12.48-.7-13.99-.84-1.51-.13-8.07-3.36-8.07-3.36,0,0-2.75-3.28-2.94-5.58-.18-2.3,.43-4.9,.59-6.79,.16-1.89,1.64-1.38,2.62-3.95,.98-2.58-.95-6.54-.44-8.02,.51-1.48,4.58-4.54,5.43-5.61,.85-1.07,3.28-2.76,4.17-4.2,.89-1.44,6.56-5.51,6.56-5.51,0,0,9.53-.31,10.59,.54,1.07,.85,7.48,1.41,7.48,1.41l5.05,3.1s7.1,1.38,8.23,1.48c1.13,.1,4.77,1.94,5.74,3.92,.97,1.98,1.43,5.44,1.71,6.61,.28,1.17,.74,4.63,.74,4.63l.46,3.46s1.69,2.43,1.59,3.56c-.1,1.13-.36,4.15-1.21,5.22-.85,1.07-2.18,3.23-3.82,4.61-1.64,1.38-1.67,1.75-3.62,2.35-1.95,.59-5.45,1.43-5.45,1.43l-4.94-.05c-2.67,.15-8.36,.04-8.36,.04Z"/><path class="g" d="M5701.19,40.18c3.94,4.98,10.3,6.33,16.06,3.82,.57-.25,.16-1.17-.42-.99-5.26,1.56-11.05,1.07-14.38-3.79-.66-.95-1.98,.06-1.26,.97h0Z"/><path class="g" d="M5705.43,48.67c5.78,5.14,16.09,6.8,21.71,.53,.64-.71-.32-1.65-1.04-1.04-5.62,4.79-14.14,4.11-19.7-.47-.67-.55-1.64,.38-.97,.97h0Z"/><path class="g" d="M5723.66,50.2c5.4,2.15,11.29,1.94,16.52-.57,.59-.28,.17-1.27-.45-1.06-5.18,1.77-10.5,2.2-15.67,.16-.92-.36-1.31,1.11-.41,1.47h0Z"/><path class="g" d="M5715.08,39.53c2.51,.69,5.03,.38,7.38-.72,.62-.29,.08-1.2-.54-.92-2.07,.93-4.36,1.22-6.57,.66-.63-.16-.9,.8-.27,.97h0Z"/><path class="g" d="M5716.69,43.43c2.21,2.01,5.07,2.34,7.94,2.13,.64-.05,.64-1.04,0-1-2.55,.15-5.26-.06-7.28-1.79-.45-.39-1.12,.26-.66,.66h0Z"/><path class="g" d="M5733.19,41.74c2.87-.35,5.44-1.66,7.54-3.62,.4-.37-.14-1.09-.59-.77-2.06,1.47-4.4,2.75-6.96,2.99-.9,.08-.89,1.5,0,1.4h0Z"/><path class="g" d="M5744.98,37.66c-1.31,1.62-2.94,3.05-4.85,3.89-.66,.29-.18,1.43,.49,1.16,2.14-.85,3.85-2.34,5.48-3.93,.75-.72-.49-1.9-1.12-1.12h0Z"/><path class="g" d="M5740.28,30.5c-.9,1.29-1.97,2.46-3.02,3.62-.4,.45,.12,1.22,.66,.86,1.45-.95,2.48-2.24,3.64-3.5,.8-.86-.6-1.96-1.28-.98h0Z"/></g><rect class="f" x="6166.12" y="10.45" width="1258.81" height="69.93"/><g><path class="j" d="M6546.81,52.5c3.57,17.78-33.46,18.03-39.84,5.88-1.23-2.35-2-5.59,.93-6.87,4.84-2.11,7.59,4.78,10.27,6.99-1.2-3.75-2.6-14.6,4.03-13.85,5.55,.63,4.77,9.03,5.33,12.88,.81-3.18,1.85-13.53,7.55-12.57,4.56,.77,1.89,10.26,.01,12.27,2.15-3.68,10.05-13.07,11.72-4.73Z"/><path class="d" d="M6586.02,28.2c2.26,11.29-21.24,11.45-25.29,3.73-.78-1.49-1.27-3.55,.59-4.36,3.07-1.34,4.81,3.03,6.52,4.44-.76-2.38-1.65-9.26,2.56-8.79,3.52,.4,3.03,5.73,3.39,8.17,.51-2.02,1.18-8.59,4.79-7.98,2.89,.49,1.2,6.51,0,7.79,1.37-2.33,6.38-8.3,7.44-3Z"/></g><path class="j" d="M7264.01,50.05c3.57,17.78-33.46,18.03-39.84,5.88-1.23-2.35-2-5.59,.93-6.87,4.84-2.11,7.59,4.78,10.27,6.99-1.2-3.75-2.6-14.6,4.03-13.85,5.55,.63,4.77,9.03,5.33,12.88,.81-3.18,1.85-13.53,7.55-12.57,4.56,.77,1.89,10.26,.01,12.27,2.15-3.68,10.05-13.07,11.72-4.73Z"/><path class="j" d="M6845.33,35.26c3.57,17.78-33.46,18.03-39.84,5.88-1.23-2.35-2-5.59,.93-6.87,4.84-2.11,7.59,4.78,10.27,6.99-1.2-3.75-2.6-14.6,4.03-13.85,5.55,.63,4.77,9.03,5.33,12.88,.81-3.18,1.85-13.53,7.55-12.57,4.56,.77,1.89,10.26,.01,12.27,2.15-3.68,10.05-13.07,11.72-4.73Z"/><path class="d" d="M7368.02,28.2c2.26,11.29-21.24,11.45-25.29,3.73-.78-1.49-1.27-3.55,.59-4.36,3.07-1.34,4.81,3.03,6.52,4.44-.76-2.38-1.65-9.26,2.56-8.79,3.52,.4,3.03,5.73,3.39,8.17,.51-2.02,1.18-8.59,4.79-7.98,2.89,.49,1.2,6.51,0,7.79,1.37-2.33,6.38-8.3,7.44-3Z"/><path class="d" d="M6340.13,53.67c2.26,11.29-21.24,11.45-25.29,3.73-.78-1.49-1.27-3.55,.59-4.36,3.07-1.34,4.81,3.03,6.52,4.44-.76-2.38-1.65-9.26,2.56-8.79,3.52,.4,3.03,5.73,3.39,8.17,.51-2.02,1.18-8.59,4.79-7.98,2.89,.49,1.2,6.51,0,7.79,1.37-2.33,6.38-8.3,7.44-3Z"/><g><path class="i" d="M6263.35,56.94l-.3-14.34c-.08-3.71,2.64-6.89,6.31-7.4l1.37-.19c4.61-.63,8.63,3.14,8.29,7.78l-1.07,14.53c-.28,3.76-3.37,6.69-7.14,6.77h0c-4.04,.09-7.38-3.12-7.47-7.16Z"/><path class="e" d="M6275.95,41.99c-1.07-.01-2.12,.2-3.09,.65-1.36,.63-3.77,1.39-6.83,.88-4.83-.8-12.37-.7-13.87-.83-1.01-.09-4.28-1.57-6.32-2.52-1.22-.57-2.25-1.46-2.98-2.58s-1.51-2.57-1.61-3.75c-.18-2.27,.42-4.86,.59-6.73,.16-1.87,1.62-1.37,2.6-3.92,.97-2.55-.94-6.49-.44-7.95,.5-1.46,4.53-4.5,5.38-5.56,.84-1.06,3.25-2.73,4.13-4.16,.54-.88,2.85-2.73,4.57-4.03,1.25-.95,2.76-1.47,4.32-1.48,2.87-.03,7.4,.01,8.11,.58,.72,.57,3.89,1.01,5.84,1.23,1.06,.12,2.08,.47,2.99,1.03l2.45,1.5c.75,.46,1.58,.78,2.45,.95,2.09,.4,6.04,1.14,6.85,1.21,1.12,.1,4.73,1.92,5.69,3.89,.96,1.97,1.41,5.39,1.69,6.55,.28,1.15,.73,4.58,.73,4.58l.24,1.82c.13,.95,.43,1.88,.9,2.71,.45,.78,.94,1.8,.89,2.42-.1,1.12-.36,4.11-1.2,5.17-.84,1.06-2.16,3.2-3.79,4.57-1.62,1.37-1.66,1.74-3.59,2.33-1.31,.4-3.33,.91-4.49,1.19-.6,.15-1.2,.22-1.82,.21l-3.77-.04c-.14,0-.27,0-.41,0-1.69,.08-4.41,.07-6.22,.05Z"/><path class="g" d="M6251.34,31.64c3.9,4.93,10.21,6.28,15.92,3.79,.57-.25,.16-1.16-.42-.99-5.21,1.54-10.95,1.05-14.26-3.76-.65-.95-1.96,.06-1.25,.96h0Z"/><path class="g" d="M6255.54,40.06c5.73,5.09,15.95,6.74,21.52,.53,.63-.7-.32-1.63-1.03-1.03-5.57,4.75-14.01,4.07-19.52-.46-.67-.55-1.63,.37-.96,.96h0Z"/><path class="g" d="M6273.61,41.58c5.35,2.13,11.19,1.92,16.37-.57,.59-.28,.17-1.26-.44-1.05-5.13,1.75-10.41,2.18-15.53,.16-.91-.36-1.29,1.1-.4,1.46h0Z"/><path class="g" d="M6265.1,31c2.49,.69,4.99,.37,7.31-.71,.62-.29,.08-1.19-.53-.91-2.05,.92-4.32,1.21-6.51,.66-.62-.16-.89,.79-.27,.96h0Z"/><path class="g" d="M6266.69,34.86c2.19,1.99,5.03,2.32,7.87,2.11,.63-.05,.64-1.03,0-.99-2.53,.15-5.21-.06-7.21-1.78-.45-.39-1.11,.25-.66,.66h0Z"/><path class="g" d="M6283.05,33.19c2.85-.34,5.39-1.64,7.48-3.58,.4-.37-.13-1.08-.58-.76-2.04,1.46-4.36,2.72-6.89,2.96-.89,.08-.88,1.49,0,1.38h0Z"/><path class="g" d="M6294.73,29.15c-1.3,1.6-2.91,3.02-4.81,3.85-.65,.29-.18,1.42,.49,1.15,2.12-.85,3.82-2.32,5.43-3.9,.74-.72-.48-1.88-1.11-1.11h0Z"/><path class="g" d="M6290.08,22.05c-.89,1.28-1.95,2.44-3,3.59-.4,.44,.12,1.21,.66,.86,1.44-.94,2.46-2.22,3.6-3.47,.79-.85-.6-1.94-1.27-.98h0Z"/></g><g><polygon class="i" points="6957.14 64.1 6956.55 44.67 6973.47 42.34 6971.23 63.8 6957.14 64.1"/><path class="h" d="M6967.82,50.59s-3.25,2.37-8.12,1.57c-4.87-.8-12.48-.7-13.99-.84-1.51-.13-8.07-3.36-8.07-3.36,0,0-2.75-3.28-2.94-5.58-.18-2.3,.43-4.9,.59-6.79,.16-1.89,1.64-1.38,2.62-3.95,.98-2.58-.95-6.54-.44-8.02,.51-1.48,4.58-4.54,5.43-5.61,.85-1.07,3.28-2.76,4.17-4.2,.89-1.44,6.56-5.51,6.56-5.51,0,0,9.53-.31,10.59,.54,1.07,.85,7.48,1.41,7.48,1.41l5.05,3.1s7.1,1.38,8.23,1.48c1.13,.1,4.77,1.94,5.74,3.92,.97,1.98,1.43,5.44,1.71,6.61,.28,1.17,.74,4.63,.74,4.63l.46,3.46s1.69,2.43,1.59,3.56c-.1,1.13-.36,4.15-1.21,5.22-.85,1.07-2.18,3.23-3.82,4.61-1.64,1.38-1.67,1.75-3.62,2.35-1.95,.59-5.45,1.43-5.45,1.43l-4.94-.05c-2.67,.15-8.36,.04-8.36,.04Z"/><path class="g" d="M6944.87,40.18c3.94,4.98,10.3,6.33,16.06,3.82,.57-.25,.16-1.17-.42-.99-5.26,1.56-11.05,1.07-14.38-3.79-.66-.95-1.98,.06-1.26,.97h0Z"/><path class="g" d="M6949.1,48.67c5.78,5.14,16.09,6.8,21.71,.53,.64-.71-.32-1.65-1.04-1.04-5.62,4.79-14.14,4.11-19.7-.47-.67-.55-1.64,.38-.97,.97h0Z"/><path class="g" d="M6967.34,50.2c5.4,2.15,11.29,1.94,16.52-.57,.59-.28,.17-1.27-.45-1.06-5.18,1.77-10.5,2.2-15.67,.16-.92-.36-1.31,1.11-.41,1.47h0Z"/><path class="g" d="M6958.75,39.53c2.51,.69,5.03,.38,7.38-.72,.62-.29,.08-1.2-.54-.92-2.07,.93-4.36,1.22-6.57,.66-.63-.16-.9,.8-.27,.97h0Z"/><path class="g" d="M6960.36,43.43c2.21,2.01,5.07,2.34,7.94,2.13,.64-.05,.64-1.04,0-1-2.55,.15-5.26-.06-7.28-1.79-.45-.39-1.12,.26-.66,.66h0Z"/><path class="g" d="M6976.87,41.74c2.87-.35,5.44-1.66,7.54-3.62,.4-.37-.14-1.09-.59-.77-2.06,1.47-4.4,2.75-6.96,2.99-.9,.08-.89,1.5,0,1.4h0Z"/><path class="g" d="M6988.66,37.66c-1.31,1.62-2.94,3.05-4.85,3.89-.66,.29-.18,1.43,.49,1.16,2.14-.85,3.85-2.34,5.48-3.93,.75-.72-.49-1.9-1.12-1.12h0Z"/><path class="g" d="M6983.96,30.5c-.9,1.29-1.97,2.46-3.02,3.62-.4,.45,.12,1.22,.66,.86,1.45-.95,2.48-2.24,3.64-3.5,.8-.86-.6-1.96-1.28-.98h0Z"/></g><rect class="f" x="7399.17" y="10.45" width="1258.81" height="69.93"/><g><path class="j" d="M7779.85,52.5c3.57,17.78-33.46,18.03-39.84,5.88-1.23-2.35-2-5.59,.93-6.87,4.84-2.11,7.59,4.78,10.27,6.99-1.2-3.75-2.6-14.6,4.03-13.85,5.55,.63,4.77,9.03,5.33,12.88,.81-3.18,1.85-13.53,7.55-12.57,4.56,.77,1.89,10.26,.01,12.27,2.15-3.68,10.05-13.07,11.72-4.73Z"/><path class="d" d="M7819.06,28.2c2.26,11.29-21.24,11.45-25.29,3.73-.78-1.49-1.27-3.55,.59-4.36,3.07-1.34,4.81,3.03,6.52,4.44-.76-2.38-1.65-9.26,2.56-8.79,3.52,.4,3.03,5.73,3.39,8.17,.51-2.02,1.18-8.59,4.79-7.98,2.89,.49,1.2,6.51,0,7.79,1.37-2.33,6.38-8.3,7.44-3Z"/></g><path class="j" d="M8497.06,50.05c3.57,17.78-33.46,18.03-39.84,5.88-1.23-2.35-2-5.59,.93-6.87,4.84-2.11,7.59,4.78,10.27,6.99-1.2-3.75-2.6-14.6,4.03-13.85,5.55,.63,4.77,9.03,5.33,12.88,.81-3.18,1.85-13.53,7.55-12.57,4.56,.77,1.89,10.26,.01,12.27,2.15-3.68,10.05-13.07,11.72-4.73Z"/><path class="j" d="M8078.38,35.26c3.57,17.78-33.46,18.03-39.84,5.88-1.23-2.35-2-5.59,.93-6.87,4.84-2.11,7.59,4.78,10.27,6.99-1.2-3.75-2.6-14.6,4.03-13.85,5.55,.63,4.77,9.03,5.33,12.88,.81-3.18,1.85-13.53,7.55-12.57,4.56,.77,1.89,10.26,.01,12.27,2.15-3.68,10.05-13.07,11.72-4.73Z"/><path class="d" d="M8601.06,28.2c2.26,11.29-21.24,11.45-25.29,3.73-.78-1.49-1.27-3.55,.59-4.36,3.07-1.34,4.81,3.03,6.52,4.44-.76-2.38-1.65-9.26,2.56-8.79,3.52,.4,3.03,5.73,3.39,8.17,.51-2.02,1.18-8.59,4.79-7.98,2.89,.49,1.2,6.51,0,7.79,1.37-2.33,6.38-8.3,7.44-3Z"/><path class="d" d="M7573.17,53.67c2.26,11.29-21.24,11.45-25.29,3.73-.78-1.49-1.27-3.55,.59-4.36,3.07-1.34,4.81,3.03,6.52,4.44-.76-2.38-1.65-9.26,2.56-8.79,3.52,.4,3.03,5.73,3.39,8.17,.51-2.02,1.18-8.59,4.79-7.98,2.89,.49,1.2,6.51,0,7.79,1.37-2.33,6.38-8.3,7.44-3Z"/><g><path class="i" d="M7496.39,56.94l-.3-14.34c-.08-3.71,2.64-6.89,6.31-7.4l1.37-.19c4.61-.63,8.63,3.14,8.29,7.78l-1.07,14.53c-.28,3.76-3.37,6.69-7.14,6.77h0c-4.04,.09-7.38-3.12-7.47-7.16Z"/><path class="e" d="M7508.99,41.99c-1.07-.01-2.12,.2-3.09,.65-1.36,.63-3.77,1.39-6.83,.88-4.83-.8-12.37-.7-13.87-.83-1.01-.09-4.28-1.57-6.32-2.52-1.22-.57-2.25-1.46-2.98-2.58s-1.51-2.57-1.61-3.75c-.18-2.27,.42-4.86,.59-6.73,.16-1.87,1.62-1.37,2.6-3.92,.97-2.55-.94-6.49-.44-7.95,.5-1.46,4.53-4.5,5.38-5.56,.84-1.06,3.25-2.73,4.13-4.16,.54-.88,2.85-2.73,4.57-4.03,1.25-.95,2.76-1.47,4.32-1.48,2.87-.03,7.4,.01,8.11,.58,.72,.57,3.89,1.01,5.84,1.23,1.06,.12,2.08,.47,2.99,1.03l2.45,1.5c.75,.46,1.58,.78,2.45,.95,2.09,.4,6.04,1.14,6.85,1.21,1.12,.1,4.73,1.92,5.69,3.89,.96,1.97,1.41,5.39,1.69,6.55,.28,1.15,.73,4.58,.73,4.58l.24,1.82c.13,.95,.43,1.88,.9,2.71,.45,.78,.94,1.8,.89,2.42-.1,1.12-.36,4.11-1.2,5.17-.84,1.06-2.16,3.2-3.79,4.57-1.62,1.37-1.66,1.74-3.59,2.33-1.31,.4-3.33,.91-4.49,1.19-.6,.15-1.2,.22-1.82,.21l-3.77-.04c-.14,0-.27,0-.41,0-1.69,.08-4.41,.07-6.22,.05Z"/><path class="g" d="M7484.38,31.64c3.9,4.93,10.21,6.28,15.92,3.79,.57-.25,.16-1.16-.42-.99-5.21,1.54-10.95,1.05-14.26-3.76-.65-.95-1.96,.06-1.25,.96h0Z"/><path class="g" d="M7488.58,40.06c5.73,5.09,15.95,6.74,21.52,.53,.63-.7-.32-1.63-1.03-1.03-5.57,4.75-14.01,4.07-19.52-.46-.67-.55-1.63,.37-.96,.96h0Z"/><path class="g" d="M7506.65,41.58c5.35,2.13,11.19,1.92,16.37-.57,.59-.28,.17-1.26-.44-1.05-5.13,1.75-10.41,2.18-15.53,.16-.91-.36-1.29,1.1-.4,1.46h0Z"/><path class="g" d="M7498.14,31c2.49,.69,4.99,.37,7.31-.71,.62-.29,.08-1.19-.53-.91-2.05,.92-4.32,1.21-6.51,.66-.62-.16-.89,.79-.27,.96h0Z"/><path class="g" d="M7499.74,34.86c2.19,1.99,5.03,2.32,7.87,2.11,.63-.05,.64-1.03,0-.99-2.53,.15-5.21-.06-7.21-1.78-.45-.39-1.11,.25-.66,.66h0Z"/><path class="g" d="M7516.09,33.19c2.85-.34,5.39-1.64,7.48-3.58,.4-.37-.13-1.08-.58-.76-2.04,1.46-4.36,2.72-6.89,2.96-.89,.08-.88,1.49,0,1.38h0Z"/><path class="g" d="M7527.78,29.15c-1.3,1.6-2.91,3.02-4.81,3.85-.65,.29-.18,1.42,.49,1.15,2.12-.85,3.82-2.32,5.43-3.9,.74-.72-.48-1.88-1.11-1.11h0Z"/><path class="g" d="M7523.12,22.05c-.89,1.28-1.95,2.44-3,3.59-.4,.44,.12,1.21,.66,.86,1.44-.94,2.46-2.22,3.6-3.47,.79-.85-.6-1.94-1.27-.98h0Z"/></g><g><polygon class="i" points="8190.18 64.1 8189.59 44.67 8206.52 42.34 8204.27 63.8 8190.18 64.1"/><path class="h" d="M8200.86,50.59s-3.25,2.37-8.12,1.57c-4.87-.8-12.48-.7-13.99-.84-1.51-.13-8.07-3.36-8.07-3.36,0,0-2.75-3.28-2.94-5.58-.18-2.3,.43-4.9,.59-6.79,.16-1.89,1.64-1.38,2.62-3.95,.98-2.58-.95-6.54-.44-8.02,.51-1.48,4.58-4.54,5.43-5.61,.85-1.07,3.28-2.76,4.17-4.2,.89-1.44,6.56-5.51,6.56-5.51,0,0,9.53-.31,10.59,.54,1.07,.85,7.48,1.41,7.48,1.41l5.05,3.1s7.1,1.38,8.23,1.48c1.13,.1,4.77,1.94,5.74,3.92,.97,1.98,1.43,5.44,1.71,6.61,.28,1.17,.74,4.63,.74,4.63l.46,3.46s1.69,2.43,1.59,3.56c-.1,1.13-.36,4.15-1.21,5.22-.85,1.07-2.18,3.23-3.82,4.61-1.64,1.38-1.67,1.75-3.62,2.35-1.95,.59-5.45,1.43-5.45,1.43l-4.94-.05c-2.67,.15-8.36,.04-8.36,.04Z"/><path class="g" d="M8177.91,40.18c3.94,4.98,10.3,6.33,16.06,3.82,.57-.25,.16-1.17-.42-.99-5.26,1.56-11.05,1.07-14.38-3.79-.66-.95-1.98,.06-1.26,.97h0Z"/><path class="g" d="M8182.15,48.67c5.78,5.14,16.09,6.8,21.71,.53,.64-.71-.32-1.65-1.04-1.04-5.62,4.79-14.14,4.11-19.7-.47-.67-.55-1.64,.38-.97,.97h0Z"/><path class="g" d="M8200.38,50.2c5.4,2.15,11.29,1.94,16.52-.57,.59-.28,.17-1.27-.45-1.06-5.18,1.77-10.5,2.2-15.67,.16-.92-.36-1.31,1.11-.41,1.47h0Z"/><path class="g" d="M8191.8,39.53c2.51,.69,5.03,.38,7.38-.72,.62-.29,.08-1.2-.54-.92-2.07,.93-4.36,1.22-6.57,.66-.63-.16-.9,.8-.27,.97h0Z"/><path class="g" d="M8193.41,43.43c2.21,2.01,5.07,2.34,7.94,2.13,.64-.05,.64-1.04,0-1-2.55,.15-5.26-.06-7.28-1.79-.45-.39-1.12,.26-.66,.66h0Z"/><path class="g" d="M8209.91,41.74c2.87-.35,5.44-1.66,7.54-3.62,.4-.37-.14-1.09-.59-.77-2.06,1.47-4.4,2.75-6.96,2.99-.9,.08-.89,1.5,0,1.4h0Z"/><path class="g" d="M8221.7,37.66c-1.31,1.62-2.94,3.05-4.85,3.89-.66,.29-.18,1.43,.49,1.16,2.14-.85,3.85-2.34,5.48-3.93,.75-.72-.49-1.9-1.12-1.12h0Z"/><path class="g" d="M8217,30.5c-.9,1.29-1.97,2.46-3.02,3.62-.4,.45,.12,1.22,.66,.86,1.45-.95,2.48-2.24,3.64-3.5,.8-.86-.6-1.96-1.28-.98h0Z"/></g><rect class="f" x="8642.84" y="10.45" width="1258.81" height="69.93"/><g><path class="j" d="M9023.53,52.5c3.57,17.78-33.46,18.03-39.84,5.88-1.23-2.35-2-5.59,.93-6.87,4.84-2.11,7.59,4.78,10.27,6.99-1.2-3.75-2.6-14.6,4.03-13.85,5.55,.63,4.77,9.03,5.33,12.88,.81-3.18,1.85-13.53,7.55-12.57,4.56,.77,1.89,10.26,.01,12.27,2.15-3.68,10.05-13.07,11.72-4.73Z"/><path class="d" d="M9062.74,28.2c2.26,11.29-21.24,11.45-25.29,3.73-.78-1.49-1.27-3.55,.59-4.36,3.07-1.34,4.81,3.03,6.52,4.44-.76-2.38-1.65-9.26,2.56-8.79,3.52,.4,3.03,5.73,3.39,8.17,.51-2.02,1.18-8.59,4.79-7.98,2.89,.49,1.2,6.51,0,7.79,1.37-2.33,6.38-8.3,7.44-3Z"/></g><path class="j" d="M9740.73,50.05c3.57,17.78-33.46,18.03-39.84,5.88-1.23-2.35-2-5.59,.93-6.87,4.84-2.11,7.59,4.78,10.27,6.99-1.2-3.75-2.6-14.6,4.03-13.85,5.55,.63,4.77,9.03,5.33,12.88,.81-3.18,1.85-13.53,7.55-12.57,4.56,.77,1.89,10.26,.01,12.27,2.15-3.68,10.05-13.07,11.72-4.73Z"/><path class="j" d="M9322.05,35.26c3.57,17.78-33.46,18.03-39.84,5.88-1.23-2.35-2-5.59,.93-6.87,4.84-2.11,7.59,4.78,10.27,6.99-1.2-3.75-2.6-14.6,4.03-13.85,5.55,.63,4.77,9.03,5.33,12.88,.81-3.18,1.85-13.53,7.55-12.57,4.56,.77,1.89,10.26,.01,12.27,2.15-3.68,10.05-13.07,11.72-4.73Z"/><path class="d" d="M9844.74,28.2c2.26,11.29-21.24,11.45-25.29,3.73-.78-1.49-1.27-3.55,.59-4.36,3.07-1.34,4.81,3.03,6.52,4.44-.76-2.38-1.65-9.26,2.56-8.79,3.52,.4,3.03,5.73,3.39,8.17,.51-2.02,1.18-8.59,4.79-7.98,2.89,.49,1.2,6.51,0,7.79,1.37-2.33,6.38-8.3,7.44-3Z"/><path class="d" d="M8816.85,53.67c2.26,11.29-21.24,11.45-25.29,3.73-.78-1.49-1.27-3.55,.59-4.36,3.07-1.34,4.81,3.03,6.52,4.44-.76-2.38-1.65-9.26,2.56-8.79,3.52,.4,3.03,5.73,3.39,8.17,.51-2.02,1.18-8.59,4.79-7.98,2.89,.49,1.2,6.51,0,7.79,1.37-2.33,6.38-8.3,7.44-3Z"/><g><path class="i" d="M8740.07,56.94l-.3-14.34c-.08-3.71,2.64-6.89,6.31-7.4l1.37-.19c4.61-.63,8.63,3.14,8.29,7.78l-1.07,14.53c-.28,3.76-3.37,6.69-7.14,6.77h0c-4.04,.09-7.38-3.12-7.47-7.16Z"/><path class="e" d="M8752.67,41.99c-1.07-.01-2.12,.2-3.09,.65-1.36,.63-3.77,1.39-6.83,.88-4.83-.8-12.37-.7-13.87-.83-1.01-.09-4.28-1.57-6.32-2.52-1.22-.57-2.25-1.46-2.98-2.58s-1.51-2.57-1.61-3.75c-.18-2.27,.42-4.86,.59-6.73,.16-1.87,1.62-1.37,2.6-3.92,.97-2.55-.94-6.49-.44-7.95,.5-1.46,4.53-4.5,5.38-5.56,.84-1.06,3.25-2.73,4.13-4.16,.54-.88,2.85-2.73,4.57-4.03,1.25-.95,2.76-1.47,4.32-1.48,2.87-.03,7.4,.01,8.11,.58,.72,.57,3.89,1.01,5.84,1.23,1.06,.12,2.08,.47,2.99,1.03l2.45,1.5c.75,.46,1.58,.78,2.45,.95,2.09,.4,6.04,1.14,6.85,1.21,1.12,.1,4.73,1.92,5.69,3.89,.96,1.97,1.41,5.39,1.69,6.55,.28,1.15,.73,4.58,.73,4.58l.24,1.82c.13,.95,.43,1.88,.9,2.71,.45,.78,.94,1.8,.89,2.42-.1,1.12-.36,4.11-1.2,5.17-.84,1.06-2.16,3.2-3.79,4.57-1.62,1.37-1.66,1.74-3.59,2.33-1.31,.4-3.33,.91-4.49,1.19-.6,.15-1.2,.22-1.82,.21l-3.77-.04c-.14,0-.27,0-.41,0-1.69,.08-4.41,.07-6.22,.05Z"/><path class="g" d="M8728.06,31.64c3.9,4.93,10.21,6.28,15.92,3.79,.57-.25,.16-1.16-.42-.99-5.21,1.54-10.95,1.05-14.26-3.76-.65-.95-1.96,.06-1.25,.96h0Z"/><path class="g" d="M8732.26,40.06c5.73,5.09,15.95,6.74,21.52,.53,.63-.7-.32-1.63-1.03-1.03-5.57,4.75-14.01,4.07-19.52-.46-.67-.55-1.63,.37-.96,.96h0Z"/><path class="g" d="M8750.33,41.58c5.35,2.13,11.19,1.92,16.37-.57,.59-.28,.17-1.26-.44-1.05-5.13,1.75-10.41,2.18-15.53,.16-.91-.36-1.29,1.1-.4,1.46h0Z"/><path class="g" d="M8741.82,31c2.49,.69,4.99,.37,7.31-.71,.62-.29,.08-1.19-.53-.91-2.05,.92-4.32,1.21-6.51,.66-.62-.16-.89,.79-.27,.96h0Z"/><path class="g" d="M8743.41,34.86c2.19,1.99,5.03,2.32,7.87,2.11,.63-.05,.64-1.03,0-.99-2.53,.15-5.21-.06-7.21-1.78-.45-.39-1.11,.25-.66,.66h0Z"/><path class="g" d="M8759.77,33.19c2.85-.34,5.39-1.64,7.48-3.58,.4-.37-.13-1.08-.58-.76-2.04,1.46-4.36,2.72-6.89,2.96-.89,.08-.88,1.49,0,1.38h0Z"/><path class="g" d="M8771.45,29.15c-1.3,1.6-2.91,3.02-4.81,3.85-.65,.29-.18,1.42,.49,1.15,2.12-.85,3.82-2.32,5.43-3.9,.74-.72-.48-1.88-1.11-1.11h0Z"/><path class="g" d="M8766.8,22.05c-.89,1.28-1.95,2.44-3,3.59-.4,.44,.12,1.21,.66,.86,1.44-.94,2.46-2.22,3.6-3.47,.79-.85-.6-1.94-1.27-.98h0Z"/></g><g><polygon class="i" points="9433.86 64.1 9433.27 44.67 9450.19 42.34 9447.95 63.8 9433.86 64.1"/><path class="h" d="M9444.54,50.59s-3.25,2.37-8.12,1.57c-4.87-.8-12.48-.7-13.99-.84-1.51-.13-8.07-3.36-8.07-3.36,0,0-2.75-3.28-2.94-5.58-.18-2.3,.43-4.9,.59-6.79,.16-1.89,1.64-1.38,2.62-3.95,.98-2.58-.95-6.54-.44-8.02,.51-1.48,4.58-4.54,5.43-5.61,.85-1.07,3.28-2.76,4.17-4.2,.89-1.44,6.56-5.51,6.56-5.51,0,0,9.53-.31,10.59,.54,1.07,.85,7.48,1.41,7.48,1.41l5.05,3.1s7.1,1.38,8.23,1.48c1.13,.1,4.77,1.94,5.74,3.92,.97,1.98,1.43,5.44,1.71,6.61,.28,1.17,.74,4.63,.74,4.63l.46,3.46s1.69,2.43,1.59,3.56c-.1,1.13-.36,4.15-1.21,5.22-.85,1.07-2.18,3.23-3.82,4.61-1.64,1.38-1.67,1.75-3.62,2.35-1.95,.59-5.45,1.43-5.45,1.43l-4.94-.05c-2.67,.15-8.36,.04-8.36,.04Z"/><path class="g" d="M9421.59,40.18c3.94,4.98,10.3,6.33,16.06,3.82,.57-.25,.16-1.17-.42-.99-5.26,1.56-11.05,1.07-14.38-3.79-.66-.95-1.98,.06-1.26,.97h0Z"/><path class="g" d="M9425.83,48.67c5.78,5.14,16.09,6.8,21.71,.53,.64-.71-.32-1.65-1.04-1.04-5.62,4.79-14.14,4.11-19.7-.47-.67-.55-1.64,.38-.97,.97h0Z"/><path class="g" d="M9444.06,50.2c5.4,2.15,11.29,1.94,16.52-.57,.59-.28,.17-1.27-.45-1.06-5.18,1.77-10.5,2.2-15.67,.16-.92-.36-1.31,1.11-.41,1.47h0Z"/><path class="g" d="M9435.47,39.53c2.51,.69,5.03,.38,7.38-.72,.62-.29,.08-1.2-.54-.92-2.07,.93-4.36,1.22-6.57,.66-.63-.16-.9,.8-.27,.97h0Z"/><path class="g" d="M9437.08,43.43c2.21,2.01,5.07,2.34,7.94,2.13,.64-.05,.64-1.04,0-1-2.55,.15-5.26-.06-7.28-1.79-.45-.39-1.12,.26-.66,.66h0Z"/><path class="g" d="M9453.59,41.74c2.87-.35,5.44-1.66,7.54-3.62,.4-.37-.14-1.09-.59-.77-2.06,1.47-4.4,2.75-6.96,2.99-.9,.08-.89,1.5,0,1.4h0Z"/><path class="g" d="M9465.38,37.66c-1.31,1.62-2.94,3.05-4.85,3.89-.66,.29-.18,1.43,.49,1.16,2.14-.85,3.85-2.34,5.48-3.93,.75-.72-.49-1.9-1.12-1.12h0Z"/><path class="g" d="M9460.68,30.5c-.9,1.29-1.97,2.46-3.02,3.62-.4,.45,.12,1.22,.66,.86,1.45-.95,2.48-2.24,3.64-3.5,.8-.86-.6-1.96-1.28-.98h0Z"/></g></g></g></g></g></svg>