<?xml version="1.0" encoding="UTF-8"?><svg xmlns="http://www.w3.org/2000/svg" viewBox="0 0 183.72 280.5"><defs><style>.d{fill:#ff9f86;}.e{fill:#fff;}.f{fill:#d46062;}.g{fill:#231c19;}.h{fill:#1b8c2e;}</style></defs><g id="a"/><g id="b"><g id="c"><g><path class="d" d="M142.26,91.58s5.15,8.59,14.69,22.79l-8.79,9.81s-15.67-10.51-24.48-24.64c-5.28-8.48-6.17-20.65-5.09-25.93,2.89-14.08,18.88-1.27,18.88-1.27l4.78,19.24Z"/><path class="d" d="M156.74,114.06s12.94,.75,14.55,.04c0,0,4.35-.71,4.19,1.52,0,0,1.11,2.37-4.26,3.54l-3.04,.6,12.86,6.05s3.62,1.93,2.43,3.36c0,0-.3,1.14-4.38-.72l-9.74-3.25,9,6.83s3.8,2.61,2.88,3.85c0,0-.23,1.34-4.12-.92l-10.58-6.65,8.63,7.66s1.42,1.77,1.2,2.99-3.06-.66-3.06-.66l-9.7-7.36,7.14,8.04s1.2,2.08,.24,2.63c0,0-.33,1.37-4.72-3.58l-12.89-10.99-5.87-3.31,9.23-9.67Z"/></g><g><path class="d" d="M44.74,92.45s-5.93,8.08-16.76,21.31l7.83,10.59s16.59-9,26.68-22.24c6.05-7.95,8.08-19.98,7.49-25.34-1.56-14.29-18.68-3.03-18.68-3.03l-6.56,18.71Z"/><path class="d" d="M28.22,113.47s-12.95-.47-14.49-1.32c0,0-4.26-1.11-4.32,1.13,0,0-1.33,2.25,3.91,3.92l2.97,.88-13.37,4.82s-3.78,1.59-2.73,3.12c0,0,.19,1.16,4.43-.3l10-2.32-9.6,5.96s-4.03,2.24-3.23,3.56c0,0,.1,1.36,4.19-.53l11.16-5.63-9.31,6.82s-1.58,1.63-1.48,2.86,3.11-.37,3.11-.37l10.35-6.42-7.86,7.34s-1.39,1.96-.49,2.6c0,0,.2,1.4,5.03-3.12l13.86-9.73,6.16-2.74-8.28-10.49Z"/></g><g><path class="g" d="M136.75,267.36l7.22,3.82s6.91,9.44,5.93,9.33-30.55-6.47-30.55-6.47l1.07-3.54,4.17-4.52,12.16,1.38Z"/><polygon class="d" points="119.24 248.72 120.42 270.49 143.97 271.17 143.39 244.15 126.15 243.52 119.24 248.72"/><path class="e" d="M120.42,270.49l23.55,.68-.28-12.98c-7.96,.87-15.87,1.91-23.75,3.55l.48,8.75Z"/></g><g><path class="g" d="M65.44,267.36l-7.22,3.82s-6.91,9.44-5.93,9.33,30.55-6.47,30.55-6.47l-1.07-3.54-4.17-4.52-12.16,1.38Z"/><polygon class="d" points="82.96 248.72 81.77 270.49 58.22 271.17 58.81 244.15 76.04 243.52 82.96 248.72"/><path class="e" d="M81.77,270.49l-23.55,.68,.28-12.98c7.96,.87,15.87,1.91,23.75,3.55l-.48,8.75Z"/></g><path class="g" d="M67.09,141.54s22.85-6.09,59.42-3.5c0,0,17.73,58.33,21.65,113.51,0,0-25.04-5.75-31.7,3.45l-16.99-64.94s-13.78,44.25-8.71,64.94c0,0-32.06-10.35-36.54,3.45,0,0-.67-77.48,12.86-116.9Z"/><path class="d" d="M71.71,53.92s24.82-18.61,54.07,0v8.04l-54.07-1.69v-6.34Z"/><g><g><path class="d" d="M89.53,47.06l.19-6.64s-4.29-2.83-5.53-7.18c-1.56-5.47-.11-12.76,.31-13.06,.75-.54,5.36-5.76,6.75-6.2,1.4-.44,13.22-3.83,13.22-3.83l12.51,6.01s7.73,20.01-7.42,26.18l-.04,4.94s-10.06,4.05-19.98-.21Z"/><path class="g" d="M109.24,24.5c.24,1.44,.4,2.89,.68,4.32,.09,.47,.81,.25,.63-.21-.5-1.24-.54-2.85-.42-4.17,.06-.64-1-.6-.89,.05h0Z"/><path class="f" d="M101.54,32.59c.46-.21,14.19-2.66,14.19-2.66,0,0-.7,7.83-6.64,8.57-5.93,.74-7.55-5.91-7.55-5.91Z"/><path class="g" d="M89.77,43.14l1.27-8.63s-5.21,.64-4.43-3.65c.78-4.29,4.02-1.81,4.02-1.81,0,0,1.42-7.73,1.74-7.87,.32-.15,24.6-5.02,24.6-5.02l1.21,4.51s7.32-7.77,.66-15.9c-6.66-8.13-36.71-6.23-42.31,8.59-5.6,14.82,.68,29.66,13.23,29.79Z"/></g><path class="g" d="M113.6,24.9c.14,1.11,.91,1.94,1.72,1.84,.81-.1,1.36-1.08,1.22-2.2-.14-1.12-.91-1.94-1.72-1.84-.81,.1-1.36,1.08-1.22,2.2Z"/><path class="g" d="M99.63,26.6c.14,1.11,.91,1.94,1.72,1.84,.81-.1,1.36-1.09,1.22-2.2-.14-1.12-.91-1.94-1.72-1.84-.81,.1-1.36,1.08-1.22,2.2Z"/></g><path class="h" d="M80.43,48.52s15.29,14.05,37.14,0c0,0,29.03,10.69,30.52,42.41l-24,6.98,3.92,42.5s-36.4,13.32-62.6,0l3.61-42.98s-17.83-9.67-28.9-5.23c0,0,12.68-37.88,40.32-43.68Z"/></g></g></svg>