<?xml version="1.0" encoding="UTF-8"?><svg xmlns="http://www.w3.org/2000/svg" xmlns:xlink="http://www.w3.org/1999/xlink" viewBox="0 0 10379.99 68.85"><defs><style>.ab{fill:url(#u);}.ac{fill:url(#t);}.ad{fill:url(#v);}.ae{fill:url(#e);}.af{fill:url(#d);}.ag{fill:url(#g);}.ah{fill:url(#f);}.ai{fill:url(#p);}.aj{fill:url(#o);}.ak{fill:url(#s);}.al{fill:url(#q);}.am{fill:url(#r);}.an{fill:url(#i);}.ao{fill:url(#h);}.ap{fill:url(#k);}.aq{fill:url(#j);}.ar{fill:url(#m);}.as{fill:url(#l);}.at{fill:url(#n);}.au{fill:url(#x);}.av{fill:url(#w);}.aw{fill:url(#y);}.ax{fill:url(#aa);}.ay{fill:url(#a`);}.b`{fill:#23678c;}</style><linearGradient id="d" x1="220.7" y1="16.87" x2="220.7" y2="60.82" gradientTransform="matrix(1, 0, 0, 1, 0, 0)" gradientUnits="userSpaceOnUse"><stop offset="0" stop-color="#00577f"/><stop offset="1" stop-color="#02436b"/></linearGradient><linearGradient id="e" x1="654.11" x2="654.11" xlink:href="#d"/><linearGradient id="f" x1="1094.83" x2="1094.83" xlink:href="#d"/><linearGradient id="g" x1="1528.24" x2="1528.24" xlink:href="#d"/><linearGradient id="h" x1="1962.28" x2="1962.28" xlink:href="#d"/><linearGradient id="i" x1="2395.69" x2="2395.69" xlink:href="#d"/><linearGradient id="j" x1="2836.41" x2="2836.41" xlink:href="#d"/><linearGradient id="k" x1="3269.83" x2="3269.83" xlink:href="#d"/><linearGradient id="l" x1="3704.24" x2="3704.24" xlink:href="#d"/><linearGradient id="m" x1="4137.65" x2="4137.65" xlink:href="#d"/><linearGradient id="n" x1="4578.37" x2="4578.37" xlink:href="#d"/><linearGradient id="o" x1="5011.78" x2="5011.78" xlink:href="#d"/><linearGradient id="p" x1="5445.82" x2="5445.82" xlink:href="#d"/><linearGradient id="q" x1="5879.23" x2="5879.23" xlink:href="#d"/><linearGradient id="r" x1="6319.95" x2="6319.95" xlink:href="#d"/><linearGradient id="s" x1="6753.37" x2="6753.37" xlink:href="#d"/><linearGradient id="t" x1="7110.16" x2="7110.16" xlink:href="#d"/><linearGradient id="u" x1="7543.57" x2="7543.57" xlink:href="#d"/><linearGradient id="v" x1="7984.29" x2="7984.29" xlink:href="#d"/><linearGradient id="w" x1="8417.71" x2="8417.71" xlink:href="#d"/><linearGradient id="x" x1="8851.74" x2="8851.74" xlink:href="#d"/><linearGradient id="y" x1="9285.16" x2="9285.16" xlink:href="#d"/><linearGradient id="a`" x1="9725.88" x2="9725.88" xlink:href="#d"/><linearGradient id="aa" x1="10159.29" x2="10159.29" xlink:href="#d"/></defs><g id="a"/><g id="b"><g id="c"><path class="af" d="M441.39,1.28V68.85H0V1.29c0-.46,25.84,3.34,28.18,2.95,3.81-.65,7.4-2.27,11.19-3.03,9.57-1.93,19.3,1.76,29.05,2.3,9.81,.54,19.62-2.13,29.4-1.23,8.12,.74,16.05-.82,23.91-.63,8.25,.2,15.39,6.06,23.91,5.59,5.36-.3,10.32-2.83,15.56-3.96,12.36-2.67,25.64,2.51,37.71-1.28,2.26-.71,4.47-1.74,6.83-1.94,3.16-.27,6.22,.96,9.24,1.9,10.67,3.31,21.64,1.53,32.05-1.16,11.07-2.86,20.26,4.45,31.28,4.28C288.21,4.9,297.59,.03,307.68,0c10.51-.03,19.42,4.67,30.39,2.5,3.25-.64,6.45-1.64,9.75-1.9,8.97-.69,17.71,4.14,26.67,3.27,4.96-.48,9.7-2.69,14.68-2.6,3.5,.07,6.86,1.27,10.26,2.07,11.48,2.69,20.81-2.06,31.85-2.06h10.12Z"/><g><path class="b`" d="M311.79,17.62c0,1.08-.88,1.96-1.96,1.96s-1.96-.88-1.96-1.96,.88-1.96,1.96-1.96,1.96,.88,1.96,1.96Z"/><path class="b`" d="M362.2,10.9c0,.77-.63,1.4-1.4,1.4s-1.4-.63-1.4-1.4,.63-1.4,1.4-1.4,1.4,.63,1.4,1.4Z"/><circle class="b`" cx="398.61" cy="51.51" r="2.24"/><circle class="b`" cx="310.39" cy="54.87" r="1.68"/><circle class="b`" cx="266.41" cy="12.02" r="1.12"/><path class="b`" d="M228.04,15.94c0,1.08-.88,1.96-1.96,1.96s-1.96-.88-1.96-1.96,.88-1.96,1.96-1.96,1.96,.88,1.96,1.96Z"/><path class="b`" d="M252.97,55.71c0,1.08-.88,1.96-1.96,1.96s-1.96-.88-1.96-1.96,.88-1.96,1.96-1.96,1.96,.88,1.96,1.96Z"/><path class="b`" d="M269.49,54.87c0,.77-.63,1.4-1.4,1.4s-1.4-.63-1.4-1.4,.63-1.4,1.4-1.4,1.4,.63,1.4,1.4Z"/><path class="b`" d="M161.1,20.14c0,1.55-1.25,2.8-2.8,2.8s-2.8-1.25-2.8-2.8,1.25-2.8,2.8-2.8,2.8,1.25,2.8,2.8Z"/><path class="b`" d="M160.26,9.5c0,1.08-.88,1.96-1.96,1.96s-1.96-.88-1.96-1.96,.88-1.96,1.96-1.96,1.96,.88,1.96,1.96Z"/><circle class="b`" cx="118.53" cy="40.87" r="1.68"/><path class="b`" d="M157.46,58.51c0,1.39-1.13,2.52-2.52,2.52s-2.52-1.13-2.52-2.52,1.13-2.52,2.52-2.52,2.52,1.13,2.52,2.52Z"/><path class="b`" d="M140.1,32.74c0,1.08-.88,1.96-1.96,1.96s-1.96-.88-1.96-1.96,.88-1.96,1.96-1.96,1.96,.88,1.96,1.96Z"/><path class="b`" d="M223.28,59.91c0,.77-.63,1.4-1.4,1.4s-1.4-.63-1.4-1.4,.63-1.4,1.4-1.4,1.4,.63,1.4,1.4Z"/><circle class="b`" cx="91.08" cy="58.79" r="1.68"/><path class="b`" d="M105.65,17.9c0,1.24-1,2.24-2.24,2.24s-2.24-1-2.24-2.24,1-2.24,2.24-2.24,2.24,1,2.24,2.24Z"/><circle class="b`" cx="41.79" cy="56.83" r="1.12"/></g><path class="ae" d="M874.81,1.28V68.85H433.41V1.29c0-.46,25.84,3.34,28.18,2.95,3.81-.65,7.4-2.27,11.19-3.03,9.57-1.93,19.3,1.76,29.05,2.3,9.81,.54,19.62-2.13,29.4-1.23,8.12,.74,16.05-.82,23.91-.63,8.25,.2,15.39,6.06,23.91,5.59,5.36-.3,10.32-2.83,15.56-3.96,12.36-2.67,25.64,2.51,37.71-1.28,2.26-.71,4.47-1.74,6.83-1.94,3.16-.27,6.22,.96,9.24,1.9,10.67,3.31,21.64,1.53,32.05-1.16,11.07-2.86,20.26,4.45,31.28,4.28C721.63,4.9,731,.03,741.09,0c10.51-.03,19.42,4.67,30.39,2.5,3.25-.64,6.45-1.64,9.75-1.9,8.97-.69,17.71,4.14,26.67,3.27,4.96-.48,9.7-2.69,14.68-2.6,3.5,.07,6.86,1.27,10.26,2.07,11.48,2.69,20.81-2.06,31.85-2.06h10.12Z"/><g><path class="b`" d="M745.2,17.62c0,1.08-.88,1.96-1.96,1.96s-1.96-.88-1.96-1.96,.88-1.96,1.96-1.96,1.96,.88,1.96,1.96Z"/><path class="b`" d="M795.62,10.9c0,.77-.63,1.4-1.4,1.4s-1.4-.63-1.4-1.4,.63-1.4,1.4-1.4,1.4,.63,1.4,1.4Z"/><circle class="b`" cx="832.03" cy="51.51" r="2.24"/><circle class="b`" cx="743.8" cy="54.87" r="1.68"/><circle class="b`" cx="699.83" cy="12.02" r="1.12"/><path class="b`" d="M661.46,15.94c0,1.08-.88,1.96-1.96,1.96s-1.96-.88-1.96-1.96,.88-1.96,1.96-1.96,1.96,.88,1.96,1.96Z"/><path class="b`" d="M686.38,55.71c0,1.08-.88,1.96-1.96,1.96s-1.96-.88-1.96-1.96,.88-1.96,1.96-1.96,1.96,.88,1.96,1.96Z"/><path class="b`" d="M702.91,54.87c0,.77-.63,1.4-1.4,1.4s-1.4-.63-1.4-1.4,.63-1.4,1.4-1.4,1.4,.63,1.4,1.4Z"/><path class="b`" d="M594.52,20.14c0,1.55-1.25,2.8-2.8,2.8s-2.8-1.25-2.8-2.8,1.25-2.8,2.8-2.8,2.8,1.25,2.8,2.8Z"/><path class="b`" d="M593.68,9.5c0,1.08-.88,1.96-1.96,1.96s-1.96-.88-1.96-1.96,.88-1.96,1.96-1.96,1.96,.88,1.96,1.96Z"/><circle class="b`" cx="551.95" cy="40.87" r="1.68"/><path class="b`" d="M590.88,58.51c0,1.39-1.13,2.52-2.52,2.52s-2.52-1.13-2.52-2.52,1.13-2.52,2.52-2.52,2.52,1.13,2.52,2.52Z"/><path class="b`" d="M573.51,32.74c0,1.08-.88,1.96-1.96,1.96s-1.96-.88-1.96-1.96,.88-1.96,1.96-1.96,1.96,.88,1.96,1.96Z"/><path class="b`" d="M656.7,59.91c0,.77-.63,1.4-1.4,1.4s-1.4-.63-1.4-1.4,.63-1.4,1.4-1.4,1.4,.63,1.4,1.4Z"/><circle class="b`" cx="524.5" cy="58.79" r="1.68"/><path class="b`" d="M539.06,17.9c0,1.24-1,2.24-2.24,2.24s-2.24-1-2.24-2.24,1-2.24,2.24-2.24,2.24,1,2.24,2.24Z"/><circle class="b`" cx="475.2" cy="56.83" r="1.12"/></g><path class="ah" d="M1315.53,1.28V68.85h-441.39V1.29c0-.46,25.84,3.34,28.18,2.95,3.81-.65,7.4-2.27,11.19-3.03,9.57-1.93,19.3,1.76,29.05,2.3,9.81,.54,19.62-2.13,29.4-1.23,8.12,.74,16.05-.82,23.91-.63,8.25,.2,15.39,6.06,23.91,5.59,5.36-.3,10.32-2.83,15.56-3.96,12.36-2.67,25.64,2.51,37.71-1.28,2.26-.71,4.47-1.74,6.83-1.94,3.16-.27,6.22,.96,9.24,1.9,10.67,3.31,21.64,1.53,32.05-1.16,11.07-2.86,20.26,4.45,31.28,4.28C1162.35,4.9,1171.72,.03,1181.81,0c10.51-.03,19.42,4.67,30.39,2.5,3.25-.64,6.45-1.64,9.75-1.9,8.97-.69,17.71,4.14,26.67,3.27,4.96-.48,9.7-2.69,14.68-2.6,3.5,.07,6.86,1.27,10.26,2.07,11.48,2.69,20.81-2.06,31.85-2.06h10.12Z"/><g><path class="b`" d="M1185.92,17.62c0,1.08-.88,1.96-1.96,1.96s-1.96-.88-1.96-1.96,.88-1.96,1.96-1.96,1.96,.88,1.96,1.96Z"/><path class="b`" d="M1236.34,10.9c0,.77-.63,1.4-1.4,1.4s-1.4-.63-1.4-1.4,.63-1.4,1.4-1.4,1.4,.63,1.4,1.4Z"/><circle class="b`" cx="1272.75" cy="51.51" r="2.24"/><circle class="b`" cx="1184.52" cy="54.87" r="1.68"/><circle class="b`" cx="1140.55" cy="12.02" r="1.12"/><path class="b`" d="M1102.18,15.94c0,1.08-.88,1.96-1.96,1.96s-1.96-.88-1.96-1.96,.88-1.96,1.96-1.96,1.96,.88,1.96,1.96Z"/><path class="b`" d="M1127.1,55.71c0,1.08-.88,1.96-1.96,1.96s-1.96-.88-1.96-1.96,.88-1.96,1.96-1.96,1.96,.88,1.96,1.96Z"/><path class="b`" d="M1143.63,54.87c0,.77-.63,1.4-1.4,1.4s-1.4-.63-1.4-1.4,.63-1.4,1.4-1.4,1.4,.63,1.4,1.4Z"/><path class="b`" d="M1035.24,20.14c0,1.55-1.25,2.8-2.8,2.8s-2.8-1.25-2.8-2.8,1.25-2.8,2.8-2.8,2.8,1.25,2.8,2.8Z"/><path class="b`" d="M1034.4,9.5c0,1.08-.88,1.96-1.96,1.96s-1.96-.88-1.96-1.96,.88-1.96,1.96-1.96,1.96,.88,1.96,1.96Z"/><circle class="b`" cx="992.67" cy="40.87" r="1.68"/><path class="b`" d="M1031.6,58.51c0,1.39-1.13,2.52-2.52,2.52s-2.52-1.13-2.52-2.52,1.13-2.52,2.52-2.52,2.52,1.13,2.52,2.52Z"/><path class="b`" d="M1014.23,32.74c0,1.08-.88,1.96-1.96,1.96s-1.96-.88-1.96-1.96,.88-1.96,1.96-1.96,1.96,.88,1.96,1.96Z"/><path class="b`" d="M1097.42,59.91c0,.77-.63,1.4-1.4,1.4s-1.4-.63-1.4-1.4,.63-1.4,1.4-1.4,1.4,.63,1.4,1.4Z"/><circle class="b`" cx="965.22" cy="58.79" r="1.68"/><path class="b`" d="M979.78,17.9c0,1.24-1,2.24-2.24,2.24s-2.24-1-2.24-2.24,1-2.24,2.24-2.24,2.24,1,2.24,2.24Z"/><circle class="b`" cx="915.92" cy="56.83" r="1.12"/></g><path class="ag" d="M1748.94,1.28V68.85h-441.39V1.29c0-.46,25.84,3.34,28.18,2.95,3.81-.65,7.4-2.27,11.19-3.03,9.57-1.93,19.3,1.76,29.05,2.3,9.81,.54,19.62-2.13,29.4-1.23,8.12,.74,16.05-.82,23.91-.63,8.25,.2,15.39,6.06,23.91,5.59,5.36-.3,10.32-2.83,15.56-3.96,12.36-2.67,25.64,2.51,37.71-1.28,2.26-.71,4.47-1.74,6.83-1.94,3.16-.27,6.22,.96,9.24,1.9,10.67,3.31,21.64,1.53,32.05-1.16,11.07-2.86,20.26,4.45,31.28,4.28C1595.76,4.9,1605.14,.03,1615.22,0c10.51-.03,19.42,4.67,30.39,2.5,3.25-.64,6.45-1.64,9.75-1.9,8.97-.69,17.71,4.14,26.67,3.27,4.96-.48,9.7-2.69,14.68-2.6,3.5,.07,6.86,1.27,10.26,2.07,11.48,2.69,20.81-2.06,31.85-2.06h10.12Z"/><g><path class="b`" d="M1619.34,17.62c0,1.08-.88,1.96-1.96,1.96s-1.96-.88-1.96-1.96,.88-1.96,1.96-1.96,1.96,.88,1.96,1.96Z"/><path class="b`" d="M1669.75,10.9c0,.77-.63,1.4-1.4,1.4s-1.4-.63-1.4-1.4,.63-1.4,1.4-1.4,1.4,.63,1.4,1.4Z"/><circle class="b`" cx="1706.16" cy="51.51" r="2.24"/><circle class="b`" cx="1617.94" cy="54.87" r="1.68"/><circle class="b`" cx="1573.96" cy="12.02" r="1.12"/><path class="b`" d="M1535.59,15.94c0,1.08-.88,1.96-1.96,1.96s-1.96-.88-1.96-1.96,.88-1.96,1.96-1.96,1.96,.88,1.96,1.96Z"/><path class="b`" d="M1560.52,55.71c0,1.08-.88,1.96-1.96,1.96s-1.96-.88-1.96-1.96,.88-1.96,1.96-1.96,1.96,.88,1.96,1.96Z"/><path class="b`" d="M1577.04,54.87c0,.77-.63,1.4-1.4,1.4s-1.4-.63-1.4-1.4,.63-1.4,1.4-1.4,1.4,.63,1.4,1.4Z"/><path class="b`" d="M1468.65,20.14c0,1.55-1.25,2.8-2.8,2.8s-2.8-1.25-2.8-2.8,1.25-2.8,2.8-2.8,2.8,1.25,2.8,2.8Z"/><path class="b`" d="M1467.81,9.5c0,1.08-.88,1.96-1.96,1.96s-1.96-.88-1.96-1.96,.88-1.96,1.96-1.96,1.96,.88,1.96,1.96Z"/><circle class="b`" cx="1426.08" cy="40.87" r="1.68"/><path class="b`" d="M1465.01,58.51c0,1.39-1.13,2.52-2.52,2.52s-2.52-1.13-2.52-2.52,1.13-2.52,2.52-2.52,2.52,1.13,2.52,2.52Z"/><path class="b`" d="M1447.65,32.74c0,1.08-.88,1.96-1.96,1.96s-1.96-.88-1.96-1.96,.88-1.96,1.96-1.96,1.96,.88,1.96,1.96Z"/><path class="b`" d="M1530.83,59.91c0,.77-.63,1.4-1.4,1.4s-1.4-.63-1.4-1.4,.63-1.4,1.4-1.4,1.4,.63,1.4,1.4Z"/><circle class="b`" cx="1398.63" cy="58.79" r="1.68"/><path class="b`" d="M1413.2,17.9c0,1.24-1,2.24-2.24,2.24s-2.24-1-2.24-2.24,1-2.24,2.24-2.24,2.24,1,2.24,2.24Z"/><circle class="b`" cx="1349.34" cy="56.83" r="1.12"/></g><path class="ao" d="M2182.97,1.28V68.85h-441.39V1.29c0-.46,25.84,3.34,28.18,2.95,3.81-.65,7.4-2.27,11.19-3.03,9.57-1.93,19.3,1.76,29.05,2.3,9.81,.54,19.62-2.13,29.4-1.23,8.12,.74,16.05-.82,23.91-.63,8.25,.2,15.39,6.06,23.91,5.59,5.36-.3,10.32-2.83,15.56-3.96,12.36-2.67,25.64,2.51,37.71-1.28,2.26-.71,4.47-1.74,6.83-1.94,3.16-.27,6.22,.96,9.24,1.9,10.67,3.31,21.64,1.53,32.05-1.16,11.07-2.86,20.26,4.45,31.28,4.28,9.89-.16,19.26-5.04,29.35-5.06,10.51-.03,19.42,4.67,30.39,2.5,3.25-.64,6.45-1.64,9.75-1.9,8.97-.69,17.71,4.14,26.67,3.27,4.96-.48,9.7-2.69,14.68-2.6,3.5,.07,6.86,1.27,10.26,2.07,11.48,2.69,20.81-2.06,31.85-2.06h10.12Z"/><g><path class="b`" d="M2053.37,17.62c0,1.08-.88,1.96-1.96,1.96s-1.96-.88-1.96-1.96,.88-1.96,1.96-1.96,1.96,.88,1.96,1.96Z"/><path class="b`" d="M2103.78,10.9c0,.77-.63,1.4-1.4,1.4s-1.4-.63-1.4-1.4,.63-1.4,1.4-1.4,1.4,.63,1.4,1.4Z"/><circle class="b`" cx="2140.19" cy="51.51" r="2.24"/><circle class="b`" cx="2051.97" cy="54.87" r="1.68"/><circle class="b`" cx="2008" cy="12.02" r="1.12"/><path class="b`" d="M1969.63,15.94c0,1.08-.88,1.96-1.96,1.96s-1.96-.88-1.96-1.96,.88-1.96,1.96-1.96,1.96,.88,1.96,1.96Z"/><path class="b`" d="M1994.55,55.71c0,1.08-.88,1.96-1.96,1.96s-1.96-.88-1.96-1.96,.88-1.96,1.96-1.96,1.96,.88,1.96,1.96Z"/><path class="b`" d="M2011.08,54.87c0,.77-.63,1.4-1.4,1.4s-1.4-.63-1.4-1.4,.63-1.4,1.4-1.4,1.4,.63,1.4,1.4Z"/><path class="b`" d="M1902.69,20.14c0,1.55-1.25,2.8-2.8,2.8s-2.8-1.25-2.8-2.8,1.25-2.8,2.8-2.8,2.8,1.25,2.8,2.8Z"/><path class="b`" d="M1901.85,9.5c0,1.08-.88,1.96-1.96,1.96s-1.96-.88-1.96-1.96,.88-1.96,1.96-1.96,1.96,.88,1.96,1.96Z"/><circle class="b`" cx="1860.11" cy="40.87" r="1.68"/><path class="b`" d="M1899.04,58.51c0,1.39-1.13,2.52-2.52,2.52s-2.52-1.13-2.52-2.52,1.13-2.52,2.52-2.52,2.52,1.13,2.52,2.52Z"/><path class="b`" d="M1881.68,32.74c0,1.08-.88,1.96-1.96,1.96s-1.96-.88-1.96-1.96,.88-1.96,1.96-1.96,1.96,.88,1.96,1.96Z"/><path class="b`" d="M1964.86,59.91c0,.77-.63,1.4-1.4,1.4s-1.4-.63-1.4-1.4,.63-1.4,1.4-1.4,1.4,.63,1.4,1.4Z"/><circle class="b`" cx="1832.67" cy="58.79" r="1.68"/><path class="b`" d="M1847.23,17.9c0,1.24-1,2.24-2.24,2.24s-2.24-1-2.24-2.24,1-2.24,2.24-2.24,2.24,1,2.24,2.24Z"/><circle class="b`" cx="1783.37" cy="56.83" r="1.12"/></g><path class="an" d="M2616.39,1.28V68.85h-441.39V1.29c0-.46,25.84,3.34,28.18,2.95,3.81-.65,7.4-2.27,11.19-3.03,9.57-1.93,19.3,1.76,29.05,2.3,9.81,.54,19.62-2.13,29.4-1.23,8.12,.74,16.05-.82,23.91-.63,8.25,.2,15.39,6.06,23.91,5.59,5.36-.3,10.32-2.83,15.56-3.96,12.36-2.67,25.64,2.51,37.71-1.28,2.26-.71,4.47-1.74,6.83-1.94,3.16-.27,6.22,.96,9.24,1.9,10.67,3.31,21.64,1.53,32.05-1.16,11.07-2.86,20.26,4.45,31.28,4.28,9.89-.16,19.26-5.04,29.35-5.06,10.51-.03,19.42,4.67,30.39,2.5,3.25-.64,6.45-1.64,9.75-1.9,8.97-.69,17.71,4.14,26.67,3.27,4.96-.48,9.7-2.69,14.68-2.6,3.5,.07,6.86,1.27,10.26,2.07,11.48,2.69,20.81-2.06,31.85-2.06h10.12Z"/><g><path class="b`" d="M2486.78,17.62c0,1.08-.88,1.96-1.96,1.96s-1.96-.88-1.96-1.96,.88-1.96,1.96-1.96,1.96,.88,1.96,1.96Z"/><path class="b`" d="M2537.2,10.9c0,.77-.63,1.4-1.4,1.4s-1.4-.63-1.4-1.4,.63-1.4,1.4-1.4,1.4,.63,1.4,1.4Z"/><circle class="b`" cx="2573.61" cy="51.51" r="2.24"/><circle class="b`" cx="2485.38" cy="54.87" r="1.68"/><circle class="b`" cx="2441.41" cy="12.02" r="1.12"/><path class="b`" d="M2403.04,15.94c0,1.08-.88,1.96-1.96,1.96s-1.96-.88-1.96-1.96,.88-1.96,1.96-1.96,1.96,.88,1.96,1.96Z"/><path class="b`" d="M2427.97,55.71c0,1.08-.88,1.96-1.96,1.96s-1.96-.88-1.96-1.96,.88-1.96,1.96-1.96,1.96,.88,1.96,1.96Z"/><path class="b`" d="M2444.49,54.87c0,.77-.63,1.4-1.4,1.4s-1.4-.63-1.4-1.4,.63-1.4,1.4-1.4,1.4,.63,1.4,1.4Z"/><path class="b`" d="M2336.1,20.14c0,1.55-1.25,2.8-2.8,2.8s-2.8-1.25-2.8-2.8,1.25-2.8,2.8-2.8,2.8,1.25,2.8,2.8Z"/><path class="b`" d="M2335.26,9.5c0,1.08-.88,1.96-1.96,1.96s-1.96-.88-1.96-1.96,.88-1.96,1.96-1.96,1.96,.88,1.96,1.96Z"/><circle class="b`" cx="2293.53" cy="40.87" r="1.68"/><path class="b`" d="M2332.46,58.51c0,1.39-1.13,2.52-2.52,2.52s-2.52-1.13-2.52-2.52,1.13-2.52,2.52-2.52,2.52,1.13,2.52,2.52Z"/><path class="b`" d="M2315.09,32.74c0,1.08-.88,1.96-1.96,1.96s-1.96-.88-1.96-1.96,.88-1.96,1.96-1.96,1.96,.88,1.96,1.96Z"/><path class="b`" d="M2398.28,59.91c0,.77-.63,1.4-1.4,1.4s-1.4-.63-1.4-1.4,.63-1.4,1.4-1.4,1.4,.63,1.4,1.4Z"/><circle class="b`" cx="2266.08" cy="58.79" r="1.68"/><path class="b`" d="M2280.64,17.9c0,1.24-1,2.24-2.24,2.24s-2.24-1-2.24-2.24,1-2.24,2.24-2.24,2.24,1,2.24,2.24Z"/><circle class="b`" cx="2216.79" cy="56.83" r="1.12"/></g><path class="aq" d="M3057.11,1.28V68.85h-441.39V1.29c0-.46,25.84,3.34,28.18,2.95,3.81-.65,7.4-2.27,11.19-3.03,9.57-1.93,19.3,1.76,29.05,2.3,9.81,.54,19.62-2.13,29.4-1.23,8.12,.74,16.05-.82,23.91-.63,8.25,.2,15.39,6.06,23.91,5.59,5.36-.3,10.32-2.83,15.56-3.96,12.36-2.67,25.64,2.51,37.71-1.28,2.26-.71,4.47-1.74,6.83-1.94,3.16-.27,6.22,.96,9.24,1.9,10.67,3.31,21.64,1.53,32.05-1.16,11.07-2.86,20.26,4.45,31.28,4.28,9.89-.16,19.26-5.04,29.35-5.06,10.51-.03,19.42,4.67,30.39,2.5,3.25-.64,6.45-1.64,9.75-1.9,8.97-.69,17.71,4.14,26.67,3.27,4.96-.48,9.7-2.69,14.68-2.6,3.5,.07,6.86,1.27,10.26,2.07,11.48,2.69,20.81-2.06,31.85-2.06h10.12Z"/><g><path class="b`" d="M2927.5,17.62c0,1.08-.88,1.96-1.96,1.96s-1.96-.88-1.96-1.96,.88-1.96,1.96-1.96,1.96,.88,1.96,1.96Z"/><path class="b`" d="M2977.92,10.9c0,.77-.63,1.4-1.4,1.4s-1.4-.63-1.4-1.4,.63-1.4,1.4-1.4,1.4,.63,1.4,1.4Z"/><circle class="b`" cx="3014.33" cy="51.51" r="2.24"/><circle class="b`" cx="2926.1" cy="54.87" r="1.68"/><circle class="b`" cx="2882.13" cy="12.02" r="1.12"/><path class="b`" d="M2843.76,15.94c0,1.08-.88,1.96-1.96,1.96s-1.96-.88-1.96-1.96,.88-1.96,1.96-1.96,1.96,.88,1.96,1.96Z"/><path class="b`" d="M2868.69,55.71c0,1.08-.88,1.96-1.96,1.96s-1.96-.88-1.96-1.96,.88-1.96,1.96-1.96,1.96,.88,1.96,1.96Z"/><path class="b`" d="M2885.21,54.87c0,.77-.63,1.4-1.4,1.4s-1.4-.63-1.4-1.4,.63-1.4,1.4-1.4,1.4,.63,1.4,1.4Z"/><path class="b`" d="M2776.82,20.14c0,1.55-1.25,2.8-2.8,2.8s-2.8-1.25-2.8-2.8,1.25-2.8,2.8-2.8,2.8,1.25,2.8,2.8Z"/><path class="b`" d="M2775.98,9.5c0,1.08-.88,1.96-1.96,1.96s-1.96-.88-1.96-1.96,.88-1.96,1.96-1.96,1.96,.88,1.96,1.96Z"/><circle class="b`" cx="2734.25" cy="40.87" r="1.68"/><path class="b`" d="M2773.18,58.51c0,1.39-1.13,2.52-2.52,2.52s-2.52-1.13-2.52-2.52,1.13-2.52,2.52-2.52,2.52,1.13,2.52,2.52Z"/><path class="b`" d="M2755.81,32.74c0,1.08-.88,1.96-1.96,1.96s-1.96-.88-1.96-1.96,.88-1.96,1.96-1.96,1.96,.88,1.96,1.96Z"/><path class="b`" d="M2839,59.91c0,.77-.63,1.4-1.4,1.4s-1.4-.63-1.4-1.4,.63-1.4,1.4-1.4,1.4,.63,1.4,1.4Z"/><circle class="b`" cx="2706.8" cy="58.79" r="1.68"/><path class="b`" d="M2721.36,17.9c0,1.24-1,2.24-2.24,2.24s-2.24-1-2.24-2.24,1-2.24,2.24-2.24,2.24,1,2.24,2.24Z"/><circle class="b`" cx="2657.5" cy="56.83" r="1.12"/></g><path class="ap" d="M3490.52,1.28V68.85h-441.39V1.29c0-.46,25.84,3.34,28.18,2.95,3.81-.65,7.4-2.27,11.19-3.03,9.57-1.93,19.3,1.76,29.05,2.3,9.81,.54,19.62-2.13,29.4-1.23,8.12,.74,16.05-.82,23.91-.63,8.25,.2,15.39,6.06,23.91,5.59,5.36-.3,10.32-2.83,15.56-3.96,12.36-2.67,25.64,2.51,37.71-1.28,2.26-.71,4.47-1.74,6.83-1.94,3.16-.27,6.22,.96,9.24,1.9,10.67,3.31,21.64,1.53,32.05-1.16,11.07-2.86,20.26,4.45,31.28,4.28,9.89-.16,19.26-5.04,29.35-5.06,10.51-.03,19.42,4.67,30.39,2.5,3.25-.64,6.45-1.64,9.75-1.9,8.97-.69,17.71,4.14,26.67,3.27,4.96-.48,9.7-2.69,14.68-2.6,3.5,.07,6.86,1.27,10.26,2.07,11.48,2.69,20.81-2.06,31.85-2.06h10.12Z"/><g><path class="b`" d="M3360.92,17.62c0,1.08-.88,1.96-1.96,1.96s-1.96-.88-1.96-1.96,.88-1.96,1.96-1.96,1.96,.88,1.96,1.96Z"/><path class="b`" d="M3411.33,10.9c0,.77-.63,1.4-1.4,1.4s-1.4-.63-1.4-1.4,.63-1.4,1.4-1.4,1.4,.63,1.4,1.4Z"/><circle class="b`" cx="3447.74" cy="51.51" r="2.24"/><circle class="b`" cx="3359.52" cy="54.87" r="1.68"/><circle class="b`" cx="3315.54" cy="12.02" r="1.12"/><path class="b`" d="M3277.17,15.94c0,1.08-.88,1.96-1.96,1.96s-1.96-.88-1.96-1.96,.88-1.96,1.96-1.96,1.96,.88,1.96,1.96Z"/><path class="b`" d="M3302.1,55.71c0,1.08-.88,1.96-1.96,1.96s-1.96-.88-1.96-1.96,.88-1.96,1.96-1.96,1.96,.88,1.96,1.96Z"/><path class="b`" d="M3318.63,54.87c0,.77-.63,1.4-1.4,1.4s-1.4-.63-1.4-1.4,.63-1.4,1.4-1.4,1.4,.63,1.4,1.4Z"/><path class="b`" d="M3210.23,20.14c0,1.55-1.25,2.8-2.8,2.8s-2.8-1.25-2.8-2.8,1.25-2.8,2.8-2.8,2.8,1.25,2.8,2.8Z"/><path class="b`" d="M3209.39,9.5c0,1.08-.88,1.96-1.96,1.96s-1.96-.88-1.96-1.96,.88-1.96,1.96-1.96,1.96,.88,1.96,1.96Z"/><circle class="b`" cx="3167.66" cy="40.87" r="1.68"/><path class="b`" d="M3206.59,58.51c0,1.39-1.13,2.52-2.52,2.52s-2.52-1.13-2.52-2.52,1.13-2.52,2.52-2.52,2.52,1.13,2.52,2.52Z"/><path class="b`" d="M3189.23,32.74c0,1.08-.88,1.96-1.96,1.96s-1.96-.88-1.96-1.96,.88-1.96,1.96-1.96,1.96,.88,1.96,1.96Z"/><path class="b`" d="M3272.41,59.91c0,.77-.63,1.4-1.4,1.4s-1.4-.63-1.4-1.4,.63-1.4,1.4-1.4,1.4,.63,1.4,1.4Z"/><circle class="b`" cx="3140.21" cy="58.79" r="1.68"/><path class="b`" d="M3154.78,17.9c0,1.24-1,2.24-2.24,2.24s-2.24-1-2.24-2.24,1-2.24,2.24-2.24,2.24,1,2.24,2.24Z"/><circle class="b`" cx="3090.92" cy="56.83" r="1.12"/></g><path class="as" d="M3924.93,1.28V68.85h-441.39V1.29c0-.46,25.84,3.34,28.18,2.95,3.81-.65,7.4-2.27,11.19-3.03,9.57-1.93,19.3,1.76,29.05,2.3,9.81,.54,19.62-2.13,29.4-1.23,8.12,.74,16.05-.82,23.91-.63,8.25,.2,15.39,6.06,23.91,5.59,5.36-.3,10.32-2.83,15.56-3.96,12.36-2.67,25.64,2.51,37.71-1.28,2.26-.71,4.47-1.74,6.83-1.94,3.16-.27,6.22,.96,9.24,1.9,10.67,3.31,21.64,1.53,32.05-1.16,11.07-2.86,20.26,4.45,31.28,4.28,9.89-.16,19.26-5.04,29.35-5.06,10.51-.03,19.42,4.67,30.39,2.5,3.25-.64,6.45-1.64,9.75-1.9,8.97-.69,17.71,4.14,26.67,3.27,4.96-.48,9.7-2.69,14.68-2.6,3.5,.07,6.86,1.27,10.26,2.07,11.48,2.69,20.81-2.06,31.85-2.06h10.12Z"/><g><path class="b`" d="M3795.33,17.62c0,1.08-.88,1.96-1.96,1.96s-1.96-.88-1.96-1.96,.88-1.96,1.96-1.96,1.96,.88,1.96,1.96Z"/><path class="b`" d="M3845.74,10.9c0,.77-.63,1.4-1.4,1.4s-1.4-.63-1.4-1.4,.63-1.4,1.4-1.4,1.4,.63,1.4,1.4Z"/><circle class="b`" cx="3882.15" cy="51.51" r="2.24"/><circle class="b`" cx="3793.93" cy="54.87" r="1.68"/><circle class="b`" cx="3749.95" cy="12.02" r="1.12"/><path class="b`" d="M3711.58,15.94c0,1.08-.88,1.96-1.96,1.96s-1.96-.88-1.96-1.96,.88-1.96,1.96-1.96,1.96,.88,1.96,1.96Z"/><path class="b`" d="M3736.51,55.71c0,1.08-.88,1.96-1.96,1.96s-1.96-.88-1.96-1.96,.88-1.96,1.96-1.96,1.96,.88,1.96,1.96Z"/><path class="b`" d="M3753.04,54.87c0,.77-.63,1.4-1.4,1.4s-1.4-.63-1.4-1.4,.63-1.4,1.4-1.4,1.4,.63,1.4,1.4Z"/><path class="b`" d="M3644.64,20.14c0,1.55-1.25,2.8-2.8,2.8s-2.8-1.25-2.8-2.8,1.25-2.8,2.8-2.8,2.8,1.25,2.8,2.8Z"/><path class="b`" d="M3643.8,9.5c0,1.08-.88,1.96-1.96,1.96s-1.96-.88-1.96-1.96,.88-1.96,1.96-1.96,1.96,.88,1.96,1.96Z"/><circle class="b`" cx="3602.07" cy="40.87" r="1.68"/><path class="b`" d="M3641,58.51c0,1.39-1.13,2.52-2.52,2.52s-2.52-1.13-2.52-2.52,1.13-2.52,2.52-2.52,2.52,1.13,2.52,2.52Z"/><path class="b`" d="M3623.64,32.74c0,1.08-.88,1.96-1.96,1.96s-1.96-.88-1.96-1.96,.88-1.96,1.96-1.96,1.96,.88,1.96,1.96Z"/><path class="b`" d="M3706.82,59.91c0,.77-.63,1.4-1.4,1.4s-1.4-.63-1.4-1.4,.63-1.4,1.4-1.4,1.4,.63,1.4,1.4Z"/><circle class="b`" cx="3574.62" cy="58.79" r="1.68"/><path class="b`" d="M3589.19,17.9c0,1.24-1,2.24-2.24,2.24s-2.24-1-2.24-2.24,1-2.24,2.24-2.24,2.24,1,2.24,2.24Z"/><circle class="b`" cx="3525.33" cy="56.83" r="1.12"/></g><path class="ar" d="M4358.35,1.28V68.85h-441.39V1.29c0-.46,25.84,3.34,28.18,2.95,3.81-.65,7.4-2.27,11.19-3.03,9.57-1.93,19.3,1.76,29.05,2.3,9.81,.54,19.62-2.13,29.4-1.23,8.12,.74,16.05-.82,23.91-.63,8.25,.2,15.39,6.06,23.91,5.59,5.36-.3,10.32-2.83,15.56-3.96,12.36-2.67,25.64,2.51,37.71-1.28,2.26-.71,4.47-1.74,6.83-1.94,3.16-.27,6.22,.96,9.24,1.9,10.67,3.31,21.64,1.53,32.05-1.16,11.07-2.86,20.26,4.45,31.28,4.28,9.89-.16,19.26-5.04,29.35-5.06,10.51-.03,19.42,4.67,30.39,2.5,3.25-.64,6.45-1.64,9.75-1.9,8.97-.69,17.71,4.14,26.67,3.27,4.96-.48,9.7-2.69,14.68-2.6,3.5,.07,6.86,1.27,10.26,2.07,11.48,2.69,20.81-2.06,31.85-2.06h10.12Z"/><g><path class="b`" d="M4228.74,17.62c0,1.08-.88,1.96-1.96,1.96s-1.96-.88-1.96-1.96,.88-1.96,1.96-1.96,1.96,.88,1.96,1.96Z"/><path class="b`" d="M4279.16,10.9c0,.77-.63,1.4-1.4,1.4s-1.4-.63-1.4-1.4,.63-1.4,1.4-1.4,1.4,.63,1.4,1.4Z"/><circle class="b`" cx="4315.57" cy="51.51" r="2.24"/><circle class="b`" cx="4227.34" cy="54.87" r="1.68"/><circle class="b`" cx="4183.37" cy="12.02" r="1.12"/><path class="b`" d="M4145,15.94c0,1.08-.88,1.96-1.96,1.96s-1.96-.88-1.96-1.96,.88-1.96,1.96-1.96,1.96,.88,1.96,1.96Z"/><path class="b`" d="M4169.93,55.71c0,1.08-.88,1.96-1.96,1.96s-1.96-.88-1.96-1.96,.88-1.96,1.96-1.96,1.96,.88,1.96,1.96Z"/><path class="b`" d="M4186.45,54.87c0,.77-.63,1.4-1.4,1.4s-1.4-.63-1.4-1.4,.63-1.4,1.4-1.4,1.4,.63,1.4,1.4Z"/><path class="b`" d="M4078.06,20.14c0,1.55-1.25,2.8-2.8,2.8s-2.8-1.25-2.8-2.8,1.25-2.8,2.8-2.8,2.8,1.25,2.8,2.8Z"/><path class="b`" d="M4077.22,9.5c0,1.08-.88,1.96-1.96,1.96s-1.96-.88-1.96-1.96,.88-1.96,1.96-1.96,1.96,.88,1.96,1.96Z"/><circle class="b`" cx="4035.49" cy="40.87" r="1.68"/><path class="b`" d="M4074.42,58.51c0,1.39-1.13,2.52-2.52,2.52s-2.52-1.13-2.52-2.52,1.13-2.52,2.52-2.52,2.52,1.13,2.52,2.52Z"/><path class="b`" d="M4057.05,32.74c0,1.08-.88,1.96-1.96,1.96s-1.96-.88-1.96-1.96,.88-1.96,1.96-1.96,1.96,.88,1.96,1.96Z"/><path class="b`" d="M4140.24,59.91c0,.77-.63,1.4-1.4,1.4s-1.4-.63-1.4-1.4,.63-1.4,1.4-1.4,1.4,.63,1.4,1.4Z"/><circle class="b`" cx="4008.04" cy="58.79" r="1.68"/><path class="b`" d="M4022.6,17.9c0,1.24-1,2.24-2.24,2.24s-2.24-1-2.24-2.24,1-2.24,2.24-2.24,2.24,1,2.24,2.24Z"/><circle class="b`" cx="3958.74" cy="56.83" r="1.12"/></g><path class="at" d="M4799.07,1.28V68.85h-441.39V1.29c0-.46,25.84,3.34,28.18,2.95,3.81-.65,7.4-2.27,11.19-3.03,9.57-1.93,19.3,1.76,29.05,2.3,9.81,.54,19.62-2.13,29.4-1.23,8.12,.74,16.05-.82,23.91-.63,8.25,.2,15.39,6.06,23.91,5.59,5.36-.3,10.32-2.83,15.56-3.96,12.36-2.67,25.64,2.51,37.71-1.28,2.26-.71,4.47-1.74,6.83-1.94,3.16-.27,6.22,.96,9.24,1.9,10.67,3.31,21.64,1.53,32.05-1.16,11.07-2.86,20.26,4.45,31.28,4.28,9.89-.16,19.26-5.04,29.35-5.06,10.51-.03,19.42,4.67,30.39,2.5,3.25-.64,6.45-1.64,9.75-1.9,8.97-.69,17.71,4.14,26.67,3.27,4.96-.48,9.7-2.69,14.68-2.6,3.5,.07,6.86,1.27,10.26,2.07,11.48,2.69,20.81-2.06,31.85-2.06h10.12Z"/><g><path class="b`" d="M4669.46,17.62c0,1.08-.88,1.96-1.96,1.96s-1.96-.88-1.96-1.96,.88-1.96,1.96-1.96,1.96,.88,1.96,1.96Z"/><path class="b`" d="M4719.88,10.9c0,.77-.63,1.4-1.4,1.4s-1.4-.63-1.4-1.4,.63-1.4,1.4-1.4,1.4,.63,1.4,1.4Z"/><circle class="b`" cx="4756.29" cy="51.51" r="2.24"/><circle class="b`" cx="4668.06" cy="54.87" r="1.68"/><circle class="b`" cx="4624.09" cy="12.02" r="1.12"/><path class="b`" d="M4585.72,15.94c0,1.08-.88,1.96-1.96,1.96s-1.96-.88-1.96-1.96,.88-1.96,1.96-1.96,1.96,.88,1.96,1.96Z"/><path class="b`" d="M4610.64,55.71c0,1.08-.88,1.96-1.96,1.96s-1.96-.88-1.96-1.96,.88-1.96,1.96-1.96,1.96,.88,1.96,1.96Z"/><path class="b`" d="M4627.17,54.87c0,.77-.63,1.4-1.4,1.4s-1.4-.63-1.4-1.4,.63-1.4,1.4-1.4,1.4,.63,1.4,1.4Z"/><path class="b`" d="M4518.78,20.14c0,1.55-1.25,2.8-2.8,2.8s-2.8-1.25-2.8-2.8,1.25-2.8,2.8-2.8,2.8,1.25,2.8,2.8Z"/><path class="b`" d="M4517.94,9.5c0,1.08-.88,1.96-1.96,1.96s-1.96-.88-1.96-1.96,.88-1.96,1.96-1.96,1.96,.88,1.96,1.96Z"/><circle class="b`" cx="4476.21" cy="40.87" r="1.68"/><path class="b`" d="M4515.14,58.51c0,1.39-1.13,2.52-2.52,2.52s-2.52-1.13-2.52-2.52,1.13-2.52,2.52-2.52,2.52,1.13,2.52,2.52Z"/><path class="b`" d="M4497.77,32.74c0,1.08-.88,1.96-1.96,1.96s-1.96-.88-1.96-1.96,.88-1.96,1.96-1.96,1.96,.88,1.96,1.96Z"/><path class="b`" d="M4580.96,59.91c0,.77-.63,1.4-1.4,1.4s-1.4-.63-1.4-1.4,.63-1.4,1.4-1.4,1.4,.63,1.4,1.4Z"/><circle class="b`" cx="4448.76" cy="58.79" r="1.68"/><path class="b`" d="M4463.32,17.9c0,1.24-1,2.24-2.24,2.24s-2.24-1-2.24-2.24,1-2.24,2.24-2.24,2.24,1,2.24,2.24Z"/><circle class="b`" cx="4399.46" cy="56.83" r="1.12"/></g><path class="aj" d="M5232.48,1.28V68.85h-441.39V1.29c0-.46,25.84,3.34,28.18,2.95,3.81-.65,7.4-2.27,11.19-3.03,9.57-1.93,19.3,1.76,29.05,2.3,9.81,.54,19.62-2.13,29.4-1.23,8.12,.74,16.05-.82,23.91-.63,8.25,.2,15.39,6.06,23.91,5.59,5.36-.3,10.32-2.83,15.56-3.96,12.36-2.67,25.64,2.51,37.71-1.28,2.26-.71,4.47-1.74,6.83-1.94,3.16-.27,6.22,.96,9.24,1.9,10.67,3.31,21.64,1.53,32.05-1.16,11.07-2.86,20.26,4.45,31.28,4.28,9.89-.16,19.26-5.04,29.35-5.06,10.51-.03,19.42,4.67,30.39,2.5,3.25-.64,6.45-1.64,9.75-1.9,8.97-.69,17.71,4.14,26.67,3.27,4.96-.48,9.7-2.69,14.68-2.6,3.5,.07,6.86,1.27,10.26,2.07,11.48,2.69,20.81-2.06,31.85-2.06h10.12Z"/><g><path class="b`" d="M5102.88,17.62c0,1.08-.88,1.96-1.96,1.96s-1.96-.88-1.96-1.96,.88-1.96,1.96-1.96,1.96,.88,1.96,1.96Z"/><path class="b`" d="M5153.29,10.9c0,.77-.63,1.4-1.4,1.4s-1.4-.63-1.4-1.4,.63-1.4,1.4-1.4,1.4,.63,1.4,1.4Z"/><circle class="b`" cx="5189.7" cy="51.51" r="2.24"/><circle class="b`" cx="5101.48" cy="54.87" r="1.68"/><circle class="b`" cx="5057.5" cy="12.02" r="1.12"/><path class="b`" d="M5019.13,15.94c0,1.08-.88,1.96-1.96,1.96s-1.96-.88-1.96-1.96,.88-1.96,1.96-1.96,1.96,.88,1.96,1.96Z"/><path class="b`" d="M5044.06,55.71c0,1.08-.88,1.96-1.96,1.96s-1.96-.88-1.96-1.96,.88-1.96,1.96-1.96,1.96,.88,1.96,1.96Z"/><path class="b`" d="M5060.58,54.87c0,.77-.63,1.4-1.4,1.4s-1.4-.63-1.4-1.4,.63-1.4,1.4-1.4,1.4,.63,1.4,1.4Z"/><path class="b`" d="M4952.19,20.14c0,1.55-1.25,2.8-2.8,2.8s-2.8-1.25-2.8-2.8,1.25-2.8,2.8-2.8,2.8,1.25,2.8,2.8Z"/><path class="b`" d="M4951.35,9.5c0,1.08-.88,1.96-1.96,1.96s-1.96-.88-1.96-1.96,.88-1.96,1.96-1.96,1.96,.88,1.96,1.96Z"/><circle class="b`" cx="4909.62" cy="40.87" r="1.68"/><path class="b`" d="M4948.55,58.51c0,1.39-1.13,2.52-2.52,2.52s-2.52-1.13-2.52-2.52,1.13-2.52,2.52-2.52,2.52,1.13,2.52,2.52Z"/><path class="b`" d="M4931.19,32.74c0,1.08-.88,1.96-1.96,1.96s-1.96-.88-1.96-1.96,.88-1.96,1.96-1.96,1.96,.88,1.96,1.96Z"/><path class="b`" d="M5014.37,59.91c0,.77-.63,1.4-1.4,1.4s-1.4-.63-1.4-1.4,.63-1.4,1.4-1.4,1.4,.63,1.4,1.4Z"/><circle class="b`" cx="4882.17" cy="58.79" r="1.68"/><path class="b`" d="M4896.74,17.9c0,1.24-1,2.24-2.24,2.24s-2.24-1-2.24-2.24,1-2.24,2.24-2.24,2.24,1,2.24,2.24Z"/><circle class="b`" cx="4832.88" cy="56.83" r="1.12"/></g><path class="ai" d="M5666.51,1.28V68.85h-441.39V1.29c0-.46,25.84,3.34,28.18,2.95,3.81-.65,7.4-2.27,11.19-3.03,9.57-1.93,19.3,1.76,29.05,2.3,9.81,.54,19.62-2.13,29.4-1.23,8.12,.74,16.05-.82,23.91-.63,8.25,.2,15.39,6.06,23.91,5.59,5.36-.3,10.32-2.83,15.56-3.96,12.36-2.67,25.64,2.51,37.71-1.28,2.26-.71,4.47-1.74,6.83-1.94,3.16-.27,6.22,.96,9.24,1.9,10.67,3.31,21.64,1.53,32.05-1.16,11.07-2.86,20.26,4.45,31.28,4.28,9.89-.16,19.26-5.04,29.35-5.06,10.51-.03,19.42,4.67,30.39,2.5,3.25-.64,6.45-1.64,9.75-1.9,8.97-.69,17.71,4.14,26.67,3.27,4.96-.48,9.7-2.69,14.68-2.6,3.5,.07,6.86,1.27,10.26,2.07,11.48,2.69,20.81-2.06,31.85-2.06h10.12Z"/><g><path class="b`" d="M5536.91,17.62c0,1.08-.88,1.96-1.96,1.96s-1.96-.88-1.96-1.96,.88-1.96,1.96-1.96,1.96,.88,1.96,1.96Z"/><path class="b`" d="M5587.33,10.9c0,.77-.63,1.4-1.4,1.4s-1.4-.63-1.4-1.4,.63-1.4,1.4-1.4,1.4,.63,1.4,1.4Z"/><circle class="b`" cx="5623.74" cy="51.51" r="2.24"/><circle class="b`" cx="5535.51" cy="54.87" r="1.68"/><circle class="b`" cx="5491.54" cy="12.02" r="1.12"/><path class="b`" d="M5453.17,15.94c0,1.08-.88,1.96-1.96,1.96s-1.96-.88-1.96-1.96,.88-1.96,1.96-1.96,1.96,.88,1.96,1.96Z"/><path class="b`" d="M5478.09,55.71c0,1.08-.88,1.96-1.96,1.96s-1.96-.88-1.96-1.96,.88-1.96,1.96-1.96,1.96,.88,1.96,1.96Z"/><path class="b`" d="M5494.62,54.87c0,.77-.63,1.4-1.4,1.4s-1.4-.63-1.4-1.4,.63-1.4,1.4-1.4,1.4,.63,1.4,1.4Z"/><path class="b`" d="M5386.23,20.14c0,1.55-1.25,2.8-2.8,2.8s-2.8-1.25-2.8-2.8,1.25-2.8,2.8-2.8,2.8,1.25,2.8,2.8Z"/><path class="b`" d="M5385.39,9.5c0,1.08-.88,1.96-1.96,1.96s-1.96-.88-1.96-1.96,.88-1.96,1.96-1.96,1.96,.88,1.96,1.96Z"/><circle class="b`" cx="5343.65" cy="40.87" r="1.68"/><path class="b`" d="M5382.59,58.51c0,1.39-1.13,2.52-2.52,2.52s-2.52-1.13-2.52-2.52,1.13-2.52,2.52-2.52,2.52,1.13,2.52,2.52Z"/><path class="b`" d="M5365.22,32.74c0,1.08-.88,1.96-1.96,1.96s-1.96-.88-1.96-1.96,.88-1.96,1.96-1.96,1.96,.88,1.96,1.96Z"/><path class="b`" d="M5448.4,59.91c0,.77-.63,1.4-1.4,1.4s-1.4-.63-1.4-1.4,.63-1.4,1.4-1.4,1.4,.63,1.4,1.4Z"/><circle class="b`" cx="5316.21" cy="58.79" r="1.68"/><path class="b`" d="M5330.77,17.9c0,1.24-1,2.24-2.24,2.24s-2.24-1-2.24-2.24,1-2.24,2.24-2.24,2.24,1,2.24,2.24Z"/><circle class="b`" cx="5266.91" cy="56.83" r="1.12"/></g><path class="al" d="M6099.93,1.28V68.85h-441.39V1.29c0-.46,25.84,3.34,28.18,2.95,3.81-.65,7.4-2.27,11.19-3.03,9.57-1.93,19.3,1.76,29.05,2.3,9.81,.54,19.62-2.13,29.4-1.23,8.12,.74,16.05-.82,23.91-.63,8.25,.2,15.39,6.06,23.91,5.59,5.36-.3,10.32-2.83,15.56-3.96,12.36-2.67,25.64,2.51,37.71-1.28,2.26-.71,4.47-1.74,6.83-1.94,3.16-.27,6.22,.96,9.24,1.9,10.67,3.31,21.64,1.53,32.05-1.16,11.07-2.86,20.26,4.45,31.28,4.28,9.89-.16,19.26-5.04,29.35-5.06,10.51-.03,19.42,4.67,30.39,2.5,3.25-.64,6.45-1.64,9.75-1.9,8.97-.69,17.71,4.14,26.67,3.27,4.96-.48,9.7-2.69,14.68-2.6,3.5,.07,6.86,1.27,10.26,2.07,11.48,2.69,20.81-2.06,31.85-2.06h10.12Z"/><g><path class="b`" d="M5970.32,17.62c0,1.08-.88,1.96-1.96,1.96s-1.96-.88-1.96-1.96,.88-1.96,1.96-1.96,1.96,.88,1.96,1.96Z"/><path class="b`" d="M6020.74,10.9c0,.77-.63,1.4-1.4,1.4s-1.4-.63-1.4-1.4,.63-1.4,1.4-1.4,1.4,.63,1.4,1.4Z"/><circle class="b`" cx="6057.15" cy="51.51" r="2.24"/><circle class="b`" cx="5968.92" cy="54.87" r="1.68"/><circle class="b`" cx="5924.95" cy="12.02" r="1.12"/><path class="b`" d="M5886.58,15.94c0,1.08-.88,1.96-1.96,1.96s-1.96-.88-1.96-1.96,.88-1.96,1.96-1.96,1.96,.88,1.96,1.96Z"/><path class="b`" d="M5911.51,55.71c0,1.08-.88,1.96-1.96,1.96s-1.96-.88-1.96-1.96,.88-1.96,1.96-1.96,1.96,.88,1.96,1.96Z"/><path class="b`" d="M5928.03,54.87c0,.77-.63,1.4-1.4,1.4s-1.4-.63-1.4-1.4,.63-1.4,1.4-1.4,1.4,.63,1.4,1.4Z"/><path class="b`" d="M5819.64,20.14c0,1.55-1.25,2.8-2.8,2.8s-2.8-1.25-2.8-2.8,1.25-2.8,2.8-2.8,2.8,1.25,2.8,2.8Z"/><path class="b`" d="M5818.8,9.5c0,1.08-.88,1.96-1.96,1.96s-1.96-.88-1.96-1.96,.88-1.96,1.96-1.96,1.96,.88,1.96,1.96Z"/><circle class="b`" cx="5777.07" cy="40.87" r="1.68"/><path class="b`" d="M5816,58.51c0,1.39-1.13,2.52-2.52,2.52s-2.52-1.13-2.52-2.52,1.13-2.52,2.52-2.52,2.52,1.13,2.52,2.52Z"/><path class="b`" d="M5798.63,32.74c0,1.08-.88,1.96-1.96,1.96s-1.96-.88-1.96-1.96,.88-1.96,1.96-1.96,1.96,.88,1.96,1.96Z"/><path class="b`" d="M5881.82,59.91c0,.77-.63,1.4-1.4,1.4s-1.4-.63-1.4-1.4,.63-1.4,1.4-1.4,1.4,.63,1.4,1.4Z"/><circle class="b`" cx="5749.62" cy="58.79" r="1.68"/><path class="b`" d="M5764.18,17.9c0,1.24-1,2.24-2.24,2.24s-2.24-1-2.24-2.24,1-2.24,2.24-2.24,2.24,1,2.24,2.24Z"/><circle class="b`" cx="5700.33" cy="56.83" r="1.12"/></g><path class="am" d="M6540.65,1.28V68.85h-441.39V1.29c0-.46,25.84,3.34,28.18,2.95,3.81-.65,7.4-2.27,11.19-3.03,9.57-1.93,19.3,1.76,29.05,2.3,9.81,.54,19.62-2.13,29.4-1.23,8.12,.74,16.05-.82,23.91-.63,8.25,.2,15.39,6.06,23.91,5.59,5.36-.3,10.32-2.83,15.56-3.96,12.36-2.67,25.64,2.51,37.71-1.28,2.26-.71,4.47-1.74,6.83-1.94,3.16-.27,6.22,.96,9.24,1.9,10.67,3.31,21.64,1.53,32.05-1.16,11.07-2.86,20.26,4.45,31.28,4.28,9.89-.16,19.26-5.04,29.35-5.06,10.51-.03,19.42,4.67,30.39,2.5,3.25-.64,6.45-1.64,9.75-1.9,8.97-.69,17.71,4.14,26.67,3.27,4.96-.48,9.7-2.69,14.68-2.6,3.5,.07,6.86,1.27,10.26,2.07,11.48,2.69,20.81-2.06,31.85-2.06h10.12Z"/><g><path class="b`" d="M6411.04,17.62c0,1.08-.88,1.96-1.96,1.96s-1.96-.88-1.96-1.96,.88-1.96,1.96-1.96,1.96,.88,1.96,1.96Z"/><path class="b`" d="M6461.46,10.9c0,.77-.63,1.4-1.4,1.4s-1.4-.63-1.4-1.4,.63-1.4,1.4-1.4,1.4,.63,1.4,1.4Z"/><circle class="b`" cx="6497.87" cy="51.51" r="2.24"/><circle class="b`" cx="6409.64" cy="54.87" r="1.68"/><circle class="b`" cx="6365.67" cy="12.02" r="1.12"/><path class="b`" d="M6327.3,15.94c0,1.08-.88,1.96-1.96,1.96s-1.96-.88-1.96-1.96,.88-1.96,1.96-1.96,1.96,.88,1.96,1.96Z"/><path class="b`" d="M6352.23,55.71c0,1.08-.88,1.96-1.96,1.96s-1.96-.88-1.96-1.96,.88-1.96,1.96-1.96,1.96,.88,1.96,1.96Z"/><path class="b`" d="M6368.75,54.87c0,.77-.63,1.4-1.4,1.4s-1.4-.63-1.4-1.4,.63-1.4,1.4-1.4,1.4,.63,1.4,1.4Z"/><path class="b`" d="M6260.36,20.14c0,1.55-1.25,2.8-2.8,2.8s-2.8-1.25-2.8-2.8,1.25-2.8,2.8-2.8,2.8,1.25,2.8,2.8Z"/><path class="b`" d="M6259.52,9.5c0,1.08-.88,1.96-1.96,1.96s-1.96-.88-1.96-1.96,.88-1.96,1.96-1.96,1.96,.88,1.96,1.96Z"/><circle class="b`" cx="6217.79" cy="40.87" r="1.68"/><path class="b`" d="M6256.72,58.51c0,1.39-1.13,2.52-2.52,2.52s-2.52-1.13-2.52-2.52,1.13-2.52,2.52-2.52,2.52,1.13,2.52,2.52Z"/><path class="b`" d="M6239.35,32.74c0,1.08-.88,1.96-1.96,1.96s-1.96-.88-1.96-1.96,.88-1.96,1.96-1.96,1.96,.88,1.96,1.96Z"/><path class="b`" d="M6322.54,59.91c0,.77-.63,1.4-1.4,1.4s-1.4-.63-1.4-1.4,.63-1.4,1.4-1.4,1.4,.63,1.4,1.4Z"/><circle class="b`" cx="6190.34" cy="58.79" r="1.68"/><path class="b`" d="M6204.9,17.9c0,1.24-1,2.24-2.24,2.24s-2.24-1-2.24-2.24,1-2.24,2.24-2.24,2.24,1,2.24,2.24Z"/><circle class="b`" cx="6141.05" cy="56.83" r="1.12"/></g><path class="ak" d="M6974.06,1.28V68.85h-441.39V1.29c0-.46,25.84,3.34,28.18,2.95,3.81-.65,7.4-2.27,11.19-3.03,9.57-1.93,19.3,1.76,29.05,2.3,9.81,.54,19.62-2.13,29.4-1.23,8.12,.74,16.05-.82,23.91-.63,8.25,.2,15.39,6.06,23.91,5.59,5.36-.3,10.32-2.83,15.56-3.96,12.36-2.67,25.64,2.51,37.71-1.28,2.26-.71,4.47-1.74,6.83-1.94,3.16-.27,6.22,.96,9.24,1.9,10.67,3.31,21.64,1.53,32.05-1.16,11.07-2.86,20.26,4.45,31.28,4.28,9.89-.16,19.26-5.04,29.35-5.06,10.51-.03,19.42,4.67,30.39,2.5,3.25-.64,6.45-1.64,9.75-1.9,8.97-.69,17.71,4.14,26.67,3.27,4.96-.48,9.7-2.69,14.68-2.6,3.5,.07,6.86,1.27,10.26,2.07,11.48,2.69,20.81-2.06,31.85-2.06h10.12Z"/><g><path class="b`" d="M6844.46,17.62c0,1.08-.88,1.96-1.96,1.96s-1.96-.88-1.96-1.96,.88-1.96,1.96-1.96,1.96,.88,1.96,1.96Z"/><path class="b`" d="M6894.87,10.9c0,.77-.63,1.4-1.4,1.4s-1.4-.63-1.4-1.4,.63-1.4,1.4-1.4,1.4,.63,1.4,1.4Z"/><circle class="b`" cx="6931.28" cy="51.51" r="2.24"/><circle class="b`" cx="6843.06" cy="54.87" r="1.68"/><circle class="b`" cx="6799.09" cy="12.02" r="1.12"/><path class="b`" d="M6760.71,15.94c0,1.08-.88,1.96-1.96,1.96s-1.96-.88-1.96-1.96,.88-1.96,1.96-1.96,1.96,.88,1.96,1.96Z"/><path class="b`" d="M6785.64,55.71c0,1.08-.88,1.96-1.96,1.96s-1.96-.88-1.96-1.96,.88-1.96,1.96-1.96,1.96,.88,1.96,1.96Z"/><path class="b`" d="M6802.17,54.87c0,.77-.63,1.4-1.4,1.4s-1.4-.63-1.4-1.4,.63-1.4,1.4-1.4,1.4,.63,1.4,1.4Z"/><path class="b`" d="M6693.77,20.14c0,1.55-1.25,2.8-2.8,2.8s-2.8-1.25-2.8-2.8,1.25-2.8,2.8-2.8,2.8,1.25,2.8,2.8Z"/><path class="b`" d="M6692.93,9.5c0,1.08-.88,1.96-1.96,1.96s-1.96-.88-1.96-1.96,.88-1.96,1.96-1.96,1.96,.88,1.96,1.96Z"/><circle class="b`" cx="6651.2" cy="40.87" r="1.68"/><path class="b`" d="M6690.13,58.51c0,1.39-1.13,2.52-2.52,2.52s-2.52-1.13-2.52-2.52,1.13-2.52,2.52-2.52,2.52,1.13,2.52,2.52Z"/><path class="b`" d="M6672.77,32.74c0,1.08-.88,1.96-1.96,1.96s-1.96-.88-1.96-1.96,.88-1.96,1.96-1.96,1.96,.88,1.96,1.96Z"/><path class="b`" d="M6755.95,59.91c0,.77-.63,1.4-1.4,1.4s-1.4-.63-1.4-1.4,.63-1.4,1.4-1.4,1.4,.63,1.4,1.4Z"/><circle class="b`" cx="6623.75" cy="58.79" r="1.68"/><path class="b`" d="M6638.32,17.9c0,1.24-1,2.24-2.24,2.24s-2.24-1-2.24-2.24,1-2.24,2.24-2.24,2.24,1,2.24,2.24Z"/><circle class="b`" cx="6574.46" cy="56.83" r="1.12"/></g><path class="ac" d="M7330.85,1.28V68.85h-441.39V1.29c0-.46,25.84,3.34,28.18,2.95,3.81-.65,7.4-2.27,11.19-3.03,9.57-1.93,19.3,1.76,29.05,2.3,9.81,.54,19.62-2.13,29.4-1.23,8.12,.74,16.05-.82,23.91-.63,8.25,.2,15.39,6.06,23.91,5.59,5.36-.3,10.32-2.83,15.56-3.96,12.36-2.67,25.64,2.51,37.71-1.28,2.26-.71,4.47-1.74,6.83-1.94,3.16-.27,6.22,.96,9.24,1.9,10.67,3.31,21.64,1.53,32.05-1.16,11.07-2.86,20.26,4.45,31.28,4.28,9.89-.16,19.26-5.04,29.35-5.06,10.51-.03,19.42,4.67,30.39,2.5,3.25-.64,6.45-1.64,9.75-1.9,8.97-.69,17.71,4.14,26.67,3.27,4.96-.48,9.7-2.69,14.68-2.6,3.5,.07,6.86,1.27,10.26,2.07,11.48,2.69,20.81-2.06,31.85-2.06h10.12Z"/><g><path class="b`" d="M7201.25,17.62c0,1.08-.88,1.96-1.96,1.96s-1.96-.88-1.96-1.96,.88-1.96,1.96-1.96,1.96,.88,1.96,1.96Z"/><path class="b`" d="M7251.67,10.9c0,.77-.63,1.4-1.4,1.4s-1.4-.63-1.4-1.4,.63-1.4,1.4-1.4,1.4,.63,1.4,1.4Z"/><circle class="b`" cx="7288.08" cy="51.51" r="2.24"/><circle class="b`" cx="7199.85" cy="54.87" r="1.68"/><circle class="b`" cx="7155.88" cy="12.02" r="1.12"/><path class="b`" d="M7117.51,15.94c0,1.08-.88,1.96-1.96,1.96s-1.96-.88-1.96-1.96,.88-1.96,1.96-1.96,1.96,.88,1.96,1.96Z"/><path class="b`" d="M7142.43,55.71c0,1.08-.88,1.96-1.96,1.96s-1.96-.88-1.96-1.96,.88-1.96,1.96-1.96,1.96,.88,1.96,1.96Z"/><path class="b`" d="M7158.96,54.87c0,.77-.63,1.4-1.4,1.4s-1.4-.63-1.4-1.4,.63-1.4,1.4-1.4,1.4,.63,1.4,1.4Z"/><path class="b`" d="M7050.57,20.14c0,1.55-1.25,2.8-2.8,2.8s-2.8-1.25-2.8-2.8,1.25-2.8,2.8-2.8,2.8,1.25,2.8,2.8Z"/><path class="b`" d="M7049.73,9.5c0,1.08-.88,1.96-1.96,1.96s-1.96-.88-1.96-1.96,.88-1.96,1.96-1.96,1.96,.88,1.96,1.96Z"/><circle class="b`" cx="7007.99" cy="40.87" r="1.68"/><path class="b`" d="M7046.93,58.51c0,1.39-1.13,2.52-2.52,2.52s-2.52-1.13-2.52-2.52,1.13-2.52,2.52-2.52,2.52,1.13,2.52,2.52Z"/><path class="b`" d="M7029.56,32.74c0,1.08-.88,1.96-1.96,1.96s-1.96-.88-1.96-1.96,.88-1.96,1.96-1.96,1.96,.88,1.96,1.96Z"/><path class="b`" d="M7112.75,59.91c0,.77-.63,1.4-1.4,1.4s-1.4-.63-1.4-1.4,.63-1.4,1.4-1.4,1.4,.63,1.4,1.4Z"/><circle class="b`" cx="6980.55" cy="58.79" r="1.68"/><path class="b`" d="M6995.11,17.9c0,1.24-1,2.24-2.24,2.24s-2.24-1-2.24-2.24,1-2.24,2.24-2.24,2.24,1,2.24,2.24Z"/><circle class="b`" cx="6931.25" cy="56.83" r="1.12"/></g><path class="ab" d="M7764.27,1.28V68.85h-441.39V1.29c0-.46,25.84,3.34,28.18,2.95,3.81-.65,7.4-2.27,11.19-3.03,9.57-1.93,19.3,1.76,29.05,2.3,9.81,.54,19.62-2.13,29.4-1.23,8.12,.74,16.05-.82,23.91-.63,8.25,.2,15.39,6.06,23.91,5.59,5.36-.3,10.32-2.83,15.56-3.96,12.36-2.67,25.64,2.51,37.71-1.28,2.26-.71,4.47-1.74,6.83-1.94,3.16-.27,6.22,.96,9.24,1.9,10.67,3.31,21.64,1.53,32.05-1.16,11.07-2.86,20.26,4.45,31.28,4.28,9.89-.16,19.26-5.04,29.35-5.06,10.51-.03,19.42,4.67,30.39,2.5,3.25-.64,6.45-1.64,9.75-1.9,8.97-.69,17.71,4.14,26.67,3.27,4.96-.48,9.7-2.69,14.68-2.6,3.5,.07,6.86,1.27,10.26,2.07,11.48,2.69,20.81-2.06,31.85-2.06h10.12Z"/><g><path class="b`" d="M7634.67,17.62c0,1.08-.88,1.96-1.96,1.96s-1.96-.88-1.96-1.96,.88-1.96,1.96-1.96,1.96,.88,1.96,1.96Z"/><path class="b`" d="M7685.08,10.9c0,.77-.63,1.4-1.4,1.4s-1.4-.63-1.4-1.4,.63-1.4,1.4-1.4,1.4,.63,1.4,1.4Z"/><circle class="b`" cx="7721.49" cy="51.51" r="2.24"/><circle class="b`" cx="7633.27" cy="54.87" r="1.68"/><circle class="b`" cx="7589.29" cy="12.02" r="1.12"/><path class="b`" d="M7550.92,15.94c0,1.08-.88,1.96-1.96,1.96s-1.96-.88-1.96-1.96,.88-1.96,1.96-1.96,1.96,.88,1.96,1.96Z"/><path class="b`" d="M7575.85,55.71c0,1.08-.88,1.96-1.96,1.96s-1.96-.88-1.96-1.96,.88-1.96,1.96-1.96,1.96,.88,1.96,1.96Z"/><path class="b`" d="M7592.37,54.87c0,.77-.63,1.4-1.4,1.4s-1.4-.63-1.4-1.4,.63-1.4,1.4-1.4,1.4,.63,1.4,1.4Z"/><path class="b`" d="M7483.98,20.14c0,1.55-1.25,2.8-2.8,2.8s-2.8-1.25-2.8-2.8,1.25-2.8,2.8-2.8,2.8,1.25,2.8,2.8Z"/><path class="b`" d="M7483.14,9.5c0,1.08-.88,1.96-1.96,1.96s-1.96-.88-1.96-1.96,.88-1.96,1.96-1.96,1.96,.88,1.96,1.96Z"/><circle class="b`" cx="7441.41" cy="40.87" r="1.68"/><path class="b`" d="M7480.34,58.51c0,1.39-1.13,2.52-2.52,2.52s-2.52-1.13-2.52-2.52,1.13-2.52,2.52-2.52,2.52,1.13,2.52,2.52Z"/><path class="b`" d="M7462.98,32.74c0,1.08-.88,1.96-1.96,1.96s-1.96-.88-1.96-1.96,.88-1.96,1.96-1.96,1.96,.88,1.96,1.96Z"/><path class="b`" d="M7546.16,59.91c0,.77-.63,1.4-1.4,1.4s-1.4-.63-1.4-1.4,.63-1.4,1.4-1.4,1.4,.63,1.4,1.4Z"/><circle class="b`" cx="7413.96" cy="58.79" r="1.68"/><path class="b`" d="M7428.53,17.9c0,1.24-1,2.24-2.24,2.24s-2.24-1-2.24-2.24,1-2.24,2.24-2.24,2.24,1,2.24,2.24Z"/><circle class="b`" cx="7364.67" cy="56.83" r="1.12"/></g><path class="ad" d="M8204.99,1.28V68.85h-441.39V1.29c0-.46,25.84,3.34,28.18,2.95,3.81-.65,7.4-2.27,11.19-3.03,9.57-1.93,19.3,1.76,29.05,2.3,9.81,.54,19.62-2.13,29.4-1.23,8.12,.74,16.05-.82,23.91-.63,8.25,.2,15.39,6.06,23.91,5.59,5.36-.3,10.32-2.83,15.56-3.96,12.36-2.67,25.64,2.51,37.71-1.28,2.26-.71,4.47-1.74,6.83-1.94,3.16-.27,6.22,.96,9.24,1.9,10.67,3.31,21.64,1.53,32.05-1.16,11.07-2.86,20.26,4.45,31.28,4.28,9.89-.16,19.26-5.04,29.35-5.06,10.51-.03,19.42,4.67,30.39,2.5,3.25-.64,6.45-1.64,9.75-1.9,8.97-.69,17.71,4.14,26.67,3.27,4.96-.48,9.7-2.69,14.68-2.6,3.5,.07,6.86,1.27,10.26,2.07,11.48,2.69,20.81-2.06,31.85-2.06h10.12Z"/><g><path class="b`" d="M8075.39,17.62c0,1.08-.88,1.96-1.96,1.96s-1.96-.88-1.96-1.96,.88-1.96,1.96-1.96,1.96,.88,1.96,1.96Z"/><path class="b`" d="M8125.8,10.9c0,.77-.63,1.4-1.4,1.4s-1.4-.63-1.4-1.4,.63-1.4,1.4-1.4,1.4,.63,1.4,1.4Z"/><circle class="b`" cx="8162.21" cy="51.51" r="2.24"/><circle class="b`" cx="8073.98" cy="54.87" r="1.68"/><circle class="b`" cx="8030.01" cy="12.02" r="1.12"/><path class="b`" d="M7991.64,15.94c0,1.08-.88,1.96-1.96,1.96s-1.96-.88-1.96-1.96,.88-1.96,1.96-1.96,1.96,.88,1.96,1.96Z"/><path class="b`" d="M8016.57,55.71c0,1.08-.88,1.96-1.96,1.96s-1.96-.88-1.96-1.96,.88-1.96,1.96-1.96,1.96,.88,1.96,1.96Z"/><path class="b`" d="M8033.09,54.87c0,.77-.63,1.4-1.4,1.4s-1.4-.63-1.4-1.4,.63-1.4,1.4-1.4,1.4,.63,1.4,1.4Z"/><path class="b`" d="M7924.7,20.14c0,1.55-1.25,2.8-2.8,2.8s-2.8-1.25-2.8-2.8,1.25-2.8,2.8-2.8,2.8,1.25,2.8,2.8Z"/><path class="b`" d="M7923.86,9.5c0,1.08-.88,1.96-1.96,1.96s-1.96-.88-1.96-1.96,.88-1.96,1.96-1.96,1.96,.88,1.96,1.96Z"/><circle class="b`" cx="7882.13" cy="40.87" r="1.68"/><path class="b`" d="M7921.06,58.51c0,1.39-1.13,2.52-2.52,2.52s-2.52-1.13-2.52-2.52,1.13-2.52,2.52-2.52,2.52,1.13,2.52,2.52Z"/><path class="b`" d="M7903.7,32.74c0,1.08-.88,1.96-1.96,1.96s-1.96-.88-1.96-1.96,.88-1.96,1.96-1.96,1.96,.88,1.96,1.96Z"/><path class="b`" d="M7986.88,59.91c0,.77-.63,1.4-1.4,1.4s-1.4-.63-1.4-1.4,.63-1.4,1.4-1.4,1.4,.63,1.4,1.4Z"/><circle class="b`" cx="7854.68" cy="58.79" r="1.68"/><path class="b`" d="M7869.25,17.9c0,1.24-1,2.24-2.24,2.24s-2.24-1-2.24-2.24,1-2.24,2.24-2.24,2.24,1,2.24,2.24Z"/><circle class="b`" cx="7805.39" cy="56.83" r="1.12"/></g><path class="av" d="M8638.4,1.28V68.85h-441.39V1.29c0-.46,25.84,3.34,28.18,2.95,3.81-.65,7.4-2.27,11.19-3.03,9.57-1.93,19.3,1.76,29.05,2.3,9.81,.54,19.62-2.13,29.4-1.23,8.12,.74,16.05-.82,23.91-.63,8.25,.2,15.39,6.06,23.91,5.59,5.36-.3,10.32-2.83,15.56-3.96,12.36-2.67,25.64,2.51,37.71-1.28,2.26-.71,4.47-1.74,6.83-1.94,3.16-.27,6.22,.96,9.24,1.9,10.67,3.31,21.64,1.53,32.05-1.16,11.07-2.86,20.26,4.45,31.28,4.28,9.89-.16,19.26-5.04,29.35-5.06,10.51-.03,19.42,4.67,30.39,2.5,3.25-.64,6.45-1.64,9.75-1.9,8.97-.69,17.71,4.14,26.67,3.27,4.96-.48,9.7-2.69,14.68-2.6,3.5,.07,6.86,1.27,10.26,2.07,11.48,2.69,20.81-2.06,31.85-2.06h10.12Z"/><g><path class="b`" d="M8508.8,17.62c0,1.08-.88,1.96-1.96,1.96s-1.96-.88-1.96-1.96,.88-1.96,1.96-1.96,1.96,.88,1.96,1.96Z"/><path class="b`" d="M8559.21,10.9c0,.77-.63,1.4-1.4,1.4s-1.4-.63-1.4-1.4,.63-1.4,1.4-1.4,1.4,.63,1.4,1.4Z"/><circle class="b`" cx="8595.62" cy="51.51" r="2.24"/><circle class="b`" cx="8507.4" cy="54.87" r="1.68"/><circle class="b`" cx="8463.43" cy="12.02" r="1.12"/><path class="b`" d="M8425.06,15.94c0,1.08-.88,1.96-1.96,1.96s-1.96-.88-1.96-1.96,.88-1.96,1.96-1.96,1.96,.88,1.96,1.96Z"/><path class="b`" d="M8449.98,55.71c0,1.08-.88,1.96-1.96,1.96s-1.96-.88-1.96-1.96,.88-1.96,1.96-1.96,1.96,.88,1.96,1.96Z"/><path class="b`" d="M8466.51,54.87c0,.77-.63,1.4-1.4,1.4s-1.4-.63-1.4-1.4,.63-1.4,1.4-1.4,1.4,.63,1.4,1.4Z"/><path class="b`" d="M8358.12,20.14c0,1.55-1.25,2.8-2.8,2.8s-2.8-1.25-2.8-2.8,1.25-2.8,2.8-2.8,2.8,1.25,2.8,2.8Z"/><path class="b`" d="M8357.28,9.5c0,1.08-.88,1.96-1.96,1.96s-1.96-.88-1.96-1.96,.88-1.96,1.96-1.96,1.96,.88,1.96,1.96Z"/><circle class="b`" cx="8315.54" cy="40.87" r="1.68"/><path class="b`" d="M8354.47,58.51c0,1.39-1.13,2.52-2.52,2.52s-2.52-1.13-2.52-2.52,1.13-2.52,2.52-2.52,2.52,1.13,2.52,2.52Z"/><path class="b`" d="M8337.11,32.74c0,1.08-.88,1.96-1.96,1.96s-1.96-.88-1.96-1.96,.88-1.96,1.96-1.96,1.96,.88,1.96,1.96Z"/><path class="b`" d="M8420.29,59.91c0,.77-.63,1.4-1.4,1.4s-1.4-.63-1.4-1.4,.63-1.4,1.4-1.4,1.4,.63,1.4,1.4Z"/><circle class="b`" cx="8288.1" cy="58.79" r="1.68"/><path class="b`" d="M8302.66,17.9c0,1.24-1,2.24-2.24,2.24s-2.24-1-2.24-2.24,1-2.24,2.24-2.24,2.24,1,2.24,2.24Z"/><circle class="b`" cx="8238.8" cy="56.83" r="1.12"/></g><path class="au" d="M9072.44,1.28V68.85h-441.39V1.29c0-.46,25.84,3.34,28.18,2.95,3.81-.65,7.4-2.27,11.19-3.03,9.57-1.93,19.3,1.76,29.05,2.3,9.81,.54,19.62-2.13,29.4-1.23,8.12,.74,16.05-.82,23.91-.63,8.25,.2,15.39,6.06,23.91,5.59,5.36-.3,10.32-2.83,15.56-3.96,12.36-2.67,25.64,2.51,37.71-1.28,2.26-.71,4.47-1.74,6.83-1.94,3.16-.27,6.22,.96,9.24,1.9,10.67,3.31,21.64,1.53,32.05-1.16,11.07-2.86,20.26,4.45,31.28,4.28,9.89-.16,19.26-5.04,29.35-5.06,10.51-.03,19.42,4.67,30.39,2.5,3.25-.64,6.45-1.64,9.75-1.9,8.97-.69,17.71,4.14,26.67,3.27,4.96-.48,9.7-2.69,14.68-2.6,3.5,.07,6.86,1.27,10.26,2.07,11.48,2.69,20.81-2.06,31.85-2.06h10.12Z"/><g><path class="b`" d="M8942.83,17.62c0,1.08-.88,1.96-1.96,1.96s-1.96-.88-1.96-1.96,.88-1.96,1.96-1.96,1.96,.88,1.96,1.96Z"/><path class="b`" d="M8993.25,10.9c0,.77-.63,1.4-1.4,1.4s-1.4-.63-1.4-1.4,.63-1.4,1.4-1.4,1.4,.63,1.4,1.4Z"/><circle class="b`" cx="9029.66" cy="51.51" r="2.24"/><circle class="b`" cx="8941.43" cy="54.87" r="1.68"/><circle class="b`" cx="8897.46" cy="12.02" r="1.12"/><path class="b`" d="M8859.09,15.94c0,1.08-.88,1.96-1.96,1.96s-1.96-.88-1.96-1.96,.88-1.96,1.96-1.96,1.96,.88,1.96,1.96Z"/><path class="b`" d="M8884.02,55.71c0,1.08-.88,1.96-1.96,1.96s-1.96-.88-1.96-1.96,.88-1.96,1.96-1.96,1.96,.88,1.96,1.96Z"/><path class="b`" d="M8900.54,54.87c0,.77-.63,1.4-1.4,1.4s-1.4-.63-1.4-1.4,.63-1.4,1.4-1.4,1.4,.63,1.4,1.4Z"/><path class="b`" d="M8792.15,20.14c0,1.55-1.25,2.8-2.8,2.8s-2.8-1.25-2.8-2.8,1.25-2.8,2.8-2.8,2.8,1.25,2.8,2.8Z"/><path class="b`" d="M8791.31,9.5c0,1.08-.88,1.96-1.96,1.96s-1.96-.88-1.96-1.96,.88-1.96,1.96-1.96,1.96,.88,1.96,1.96Z"/><circle class="b`" cx="8749.58" cy="40.87" r="1.68"/><path class="b`" d="M8788.51,58.51c0,1.39-1.13,2.52-2.52,2.52s-2.52-1.13-2.52-2.52,1.13-2.52,2.52-2.52,2.52,1.13,2.52,2.52Z"/><path class="b`" d="M8771.14,32.74c0,1.08-.88,1.96-1.96,1.96s-1.96-.88-1.96-1.96,.88-1.96,1.96-1.96,1.96,.88,1.96,1.96Z"/><path class="b`" d="M8854.33,59.91c0,.77-.63,1.4-1.4,1.4s-1.4-.63-1.4-1.4,.63-1.4,1.4-1.4,1.4,.63,1.4,1.4Z"/><circle class="b`" cx="8722.13" cy="58.79" r="1.68"/><path class="b`" d="M8736.69,17.9c0,1.24-1,2.24-2.24,2.24s-2.24-1-2.24-2.24,1-2.24,2.24-2.24,2.24,1,2.24,2.24Z"/><circle class="b`" cx="8672.83" cy="56.83" r="1.12"/></g><path class="aw" d="M9505.85,1.28V68.85h-441.39V1.29c0-.46,25.84,3.34,28.18,2.95,3.81-.65,7.4-2.27,11.19-3.03,9.57-1.93,19.3,1.76,29.05,2.3,9.81,.54,19.62-2.13,29.4-1.23,8.12,.74,16.05-.82,23.91-.63,8.25,.2,15.39,6.06,23.91,5.59,5.36-.3,10.32-2.83,15.56-3.96,12.36-2.67,25.64,2.51,37.71-1.28,2.26-.71,4.47-1.74,6.83-1.94,3.16-.27,6.22,.96,9.24,1.9,10.67,3.31,21.64,1.53,32.05-1.16,11.07-2.86,20.26,4.45,31.28,4.28,9.89-.16,19.26-5.04,29.35-5.06,10.51-.03,19.42,4.67,30.39,2.5,3.25-.64,6.45-1.64,9.75-1.9,8.97-.69,17.71,4.14,26.67,3.27,4.96-.48,9.7-2.69,14.68-2.6,3.5,.07,6.86,1.27,10.26,2.07,11.48,2.69,20.81-2.06,31.85-2.06h10.12Z"/><g><path class="b`" d="M9376.25,17.62c0,1.08-.88,1.96-1.96,1.96s-1.96-.88-1.96-1.96,.88-1.96,1.96-1.96,1.96,.88,1.96,1.96Z"/><path class="b`" d="M9426.66,10.9c0,.77-.63,1.4-1.4,1.4s-1.4-.63-1.4-1.4,.63-1.4,1.4-1.4,1.4,.63,1.4,1.4Z"/><circle class="b`" cx="9463.07" cy="51.51" r="2.24"/><circle class="b`" cx="9374.85" cy="54.87" r="1.68"/><circle class="b`" cx="9330.87" cy="12.02" r="1.12"/><path class="b`" d="M9292.5,15.94c0,1.08-.88,1.96-1.96,1.96s-1.96-.88-1.96-1.96,.88-1.96,1.96-1.96,1.96,.88,1.96,1.96Z"/><path class="b`" d="M9317.43,55.71c0,1.08-.88,1.96-1.96,1.96s-1.96-.88-1.96-1.96,.88-1.96,1.96-1.96,1.96,.88,1.96,1.96Z"/><path class="b`" d="M9333.96,54.87c0,.77-.63,1.4-1.4,1.4s-1.4-.63-1.4-1.4,.63-1.4,1.4-1.4,1.4,.63,1.4,1.4Z"/><path class="b`" d="M9225.56,20.14c0,1.55-1.25,2.8-2.8,2.8s-2.8-1.25-2.8-2.8,1.25-2.8,2.8-2.8,2.8,1.25,2.8,2.8Z"/><path class="b`" d="M9224.72,9.5c0,1.08-.88,1.96-1.96,1.96s-1.96-.88-1.96-1.96,.88-1.96,1.96-1.96,1.96,.88,1.96,1.96Z"/><circle class="b`" cx="9182.99" cy="40.87" r="1.68"/><path class="b`" d="M9221.92,58.51c0,1.39-1.13,2.52-2.52,2.52s-2.52-1.13-2.52-2.52,1.13-2.52,2.52-2.52,2.52,1.13,2.52,2.52Z"/><path class="b`" d="M9204.56,32.74c0,1.08-.88,1.96-1.96,1.96s-1.96-.88-1.96-1.96,.88-1.96,1.96-1.96,1.96,.88,1.96,1.96Z"/><path class="b`" d="M9287.74,59.91c0,.77-.63,1.4-1.4,1.4s-1.4-.63-1.4-1.4,.63-1.4,1.4-1.4,1.4,.63,1.4,1.4Z"/><circle class="b`" cx="9155.54" cy="58.79" r="1.68"/><path class="b`" d="M9170.11,17.9c0,1.24-1,2.24-2.24,2.24s-2.24-1-2.24-2.24,1-2.24,2.24-2.24,2.24,1,2.24,2.24Z"/><circle class="b`" cx="9106.25" cy="56.83" r="1.12"/></g><path class="ay" d="M9946.57,1.28V68.85h-441.39V1.29c0-.46,25.84,3.34,28.18,2.95,3.81-.65,7.4-2.27,11.19-3.03,9.57-1.93,19.3,1.76,29.05,2.3,9.81,.54,19.62-2.13,29.4-1.23,8.12,.74,16.05-.82,23.91-.63,8.25,.2,15.39,6.06,23.91,5.59,5.36-.3,10.32-2.83,15.56-3.96,12.36-2.67,25.64,2.51,37.71-1.28,2.26-.71,4.47-1.74,6.83-1.94,3.16-.27,6.22,.96,9.24,1.9,10.67,3.31,21.64,1.53,32.05-1.16,11.07-2.86,20.26,4.45,31.28,4.28,9.89-.16,19.26-5.04,29.35-5.06,10.51-.03,19.42,4.67,30.39,2.5,3.25-.64,6.45-1.64,9.75-1.9,8.97-.69,17.71,4.14,26.67,3.27,4.96-.48,9.7-2.69,14.68-2.6,3.5,.07,6.86,1.27,10.26,2.07,11.48,2.69,20.81-2.06,31.85-2.06h10.12Z"/><g><path class="b`" d="M9816.97,17.62c0,1.08-.88,1.96-1.96,1.96s-1.96-.88-1.96-1.96,.88-1.96,1.96-1.96,1.96,.88,1.96,1.96Z"/><path class="b`" d="M9867.38,10.9c0,.77-.63,1.4-1.4,1.4s-1.4-.63-1.4-1.4,.63-1.4,1.4-1.4,1.4,.63,1.4,1.4Z"/><circle class="b`" cx="9903.79" cy="51.51" r="2.24"/><circle class="b`" cx="9815.57" cy="54.87" r="1.68"/><circle class="b`" cx="9771.59" cy="12.02" r="1.12"/><path class="b`" d="M9733.22,15.94c0,1.08-.88,1.96-1.96,1.96s-1.96-.88-1.96-1.96,.88-1.96,1.96-1.96,1.96,.88,1.96,1.96Z"/><path class="b`" d="M9758.15,55.71c0,1.08-.88,1.96-1.96,1.96s-1.96-.88-1.96-1.96,.88-1.96,1.96-1.96,1.96,.88,1.96,1.96Z"/><path class="b`" d="M9774.68,54.87c0,.77-.63,1.4-1.4,1.4s-1.4-.63-1.4-1.4,.63-1.4,1.4-1.4,1.4,.63,1.4,1.4Z"/><path class="b`" d="M9666.28,20.14c0,1.55-1.25,2.8-2.8,2.8s-2.8-1.25-2.8-2.8,1.25-2.8,2.8-2.8,2.8,1.25,2.8,2.8Z"/><path class="b`" d="M9665.44,9.5c0,1.08-.88,1.96-1.96,1.96s-1.96-.88-1.96-1.96,.88-1.96,1.96-1.96,1.96,.88,1.96,1.96Z"/><circle class="b`" cx="9623.71" cy="40.87" r="1.68"/><path class="b`" d="M9662.64,58.51c0,1.39-1.13,2.52-2.52,2.52s-2.52-1.13-2.52-2.52,1.13-2.52,2.52-2.52,2.52,1.13,2.52,2.52Z"/><path class="b`" d="M9645.28,32.74c0,1.08-.88,1.96-1.96,1.96s-1.96-.88-1.96-1.96,.88-1.96,1.96-1.96,1.96,.88,1.96,1.96Z"/><path class="b`" d="M9728.46,59.91c0,.77-.63,1.4-1.4,1.4s-1.4-.63-1.4-1.4,.63-1.4,1.4-1.4,1.4,.63,1.4,1.4Z"/><circle class="b`" cx="9596.26" cy="58.79" r="1.68"/><path class="b`" d="M9610.83,17.9c0,1.24-1,2.24-2.24,2.24s-2.24-1-2.24-2.24,1-2.24,2.24-2.24,2.24,1,2.24,2.24Z"/><circle class="b`" cx="9546.97" cy="56.83" r="1.12"/></g><path class="ax" d="M10379.99,1.28V68.85h-441.39V1.29c0-.46,25.84,3.34,28.18,2.95,3.81-.65,7.4-2.27,11.19-3.03,9.57-1.93,19.3,1.76,29.05,2.3,9.81,.54,19.62-2.13,29.4-1.23,8.12,.74,16.05-.82,23.91-.63,8.25,.2,15.39,6.06,23.91,5.59,5.36-.3,10.32-2.83,15.56-3.96,12.36-2.67,25.64,2.51,37.71-1.28,2.26-.71,4.47-1.74,6.83-1.94,3.16-.27,6.22,.96,9.24,1.9,10.67,3.31,21.64,1.53,32.05-1.16,11.07-2.86,20.26,4.45,31.28,4.28,9.89-.16,19.26-5.04,29.35-5.06,10.51-.03,19.42,4.67,30.39,2.5,3.25-.64,6.45-1.64,9.75-1.9,8.97-.69,17.71,4.14,26.67,3.27,4.96-.48,9.7-2.69,14.68-2.6,3.5,.07,6.86,1.27,10.26,2.07,11.48,2.69,20.81-2.06,31.85-2.06h10.12Z"/><g><path class="b`" d="M10250.38,17.62c0,1.08-.88,1.96-1.96,1.96s-1.96-.88-1.96-1.96,.88-1.96,1.96-1.96,1.96,.88,1.96,1.96Z"/><path class="b`" d="M10300.8,10.9c0,.77-.63,1.4-1.4,1.4s-1.4-.63-1.4-1.4,.63-1.4,1.4-1.4,1.4,.63,1.4,1.4Z"/><circle class="b`" cx="10337.21" cy="51.51" r="2.24"/><circle class="b`" cx="10248.98" cy="54.87" r="1.68"/><circle class="b`" cx="10205.01" cy="12.02" r="1.12"/><path class="b`" d="M10166.64,15.94c0,1.08-.88,1.96-1.96,1.96s-1.96-.88-1.96-1.96,.88-1.96,1.96-1.96,1.96,.88,1.96,1.96Z"/><path class="b`" d="M10191.56,55.71c0,1.08-.88,1.96-1.96,1.96s-1.96-.88-1.96-1.96,.88-1.96,1.96-1.96,1.96,.88,1.96,1.96Z"/><path class="b`" d="M10208.09,54.87c0,.77-.63,1.4-1.4,1.4s-1.4-.63-1.4-1.4,.63-1.4,1.4-1.4,1.4,.63,1.4,1.4Z"/><path class="b`" d="M10099.7,20.14c0,1.55-1.25,2.8-2.8,2.8s-2.8-1.25-2.8-2.8,1.25-2.8,2.8-2.8,2.8,1.25,2.8,2.8Z"/><path class="b`" d="M10098.86,9.5c0,1.08-.88,1.96-1.96,1.96s-1.96-.88-1.96-1.96,.88-1.96,1.96-1.96,1.96,.88,1.96,1.96Z"/><circle class="b`" cx="10057.13" cy="40.87" r="1.68"/><path class="b`" d="M10096.06,58.51c0,1.39-1.13,2.52-2.52,2.52s-2.52-1.13-2.52-2.52,1.13-2.52,2.52-2.52,2.52,1.13,2.52,2.52Z"/><path class="b`" d="M10078.69,32.74c0,1.08-.88,1.96-1.96,1.96s-1.96-.88-1.96-1.96,.88-1.96,1.96-1.96,1.96,.88,1.96,1.96Z"/><path class="b`" d="M10161.88,59.91c0,.77-.63,1.4-1.4,1.4s-1.4-.63-1.4-1.4,.63-1.4,1.4-1.4,1.4,.63,1.4,1.4Z"/><circle class="b`" cx="10029.68" cy="58.79" r="1.68"/><path class="b`" d="M10044.24,17.9c0,1.24-1,2.24-2.24,2.24s-2.24-1-2.24-2.24,1-2.24,2.24-2.24,2.24,1,2.24,2.24Z"/><circle class="b`" cx="9980.38" cy="56.83" r="1.12"/></g></g></g></svg>