<?xml version="1.0" encoding="UTF-8"?><svg xmlns="http://www.w3.org/2000/svg" viewBox="0 0 130.63 105.4"><defs><style>.d{fill:#f95d9c;}.e{fill:#fff;}.f{fill:#7ea565;}.g,.h{fill:#91c174;}.i{fill:#d6508d;}.h{fill-rule:evenodd;}</style></defs><g id="a"/><g id="b"><g id="c"><path class="f" d="M76.63,53.96s6.22,39.24-.45,45.81c-2.22,2.19-7.67,1.8-9.71-.54-6.09-7,2.32-45.26,2.32-45.26h7.84Z"/><path class="f" d="M36.57,53.96s6.22,39.24-.45,45.81c-2.22,2.19-7.67,1.8-9.71-.54-6.09-7,2.32-45.26,2.32-45.26h7.84Z"/><path class="g" d="M91.85,47.8c0-11.12-18.37-17.39-35.95-17.39-12.97,0-28.92,3.54-33.88,10.57C2.38,38.7,2.38,18.91,.52,20.15c-2.04,1.37,1.4,19.66,18.8,25.8-.04,.39-.06,1.46-.06,1.85,0,6.96,5.58,13.09,14.07,16.71-2.49,10.38-5.14,33.78-.69,38.9,2.04,2.35,7.49,2.72,9.71,.53,4.47-4.41,3.9-25.36,2.14-36.45,2.13,.29,9.14,.44,11.41,.44,4.62,0,13.13-.63,17.1-1.75-2.49,10.74-4.52,32.38-.3,37.23,2.05,2.35,7.49,2.72,9.71,.53,5.44-5.36,2.76-33.59,1.09-42.55,5.19-3.58,8.35-8.35,8.35-13.59Z"/><path class="f" d="M87.47,53.87c-3.43-.51-3.82-4.3-3.75-6.54-2.8-2.51-5.23-6.6-6.72-11.26-3.27,3.43-7.58,4.74-13.21,1.3-3.1-1.89-4.67-4.28-5.09-6.9,16.68,.63,33.16,6.8,33.16,17.33,0,1.77-.37,3.49-1.05,5.13-.86,.71-1.95,1.14-3.33,.94Z"/><g><path class="d" d="M95.75,45.34l-9.78-1.72s-1.32,7.47,3.6,8.2c4.91,.73,6.18-6.47,6.18-6.47Z"/><polygon class="i" points="90.41 45.79 91.44 45.97 89.53 50.81 90.41 45.79"/></g><g><path class="h" d="M110.09,13.06s-8.74,37.08,12.02,32.9c20.76-4.18-1.69-42.08-11.65-38.3l-.37,5.4Z"/><path class="g" d="M99.34,.33c15.16,2.67,15.07,17.71,11.71,28.72-3.28,10.74-13.68,19.96-20.56,18.75-6.88-1.21-13.5-13.43-12.91-24.65,.61-11.5,6.59-25.49,21.75-22.82Z"/><path class="h" d="M84.28,8.51s-4.47,37.84-22.55,26.81C43.65,24.29,77.71-3.64,85.78,3.31l-1.5,5.2Z"/></g><g><g><path d="M99.64,19.74c-.36,1.78,.08,3.38,.96,3.56,.9,.18,1.91-1.13,2.27-2.91,.36-1.79-.08-3.38-.97-3.56-.9-.18-1.91,1.13-2.27,2.91Z"/><path class="e" d="M98.69,17.68c-.15,.77,.34,1.51,1.11,1.66,.76,.16,1.51-.34,1.66-1.11,.16-.76-.34-1.51-1.11-1.66-.77-.15-1.51,.34-1.67,1.11Z"/></g><g><path d="M90.25,18.09c-.36,1.79,.08,3.38,.96,3.56,.9,.18,1.91-1.13,2.27-2.91,.36-1.79-.08-3.38-.97-3.56-.9-.18-1.91,1.13-2.27,2.91Z"/><path class="e" d="M89.29,16.03c-.15,.76,.34,1.51,1.11,1.66,.76,.16,1.51-.34,1.67-1.11,.16-.77-.34-1.51-1.11-1.66-.77-.15-1.51,.34-1.67,1.11Z"/></g></g><path d="M86.2,38.13c-.38,2.14,1.92,4.34,5.13,4.9,3.21,.57,6.12-.71,6.5-2.85,.38-2.14-1.92-4.34-5.13-4.9-3.21-.57-6.12,.71-6.5,2.85Z"/></g></g></svg>