<?xml version="1.0" encoding="UTF-8"?><svg xmlns="http://www.w3.org/2000/svg" viewBox="0 0 79.18 86.58"><defs><style>.d{fill:#fff;}.e{fill:#ffb185;}.f{fill:#b2775d;}.g{fill:#c1744d;}.h{fill:#db855a;}.i{fill:#c48465;}.j{fill:#dd8e62;}.k{fill:#d68d69;}.l{fill:#6d4632;}.m{fill:#563623;}</style></defs><g id="a"/><g id="b"><g id="c"><path class="f" d="M59.57,34.9c.11,.62,.18,1.19,.24,1.71,.17,1.61-.2,4.51,1.34,5.54,.76,.5,1.77,.22,2.62-.09,3.38-1.24,6.7-2.73,10.24-3.36,.99-.18,2.06-.27,2.97,.17,1,.48,1.6,1.53,1.92,2.59,.42,1.43,.4,3.05-.38,4.33s-2.38,2.09-3.81,1.66c-.89-.27-1.65-.96-2.58-1.04-2.06-.17-5.08,1.8-6.93,2.58-3.99,1.67-4.97,3.05-8.63,1.55-3.02-1.23-6.18-6.7-7.77-9.35-1.52-2.54-2.8-5.37-2.74-8.33,.06-2.96,1.77-6.05,4.59-6.93,5.84-1.81,8.14,4.41,8.92,8.98Z"/><path class="f" d="M40.85,41.31c5.04,.09,10.06,2.8,12.53,7.19,.88,1.56,1.43,3.28,1.77,5.04,1.65,8.49-1.59,17.09-4.78,25.13,3.46-1.43,7.7-.8,10.59,1.58,.92,.76,1.74,2.07,1.08,3.05-.5,.74-1.53,.81-2.42,.81-8.02,0-16.09,.01-23.98-1.45-3.45-.64-6.93-1.59-9.8-3.61-4.88-3.44-7.33-9.72-6.85-15.67,.85-10.47,10.77-22.26,21.85-22.08Z"/><path class="f" d="M24.21,55.92c-4.8-.7-9.82-.13-12.58,1.62-.98,.62-1.67,1.37-2.15,2.16-2.36,3.84-.08,8.44,2.2,12.77-3.16-1.2-7.24-1.51-10.21-.79-.94,.23-1.85,.74-1.31,1.31,.4,.43,1.38,.61,2.22,.75,7.62,1.18,15.29,2.37,22.92,2.82,3.34,.2,6.73,.25,9.64-.3,4.95-.94,7.87-3.6,7.97-6.52,.17-5.15-8.15-12.27-18.7-13.81Z"/><path class="e" d="M6.29,62.17c.77,4.58,2.22,9.12,4.86,12.95,5.53,8.04,14.36,9.35,22.89,7.6,.99-.2,1.98-.45,2.96-.73,2.36-.67,4.67-1.56,6.84-2.57,4.58-2.13,8.13-6.06,10.63-10.45,3.99-7.04,5.44-15.2,6.58-23.22,.71-4.96,1.31-9.97,.87-14.96-.12-1.37-.42-3.2-.93-5.13-1.09-4.15-3.14-8.76-6.4-10.19-1.35-.59-2.91-.64-4.69,.1-2.26,.94-4.05,2.73-6.21,3.87-3.54,1.86-7.67,1.8-11.69,2.21-.75,.08-1.51,.17-2.25,.3-8.5,1.45-15.88,7.45-19.93,15.06-4.05,7.61-4.97,16.65-3.54,25.16Z"/><path class="j" d="M35.45,82.68c.94-.19,1.89-.43,2.82-.7,2.25-.64,4.45-1.49,6.52-2.45,4.36-2.03,7.75-5.78,10.12-9.96,3.8-6.71,5.19-14.49,6.27-22.12,.67-4.72,1.25-9.5,.83-14.25-.12-1.3-.4-3.05-.89-4.89-3.22,.17-5.73,2.51-7.03,5.49-1.67,3.84-2.03,8.12-3.35,12.09-.97,2.94-2.45,5.69-3.92,8.42-1.34,2.48-2.68,4.96-4.02,7.44-2.46,4.56-4.94,9.16-6.32,14.16-.6,2.2-.98,4.49-1.04,6.78Z"/><path class="k" d="M33.98,43.78c5.04,.09,10.06,2.8,12.53,7.19,.88,1.56,1.43,3.28,1.77,5.04,1.65,8.49-1.59,17.09-4.78,25.13,3.46-1.43,7.7-.8,10.59,1.58,.92,.76,1.74,2.07,1.08,3.05-.5,.74-1.53,.81-2.42,.81-8.02,0-16.09,.01-23.98-1.45-3.45-.64-6.93-1.59-9.8-3.61-4.88-3.44-7.33-9.72-6.85-15.67,.85-10.47,10.77-22.26,21.85-22.08Z"/><path class="i" d="M64.65,12.52c-2.86-1.55-4.47-5.51-3.67-8.6,.35-1.38,1.01-2.66,1.66-3.93,1.79,.95,3.56,1.97,5.01,3.38,1.48,1.45,3.28,4.16,2.64,6.37-.47,1.6-2.03,2.91-3.74,3.1-.77,.09-1.38-.05-1.89-.32Z"/><path class="e" d="M59.79,6.72c4.21-.88,8.76,.31,12.16,2.93,2.31,1.78,4.12,4.22,5.13,6.95,1.18,3.19,.96,6.8,.71,10.15-.14,1.91-.36,4.21-1.17,5.96-1.79,3.91-6.17,4.08-9.97,3.57-4.38-.59-8.62-2.36-12.07-5.13-1.03-.83-1.98-1.75-2.84-2.75-3.21-3.74-3.72-8.51-1.84-13,1.74-4.18,5.36-7.74,9.88-8.68Z"/><path class="m" d="M61.29,20.62c.3,1.68,1.46,2.88,2.6,2.68,1.14-.2,1.82-1.73,1.52-3.41-.3-1.68-1.46-2.88-2.6-2.68s-1.82,1.73-1.52,3.4Z"/><path class="d" d="M63.3,19.1c.06,.34,.38,.57,.72,.51,.34-.06,.57-.38,.51-.72-.06-.34-.38-.57-.72-.51-.34,.06-.57,.38-.51,.72Z"/><path class="m" d="M69.33,19.24c.41,1.5,1.56,2.49,2.58,2.22s1.51-1.72,1.1-3.22c-.41-1.5-1.56-2.49-2.58-2.22-1.02,.28-1.51,1.72-1.1,3.22Z"/><path class="d" d="M71.03,17.69c.08,.3,.4,.48,.7,.4,.3-.08,.48-.4,.4-.7-.08-.3-.4-.48-.7-.4-.3,.08-.48,.4-.4,.7Z"/><path class="h" d="M72.04,26.9c.27,.4,.53,.79,.8,1.19,.14,.21-.2,.41-.34,.2-.27-.4-.53-.79-.8-1.19-.14-.21,.2-.41,.34-.2Z"/><path class="h" d="M70.63,24.24c.2,.63,.5,1.22,.9,1.74,.16,.2-.12,.48-.28,.28-.45-.58-.79-1.22-1.01-1.92-.08-.25,.31-.35,.38-.11Z"/><path class="h" d="M69.54,21.51c.17,.6,.4,1.16,.7,1.71,.12,.23-.22,.43-.34,.2-.31-.57-.56-1.17-.74-1.8-.07-.25,.31-.35,.38-.11Z"/><path class="h" d="M68.53,18.47c.09,.65,.29,1.26,.6,1.84,.12,.23-.22,.43-.34,.2-.34-.64-.55-1.32-.65-2.04-.03-.25,.36-.25,.4,0Z"/><path class="h" d="M68.05,15.04c0,.79,.14,1.55,.44,2.29,.1,.24-.29,.34-.38,.11-.31-.77-.46-1.56-.46-2.39,0-.26,.4-.26,.4,0Z"/><path class="h" d="M67.76,11.36c.02-.25,.41-.26,.4,0-.06,.88-.07,1.76-.05,2.64,0,.26-.39,.26-.4,0-.02-.88,0-1.76,.05-2.64Z"/><path class="h" d="M67.95,9.02c.03-.25,.42-.26,.4,0l-.12,1.19c-.03,.25-.42,.26-.4,0l.12-1.19Z"/><path class="h" d="M69.37,27.18c.27,.62,.43,1.26,.49,1.94,.02,.26-.38,.25-.4,0-.05-.6-.19-1.18-.43-1.74-.1-.23,.24-.44,.34-.2Z"/><path class="h" d="M68.15,23.99c.31,.67,.57,1.35,.77,2.06,.07,.25-.31,.35-.38,.11-.19-.67-.43-1.33-.73-1.96-.11-.23,.24-.43,.34-.2Z"/><path class="h" d="M67.16,21.1c.27,.62,.51,1.25,.7,1.9,.07,.25-.31,.35-.38,.11-.18-.61-.4-1.22-.66-1.8-.1-.23,.24-.43,.34-.2Z"/><path class="h" d="M65.45,17.87c.52,.71,.93,1.48,1.24,2.3,.09,.24-.29,.34-.38,.11-.3-.79-.7-1.52-1.2-2.2-.15-.21,.19-.41,.34-.2Z"/><path class="h" d="M63.16,15.55c.52,.44,1.03,.89,1.55,1.33,.19,.17-.09,.45-.28,.28-.52-.44-1.03-.89-1.55-1.33-.19-.17,.09-.45,.28-.28Z"/><path class="h" d="M60.32,13.35l1.97,1.41c.21,.15,0,.49-.2,.34-.66-.47-1.31-.94-1.97-1.41-.21-.15,0-.49,.2-.34Z"/><path class="h" d="M57.79,11.82c.56,.27,1.06,.61,1.52,1.03,.19,.17-.09,.45-.28,.28-.43-.39-.91-.71-1.43-.96-.23-.11-.03-.45,.2-.34Z"/><path class="h" d="M54.96,10.16c.67,.34,1.29,.75,1.89,1.21,.2,.16-.08,.44-.28,.28-.56-.44-1.17-.83-1.81-1.15-.23-.12-.03-.46,.2-.34Z"/><path class="h" d="M70.23,26.93c.16,.46,.29,.92,.4,1.39,.06,.25-.33,.36-.38,.11-.11-.47-.24-.94-.4-1.39-.08-.24,.3-.35,.38-.11Z"/><path class="h" d="M70.76,26.59c.24,.51,.52,.99,.83,1.45,.14,.21-.2,.41-.34,.2-.31-.46-.59-.95-.83-1.45-.11-.23,.23-.43,.34-.2Z"/><path class="h" d="M69.54,23.79c.29,.64,.57,1.27,.86,1.91,.1,.23-.24,.43-.34,.2-.29-.64-.57-1.27-.86-1.91-.1-.23,.24-.43,.34-.2Z"/><path class="h" d="M69.25,24.84c.14,.49,.36,.94,.66,1.35,.15,.21-.2,.41-.34,.2-.32-.44-.55-.93-.7-1.45-.07-.25,.31-.35,.38-.11Z"/><path class="h" d="M68.23,22.1c.29,.56,.51,1.14,.67,1.74,.06,.25-.32,.35-.38,.11-.15-.57-.35-1.12-.63-1.65-.12-.23,.23-.43,.34-.2Z"/><path class="h" d="M68.69,21.25c.21,.48,.42,.97,.62,1.45,.1,.23-.24,.44-.34,.2-.21-.48-.42-.97-.62-1.45-.1-.23,.24-.44,.34-.2Z"/><path class="h" d="M67.91,19.27c.14,.37,.29,.73,.43,1.1,.09,.24-.29,.34-.38,.11-.14-.37-.29-.73-.43-1.1-.09-.24,.29-.34,.38-.11Z"/><path class="h" d="M67.28,19.67c.21,.45,.42,.9,.62,1.35,.11,.23-.24,.43-.34,.2l-.62-1.35c-.11-.23,.24-.43,.34-.2Z"/><path class="h" d="M67.49,16.88c.08,.54,.18,1.06,.32,1.59,.06,.25-.32,.35-.38,.11-.14-.52-.24-1.05-.32-1.59-.04-.25,.35-.36,.38-.11Z"/><path class="h" d="M65.05,16.11c.46,.47,.86,1,1.18,1.58,.13,.22-.22,.42-.34,.2-.31-.55-.68-1.04-1.12-1.5-.18-.18,.1-.47,.28-.28Z"/><path class="h" d="M66.59,18.18c.15,.23,.3,.46,.45,.69,.14,.22-.2,.42-.34,.2-.15-.23-.3-.46-.45-.69-.14-.22,.2-.42,.34-.2Z"/><path class="h" d="M66.02,14.89c.25,.74,.54,1.46,.88,2.16,.11,.23-.23,.43-.34,.2-.35-.73-.66-1.49-.92-2.26-.08-.24,.3-.35,.38-.11Z"/><path class="h" d="M67.14,14.3c.06,.53,.12,1.06,.17,1.59,.03,.25-.37,.25-.4,0-.06-.53-.12-1.06-.17-1.59-.03-.25,.37-.25,.4,0Z"/><path class="h" d="M67.21,11.36c-.02,.68,.02,1.36,.1,2.04,.03,.25-.37,.25-.4,0-.08-.68-.11-1.36-.1-2.04,0-.26,.4-.26,.4,0Z"/><path class="h" d="M66.24,12.85c.07,.4,.14,.79,.22,1.19,.05,.25-.34,.36-.38,.11-.07-.4-.14-.79-.22-1.19-.05-.25,.34-.36,.38-.11Z"/><path class="h" d="M64.75,14.44c.21,.28,.43,.57,.64,.85,.15,.2-.19,.4-.34,.2-.21-.28-.43-.57-.64-.85-.15-.2,.19-.4,.34-.2Z"/><path class="h" d="M62.97,14.26c.4,.31,.8,.63,1.2,.94,.2,.16-.08,.44-.28,.28-.4-.31-.8-.63-1.2-.94-.2-.16,.08-.44,.28-.28Z"/><path class="h" d="M60.99,12.73c.35,.26,.7,.52,1.06,.78,.2,.15,0,.5-.2,.34-.35-.26-.7-.52-1.06-.78-.2-.15,0-.5,.2-.34Z"/><path class="h" d="M59.14,11.49c.37,.26,.73,.52,1.1,.79,.21,.15,0,.49-.2,.34-.37-.26-.73-.52-1.1-.79-.21-.15,0-.49,.2-.34Z"/><path class="h" d="M56.8,10.16c.6,.21,1.13,.53,1.58,.98,.18,.18-.1,.46-.28,.28-.4-.4-.87-.7-1.4-.88-.24-.08-.14-.47,.11-.38Z"/><path class="h" d="M55.51,9.32l.7,.39c.22,.13,.02,.47-.2,.34l-.7-.39c-.22-.13-.02-.47,.2-.34Z"/><path class="h" d="M62.54,12.62c.48,.35,.92,.75,1.31,1.2,.17,.19-.11,.47-.28,.28-.37-.42-.78-.8-1.23-1.14-.2-.15,0-.5,.2-.34Z"/><path class="h" d="M64.03,12.41c.22,.35,.43,.69,.65,1.04,.14,.22-.21,.42-.34,.2-.22-.35-.43-.69-.65-1.04-.14-.22,.21-.42,.34-.2Z"/><path class="h" d="M65.11,12.5l.47,1.4c.08,.24-.3,.35-.38,.11l-.47-1.4c-.08-.24,.3-.35,.38-.11Z"/><path class="h" d="M65.75,10.62c.04,.5,.08,.99,.12,1.49,.02,.26-.38,.25-.4,0-.04-.5-.08-.99-.12-1.49-.02-.26,.38-.25,.4,0Z"/><path class="h" d="M66.27,9.77c.04-.25,.42-.15,.38,.11-.1,.63-.13,1.25-.09,1.89,.02,.26-.38,.25-.4,0-.04-.67,0-1.33,.1-1.99Z"/><path class="h" d="M67.4,9.42v1.24c0,.26-.4,.26-.4,0v-1.24c0-.26,.4-.26,.4,0Z"/><path class="h" d="M66.54,7.47c.08-.24,.47-.14,.38,.11-.12,.36-.17,.72-.11,1.1,.03,.25-.35,.36-.38,.11-.06-.45-.03-.88,.11-1.31Z"/><path class="h" d="M67.7,7.83v.8c0,.26-.4,.26-.4,0v-.8c0-.26,.4-.26,.4,0Z"/><path class="h" d="M65.76,8.43c0,.39,.03,.76,.11,1.14,.05,.25-.33,.36-.38,.11-.09-.41-.13-.82-.12-1.24,0-.26,.4-.26,.4,0Z"/><path class="h" d="M64.79,9.27l.24,1.24c.05,.25-.34,.36-.38,.11-.08-.41-.16-.82-.24-1.24-.05-.25,.34-.36,.38-.11Z"/><path class="h" d="M64.96,11.21l.06,.6c.03,.25-.37,.25-.4,0l-.06-.6c-.03-.25,.37-.25,.4,0Z"/><path class="h" d="M63.87,9.77c.13,.65,.27,1.29,.4,1.94,.05,.25-.33,.36-.38,.11-.13-.65-.27-1.29-.4-1.94-.05-.25,.33-.36,.38-.11Z"/><path class="h" d="M62.56,10.28c.37,.37,.67,.8,.88,1.28,.1,.23-.24,.43-.34,.2-.2-.45-.47-.85-.82-1.2-.18-.18,.1-.46,.28-.28Z"/><path class="h" d="M61.67,11.02c.37,.39,.77,.74,1.2,1.06,.2,.15,0,.5-.2,.34-.46-.34-.89-.71-1.29-1.12-.18-.18,.1-.47,.28-.28Z"/><path class="h" d="M60.64,11.36c.36,.31,.74,.58,1.15,.81,.22,.13,.02,.47-.2,.34-.44-.25-.85-.55-1.23-.88-.19-.17,.09-.45,.28-.28Z"/><path class="h" d="M58.54,10.12c.48,.21,.92,.49,1.31,.84,.19,.17-.09,.45-.28,.28-.36-.33-.78-.58-1.23-.78-.23-.1-.03-.44,.2-.34Z"/><path class="h" d="M56.45,8.63c.37,.37,.79,.67,1.25,.92,.23,.12,.03,.46-.2,.34-.49-.26-.94-.59-1.33-.98-.18-.18,.1-.46,.28-.28Z"/><path class="h" d="M59.51,9.38c.42,.32,.83,.65,1.22,1,.19,.17-.09,.45-.28,.28-.37-.33-.75-.64-1.14-.93-.2-.15,0-.5,.2-.34Z"/><path class="h" d="M57.73,8.15c.26,.22,.52,.44,.78,.66,.2,.17-.09,.45-.28,.28-.26-.22-.52-.44-.78-.66-.2-.17,.09-.45,.28-.28Z"/><path class="h" d="M60.52,8.88c.53,.34,.97,.79,1.3,1.33,.13,.22-.21,.42-.34,.2-.29-.48-.69-.88-1.16-1.18-.22-.14-.02-.48,.2-.34Z"/><path class="h" d="M59.27,7.58c.2,.3,.41,.59,.61,.89,.15,.21-.2,.41-.34,.2-.2-.3-.41-.59-.61-.89-.15-.21,.2-.41,.34-.2Z"/><path class="h" d="M62.12,8.24c.43,.54,.81,1.12,1.12,1.74,.12,.23-.23,.43-.34,.2-.3-.59-.65-1.14-1.06-1.65-.16-.2,.12-.48,.28-.28Z"/><path class="h" d="M61.19,8.28c.27,.31,.54,.62,.8,.93,.17,.19-.11,.48-.28,.28-.27-.31-.54-.62-.8-.93-.17-.19,.11-.48,.28-.28Z"/><path class="h" d="M60.18,6.93c.12,.25,.27,.5,.44,.72,.16,.2-.12,.48-.28,.28-.2-.25-.37-.51-.5-.8-.11-.23,.23-.43,.34-.2Z"/><path class="h" d="M61.37,6.77c.19,.31,.35,.62,.49,.96,.1,.24-.29,.34-.38,.11-.12-.3-.28-.59-.45-.86-.14-.22,.21-.42,.34-.2Z"/><path class="h" d="M62.94,7.57c.18,.45,.36,.9,.54,1.35,.1,.24-.29,.34-.38,.11-.18-.45-.36-.9-.54-1.35-.1-.24,.29-.34,.38-.11Z"/><path class="h" d="M64.01,7.43c.09,.43,.18,.86,.26,1.29,.05,.25-.33,.36-.38,.11-.09-.43-.18-.86-.26-1.29-.05-.25,.33-.36,.38-.11Z"/><path class="h" d="M64.84,7.18c-.02,.4,.01,.79,.09,1.19,.05,.25-.33,.36-.38,.11-.09-.43-.12-.86-.1-1.29,.01-.26,.41-.26,.4,0Z"/><path class="h" d="M65.62,7.13c.05-.25,.43-.14,.38,.11l-.09,.45c-.05,.25-.43,.14-.38-.11l.09-.45Z"/><path class="h" d="M63.31,6.83c.11,.15,.16,.32,.17,.51,0,.26-.39,.26-.4,0,0-.12-.04-.21-.11-.31-.15-.21,.19-.4,.34-.2Z"/><path class="h" d="M62.2,6.83c.12,.2,.17,.42,.18,.65,0,.26-.39,.26-.4,0,0-.16-.04-.3-.12-.45-.13-.22,.22-.42,.34-.2Z"/><path class="e" d="M50.73,17.38c-3.01-1.26-5-5.03-4.52-8.18,.21-1.41,.74-2.75,1.26-4.08,1.87,.76,3.74,1.6,5.32,2.86,1.62,1.3,3.68,3.81,3.26,6.07-.3,1.64-1.73,3.1-3.41,3.46-.76,.16-1.38,.09-1.92-.13Z"/><path class="i" d="M48.28,8.04c1.12,1.02,2.6,1.54,3.93,2.28,1.3,.72,2.31,1.74,2.9,3.12-.06,.03-.99-.59-1.39-.85,.03,.35,.06,.7,.09,1.06l-1.59-.61c-.03,.39,0,.78,.06,1.17-.44-.07-.87-.18-1.29-.32,.02,.27,.05,.54,.07,.8-.26-.04-.53-.07-.79-.11-.04,.16-.05,.32-.04,.47-.86-.61-1.47-1.61-1.75-2.64-.39-1.41-.29-2.9-.18-4.36Z"/><path class="j" d="M73.92,27.83c-.22,.07-.43,.19-.64,.31-1.14,.62-2.4,1.03-3.69,1.21-1.11,.15-2.34,.17-3.15,.94-.6,.56-.83,1.41-.98,2.21-.11,.62-.19,1.27,.03,1.86,.26,.69,.9,1.18,1.6,1.41,.7,.24,1.44,.25,2.18,.23,2.27-.06,4.34-.63,6.07-2.16,1.12-.99,1.58-3.03,1.1-4.44-.33-.99-1.42-1.93-2.52-1.57Z"/><path class="m" d="M68.54,32.03s.09,.09,.12,.13c.35,.51,.76,.99,1.28,1.33,.62,.4,1.43,.56,2.08,.15,.45-.29,.57-1.02,.45-1.47-.07-.28-.19-.54-.33-.8-.03-.06-.03-.12-.01-.16-.01-.03-.03-.06-.04-.08-.1-.23,.24-.43,.34-.2,.23,.51,.52,1.01,.92,1.42,.27,.28,.64,.52,1.01,.23,.27-.21,.34-.62,.41-.93,.06-.25,.44-.14,.38,.11-.15,.65-.52,1.54-1.36,1.36-.33-.07-.62-.3-.87-.59,.07,.77-.23,1.46-1.24,1.61-1.5,.21-2.69-.46-3.43-1.78-.06-.11-.12-.27-.02-.36,.09-.08,.2-.03,.3,.05Z"/><path class="m" d="M70.08,29.59c.82-.47,1.98-.61,2.9-.7,.91-.09,.31,2.58-.23,2.83-.73,.35-2.71-.78-2.96-1.49-.1-.27,.06-.51,.3-.64Z"/><path class="l" d="M72.9,30.18c-.03,.09-.08,.1-.15,.04-.18-.15-.79-.41-.69-.71,.08-.23,.62-.3,.81-.18,.26,.17,.12,.63,.04,.85Z"/><path class="k" d="M56.02,38.48c.11,.62,.18,1.19,.24,1.71,.17,1.61-.2,4.51,1.34,5.54,.76,.5,1.77,.22,2.62-.09,3.38-1.24,6.7-2.73,10.24-3.36,.99-.18,2.06-.27,2.97,.17,1,.48,1.6,1.53,1.92,2.59,.42,1.43,.4,3.05-.38,4.33-.77,1.28-2.38,2.09-3.81,1.66-.89-.27-1.65-.96-2.58-1.04-2.06-.17-5.08,1.8-6.93,2.58-3.99,1.67-4.97,3.05-8.63,1.55-3.02-1.23-6.18-6.7-7.77-9.35-1.52-2.54-2.8-5.37-2.74-8.33,.06-2.96,1.77-6.05,4.59-6.93,5.84-1.81,8.14,4.41,8.92,8.98Z"/><path class="i" d="M43.36,23.75c1.41-.3,2.7-.89,3.82-1.8,.38-.3,.92,.23,.54,.54-1.23,.99-2.62,1.67-4.16,1.99-.48,.1-.68-.63-.2-.73Z"/><path class="i" d="M37.12,25.31c1.56-.17,3.07-.55,4.55-1.1,.46-.17,.66,.56,.2,.73-1.54,.57-3.12,.94-4.75,1.12-.49,.05-.48-.71,0-.76Z"/><path class="i" d="M30.45,26.48c1.46-.83,3.11-.92,4.75-.96,.49-.01,.49,.75,0,.76-1.51,.04-3.02,.1-4.37,.86-.43,.24-.81-.42-.38-.66Z"/><path class="i" d="M24.01,29.39c1.41-1.2,3.02-2.08,4.8-2.59,.47-.14,.67,.6,.2,.73-1.66,.48-3.15,1.28-4.46,2.4-.37,.32-.91-.22-.54-.54Z"/><path class="i" d="M19.65,34.37c.77-1.47,1.78-2.77,3-3.89,.36-.33,.9,.21,.54,.54-1.18,1.07-2.14,2.32-2.88,3.73-.23,.43-.88,.05-.66-.38Z"/><path class="i" d="M20.58,30.34c.74-.91,1.62-1.66,2.62-2.26,.42-.25,.8,.41,.38,.66-.95,.57-1.77,1.28-2.47,2.14-.31,.38-.84-.16-.54-.54Z"/><path class="i" d="M16.9,34.47c.58-1.11,1.33-2.09,2.24-2.94,.36-.33,.9,.2,.54,.54-.87,.81-1.57,1.74-2.12,2.79-.23,.43-.88,.05-.66-.38Z"/><path class="i" d="M17.07,38.77c.31-1.2,.87-2.28,1.65-3.25,.31-.38,.84,.16,.54,.54-.69,.86-1.17,1.84-1.45,2.92-.12,.47-.86,.27-.73-.2Z"/><path class="i" d="M13.55,39.45c.33-1.41,.93-2.72,1.78-3.9,.28-.39,.95-.01,.66,.38-.82,1.13-1.38,2.36-1.71,3.72-.11,.48-.85,.27-.73-.2Z"/><path class="i" d="M14.66,41.46c.42-1.3,.85-2.59,1.27-3.89,.15-.46,.89-.26,.73,.2l-1.27,3.89c-.15,.46-.89,.27-.73-.2Z"/><path class="i" d="M15.47,45.19c.31-1.34,.67-2.67,1.09-3.97,.15-.46,.88-.27,.73,.2-.42,1.31-.78,2.63-1.09,3.98-.11,.48-.84,.28-.73-.2Z"/><path class="i" d="M13.2,46.55c.23-1.08,.46-2.15,.68-3.23,.1-.48,.83-.28,.73,.2l-.68,3.23c-.1,.48-.83,.28-.73-.2Z"/><path class="i" d="M10.68,46.11c.44-1.55,.97-3.06,1.58-4.55,.18-.45,.92-.25,.73,.2-.61,1.49-1.14,3-1.58,4.55-.13,.47-.87,.27-.73-.2Z"/><path class="i" d="M11.29,50.78c.19-1.39,.41-2.78,.67-4.16,.09-.48,.83-.28,.73,.2-.25,1.31-.47,2.63-.65,3.96-.06,.48-.83,.48-.76,0Z"/><path class="i" d="M9.78,48.31c.12-.47,.86-.27,.73,.2-.35,1.33-.56,2.67-.65,4.04-.03,.49-.79,.49-.76,0,.09-1.44,.31-2.85,.67-4.25Z"/><path class="i" d="M13.66,49.01c.06-.48,.82-.49,.76,0-.15,1.24-.23,2.48-.26,3.72,0,.49-.77,.49-.76,0,.02-1.24,.11-2.48,.26-3.72Z"/><path class="i" d="M14.87,46.31c.03-.21,.16-.38,.38-.38,.18,0,.41,.18,.38,.38-.06,.48-.13,.96-.19,1.43-.03,.21-.16,.38-.38,.38-.18,0-.41-.18-.38-.38,.06-.48,.13-.96,.19-1.43Z"/><path class="i" d="M15.11,49.43c.03-.49,.79-.49,.76,0l-.22,3.64c-.03,.49-.79,.49-.76,0,.07-1.21,.15-2.42,.22-3.64Z"/><path class="i" d="M11.99,51.97c.01-.49,.77-.49,.76,0l-.12,4.56c-.01,.49-.77,.49-.76,0l.12-4.56Z"/><path class="i" d="M14.42,54.17c.04,.65,.07,1.3,.11,1.94,.03,.49-.73,.49-.76,0l-.11-1.94c-.03-.49,.73-.49,.76,0Z"/><path class="i" d="M10.38,53.58c.04-.48,.8-.49,.76,0-.12,1.46-.17,2.93-.16,4.4,0,.49-.76,.49-.76,0-.01-1.47,.04-2.93,.16-4.4Z"/><path class="i" d="M9.76,55.77c.01,1.44,.12,2.87,.32,4.3,.07,.48-.67,.69-.73,.2-.21-1.49-.33-2.99-.35-4.5,0-.49,.76-.49,.76,0Z"/><path class="i" d="M10.21,62.43c.34,1.13,.68,2.25,1.02,3.38,.14,.47-.59,.67-.73,.2-.34-1.13-.68-2.25-1.02-3.38-.14-.47,.59-.67,.73-.2Z"/><path class="i" d="M10.63,59.24c.02-.49,.78-.49,.76,0-.05,1.21,0,2.42,.16,3.62,.06,.48-.67,.69-.73,.2-.17-1.27-.24-2.54-.18-3.82Z"/><path class="i" d="M12.9,57.97v2.2c0,.49-.76,.49-.76,0v-2.2c0-.49,.76-.49,.76,0Z"/><path class="g" d="M47.34,30.37c.48-.07,.69,.66,.2,.73-1.96,.29-3.1,2.66-3.24,4.44-.04,.49-.8,.49-.76,0,.16-2.11,1.48-4.83,3.8-5.18Z"/><path class="g" d="M45.19,34.63c.37-.89,.68-2.35,1.77-2.61,.48-.11,.68,.62,.2,.73-.39,.09-.56,.47-.7,.8-.19,.42-.36,.85-.53,1.28-.19,.45-.92,.25-.73-.2Z"/><path class="g" d="M71.78,42.76c2.11,.22,3.59,2.66,2.7,4.59-.2,.44-.86,.06-.66-.38,.63-1.37-.52-3.29-2.04-3.44-.48-.05-.49-.81,0-.76Z"/><path class="g" d="M72.06,44.1c.51,.14,.93,.47,1.17,.95,.27,.56,.16,1.18,.03,1.76-.11,.48-.84,.28-.73-.2,.17-.72,.2-1.53-.66-1.77-.47-.13-.27-.87,.2-.73Z"/><path class="g" d="M52.24,51.26c1.02,1.16,2.33,2.25,3.99,1.91,.48-.1,.68,.64,.2,.73-1.93,.4-3.51-.71-4.73-2.11-.32-.37,.21-.91,.54-.54Z"/><path class="g" d="M38.95,45.64c2,1.12,3.97,2.3,5.28,4.24,.28,.41-.38,.79-.66,.38-1.23-1.82-3.13-2.91-5.01-3.97-.43-.24-.04-.9,.38-.66Z"/><path class="g" d="M45.08,51.05c.51,.92,1.15,1.84,1.52,2.82,.35,.93,.35,1.93,.32,2.91-.01,.49-.77,.49-.76,0,.03-.99,.04-1.99-.38-2.9-.39-.84-.9-1.64-1.36-2.45-.24-.43,.42-.81,.66-.38Z"/><path class="g" d="M46.13,63.67c.55-1.66,.25-3.57,.19-5.29-.02-.49,.74-.49,.76,0,.06,1.79,.36,3.76-.22,5.5-.15,.46-.89,.26-.73-.2Z"/><path class="g" d="M45.71,67.94c.3-.71,.45-1.45,.47-2.22,.01-.49,.77-.49,.76,0-.02,.91-.22,1.77-.57,2.6-.19,.45-.85,.06-.66-.38Z"/><path class="g" d="M40.85,48.83c1.79,1.55,3.55,3.24,3.68,5.75,.02,.49-.74,.49-.76,0-.12-2.29-1.84-3.82-3.45-5.21-.37-.32,.17-.86,.54-.54Z"/><path class="g" d="M45.06,55.74c.29,.94,.43,1.9,.41,2.89-.01,.49-.77,.49-.76,0,.02-.92-.11-1.81-.38-2.68-.15-.47,.59-.67,.73-.2Z"/><path class="g" d="M44.64,65.69c.37-1.86,.49-3.71,.36-5.6-.03-.49,.73-.49,.76,0,.13,1.96,0,3.88-.39,5.8-.1,.48-.83,.28-.73-.2Z"/><path class="g" d="M47.17,81.09c2.24-.02,5.41,1.17,6.7,3.1,.27,.41-.39,.79-.66,.38-1.12-1.68-4.13-2.75-6.04-2.73-.49,0-.49-.76,0-.76Z"/><path class="g" d="M48.87,82.59c1.12,.21,2.12,.81,2.82,1.7,.3,.38-.23,.92-.54,.54-.64-.8-1.48-1.32-2.49-1.5-.48-.09-.28-.82,.2-.73Z"/><path class="g" d="M13.32,63.53c.08-.48,.81-.28,.73,.2-.43,2.65-.22,5.28,.59,7.83,.15,.47-.59,.67-.73,.2-.86-2.69-1.04-5.45-.59-8.23Z"/><path class="g" d="M14.99,73.16c.65,2.2,1.69,4.18,3.14,5.95,.31,.38-.23,.92-.54,.54-1.54-1.87-2.66-3.96-3.34-6.28-.14-.47,.6-.67,.73-.2Z"/><path class="g" d="M15.04,67.84c.32,1.98,.83,3.89,1.53,5.77,.17,.46-.56,.66-.73,.2-.7-1.87-1.21-3.79-1.53-5.77-.08-.48,.66-.69,.73-.2Z"/><path class="g" d="M17.18,75.01c.31,.76,.62,1.53,.93,2.29,.18,.45-.55,.65-.73,.2-.31-.76-.62-1.53-.93-2.29-.18-.45,.55-.65,.73-.2Z"/></g></g></svg>