<?xml version="1.0" encoding="UTF-8"?><svg xmlns="http://www.w3.org/2000/svg" viewBox="0 0 158.57 153.39"><defs><style>.d{fill:#f3ac8c;}.e{fill:#fff;}.f{fill:#bf5c3d;}.g{fill:#cb7857;}.h{fill:#c9653f;}.i{fill:#ac553c;}.j{fill:#23232d;}.k{fill:#3c2415;}.l{fill:#343442;}</style></defs><g id="a"/><g id="b"><g id="c"><g><path class="l" d="M0,110.3c.96,.8,1.95,1.59,2.97,2.32,.37,.3,.75,.57,1.12,.84,2.94,2.1,6.06,3.96,9.29,5.57,.41,.2,.83,.41,1.25,.6,1.1,.53,2.19,1.02,3.32,1.48,.56,.23,1.14,.46,1.75,.41,.72-.07,1.34-.51,1.9-.99,5.54-4.76,7.36-12.64,7.19-19.94s-1.95-14.5-2.18-21.81c-.07-2.18,.11-4.63,1.72-6.11,.76-.69,1.75-1.08,2.74-1.31,1.23-.3,2.52-.37,3.78-.22,1.49,.15,2.94,.61,4.23,1.34,2.64,1.48,4.8,4.09,7.79,4.53,1.38,.19,3.03-.38,3.08-1.96,.04-1.64-2.71-3.2-3.81-4.01-2.14-1.6-4.39-2.62-6.76-3.81-.14-.07-.28-.14-.42-.2-6.73-3.36-13.02-5.92-20.69-3.55-1.53,.49-3.03,1.14-4.27,2.18-3.41,2.93-3.83,8.03-3.4,12.52,.53,5.43,1.94,10.88,1.18,16.27-.96,6.82-5.54,12.99-11.77,15.88Z"/><path class="j" d="M2.97,112.62c.37,.3,.75,.57,1.12,.84,7.42-5.73,12.33-14.28,13.13-23.86,.27-3.17,.08-6.37-.53-9.48-.91-4.53-2.53-9.39,2.25-12.36,4.67-2.91,12.18-1.54,17.78,1.06,1.61,.75,3.06,1.59,4.24,2.47,.7,.53,1.38-.65,.69-1.17-1.12-.84-2.43-1.61-3.81-2.29-4.63-2.26-10.38-3.47-15.07-2.82-4.93,.69-9.12,4.32-8.64,9.57,.38,4.31,1.92,8.28,1.86,12.68-.07,4.21-.95,8.36-2.6,12.22-2.25,5.3-5.89,9.76-10.42,13.14Z"/><path class="j" d="M13.39,119.03c.41,.2,.83,.41,1.25,.6,6.25-6.71,11.46-14.4,10.54-24.1-.6-6.29-3.31-12.19-3.78-18.49-.18-2.22-.18-4.88,2.06-6.27,1.54-.96,3.75-.93,5.5-.92,2.11,.01,4.17,.33,6.16,.89,1.67,.45,3.28,1.07,4.85,1.84,.79,.39,1.46-.77,.69-1.17-1.38-.68-2.95-1.34-4.62-1.87-4.06-1.29-8.67-1.86-12.38-.37-4.89,1.96-3.78,8.16-2.94,12.25,1.64,7.91,4.8,15.57,2.03,23.64-1.87,5.42-5.42,9.88-9.36,13.97Z"/><path class="i" d="M142.73,1.85c2.07,1.08,.29,8.41-1.82,10.71-1.72,1.88-5.06,5.07-7.76,5.26-2.66,.19-3.57-1.87-2.85-4.15,1.24-3.91,10.36-12.9,12.44-11.83Z"/><path class="l" d="M133.65,10.17c2.36-.78,5.13-2.25,5.08-4.73-.04-1.89-1.88-3.34-3.74-3.62s-3.74,.32-5.54,.92c-1.89-1.66-4.32-2.89-6.83-2.71-2.51,.17-4.98,2.07-5.2,4.58-2.48-1.42-5.97-.71-7.71,1.56-1.74,2.27-1.5,5.82,.52,7.85-2.66-1.01-5.71,1.4-6.13,4.22s1.13,5.6,3.18,7.57c-2.45,.56-4.86,2.02-5.26,4.51-.39,2.48,.86,5.15,3.02,6.43-2.45-.65-5.12,1.15-5.88,3.56-.76,2.41,.14,5.14,1.84,7.01-2.38-1.68-5.99-.17-7.32,2.42-1.34,2.59-.92,5.75,.04,8.5-1.22-1.99-4.1-2.47-6.24-1.54-2.14,.93-3.64,2.93-4.7,5.01-1.67,3.27-2.19,7.92,.79,10.07,1.33,.96,3.06,1.16,4.7,1.27,3.37,.23,6.83,.2,10.04-.88,5.57-1.88,9.69-6.79,12.07-12.16,2.38-5.38,3.28-11.27,4.3-17.06,.65-3.7,1.36-7.4,2.29-11.05,.49-1.94,1.05-3.88,1.95-5.66,.64-1.26,1.44-2.43,2.27-3.57,3.15-4.37,7.36-10.81,12.47-12.49Z"/><path class="i" d="M111.56,134.43c-.41,2.1-.48,4.21,.14,6.24,.17,.55,.37,1.07,.68,1.55,.81,1.48,2.14,2.69,3.56,3.32,.41,.18,.85,.33,1.29,.41,1.15,.22,2.31,.04,3.33-.7,.92-.66,1.56-1.59,2.04-2.62,.51-1.03,.88-2.14,1.19-3.25,2.55-8.67,8.28-21.14,5.57-30.22-1.83-6.09-6.04-12.99-10.35-17.75-.44-.52-.92-1-1.36-1.44-3.63-3.62-8.66-6.09-10.76,.59-1.63,5.09,1.43,9.59,4.55,14.21v.04c2.58,3.84,5.23,7.75,5.23,12.18,0,4.13-1.83,7.93-3.33,11.73-.27,.7-.54,1.37-.78,2.1v.04c-.41,1.14-.75,2.36-.98,3.58Z"/><path class="l" d="M111.7,140.67c.17,.55,.37,1.07,.68,1.55,.81,1.48,2.14,2.69,3.56,3.32,.41,.18,.85,.33,1.29,.41,1.15,.22,2.31,.04,3.33-.7,.92-.66,1.56-1.59,2.04-2.62-1.02-.52-1.9-.89-2.1-1-3.36-1.7-6.35-4.28-8.93-7.19-.41,2.1-.48,4.21,.14,6.24Z"/><path class="h" d="M106.73,3.39c-2.15,1.08-1.34,7.42-1.03,9.54,.32,2.22,1.79,4.15,3.62,5.44,1.83,1.3,3.99,2.03,6.16,2.59,1.65,.43,3.51,.74,4.98-.13,7.87-4.66-11.58-18.52-13.73-17.45Z"/><path class="d" d="M118.21,17.7c.27,0,.37-.04,.37-.04,.13-3.89-5.87-8.29-9.26-8.98-1.77,5.04,3.07,7.68,7.07,8.71,.52,.13,1.25,.31,1.82,.31Z"/><path class="i" d="M49.96,144.78c0,.55,.04,1.11,.15,1.62,.41,2.07,1.59,3.73,4.35,4.17,.89,.15,1.77,.18,2.58,.07,2.69-.18,4.83-1.55,5.65-4.43,.07-.29,.15-.55,.18-.85,1.77-7.56,.3-15.72,.18-23.32-.07-3.47,1.22-6.6,2.8-9.63,3.28-6.05,7.93-11.62,5.83-18.34-.63-1.99-14.28-3.98-17.38-3.03-3.91,1.22-2.77,5.98-2.55,8.71,.37,4.24,.48,8.71,.37,13.5-.11,7.56-.74,15.87-1.66,25.09-.22,1.88-.63,4.28-.52,6.42Z"/><path class="h" d="M35.28,145.11c-.04,.11-.04,.18-.04,.3-.37,5.24,2.21,8.89,7.93,7.78,2.29-.44,4.21-2.03,4.76-4.32,.18-.66,.33-1.33,.44-1.99,0-.11,.04-.18,.04-.3,.15-.66,.22-1.4,.3-2.1,.77-6.49-.3-13.32-.41-19.78-.07-4.17,1.77-7.86,3.84-11.44,.96-1.62,1.96-3.21,2.8-4.83,3.47,1.84,7.01,3.39,10.92,3.98,.33,.11,.66,.15,1.03,.18,10.18,1.22,21.88,.59,31.95-2.51,.63,9.11,.41,19.41-.22,31.18-.07,1.48-.3,3.21-.3,4.94-.04,3.39,.74,6.6,4.83,7.05,3.8,.41,7.16-.89,8.01-4.72,.18-.81,.33-1.66,.44-2.51,.22-1.37,.37-2.77,.48-4.21,.29-3.69,.29-7.6,.18-11.4-.11-2.73-.26-5.42-.41-7.86-.41-6.24-.22-12.18-.81-18.19,0-.3-.04-.63-.07-.92,3.54-3.39,6.24-7.75,8.3-12.43,2.03-4.72,3.39-9.78,4.24-14.5,.41-2.4,4.46-20.74,3.17-21.81,.52,.44,1.07,.85,1.62,1.25,3.76,2.8,8.01,5.09,12.66,5.76,5.31,.77,11.22-.89,14.43-5.2,3.95-5.28,3.8-12.51,1.73-19.59-2.25-7.86-6.83-15.57-10.74-20.26-6.68-8.08-19.44-13.98-27.97-5.31-7.05,7.16-5.98,19.85-8.52,29-2.62,9.37-7.42,19.37-17.34,22.62-7.86,2.58-18.15-.37-26.27-.7-10.52-.37-29.59-.26-33.06,12.51-2.47,9.08,3.03,18.63,3.76,27.63,.92,10.92,.22,23.54-1.29,38.59-.15,1.25-.33,2.66-.44,4.1Z"/><path class="d" d="M128.33,55.94v.04c3.76,2.8,8.01,5.09,12.66,5.76,5.31,.77,11.22-.89,14.43-5.2,3.95-5.28,3.8-12.51,1.73-19.59-4.87-.96-11.11,.22-14.65,1.25-4.28,1.29-8.45,3.54-11.22,7.05-2.36,2.99-3.62,7.01-2.95,10.7Z"/><path class="l" d="M35.24,145.4c-.37,5.24,2.21,8.89,7.93,7.78,2.29-.44,4.21-2.03,4.76-4.32,.18-.66,.33-1.33,.44-1.99,0-.11,.04-.18,.04-.3-.55,.07-1.11,.11-1.7,.15-2.43,.33-4.91,.22-7.31-.22-.37-.07-2.1-.63-4.13-1.4-.04,.11-.04,.18-.04,.3Z"/><g><path class="k" d="M128.25,28.66c.5,2.5,2.28,4.25,3.98,3.91s2.65-2.64,2.15-5.14-2.28-4.25-3.98-3.91c-1.69,.34-2.65,2.64-2.15,5.14Z"/><path class="e" d="M131.2,26.31c.1,.5,.59,.83,1.1,.73,.5-.1,.83-.59,.73-1.1s-.59-.83-1.1-.73c-.5,.1-.83,.59-.73,1.1Z"/></g><g><path class="k" d="M138.87,25.81c.5,2.5,2.28,4.25,3.98,3.91,1.69-.34,2.65-2.64,2.15-5.14-.5-2.5-2.28-4.25-3.98-3.91-1.69,.34-2.65,2.64-2.15,5.14Z"/><path class="e" d="M141.82,23.45c.1,.5,.59,.83,1.1,.73,.5-.1,.83-.59,.73-1.1-.1-.5-.59-.83-1.1-.73-.5,.1-.83,.59-.73,1.1Z"/></g><g><path class="g" d="M148.96,41.49c-.81-.41-1.95,.22-1.95,.22,0,0,.17,1.29,.97,1.7s1.26,.1,1.53-.43c.27-.53,.25-1.08-.55-1.49Z"/><path class="g" d="M142.07,44.99c.4-.81-.23-1.95-.23-1.95,0,0-1.29,.18-1.69,.98-.4,.81-.09,1.26,.44,1.53,.53,.27,1.08,.24,1.48-.56Z"/></g><path class="l" d="M49.96,144.78c0,.55,.04,1.11,.15,1.62,.41,2.07,1.59,3.73,4.35,4.17,.89,.15,1.77,.18,2.58,.07,2.69-.18,4.83-1.55,5.65-4.43,.07-.29,.15-.55,.18-.85-4.24,.7-8.67,.33-12.91-.59Z"/><path class="l" d="M98.33,146.21c-.04,3.39,.74,6.6,4.83,7.05,3.8,.41,7.16-.89,8.01-4.72,.18-.81,.33-1.66,.44-2.51-.74,.15-1.25,.26-1.4,.3-3.91,.74-7.97,.59-11.88-.11Z"/><path class="l" d="M133.21,50.56c1.17,2.85,4.13,4.49,7.15,4.18,.87-.09,.86,1.27,0,1.35-3.68,.37-7.07-1.8-8.46-5.18-.33-.81,.98-1.16,1.31-.36Z"/><g><path class="l" d="M134.56,6.74c1.01,.79,1.75,1.88,2.5,3.04,.69,1.07,1.67,1.95,2.8,2.53-1.6,.51-3.43,.22-4.8-.75,1.2,1.02,2.33,2.41,2.2,3.98-.08,1.04-.7,1.94-1.15,2.88-.45,.94-.72,2.11-.15,2.98-1.3-.71-2.68-1.48-3.37-2.8-.48-.92-.56-2.01-.97-2.97-.4-.96-1.35-1.86-2.36-1.63,.33-.08,.35,1.29,.33,1.45-.07,.56-.27,1.06-.56,1.54-.4,.64-.29,1.31-.21,2.04-.82-.42-1.66-.84-2.35-1.45-.77-.68-1.32-1.52-2-2.28-1.34-1.49-2.27-3.35-2.64-5.32-1.13-5.95,9.69-5.61,12.72-3.24Z"/><path class="j" d="M128.5,6.26h.04c1.31,.02,3.05,1.09,4.22,1.69,.44,.22,2.9,1.48,1.28,1.77-.52,.09-1.03-.17-1.48-.42-.46-.25-.96-.52-1.48-.45,2.05,1.33,3.54,3.51,4.03,5.91,.08,.38,.13,.78-.04,1.13-.17,.35-.63,.57-.95,.37-.28-.18-.32-.57-.36-.9-.18-1.61-1-3.09-2.05-4.32-1.05-1.23-2.33-2.24-3.6-3.24-.35,1.46-.34,3,.02,4.45,.09,.35,.2,.71,.13,1.07-.07,.36-.39,.69-.74,.64-.39-.06-.57-.52-.66-.91-.31-1.36-.43-2.76-.37-4.15,.06-1.27,.5-2.64,2.02-2.64Z"/></g><path class="f" d="M109.71,120.17c-.03,2.38,.1,4.75,.39,7.11,.11,.86-1.25,.86-1.35,0-.29-2.36-.42-4.73-.39-7.11,0-.87,1.36-.87,1.35,0Z"/><path class="f" d="M107.52,122.2l.21,3.38c.05,.87-1.3,.87-1.35,0l-.21-3.38c-.05-.87,1.3-.87,1.35,0Z"/><path class="f" d="M108.79,130.51c-.06-.87,1.29-.87,1.35,0,.28,4.01,.31,8.01,.08,12.02-.05,.87-1.41,.87-1.35,0,.23-4.01,.21-8.01-.08-12.02Z"/><path class="f" d="M45.43,120.51c.78-2.99,1.86-5.87,3.22-8.65,.38-.78,1.55-.1,1.17,.68-1.31,2.68-2.33,5.44-3.08,8.33-.22,.84-1.53,.49-1.31-.36Z"/><path class="f" d="M46.39,127.62l.37,8.3c.04,.87-1.32,.87-1.35,0-.12-2.77-.24-5.53-.37-8.3-.04-.87,1.32-.87,1.35,0Z"/><path class="f" d="M45.33,139.67c-.17-.85,1.13-1.22,1.31-.36,.27,1.37,.3,2.71,.1,4.08-.12,.86-1.43,.49-1.31-.36,.16-1.12,.12-2.25-.1-3.36Z"/><path class="f" d="M58.73,64.63c4.23,.1,8.47,.19,12.7,.29,.87,.02,.87,1.37,0,1.35-4.23-.1-8.47-.19-12.7-.29-.87-.02-.87-1.37,0-1.35Z"/><path class="f" d="M41.94,68.86c.68-1.57,2.41-2.2,3.91-2.79,2.29-.91,4.67-1.3,7.13-1.08,.86,.08,.87,1.44,0,1.35-1.83-.17-3.58,0-5.35,.53-1.45,.44-3.85,1.12-4.51,2.66-.35,.8-1.51,.11-1.17-.68Z"/><path class="f" d="M39.58,70.93c.75-.45,1.43,.72,.68,1.17-3.18,1.92-3.3,6.98-2.44,10.13,.23,.84-1.08,1.2-1.31,.36-1.02-3.79-.67-9.4,3.07-11.66Z"/><path class="f" d="M41.75,75.59c.87-2.5,2.62-4.54,4.99-5.73,.78-.39,1.46,.78,.68,1.17-2.05,1.03-3.61,2.74-4.37,4.92-.29,.82-1.6,.47-1.31-.36Z"/><path class="f" d="M40.02,78.89c.29-.82,1.6-.46,1.31,.36-1,2.84-.51,5.73,.06,8.61,.17,.85-1.14,1.22-1.31,.36-.61-3.11-1.14-6.27-.06-9.33Z"/><path class="f" d="M38.88,89.51c1.31,3.33,2.02,6.76,2.17,10.34,.04,.87-1.32,.87-1.35,0-.15-3.46-.86-6.76-2.12-9.98-.32-.81,.99-1.16,1.31-.36Z"/><path class="f" d="M123.11,62.57c.79-2.66,1.19-5.35,1.21-8.12,0-.87,1.36-.87,1.35,0-.02,2.89-.43,5.71-1.25,8.48-.25,.83-1.55,.48-1.31-.36Z"/><path class="f" d="M121.16,57.47c.38-1.32,.58-2.65,.61-4.03,.02-.87,1.37-.87,1.35,0-.03,1.49-.25,2.95-.66,4.39-.24,.84-1.55,.48-1.31-.36Z"/></g></g></g></svg>