<?xml version="1.0" encoding="UTF-8"?><svg xmlns="http://www.w3.org/2000/svg" viewBox="0 0 10387.85 67.59"><defs><style>.d{fill:#00719e;}.e{fill:#4980aa;}.f{fill:#2d77a3;}.g{fill:#3a7ba6;}</style></defs><g id="a"/><g id="b"><g id="c"><path class="d" d="M441.39,.02V67.59H0V.03C0,1.23,37.97,.03,41.42,.01c16-.07,32,.23,47.99,.53,10.53,0,21.07,.39,31.59,.59,19.45,.36,38.89,.45,58.34,.7,38.61,.49,77.26,.98,115.85-.84,36.13-1.71,72.31-.3,108.7-.71,12.5-.14,25-.25,37.51-.25Z"/><g><polygon class="e" points="224.39 44.93 231.23 43.07 238.68 44.93 224.39 44.93"/><polygon class="e" points="151.94 47.29 161.88 44.58 172.73 47.29 151.94 47.29"/><polygon class="e" points="178.08 44.42 188.02 41.71 198.87 44.42 178.08 44.42"/><polygon class="e" points="318.59 46.91 328.53 44.2 339.38 46.91 318.59 46.91"/><polygon class="e" points="296.63 41.93 306.57 39.22 317.41 41.93 296.63 41.93"/><polygon class="e" points="123.48 47.52 133.42 44.81 144.26 47.52 123.48 47.52"/><polygon class="e" points="136.91 41.46 146.85 38.74 157.7 41.46 136.91 41.46"/><polygon class="e" points="246.76 46.51 256.7 43.8 267.55 46.51 246.76 46.51"/><polygon class="e" points="201.59 47.83 211.53 45.12 222.37 47.83 201.59 47.83"/><polygon class="e" points="276.64 48 282.86 46.31 289.66 48 276.64 48"/><polygon class="e" points="346.27 46.35 352.5 44.65 359.29 46.35 346.27 46.35"/><polygon class="e" points="336.74 40.13 342.96 38.43 349.76 40.13 336.74 40.13"/><polygon class="g" points="198.72 38.47 204.94 36.77 211.73 38.47 198.72 38.47"/><polygon class="g" points="281.46 39.32 287.68 37.63 294.47 39.32 281.46 39.32"/><polygon class="g" points="317.57 37.33 323.79 35.64 330.58 37.33 317.57 37.33"/><polygon class="g" points="347.14 33.07 353.36 31.37 360.15 33.07 347.14 33.07"/><polygon class="g" points="301.93 33.07 308.15 31.37 314.95 33.07 301.93 33.07"/><polygon class="g" points="183.93 33.35 190.16 31.65 196.95 33.35 183.93 33.35"/><polygon class="g" points="154.93 32.78 161.16 31.09 167.95 32.78 154.93 32.78"/><polygon class="g" points="136.73 30.51 142.96 28.81 149.75 30.51 136.73 30.51"/><polygon class="g" points="171.7 27.38 177.93 25.68 184.72 27.38 171.7 27.38"/><polygon class="g" points="151.8 21.13 158.03 19.43 164.82 21.13 151.8 21.13"/><polygon class="f" points="189.9 21.11 197.77 19.73 206.35 21.11 189.9 21.11"/><polygon class="f" points="298.8 23.38 306.67 22 315.25 23.38 298.8 23.38"/><polygon class="f" points="324.96 27.93 332.83 26.55 341.41 27.93 324.96 27.93"/><polygon class="f" points="373.86 9.74 381.73 8.36 390.31 9.74 373.86 9.74"/><polygon class="f" points="302.54 7.77 310.4 6.39 318.99 7.77 302.54 7.77"/><polygon class="f" points="344.29 23.95 352.16 22.57 360.74 23.95 344.29 23.95"/><polygon class="f" points="207.53 14 215.4 12.62 223.98 14 207.53 14"/><polygon class="f" points="264.96 6.04 272.83 4.66 281.42 6.04 264.96 6.04"/><polygon class="f" points="170.34 16.93 178.2 15.55 186.79 16.93 170.34 16.93"/><polygon class="f" points="188.53 8.12 196.4 6.74 204.98 8.12 188.53 8.12"/><polygon class="f" points="151.57 10.39 159.44 9.01 168.02 10.39 151.57 10.39"/><polygon class="f" points="110.63 7.55 118.49 6.17 127.08 7.55 110.63 7.55"/><polygon class="f" points="129.96 13.8 137.83 12.43 146.41 13.8 129.96 13.8"/><polygon class="f" points="125.7 19.78 133.56 18.4 142.15 19.78 125.7 19.78"/><polygon class="g" points="166.39 38.06 172.61 36.36 179.4 38.06 166.39 38.06"/></g><path class="d" d="M876.17,.02V67.59H434.78V.03c0,1.2,37.97,0,41.42-.02,16-.07,32,.23,47.99,.53,10.53,0,21.07,.39,31.59,.59,19.45,.36,38.89,.45,58.34,.7,38.61,.49,77.26,.98,115.85-.84,36.13-1.71,72.31-.3,108.7-.71,12.5-.14,25-.25,37.51-.25Z"/><g><polygon class="e" points="659.18 44.93 666.01 43.07 673.46 44.93 659.18 44.93"/><polygon class="e" points="586.73 47.29 596.67 44.58 607.51 47.29 586.73 47.29"/><polygon class="e" points="612.87 44.42 622.81 41.71 633.65 44.42 612.87 44.42"/><polygon class="e" points="753.38 46.91 763.32 44.2 774.16 46.91 753.38 46.91"/><polygon class="e" points="731.41 41.93 741.35 39.22 752.19 41.93 731.41 41.93"/><polygon class="e" points="558.26 47.52 568.2 44.81 579.04 47.52 558.26 47.52"/><polygon class="e" points="571.7 41.46 581.64 38.74 592.48 41.46 571.7 41.46"/><polygon class="e" points="681.55 46.51 691.48 43.8 702.33 46.51 681.55 46.51"/><polygon class="e" points="636.37 47.83 646.31 45.12 657.15 47.83 636.37 47.83"/><polygon class="e" points="711.42 48 717.65 46.31 724.44 48 711.42 48"/><polygon class="e" points="781.05 46.35 787.28 44.65 794.07 46.35 781.05 46.35"/><polygon class="e" points="771.52 40.13 777.75 38.43 784.54 40.13 771.52 40.13"/><polygon class="g" points="633.5 38.47 639.72 36.77 646.52 38.47 633.5 38.47"/><polygon class="g" points="716.24 39.32 722.46 37.63 729.26 39.32 716.24 39.32"/><polygon class="g" points="752.35 37.33 758.57 35.64 765.37 37.33 752.35 37.33"/><polygon class="g" points="781.92 33.07 788.14 31.37 794.94 33.07 781.92 33.07"/><polygon class="g" points="736.71 33.07 742.94 31.37 749.73 33.07 736.71 33.07"/><polygon class="g" points="618.71 33.35 624.94 31.65 631.73 33.35 618.71 33.35"/><polygon class="g" points="589.71 32.78 595.94 31.09 602.73 32.78 589.71 32.78"/><polygon class="g" points="571.51 30.51 577.74 28.81 584.53 30.51 571.51 30.51"/><polygon class="g" points="606.49 27.38 612.71 25.68 619.51 27.38 606.49 27.38"/><polygon class="g" points="586.58 21.13 592.81 19.43 599.6 21.13 586.58 21.13"/><polygon class="f" points="624.68 21.11 632.55 19.73 641.14 21.11 624.68 21.11"/><polygon class="f" points="733.58 23.38 741.45 22 750.03 23.38 733.58 23.38"/><polygon class="f" points="759.74 27.93 767.61 26.55 776.19 27.93 759.74 27.93"/><polygon class="f" points="808.65 9.74 816.51 8.36 825.1 9.74 808.65 9.74"/><polygon class="f" points="737.32 7.77 745.19 6.39 753.77 7.77 737.32 7.77"/><polygon class="f" points="779.08 23.95 786.94 22.57 795.53 23.95 779.08 23.95"/><polygon class="f" points="642.31 14 650.18 12.62 658.76 14 642.31 14"/><polygon class="f" points="699.75 6.04 707.62 4.66 716.2 6.04 699.75 6.04"/><polygon class="f" points="605.12 16.93 612.99 15.55 621.57 16.93 605.12 16.93"/><polygon class="f" points="623.32 8.12 631.18 6.74 639.77 8.12 623.32 8.12"/><polygon class="f" points="586.35 10.39 594.22 9.01 602.8 10.39 586.35 10.39"/><polygon class="f" points="545.41 7.55 553.28 6.17 561.86 7.55 545.41 7.55"/><polygon class="f" points="564.74 13.8 572.61 12.43 581.19 13.8 564.74 13.8"/><polygon class="f" points="560.48 19.78 568.35 18.4 576.93 19.78 560.48 19.78"/><polygon class="g" points="601.17 38.06 607.4 36.36 614.19 38.06 601.17 38.06"/></g><path class="d" d="M1314.41,.02V67.59h-441.39V.03c0,1.2,37.97,0,41.42-.02,16-.07,32,.23,47.99,.53,10.53,0,21.07,.39,31.59,.59,19.45,.36,38.89,.45,58.34,.7,38.61,.49,77.26,.98,115.85-.84,36.13-1.71,72.31-.3,108.7-.71,12.5-.14,25-.25,37.51-.25Z"/><g><polygon class="e" points="1097.41 44.93 1104.24 43.07 1111.7 44.93 1097.41 44.93"/><polygon class="e" points="1024.96 47.29 1034.9 44.58 1045.75 47.29 1024.96 47.29"/><polygon class="e" points="1051.1 44.42 1061.04 41.71 1071.89 44.42 1051.1 44.42"/><polygon class="e" points="1191.61 46.91 1201.55 44.2 1212.4 46.91 1191.61 46.91"/><polygon class="e" points="1169.64 41.93 1179.58 39.22 1190.43 41.93 1169.64 41.93"/><polygon class="e" points="996.5 47.52 1006.43 44.81 1017.28 47.52 996.5 47.52"/><polygon class="e" points="1009.93 41.46 1019.87 38.74 1030.71 41.46 1009.93 41.46"/><polygon class="e" points="1119.78 46.51 1129.72 43.8 1140.56 46.51 1119.78 46.51"/><polygon class="e" points="1074.61 47.83 1084.54 45.12 1095.39 47.83 1074.61 47.83"/><polygon class="e" points="1149.66 48 1155.88 46.31 1162.67 48 1149.66 48"/><polygon class="e" points="1219.29 46.35 1225.52 44.65 1232.31 46.35 1219.29 46.35"/><polygon class="e" points="1209.76 40.13 1215.98 38.43 1222.78 40.13 1209.76 40.13"/><polygon class="g" points="1071.73 38.47 1077.96 36.77 1084.75 38.47 1071.73 38.47"/><polygon class="g" points="1154.47 39.32 1160.7 37.63 1167.49 39.32 1154.47 39.32"/><polygon class="g" points="1190.58 37.33 1196.81 35.64 1203.6 37.33 1190.58 37.33"/><polygon class="g" points="1220.15 33.07 1226.38 31.37 1233.17 33.07 1220.15 33.07"/><polygon class="g" points="1174.94 33.07 1181.17 31.37 1187.96 33.07 1174.94 33.07"/><polygon class="g" points="1056.95 33.35 1063.17 31.65 1069.97 33.35 1056.95 33.35"/><polygon class="g" points="1027.95 32.78 1034.17 31.09 1040.97 32.78 1027.95 32.78"/><polygon class="g" points="1009.75 30.51 1015.98 28.81 1022.77 30.51 1009.75 30.51"/><polygon class="g" points="1044.72 27.38 1050.95 25.68 1057.74 27.38 1044.72 27.38"/><polygon class="g" points="1024.82 21.13 1031.05 19.43 1037.84 21.13 1024.82 21.13"/><polygon class="f" points="1062.92 21.11 1070.79 19.73 1079.37 21.11 1062.92 21.11"/><polygon class="f" points="1171.82 23.38 1179.69 22 1188.27 23.38 1171.82 23.38"/><polygon class="f" points="1197.98 27.93 1205.84 26.55 1214.43 27.93 1197.98 27.93"/><polygon class="f" points="1246.88 9.74 1254.75 8.36 1263.33 9.74 1246.88 9.74"/><polygon class="f" points="1175.55 7.77 1183.42 6.39 1192 7.77 1175.55 7.77"/><polygon class="f" points="1217.31 23.95 1225.18 22.57 1233.76 23.95 1217.31 23.95"/><polygon class="f" points="1080.55 14 1088.42 12.62 1097 14 1080.55 14"/><polygon class="f" points="1137.98 6.04 1145.85 4.66 1154.43 6.04 1137.98 6.04"/><polygon class="f" points="1043.35 16.93 1051.22 15.55 1059.8 16.93 1043.35 16.93"/><polygon class="f" points="1061.55 8.12 1069.42 6.74 1078 8.12 1061.55 8.12"/><polygon class="f" points="1024.59 10.39 1032.46 9.01 1041.04 10.39 1024.59 10.39"/><polygon class="f" points="983.64 7.55 991.51 6.17 1000.1 7.55 983.64 7.55"/><polygon class="f" points="1002.98 13.8 1010.85 12.43 1019.43 13.8 1002.98 13.8"/><polygon class="f" points="998.71 19.78 1006.58 18.4 1015.16 19.78 998.71 19.78"/><polygon class="g" points="1039.4 38.06 1045.63 36.36 1052.42 38.06 1039.4 38.06"/></g><path class="d" d="M1749.19,.02V67.59h-441.39V.03c0,1.2,37.97,0,41.42-.02,16-.07,32,.23,47.99,.53,10.53,0,21.07,.39,31.59,.59,19.45,.36,38.89,.45,58.34,.7,38.61,.49,77.26,.98,115.85-.84,36.13-1.71,72.31-.3,108.7-.71,12.5-.14,25-.25,37.51-.25Z"/><g><polygon class="e" points="1532.19 44.93 1539.03 43.07 1546.48 44.93 1532.19 44.93"/><polygon class="e" points="1459.75 47.29 1469.68 44.58 1480.53 47.29 1459.75 47.29"/><polygon class="e" points="1485.89 44.42 1495.83 41.71 1506.67 44.42 1485.89 44.42"/><polygon class="e" points="1626.4 46.91 1636.34 44.2 1647.18 46.91 1626.4 46.91"/><polygon class="e" points="1604.43 41.93 1614.37 39.22 1625.21 41.93 1604.43 41.93"/><polygon class="e" points="1431.28 47.52 1441.22 44.81 1452.06 47.52 1431.28 47.52"/><polygon class="e" points="1444.71 41.46 1454.65 38.74 1465.5 41.46 1444.71 41.46"/><polygon class="e" points="1554.56 46.51 1564.5 43.8 1575.35 46.51 1554.56 46.51"/><polygon class="e" points="1509.39 47.83 1519.33 45.12 1530.17 47.83 1509.39 47.83"/><polygon class="e" points="1584.44 48 1590.67 46.31 1597.46 48 1584.44 48"/><polygon class="e" points="1654.07 46.35 1660.3 44.65 1667.09 46.35 1654.07 46.35"/><polygon class="e" points="1644.54 40.13 1650.77 38.43 1657.56 40.13 1644.54 40.13"/><polygon class="g" points="1506.52 38.47 1512.74 36.77 1519.53 38.47 1506.52 38.47"/><polygon class="g" points="1589.26 39.32 1595.48 37.63 1602.27 39.32 1589.26 39.32"/><polygon class="g" points="1625.37 37.33 1631.59 35.64 1638.38 37.33 1625.37 37.33"/><polygon class="g" points="1654.94 33.07 1661.16 31.37 1667.95 33.07 1654.94 33.07"/><polygon class="g" points="1609.73 33.07 1615.95 31.37 1622.75 33.07 1609.73 33.07"/><polygon class="g" points="1491.73 33.35 1497.96 31.65 1504.75 33.35 1491.73 33.35"/><polygon class="g" points="1462.73 32.78 1468.96 31.09 1475.75 32.78 1462.73 32.78"/><polygon class="g" points="1444.53 30.51 1450.76 28.81 1457.55 30.51 1444.53 30.51"/><polygon class="g" points="1479.5 27.38 1485.73 25.68 1492.52 27.38 1479.5 27.38"/><polygon class="g" points="1459.6 21.13 1465.83 19.43 1472.62 21.13 1459.6 21.13"/><polygon class="f" points="1497.7 21.11 1505.57 19.73 1514.15 21.11 1497.7 21.11"/><polygon class="f" points="1606.6 23.38 1614.47 22 1623.05 23.38 1606.6 23.38"/><polygon class="f" points="1632.76 27.93 1640.63 26.55 1649.21 27.93 1632.76 27.93"/><polygon class="f" points="1681.66 9.74 1689.53 8.36 1698.11 9.74 1681.66 9.74"/><polygon class="f" points="1610.34 7.77 1618.2 6.39 1626.79 7.77 1610.34 7.77"/><polygon class="f" points="1652.09 23.95 1659.96 22.57 1668.54 23.95 1652.09 23.95"/><polygon class="f" points="1515.33 14 1523.2 12.62 1531.78 14 1515.33 14"/><polygon class="f" points="1572.77 6.04 1580.63 4.66 1589.22 6.04 1572.77 6.04"/><polygon class="f" points="1478.14 16.93 1486 15.55 1494.59 16.93 1478.14 16.93"/><polygon class="f" points="1496.33 8.12 1504.2 6.74 1512.78 8.12 1496.33 8.12"/><polygon class="f" points="1459.37 10.39 1467.24 9.01 1475.82 10.39 1459.37 10.39"/><polygon class="f" points="1418.43 7.55 1426.3 6.17 1434.88 7.55 1418.43 7.55"/><polygon class="f" points="1437.76 13.8 1445.63 12.43 1454.21 13.8 1437.76 13.8"/><polygon class="f" points="1433.5 19.78 1441.36 18.4 1449.95 19.78 1433.5 19.78"/><polygon class="g" points="1474.19 38.06 1480.41 36.36 1487.21 38.06 1474.19 38.06"/></g><path class="d" d="M2190.58,.02V67.59h-441.39V.03c0,1.2,37.97,0,41.42-.02,16-.07,32,.23,47.99,.53,10.53,0,21.07,.39,31.59,.59,19.45,.36,38.89,.45,58.34,.7,38.61,.49,77.26,.98,115.85-.84,36.13-1.71,72.31-.3,108.7-.71,12.5-.14,25-.25,37.51-.25Z"/><g><polygon class="e" points="1973.58 44.93 1980.42 43.07 1987.87 44.93 1973.58 44.93"/><polygon class="e" points="1901.14 47.29 1911.08 44.58 1921.92 47.29 1901.14 47.29"/><polygon class="e" points="1927.28 44.42 1937.22 41.71 1948.06 44.42 1927.28 44.42"/><polygon class="e" points="2067.79 46.91 2077.73 44.2 2088.57 46.91 2067.79 46.91"/><polygon class="e" points="2045.82 41.93 2055.76 39.22 2066.6 41.93 2045.82 41.93"/><polygon class="e" points="1872.67 47.52 1882.61 44.81 1893.45 47.52 1872.67 47.52"/><polygon class="e" points="1886.11 41.46 1896.04 38.74 1906.89 41.46 1886.11 41.46"/><polygon class="e" points="1995.95 46.51 2005.89 43.8 2016.74 46.51 1995.95 46.51"/><polygon class="e" points="1950.78 47.83 1960.72 45.12 1971.56 47.83 1950.78 47.83"/><polygon class="e" points="2025.83 48 2032.06 46.31 2038.85 48 2025.83 48"/><polygon class="e" points="2095.46 46.35 2101.69 44.65 2108.48 46.35 2095.46 46.35"/><polygon class="e" points="2085.93 40.13 2092.16 38.43 2098.95 40.13 2085.93 40.13"/><polygon class="g" points="1947.91 38.47 1954.13 36.77 1960.93 38.47 1947.91 38.47"/><polygon class="g" points="2030.65 39.32 2036.87 37.63 2043.67 39.32 2030.65 39.32"/><polygon class="g" points="2066.76 37.33 2072.98 35.64 2079.78 37.33 2066.76 37.33"/><polygon class="g" points="2096.33 33.07 2102.55 31.37 2109.35 33.07 2096.33 33.07"/><polygon class="g" points="2051.12 33.07 2057.35 31.37 2064.14 33.07 2051.12 33.07"/><polygon class="g" points="1933.12 33.35 1939.35 31.65 1946.14 33.35 1933.12 33.35"/><polygon class="g" points="1904.12 32.78 1910.35 31.09 1917.14 32.78 1904.12 32.78"/><polygon class="g" points="1885.92 30.51 1892.15 28.81 1898.94 30.51 1885.92 30.51"/><polygon class="g" points="1920.9 27.38 1927.12 25.68 1933.91 27.38 1920.9 27.38"/><polygon class="g" points="1900.99 21.13 1907.22 19.43 1914.01 21.13 1900.99 21.13"/><polygon class="f" points="1939.09 21.11 1946.96 19.73 1955.54 21.11 1939.09 21.11"/><polygon class="f" points="2047.99 23.38 2055.86 22 2064.44 23.38 2047.99 23.38"/><polygon class="f" points="2074.15 27.93 2082.02 26.55 2090.6 27.93 2074.15 27.93"/><polygon class="f" points="2123.05 9.74 2130.92 8.36 2139.51 9.74 2123.05 9.74"/><polygon class="f" points="2051.73 7.77 2059.6 6.39 2068.18 7.77 2051.73 7.77"/><polygon class="f" points="2093.48 23.95 2101.35 22.57 2109.94 23.95 2093.48 23.95"/><polygon class="f" points="1956.72 14 1964.59 12.62 1973.17 14 1956.72 14"/><polygon class="f" points="2014.16 6.04 2022.02 4.66 2030.61 6.04 2014.16 6.04"/><polygon class="f" points="1919.53 16.93 1927.4 15.55 1935.98 16.93 1919.53 16.93"/><polygon class="f" points="1937.72 8.12 1945.59 6.74 1954.18 8.12 1937.72 8.12"/><polygon class="f" points="1900.76 10.39 1908.63 9.01 1917.21 10.39 1900.76 10.39"/><polygon class="f" points="1859.82 7.55 1867.69 6.17 1876.27 7.55 1859.82 7.55"/><polygon class="f" points="1879.15 13.8 1887.02 12.43 1895.6 13.8 1879.15 13.8"/><polygon class="f" points="1874.89 19.78 1882.76 18.4 1891.34 19.78 1874.89 19.78"/><polygon class="g" points="1915.58 38.06 1921.8 36.36 1928.6 38.06 1915.58 38.06"/></g><path class="d" d="M2625.37,.02V67.59h-441.39V.03c0,1.2,37.97,0,41.42-.02,16-.07,32,.23,47.99,.53,10.53,0,21.07,.39,31.59,.59,19.45,.36,38.89,.45,58.34,.7,38.61,.49,77.26,.98,115.85-.84,36.13-1.71,72.31-.3,108.7-.71,12.5-.14,25-.25,37.51-.25Z"/><g><polygon class="e" points="2408.37 44.93 2415.2 43.07 2422.66 44.93 2408.37 44.93"/><polygon class="e" points="2335.92 47.29 2345.86 44.58 2356.7 47.29 2335.92 47.29"/><polygon class="e" points="2362.06 44.42 2372 41.71 2382.84 44.42 2362.06 44.42"/><polygon class="e" points="2502.57 46.91 2512.51 44.2 2523.35 46.91 2502.57 46.91"/><polygon class="e" points="2480.6 41.93 2490.54 39.22 2501.38 41.93 2480.6 41.93"/><polygon class="e" points="2307.45 47.52 2317.39 44.81 2328.23 47.52 2307.45 47.52"/><polygon class="e" points="2320.89 41.46 2330.83 38.74 2341.67 41.46 2320.89 41.46"/><polygon class="e" points="2430.74 46.51 2440.68 43.8 2451.52 46.51 2430.74 46.51"/><polygon class="e" points="2385.56 47.83 2395.5 45.12 2406.34 47.83 2385.56 47.83"/><polygon class="e" points="2460.61 48 2466.84 46.31 2473.63 48 2460.61 48"/><polygon class="e" points="2530.25 46.35 2536.47 44.65 2543.27 46.35 2530.25 46.35"/><polygon class="e" points="2520.71 40.13 2526.94 38.43 2533.73 40.13 2520.71 40.13"/><polygon class="g" points="2382.69 38.47 2388.92 36.77 2395.71 38.47 2382.69 38.47"/><polygon class="g" points="2465.43 39.32 2471.66 37.63 2478.45 39.32 2465.43 39.32"/><polygon class="g" points="2501.54 37.33 2507.77 35.64 2514.56 37.33 2501.54 37.33"/><polygon class="g" points="2531.11 33.07 2537.34 31.37 2544.13 33.07 2531.11 33.07"/><polygon class="g" points="2485.9 33.07 2492.13 31.37 2498.92 33.07 2485.9 33.07"/><polygon class="g" points="2367.91 33.35 2374.13 31.65 2380.92 33.35 2367.91 33.35"/><polygon class="g" points="2338.9 32.78 2345.13 31.09 2351.92 32.78 2338.9 32.78"/><polygon class="g" points="2320.71 30.51 2326.93 28.81 2333.73 30.51 2320.71 30.51"/><polygon class="g" points="2355.68 27.38 2361.91 25.68 2368.7 27.38 2355.68 27.38"/><polygon class="g" points="2335.78 21.13 2342 19.43 2348.79 21.13 2335.78 21.13"/><polygon class="f" points="2373.88 21.11 2381.74 19.73 2390.33 21.11 2373.88 21.11"/><polygon class="f" points="2482.77 23.38 2490.64 22 2499.23 23.38 2482.77 23.38"/><polygon class="f" points="2508.93 27.93 2516.8 26.55 2525.38 27.93 2508.93 27.93"/><polygon class="f" points="2557.84 9.74 2565.71 8.36 2574.29 9.74 2557.84 9.74"/><polygon class="f" points="2486.51 7.77 2494.38 6.39 2502.96 7.77 2486.51 7.77"/><polygon class="f" points="2528.27 23.95 2536.13 22.57 2544.72 23.95 2528.27 23.95"/><polygon class="f" points="2391.5 14 2399.37 12.62 2407.96 14 2391.5 14"/><polygon class="f" points="2448.94 6.04 2456.81 4.66 2465.39 6.04 2448.94 6.04"/><polygon class="f" points="2354.31 16.93 2362.18 15.55 2370.76 16.93 2354.31 16.93"/><polygon class="f" points="2372.51 8.12 2380.38 6.74 2388.96 8.12 2372.51 8.12"/><polygon class="f" points="2335.54 10.39 2343.41 9.01 2352 10.39 2335.54 10.39"/><polygon class="f" points="2294.6 7.55 2302.47 6.17 2311.05 7.55 2294.6 7.55"/><polygon class="f" points="2313.94 13.8 2321.8 12.43 2330.39 13.8 2313.94 13.8"/><polygon class="f" points="2309.67 19.78 2317.54 18.4 2326.12 19.78 2309.67 19.78"/><polygon class="g" points="2350.36 38.06 2356.59 36.36 2363.38 38.06 2350.36 38.06"/></g><path class="d" d="M3063.6,.02V67.59h-441.39V.03c0,1.2,37.97,0,41.42-.02,16-.07,32,.23,47.99,.53,10.53,0,21.07,.39,31.59,.59,19.45,.36,38.89,.45,58.34,.7,38.61,.49,77.26,.98,115.85-.84,36.13-1.71,72.31-.3,108.7-.71,12.5-.14,25-.25,37.51-.25Z"/><g><polygon class="e" points="2846.6 44.93 2853.44 43.07 2860.89 44.93 2846.6 44.93"/><polygon class="e" points="2774.15 47.29 2784.09 44.58 2794.94 47.29 2774.15 47.29"/><polygon class="e" points="2800.29 44.42 2810.23 41.71 2821.08 44.42 2800.29 44.42"/><polygon class="e" points="2940.8 46.91 2950.74 44.2 2961.59 46.91 2940.8 46.91"/><polygon class="e" points="2918.84 41.93 2928.78 39.22 2939.62 41.93 2918.84 41.93"/><polygon class="e" points="2745.69 47.52 2755.63 44.81 2766.47 47.52 2745.69 47.52"/><polygon class="e" points="2759.12 41.46 2769.06 38.74 2779.91 41.46 2759.12 41.46"/><polygon class="e" points="2868.97 46.51 2878.91 43.8 2889.75 46.51 2868.97 46.51"/><polygon class="e" points="2823.8 47.83 2833.74 45.12 2844.58 47.83 2823.8 47.83"/><polygon class="e" points="2898.85 48 2905.07 46.31 2911.87 48 2898.85 48"/><polygon class="e" points="2968.48 46.35 2974.71 44.65 2981.5 46.35 2968.48 46.35"/><polygon class="e" points="2958.95 40.13 2965.17 38.43 2971.97 40.13 2958.95 40.13"/><polygon class="g" points="2820.92 38.47 2827.15 36.77 2833.94 38.47 2820.92 38.47"/><polygon class="g" points="2903.66 39.32 2909.89 37.63 2916.68 39.32 2903.66 39.32"/><polygon class="g" points="2939.77 37.33 2946 35.64 2952.79 37.33 2939.77 37.33"/><polygon class="g" points="2969.35 33.07 2975.57 31.37 2982.36 33.07 2969.35 33.07"/><polygon class="g" points="2924.14 33.07 2930.36 31.37 2937.16 33.07 2924.14 33.07"/><polygon class="g" points="2806.14 33.35 2812.37 31.65 2819.16 33.35 2806.14 33.35"/><polygon class="g" points="2777.14 32.78 2783.36 31.09 2790.16 32.78 2777.14 32.78"/><polygon class="g" points="2758.94 30.51 2765.17 28.81 2771.96 30.51 2758.94 30.51"/><polygon class="g" points="2793.91 27.38 2800.14 25.68 2806.93 27.38 2793.91 27.38"/><polygon class="g" points="2774.01 21.13 2780.24 19.43 2787.03 21.13 2774.01 21.13"/><polygon class="f" points="2812.11 21.11 2819.98 19.73 2828.56 21.11 2812.11 21.11"/><polygon class="f" points="2921.01 23.38 2928.88 22 2937.46 23.38 2921.01 23.38"/><polygon class="f" points="2947.17 27.93 2955.04 26.55 2963.62 27.93 2947.17 27.93"/><polygon class="f" points="2996.07 9.74 3003.94 8.36 3012.52 9.74 2996.07 9.74"/><polygon class="f" points="2924.74 7.77 2932.61 6.39 2941.2 7.77 2924.74 7.77"/><polygon class="f" points="2966.5 23.95 2974.37 22.57 2982.95 23.95 2966.5 23.95"/><polygon class="f" points="2829.74 14 2837.61 12.62 2846.19 14 2829.74 14"/><polygon class="f" points="2887.17 6.04 2895.04 4.66 2903.62 6.04 2887.17 6.04"/><polygon class="f" points="2792.55 16.93 2800.41 15.55 2809 16.93 2792.55 16.93"/><polygon class="f" points="2810.74 8.12 2818.61 6.74 2827.19 8.12 2810.74 8.12"/><polygon class="f" points="2773.78 10.39 2781.65 9.01 2790.23 10.39 2773.78 10.39"/><polygon class="f" points="2732.84 7.55 2740.7 6.17 2749.29 7.55 2732.84 7.55"/><polygon class="f" points="2752.17 13.8 2760.04 12.43 2768.62 13.8 2752.17 13.8"/><polygon class="f" points="2747.91 19.78 2755.77 18.4 2764.36 19.78 2747.91 19.78"/><polygon class="g" points="2788.6 38.06 2794.82 36.36 2801.61 38.06 2788.6 38.06"/></g><path class="d" d="M3498.38,.02V67.59h-441.39V.03c0,1.2,37.97,0,41.42-.02,16-.07,32,.23,47.99,.53,10.53,0,21.07,.39,31.59,.59,19.45,.36,38.89,.45,58.34,.7,38.61,.49,77.26,.98,115.85-.84,36.13-1.71,72.31-.3,108.7-.71,12.5-.14,25-.25,37.51-.25Z"/><g><polygon class="e" points="3281.39 44.93 3288.22 43.07 3295.67 44.93 3281.39 44.93"/><polygon class="e" points="3208.94 47.29 3218.88 44.58 3229.72 47.29 3208.94 47.29"/><polygon class="e" points="3235.08 44.42 3245.02 41.71 3255.86 44.42 3235.08 44.42"/><polygon class="e" points="3375.59 46.91 3385.53 44.2 3396.37 46.91 3375.59 46.91"/><polygon class="e" points="3353.62 41.93 3363.56 39.22 3374.4 41.93 3353.62 41.93"/><polygon class="e" points="3180.47 47.52 3190.41 44.81 3201.25 47.52 3180.47 47.52"/><polygon class="e" points="3193.91 41.46 3203.85 38.74 3214.69 41.46 3193.91 41.46"/><polygon class="e" points="3303.75 46.51 3313.69 43.8 3324.54 46.51 3303.75 46.51"/><polygon class="e" points="3258.58 47.83 3268.52 45.12 3279.36 47.83 3258.58 47.83"/><polygon class="e" points="3333.63 48 3339.86 46.31 3346.65 48 3333.63 48"/><polygon class="e" points="3403.26 46.35 3409.49 44.65 3416.28 46.35 3403.26 46.35"/><polygon class="e" points="3393.73 40.13 3399.96 38.43 3406.75 40.13 3393.73 40.13"/><polygon class="g" points="3255.71 38.47 3261.93 36.77 3268.73 38.47 3255.71 38.47"/><polygon class="g" points="3338.45 39.32 3344.67 37.63 3351.47 39.32 3338.45 39.32"/><polygon class="g" points="3374.56 37.33 3380.78 35.64 3387.58 37.33 3374.56 37.33"/><polygon class="g" points="3404.13 33.07 3410.35 31.37 3417.15 33.07 3404.13 33.07"/><polygon class="g" points="3358.92 33.07 3365.15 31.37 3371.94 33.07 3358.92 33.07"/><polygon class="g" points="3240.92 33.35 3247.15 31.65 3253.94 33.35 3240.92 33.35"/><polygon class="g" points="3211.92 32.78 3218.15 31.09 3224.94 32.78 3211.92 32.78"/><polygon class="g" points="3193.72 30.51 3199.95 28.81 3206.74 30.51 3193.72 30.51"/><polygon class="g" points="3228.7 27.38 3234.92 25.68 3241.72 27.38 3228.7 27.38"/><polygon class="g" points="3208.79 21.13 3215.02 19.43 3221.81 21.13 3208.79 21.13"/><polygon class="f" points="3246.89 21.11 3254.76 19.73 3263.34 21.11 3246.89 21.11"/><polygon class="f" points="3355.79 23.38 3363.66 22 3372.24 23.38 3355.79 23.38"/><polygon class="f" points="3381.95 27.93 3389.82 26.55 3398.4 27.93 3381.95 27.93"/><polygon class="f" points="3430.85 9.74 3438.72 8.36 3447.31 9.74 3430.85 9.74"/><polygon class="f" points="3359.53 7.77 3367.4 6.39 3375.98 7.77 3359.53 7.77"/><polygon class="f" points="3401.28 23.95 3409.15 22.57 3417.74 23.95 3401.28 23.95"/><polygon class="f" points="3264.52 14 3272.39 12.62 3280.97 14 3264.52 14"/><polygon class="f" points="3321.96 6.04 3329.82 4.66 3338.41 6.04 3321.96 6.04"/><polygon class="f" points="3227.33 16.93 3235.2 15.55 3243.78 16.93 3227.33 16.93"/><polygon class="f" points="3245.53 8.12 3253.39 6.74 3261.98 8.12 3245.53 8.12"/><polygon class="f" points="3208.56 10.39 3216.43 9.01 3225.01 10.39 3208.56 10.39"/><polygon class="f" points="3167.62 7.55 3175.49 6.17 3184.07 7.55 3167.62 7.55"/><polygon class="f" points="3186.95 13.8 3194.82 12.43 3203.4 13.8 3186.95 13.8"/><polygon class="f" points="3182.69 19.78 3190.56 18.4 3199.14 19.78 3182.69 19.78"/><polygon class="g" points="3223.38 38.06 3229.6 36.36 3236.4 38.06 3223.38 38.06"/></g><path class="d" d="M3924.93,.02V67.59h-441.39V.03c0,1.2,37.97,0,41.42-.02,16-.07,32,.23,47.99,.53,10.53,0,21.07,.39,31.59,.59,19.45,.36,38.89,.45,58.34,.7,38.61,.49,77.26,.98,115.85-.84,36.13-1.71,72.31-.3,108.7-.71,12.5-.14,25-.25,37.51-.25Z"/><g><polygon class="e" points="3707.93 44.93 3714.77 43.07 3722.22 44.93 3707.93 44.93"/><polygon class="e" points="3635.49 47.29 3645.43 44.58 3656.27 47.29 3635.49 47.29"/><polygon class="e" points="3661.63 44.42 3671.57 41.71 3682.41 44.42 3661.63 44.42"/><polygon class="e" points="3802.14 46.91 3812.08 44.2 3822.92 46.91 3802.14 46.91"/><polygon class="e" points="3780.17 41.93 3790.11 39.22 3800.95 41.93 3780.17 41.93"/><polygon class="e" points="3607.02 47.52 3616.96 44.81 3627.8 47.52 3607.02 47.52"/><polygon class="e" points="3620.45 41.46 3630.39 38.74 3641.24 41.46 3620.45 41.46"/><polygon class="e" points="3730.3 46.51 3740.24 43.8 3751.09 46.51 3730.3 46.51"/><polygon class="e" points="3685.13 47.83 3695.07 45.12 3705.91 47.83 3685.13 47.83"/><polygon class="e" points="3760.18 48 3766.41 46.31 3773.2 48 3760.18 48"/><polygon class="e" points="3829.81 46.35 3836.04 44.65 3842.83 46.35 3829.81 46.35"/><polygon class="e" points="3820.28 40.13 3826.51 38.43 3833.3 40.13 3820.28 40.13"/><polygon class="g" points="3682.26 38.47 3688.48 36.77 3695.28 38.47 3682.26 38.47"/><polygon class="g" points="3765 39.32 3771.22 37.63 3778.02 39.32 3765 39.32"/><polygon class="g" points="3801.11 37.33 3807.33 35.64 3814.13 37.33 3801.11 37.33"/><polygon class="g" points="3830.68 33.07 3836.9 31.37 3843.7 33.07 3830.68 33.07"/><polygon class="g" points="3785.47 33.07 3791.69 31.37 3798.49 33.07 3785.47 33.07"/><polygon class="g" points="3667.47 33.35 3673.7 31.65 3680.49 33.35 3667.47 33.35"/><polygon class="g" points="3638.47 32.78 3644.7 31.09 3651.49 32.78 3638.47 32.78"/><polygon class="g" points="3620.27 30.51 3626.5 28.81 3633.29 30.51 3620.27 30.51"/><polygon class="g" points="3655.25 27.38 3661.47 25.68 3668.26 27.38 3655.25 27.38"/><polygon class="g" points="3635.34 21.13 3641.57 19.43 3648.36 21.13 3635.34 21.13"/><polygon class="f" points="3673.44 21.11 3681.31 19.73 3689.89 21.11 3673.44 21.11"/><polygon class="f" points="3782.34 23.38 3790.21 22 3798.79 23.38 3782.34 23.38"/><polygon class="f" points="3808.5 27.93 3816.37 26.55 3824.95 27.93 3808.5 27.93"/><polygon class="f" points="3857.4 9.74 3865.27 8.36 3873.85 9.74 3857.4 9.74"/><polygon class="f" points="3786.08 7.77 3793.94 6.39 3802.53 7.77 3786.08 7.77"/><polygon class="f" points="3827.83 23.95 3835.7 22.57 3844.28 23.95 3827.83 23.95"/><polygon class="f" points="3691.07 14 3698.94 12.62 3707.52 14 3691.07 14"/><polygon class="f" points="3748.51 6.04 3756.37 4.66 3764.96 6.04 3748.51 6.04"/><polygon class="f" points="3653.88 16.93 3661.74 15.55 3670.33 16.93 3653.88 16.93"/><polygon class="f" points="3672.07 8.12 3679.94 6.74 3688.52 8.12 3672.07 8.12"/><polygon class="f" points="3635.11 10.39 3642.98 9.01 3651.56 10.39 3635.11 10.39"/><polygon class="f" points="3594.17 7.55 3602.04 6.17 3610.62 7.55 3594.17 7.55"/><polygon class="f" points="3613.5 13.8 3621.37 12.43 3629.95 13.8 3613.5 13.8"/><polygon class="f" points="3609.24 19.78 3617.1 18.4 3625.69 19.78 3609.24 19.78"/><polygon class="g" points="3649.93 38.06 3656.15 36.36 3662.95 38.06 3649.93 38.06"/></g><path class="d" d="M4359.71,.02V67.59h-441.39V.03c0,1.2,37.97,0,41.42-.02,16-.07,32,.23,47.99,.53,10.53,0,21.07,.39,31.59,.59,19.45,.36,38.89,.45,58.34,.7,38.61,.49,77.26,.98,115.85-.84,36.13-1.71,72.31-.3,108.7-.71,12.5-.14,25-.25,37.51-.25Z"/><g><polygon class="e" points="4142.72 44.93 4149.55 43.07 4157 44.93 4142.72 44.93"/><polygon class="e" points="4070.27 47.29 4080.21 44.58 4091.05 47.29 4070.27 47.29"/><polygon class="e" points="4096.41 44.42 4106.35 41.71 4117.19 44.42 4096.41 44.42"/><polygon class="e" points="4236.92 46.91 4246.86 44.2 4257.7 46.91 4236.92 46.91"/><polygon class="e" points="4214.95 41.93 4224.89 39.22 4235.73 41.93 4214.95 41.93"/><polygon class="e" points="4041.8 47.52 4051.74 44.81 4062.58 47.52 4041.8 47.52"/><polygon class="e" points="4055.24 41.46 4065.18 38.74 4076.02 41.46 4055.24 41.46"/><polygon class="e" points="4165.09 46.51 4175.03 43.8 4185.87 46.51 4165.09 46.51"/><polygon class="e" points="4119.91 47.83 4129.85 45.12 4140.69 47.83 4119.91 47.83"/><polygon class="e" points="4194.96 48 4201.19 46.31 4207.98 48 4194.96 48"/><polygon class="e" points="4264.6 46.35 4270.82 44.65 4277.61 46.35 4264.6 46.35"/><polygon class="e" points="4255.06 40.13 4261.29 38.43 4268.08 40.13 4255.06 40.13"/><polygon class="g" points="4117.04 38.47 4123.27 36.77 4130.06 38.47 4117.04 38.47"/><polygon class="g" points="4199.78 39.32 4206.01 37.63 4212.8 39.32 4199.78 39.32"/><polygon class="g" points="4235.89 37.33 4242.12 35.64 4248.91 37.33 4235.89 37.33"/><polygon class="g" points="4265.46 33.07 4271.69 31.37 4278.48 33.07 4265.46 33.07"/><polygon class="g" points="4220.25 33.07 4226.48 31.37 4233.27 33.07 4220.25 33.07"/><polygon class="g" points="4102.25 33.35 4108.48 31.65 4115.27 33.35 4102.25 33.35"/><polygon class="g" points="4073.25 32.78 4079.48 31.09 4086.27 32.78 4073.25 32.78"/><polygon class="g" points="4055.06 30.51 4061.28 28.81 4068.07 30.51 4055.06 30.51"/><polygon class="g" points="4090.03 27.38 4096.25 25.68 4103.05 27.38 4090.03 27.38"/><polygon class="g" points="4070.13 21.13 4076.35 19.43 4083.14 21.13 4070.13 21.13"/><polygon class="f" points="4108.23 21.11 4116.09 19.73 4124.68 21.11 4108.23 21.11"/><polygon class="f" points="4217.12 23.38 4224.99 22 4233.57 23.38 4217.12 23.38"/><polygon class="f" points="4243.28 27.93 4251.15 26.55 4259.73 27.93 4243.28 27.93"/><polygon class="f" points="4292.19 9.74 4300.05 8.36 4308.64 9.74 4292.19 9.74"/><polygon class="f" points="4220.86 7.77 4228.73 6.39 4237.31 7.77 4220.86 7.77"/><polygon class="f" points="4262.62 23.95 4270.48 22.57 4279.07 23.95 4262.62 23.95"/><polygon class="f" points="4125.85 14 4133.72 12.62 4142.3 14 4125.85 14"/><polygon class="f" points="4183.29 6.04 4191.16 4.66 4199.74 6.04 4183.29 6.04"/><polygon class="f" points="4088.66 16.93 4096.53 15.55 4105.11 16.93 4088.66 16.93"/><polygon class="f" points="4106.86 8.12 4114.72 6.74 4123.31 8.12 4106.86 8.12"/><polygon class="f" points="4069.89 10.39 4077.76 9.01 4086.34 10.39 4069.89 10.39"/><polygon class="f" points="4028.95 7.55 4036.82 6.17 4045.4 7.55 4028.95 7.55"/><polygon class="f" points="4048.28 13.8 4056.15 12.43 4064.74 13.8 4048.28 13.8"/><polygon class="f" points="4044.02 19.78 4051.89 18.4 4060.47 19.78 4044.02 19.78"/><polygon class="g" points="4084.71 38.06 4090.94 36.36 4097.73 38.06 4084.71 38.06"/></g><path class="d" d="M4797.95,.02V67.59h-441.39V.03c0,1.2,37.97,0,41.42-.02,16-.07,32,.23,47.99,.53,10.53,0,21.07,.39,31.59,.59,19.45,.36,38.89,.45,58.34,.7,38.61,.49,77.26,.98,115.85-.84,36.13-1.71,72.31-.3,108.7-.71,12.5-.14,25-.25,37.51-.25Z"/><g><polygon class="e" points="4580.95 44.93 4587.78 43.07 4595.24 44.93 4580.95 44.93"/><polygon class="e" points="4508.5 47.29 4518.44 44.58 4529.29 47.29 4508.5 47.29"/><polygon class="e" points="4534.64 44.42 4544.58 41.71 4555.43 44.42 4534.64 44.42"/><polygon class="e" points="4675.15 46.91 4685.09 44.2 4695.94 46.91 4675.15 46.91"/><polygon class="e" points="4653.19 41.93 4663.13 39.22 4673.97 41.93 4653.19 41.93"/><polygon class="e" points="4480.04 47.52 4489.98 44.81 4500.82 47.52 4480.04 47.52"/><polygon class="e" points="4493.47 41.46 4503.41 38.74 4514.25 41.46 4493.47 41.46"/><polygon class="e" points="4603.32 46.51 4613.26 43.8 4624.1 46.51 4603.32 46.51"/><polygon class="e" points="4558.15 47.83 4568.09 45.12 4578.93 47.83 4558.15 47.83"/><polygon class="e" points="4633.2 48 4639.42 46.31 4646.22 48 4633.2 48"/><polygon class="e" points="4702.83 46.35 4709.06 44.65 4715.85 46.35 4702.83 46.35"/><polygon class="e" points="4693.3 40.13 4699.52 38.43 4706.32 40.13 4693.3 40.13"/><polygon class="g" points="4555.27 38.47 4561.5 36.77 4568.29 38.47 4555.27 38.47"/><polygon class="g" points="4638.01 39.32 4644.24 37.63 4651.03 39.32 4638.01 39.32"/><polygon class="g" points="4674.12 37.33 4680.35 35.64 4687.14 37.33 4674.12 37.33"/><polygon class="g" points="4703.69 33.07 4709.92 31.37 4716.71 33.07 4703.69 33.07"/><polygon class="g" points="4658.49 33.07 4664.71 31.37 4671.5 33.07 4658.49 33.07"/><polygon class="g" points="4540.49 33.35 4546.72 31.65 4553.51 33.35 4540.49 33.35"/><polygon class="g" points="4511.49 32.78 4517.71 31.09 4524.51 32.78 4511.49 32.78"/><polygon class="g" points="4493.29 30.51 4499.52 28.81 4506.31 30.51 4493.29 30.51"/><polygon class="g" points="4528.26 27.38 4534.49 25.68 4541.28 27.38 4528.26 27.38"/><polygon class="g" points="4508.36 21.13 4514.59 19.43 4521.38 21.13 4508.36 21.13"/><polygon class="f" points="4546.46 21.11 4554.33 19.73 4562.91 21.11 4546.46 21.11"/><polygon class="f" points="4655.36 23.38 4663.23 22 4671.81 23.38 4655.36 23.38"/><polygon class="f" points="4681.52 27.93 4689.38 26.55 4697.97 27.93 4681.52 27.93"/><polygon class="f" points="4730.42 9.74 4738.29 8.36 4746.87 9.74 4730.42 9.74"/><polygon class="f" points="4659.09 7.77 4666.96 6.39 4675.54 7.77 4659.09 7.77"/><polygon class="f" points="4700.85 23.95 4708.72 22.57 4717.3 23.95 4700.85 23.95"/><polygon class="f" points="4564.09 14 4571.96 12.62 4580.54 14 4564.09 14"/><polygon class="f" points="4621.52 6.04 4629.39 4.66 4637.97 6.04 4621.52 6.04"/><polygon class="f" points="4526.89 16.93 4534.76 15.55 4543.35 16.93 4526.89 16.93"/><polygon class="f" points="4545.09 8.12 4552.96 6.74 4561.54 8.12 4545.09 8.12"/><polygon class="f" points="4508.13 10.39 4516 9.01 4524.58 10.39 4508.13 10.39"/><polygon class="f" points="4467.19 7.55 4475.05 6.17 4483.64 7.55 4467.19 7.55"/><polygon class="f" points="4486.52 13.8 4494.39 12.43 4502.97 13.8 4486.52 13.8"/><polygon class="f" points="4482.25 19.78 4490.12 18.4 4498.71 19.78 4482.25 19.78"/><polygon class="g" points="4522.94 38.06 4529.17 36.36 4535.96 38.06 4522.94 38.06"/></g><path class="d" d="M5232.73,.02V67.59h-441.39V.03c0,1.2,37.97,0,41.42-.02,16-.07,32,.23,47.99,.53,10.53,0,21.07,.39,31.59,.59,19.45,.36,38.89,.45,58.34,.7,38.61,.49,77.26,.98,115.85-.84,36.13-1.71,72.31-.3,108.7-.71,12.5-.14,25-.25,37.51-.25Z"/><g><polygon class="e" points="5015.73 44.93 5022.57 43.07 5030.02 44.93 5015.73 44.93"/><polygon class="e" points="4943.29 47.29 4953.23 44.58 4964.07 47.29 4943.29 47.29"/><polygon class="e" points="4969.43 44.42 4979.37 41.71 4990.21 44.42 4969.43 44.42"/><polygon class="e" points="5109.94 46.91 5119.88 44.2 5130.72 46.91 5109.94 46.91"/><polygon class="e" points="5087.97 41.93 5097.91 39.22 5108.75 41.93 5087.97 41.93"/><polygon class="e" points="4914.82 47.52 4924.76 44.81 4935.6 47.52 4914.82 47.52"/><polygon class="e" points="4928.26 41.46 4938.19 38.74 4949.04 41.46 4928.26 41.46"/><polygon class="e" points="5038.1 46.51 5048.04 43.8 5058.89 46.51 5038.1 46.51"/><polygon class="e" points="4992.93 47.83 5002.87 45.12 5013.71 47.83 4992.93 47.83"/><polygon class="e" points="5067.98 48 5074.21 46.31 5081 48 5067.98 48"/><polygon class="e" points="5137.61 46.35 5143.84 44.65 5150.63 46.35 5137.61 46.35"/><polygon class="e" points="5128.08 40.13 5134.31 38.43 5141.1 40.13 5128.08 40.13"/><polygon class="g" points="4990.06 38.47 4996.28 36.77 5003.08 38.47 4990.06 38.47"/><polygon class="g" points="5072.8 39.32 5079.02 37.63 5085.82 39.32 5072.8 39.32"/><polygon class="g" points="5108.91 37.33 5115.13 35.64 5121.93 37.33 5108.91 37.33"/><polygon class="g" points="5138.48 33.07 5144.7 31.37 5151.5 33.07 5138.48 33.07"/><polygon class="g" points="5093.27 33.07 5099.5 31.37 5106.29 33.07 5093.27 33.07"/><polygon class="g" points="4975.27 33.35 4981.5 31.65 4988.29 33.35 4975.27 33.35"/><polygon class="g" points="4946.27 32.78 4952.5 31.09 4959.29 32.78 4946.27 32.78"/><polygon class="g" points="4928.07 30.51 4934.3 28.81 4941.09 30.51 4928.07 30.51"/><polygon class="g" points="4963.05 27.38 4969.27 25.68 4976.06 27.38 4963.05 27.38"/><polygon class="g" points="4943.14 21.13 4949.37 19.43 4956.16 21.13 4943.14 21.13"/><polygon class="f" points="4981.24 21.11 4989.11 19.73 4997.69 21.11 4981.24 21.11"/><polygon class="f" points="5090.14 23.38 5098.01 22 5106.59 23.38 5090.14 23.38"/><polygon class="f" points="5116.3 27.93 5124.17 26.55 5132.75 27.93 5116.3 27.93"/><polygon class="f" points="5165.2 9.74 5173.07 8.36 5181.66 9.74 5165.2 9.74"/><polygon class="f" points="5093.88 7.77 5101.74 6.39 5110.33 7.77 5093.88 7.77"/><polygon class="f" points="5135.63 23.95 5143.5 22.57 5152.08 23.95 5135.63 23.95"/><polygon class="f" points="4998.87 14 5006.74 12.62 5015.32 14 4998.87 14"/><polygon class="f" points="5056.31 6.04 5064.17 4.66 5072.76 6.04 5056.31 6.04"/><polygon class="f" points="4961.68 16.93 4969.55 15.55 4978.13 16.93 4961.68 16.93"/><polygon class="f" points="4979.87 8.12 4987.74 6.74 4996.33 8.12 4979.87 8.12"/><polygon class="f" points="4942.91 10.39 4950.78 9.01 4959.36 10.39 4942.91 10.39"/><polygon class="f" points="4901.97 7.55 4909.84 6.17 4918.42 7.55 4901.97 7.55"/><polygon class="f" points="4921.3 13.8 4929.17 12.43 4937.75 13.8 4921.3 13.8"/><polygon class="f" points="4917.04 19.78 4924.91 18.4 4933.49 19.78 4917.04 19.78"/><polygon class="g" points="4957.73 38.06 4963.95 36.36 4970.75 38.06 4957.73 38.06"/></g><path class="d" d="M5674.12,.02V67.59h-441.39V.03c0,1.2,37.97,0,41.42-.02,16-.07,32,.23,47.99,.53,10.53,0,21.07,.39,31.59,.59,19.45,.36,38.89,.45,58.34,.7,38.61,.49,77.26,.98,115.85-.84,36.13-1.71,72.31-.3,108.7-.71,12.5-.14,25-.25,37.51-.25Z"/><g><polygon class="e" points="5457.13 44.93 5463.96 43.07 5471.41 44.93 5457.13 44.93"/><polygon class="e" points="5384.68 47.29 5394.62 44.58 5405.46 47.29 5384.68 47.29"/><polygon class="e" points="5410.82 44.42 5420.76 41.71 5431.6 44.42 5410.82 44.42"/><polygon class="e" points="5551.33 46.91 5561.27 44.2 5572.11 46.91 5551.33 46.91"/><polygon class="e" points="5529.36 41.93 5539.3 39.22 5550.14 41.93 5529.36 41.93"/><polygon class="e" points="5356.21 47.52 5366.15 44.81 5376.99 47.52 5356.21 47.52"/><polygon class="e" points="5369.65 41.46 5379.59 38.74 5390.43 41.46 5369.65 41.46"/><polygon class="e" points="5479.49 46.51 5489.43 43.8 5500.28 46.51 5479.49 46.51"/><polygon class="e" points="5434.32 47.83 5444.26 45.12 5455.1 47.83 5434.32 47.83"/><polygon class="e" points="5509.37 48 5515.6 46.31 5522.39 48 5509.37 48"/><polygon class="e" points="5579 46.35 5585.23 44.65 5592.02 46.35 5579 46.35"/><polygon class="e" points="5569.47 40.13 5575.7 38.43 5582.49 40.13 5569.47 40.13"/><polygon class="g" points="5431.45 38.47 5437.67 36.77 5444.47 38.47 5431.45 38.47"/><polygon class="g" points="5514.19 39.32 5520.41 37.63 5527.21 39.32 5514.19 39.32"/><polygon class="g" points="5550.3 37.33 5556.52 35.64 5563.32 37.33 5550.3 37.33"/><polygon class="g" points="5579.87 33.07 5586.09 31.37 5592.89 33.07 5579.87 33.07"/><polygon class="g" points="5534.66 33.07 5540.89 31.37 5547.68 33.07 5534.66 33.07"/><polygon class="g" points="5416.66 33.35 5422.89 31.65 5429.68 33.35 5416.66 33.35"/><polygon class="g" points="5387.66 32.78 5393.89 31.09 5400.68 32.78 5387.66 32.78"/><polygon class="g" points="5369.46 30.51 5375.69 28.81 5382.48 30.51 5369.46 30.51"/><polygon class="g" points="5404.44 27.38 5410.66 25.68 5417.46 27.38 5404.44 27.38"/><polygon class="g" points="5384.53 21.13 5390.76 19.43 5397.55 21.13 5384.53 21.13"/><polygon class="f" points="5422.63 21.11 5430.5 19.73 5439.08 21.11 5422.63 21.11"/><polygon class="f" points="5531.53 23.38 5539.4 22 5547.98 23.38 5531.53 23.38"/><polygon class="f" points="5557.69 27.93 5565.56 26.55 5574.14 27.93 5557.69 27.93"/><polygon class="f" points="5606.6 9.74 5614.46 8.36 5623.05 9.74 5606.6 9.74"/><polygon class="f" points="5535.27 7.77 5543.14 6.39 5551.72 7.77 5535.27 7.77"/><polygon class="f" points="5577.02 23.95 5584.89 22.57 5593.48 23.95 5577.02 23.95"/><polygon class="f" points="5440.26 14 5448.13 12.62 5456.71 14 5440.26 14"/><polygon class="f" points="5497.7 6.04 5505.56 4.66 5514.15 6.04 5497.7 6.04"/><polygon class="f" points="5403.07 16.93 5410.94 15.55 5419.52 16.93 5403.07 16.93"/><polygon class="f" points="5421.27 8.12 5429.13 6.74 5437.72 8.12 5421.27 8.12"/><polygon class="f" points="5384.3 10.39 5392.17 9.01 5400.75 10.39 5384.3 10.39"/><polygon class="f" points="5343.36 7.55 5351.23 6.17 5359.81 7.55 5343.36 7.55"/><polygon class="f" points="5362.69 13.8 5370.56 12.43 5379.14 13.8 5362.69 13.8"/><polygon class="f" points="5358.43 19.78 5366.3 18.4 5374.88 19.78 5358.43 19.78"/><polygon class="g" points="5399.12 38.06 5405.34 36.36 5412.14 38.06 5399.12 38.06"/></g><path class="d" d="M6108.91,.02V67.59h-441.39V.03c0,1.2,37.97,0,41.42-.02,16-.07,32,.23,47.99,.53,10.53,0,21.07,.39,31.59,.59,19.45,.36,38.89,.45,58.34,.7,38.61,.49,77.26,.98,115.85-.84,36.13-1.71,72.31-.3,108.7-.71,12.5-.14,25-.25,37.51-.25Z"/><g><polygon class="e" points="5891.91 44.93 5898.74 43.07 5906.2 44.93 5891.91 44.93"/><polygon class="e" points="5819.46 47.29 5829.4 44.58 5840.24 47.29 5819.46 47.29"/><polygon class="e" points="5845.6 44.42 5855.54 41.71 5866.38 44.42 5845.6 44.42"/><polygon class="e" points="5986.11 46.91 5996.05 44.2 6006.89 46.91 5986.11 46.91"/><polygon class="e" points="5964.14 41.93 5974.08 39.22 5984.93 41.93 5964.14 41.93"/><polygon class="e" points="5790.99 47.52 5800.93 44.81 5811.78 47.52 5790.99 47.52"/><polygon class="e" points="5804.43 41.46 5814.37 38.74 5825.21 41.46 5804.43 41.46"/><polygon class="e" points="5914.28 46.51 5924.22 43.8 5935.06 46.51 5914.28 46.51"/><polygon class="e" points="5869.1 47.83 5879.04 45.12 5889.89 47.83 5869.1 47.83"/><polygon class="e" points="5944.15 48 5950.38 46.31 5957.17 48 5944.15 48"/><polygon class="e" points="6013.79 46.35 6020.01 44.65 6026.81 46.35 6013.79 46.35"/><polygon class="e" points="6004.25 40.13 6010.48 38.43 6017.27 40.13 6004.25 40.13"/><polygon class="g" points="5866.23 38.47 5872.46 36.77 5879.25 38.47 5866.23 38.47"/><polygon class="g" points="5948.97 39.32 5955.2 37.63 5961.99 39.32 5948.97 39.32"/><polygon class="g" points="5985.08 37.33 5991.31 35.64 5998.1 37.33 5985.08 37.33"/><polygon class="g" points="6014.65 33.07 6020.88 31.37 6027.67 33.07 6014.65 33.07"/><polygon class="g" points="5969.44 33.07 5975.67 31.37 5982.46 33.07 5969.44 33.07"/><polygon class="g" points="5851.45 33.35 5857.67 31.65 5864.46 33.35 5851.45 33.35"/><polygon class="g" points="5822.44 32.78 5828.67 31.09 5835.46 32.78 5822.44 32.78"/><polygon class="g" points="5804.25 30.51 5810.47 28.81 5817.27 30.51 5804.25 30.51"/><polygon class="g" points="5839.22 27.38 5845.45 25.68 5852.24 27.38 5839.22 27.38"/><polygon class="g" points="5819.32 21.13 5825.54 19.43 5832.34 21.13 5819.32 21.13"/><polygon class="f" points="5857.42 21.11 5865.28 19.73 5873.87 21.11 5857.42 21.11"/><polygon class="f" points="5966.32 23.38 5974.18 22 5982.77 23.38 5966.32 23.38"/><polygon class="f" points="5992.47 27.93 6000.34 26.55 6008.92 27.93 5992.47 27.93"/><polygon class="f" points="6041.38 9.74 6049.25 8.36 6057.83 9.74 6041.38 9.74"/><polygon class="f" points="5970.05 7.77 5977.92 6.39 5986.5 7.77 5970.05 7.77"/><polygon class="f" points="6011.81 23.95 6019.68 22.57 6028.26 23.95 6011.81 23.95"/><polygon class="f" points="5875.05 14 5882.91 12.62 5891.5 14 5875.05 14"/><polygon class="f" points="5932.48 6.04 5940.35 4.66 5948.93 6.04 5932.48 6.04"/><polygon class="f" points="5837.85 16.93 5845.72 15.55 5854.3 16.93 5837.85 16.93"/><polygon class="f" points="5856.05 8.12 5863.92 6.74 5872.5 8.12 5856.05 8.12"/><polygon class="f" points="5819.09 10.39 5826.95 9.01 5835.54 10.39 5819.09 10.39"/><polygon class="f" points="5778.14 7.55 5786.01 6.17 5794.59 7.55 5778.14 7.55"/><polygon class="f" points="5797.48 13.8 5805.34 12.43 5813.93 13.8 5797.48 13.8"/><polygon class="f" points="5793.21 19.78 5801.08 18.4 5809.66 19.78 5793.21 19.78"/><polygon class="g" points="5833.9 38.06 5840.13 36.36 5846.92 38.06 5833.9 38.06"/></g><path class="d" d="M6547.14,.02V67.59h-441.39V.03c0,1.2,37.97,0,41.42-.02,16-.07,32,.23,47.99,.53,10.53,0,21.07,.39,31.59,.59,19.45,.36,38.89,.45,58.34,.7,38.61,.49,77.26,.98,115.85-.84,36.13-1.71,72.31-.3,108.7-.71,12.5-.14,25-.25,37.51-.25Z"/><g><polygon class="e" points="6330.14 44.93 6336.98 43.07 6344.43 44.93 6330.14 44.93"/><polygon class="e" points="6257.69 47.29 6267.63 44.58 6278.48 47.29 6257.69 47.29"/><polygon class="e" points="6283.84 44.42 6293.77 41.71 6304.62 44.42 6283.84 44.42"/><polygon class="e" points="6424.35 46.91 6434.28 44.2 6445.13 46.91 6424.35 46.91"/><polygon class="e" points="6402.38 41.93 6412.32 39.22 6423.16 41.93 6402.38 41.93"/><polygon class="e" points="6229.23 47.52 6239.17 44.81 6250.01 47.52 6229.23 47.52"/><polygon class="e" points="6242.66 41.46 6252.6 38.74 6263.45 41.46 6242.66 41.46"/><polygon class="e" points="6352.51 46.51 6362.45 43.8 6373.3 46.51 6352.51 46.51"/><polygon class="e" points="6307.34 47.83 6317.28 45.12 6328.12 47.83 6307.34 47.83"/><polygon class="e" points="6382.39 48 6388.62 46.31 6395.41 48 6382.39 48"/><polygon class="e" points="6452.02 46.35 6458.25 44.65 6465.04 46.35 6452.02 46.35"/><polygon class="e" points="6442.49 40.13 6448.72 38.43 6455.51 40.13 6442.49 40.13"/><polygon class="g" points="6304.47 38.47 6310.69 36.77 6317.48 38.47 6304.47 38.47"/><polygon class="g" points="6387.21 39.32 6393.43 37.63 6400.22 39.32 6387.21 39.32"/><polygon class="g" points="6423.32 37.33 6429.54 35.64 6436.33 37.33 6423.32 37.33"/><polygon class="g" points="6452.89 33.07 6459.11 31.37 6465.9 33.07 6452.89 33.07"/><polygon class="g" points="6407.68 33.07 6413.9 31.37 6420.7 33.07 6407.68 33.07"/><polygon class="g" points="6289.68 33.35 6295.91 31.65 6302.7 33.35 6289.68 33.35"/><polygon class="g" points="6260.68 32.78 6266.91 31.09 6273.7 32.78 6260.68 32.78"/><polygon class="g" points="6242.48 30.51 6248.71 28.81 6255.5 30.51 6242.48 30.51"/><polygon class="g" points="6277.45 27.38 6283.68 25.68 6290.47 27.38 6277.45 27.38"/><polygon class="g" points="6257.55 21.13 6263.78 19.43 6270.57 21.13 6257.55 21.13"/><polygon class="f" points="6295.65 21.11 6303.52 19.73 6312.1 21.11 6295.65 21.11"/><polygon class="f" points="6404.55 23.38 6412.42 22 6421 23.38 6404.55 23.38"/><polygon class="f" points="6430.71 27.93 6438.58 26.55 6447.16 27.93 6430.71 27.93"/><polygon class="f" points="6479.61 9.74 6487.48 8.36 6496.06 9.74 6479.61 9.74"/><polygon class="f" points="6408.29 7.77 6416.15 6.39 6424.74 7.77 6408.29 7.77"/><polygon class="f" points="6450.04 23.95 6457.91 22.57 6466.49 23.95 6450.04 23.95"/><polygon class="f" points="6313.28 14 6321.15 12.62 6329.73 14 6313.28 14"/><polygon class="f" points="6370.71 6.04 6378.58 4.66 6387.17 6.04 6370.71 6.04"/><polygon class="f" points="6276.09 16.93 6283.95 15.55 6292.54 16.93 6276.09 16.93"/><polygon class="f" points="6294.28 8.12 6302.15 6.74 6310.73 8.12 6294.28 8.12"/><polygon class="f" points="6257.32 10.39 6265.19 9.01 6273.77 10.39 6257.32 10.39"/><polygon class="f" points="6216.38 7.55 6224.24 6.17 6232.83 7.55 6216.38 7.55"/><polygon class="f" points="6235.71 13.8 6243.58 12.43 6252.16 13.8 6235.71 13.8"/><polygon class="f" points="6231.45 19.78 6239.31 18.4 6247.9 19.78 6231.45 19.78"/><polygon class="g" points="6272.14 38.06 6278.36 36.36 6285.15 38.06 6272.14 38.06"/></g><path class="d" d="M6981.92,.02V67.59h-441.39V.03c0,1.2,37.97,0,41.42-.02,16-.07,32,.23,47.99,.53,10.53,0,21.07,.39,31.59,.59,19.45,.36,38.89,.45,58.34,.7,38.61,.49,77.26,.98,115.85-.84,36.13-1.71,72.31-.3,108.7-.71,12.5-.14,25-.25,37.51-.25Z"/><g><polygon class="e" points="6764.93 44.93 6771.76 43.07 6779.21 44.93 6764.93 44.93"/><polygon class="e" points="6692.48 47.29 6702.42 44.58 6713.26 47.29 6692.48 47.29"/><polygon class="e" points="6718.62 44.42 6728.56 41.71 6739.4 44.42 6718.62 44.42"/><polygon class="e" points="6859.13 46.91 6869.07 44.2 6879.91 46.91 6859.13 46.91"/><polygon class="e" points="6837.16 41.93 6847.1 39.22 6857.94 41.93 6837.16 41.93"/><polygon class="e" points="6664.01 47.52 6673.95 44.81 6684.79 47.52 6664.01 47.52"/><polygon class="e" points="6677.45 41.46 6687.39 38.74 6698.23 41.46 6677.45 41.46"/><polygon class="e" points="6787.3 46.51 6797.23 43.8 6808.08 46.51 6787.3 46.51"/><polygon class="e" points="6742.12 47.83 6752.06 45.12 6762.9 47.83 6742.12 47.83"/><polygon class="e" points="6817.17 48 6823.4 46.31 6830.19 48 6817.17 48"/><polygon class="e" points="6886.8 46.35 6893.03 44.65 6899.82 46.35 6886.8 46.35"/><polygon class="e" points="6877.27 40.13 6883.5 38.43 6890.29 40.13 6877.27 40.13"/><polygon class="g" points="6739.25 38.47 6745.48 36.77 6752.27 38.47 6739.25 38.47"/><polygon class="g" points="6821.99 39.32 6828.22 37.63 6835.01 39.32 6821.99 39.32"/><polygon class="g" points="6858.1 37.33 6864.32 35.64 6871.12 37.33 6858.1 37.33"/><polygon class="g" points="6887.67 33.07 6893.9 31.37 6900.69 33.07 6887.67 33.07"/><polygon class="g" points="6842.46 33.07 6848.69 31.37 6855.48 33.07 6842.46 33.07"/><polygon class="g" points="6724.46 33.35 6730.69 31.65 6737.48 33.35 6724.46 33.35"/><polygon class="g" points="6695.46 32.78 6701.69 31.09 6708.48 32.78 6695.46 32.78"/><polygon class="g" points="6677.26 30.51 6683.49 28.81 6690.28 30.51 6677.26 30.51"/><polygon class="g" points="6712.24 27.38 6718.46 25.68 6725.26 27.38 6712.24 27.38"/><polygon class="g" points="6692.33 21.13 6698.56 19.43 6705.35 21.13 6692.33 21.13"/><polygon class="f" points="6730.43 21.11 6738.3 19.73 6746.89 21.11 6730.43 21.11"/><polygon class="f" points="6839.33 23.38 6847.2 22 6855.78 23.38 6839.33 23.38"/><polygon class="f" points="6865.49 27.93 6873.36 26.55 6881.94 27.93 6865.49 27.93"/><polygon class="f" points="6914.4 9.74 6922.26 8.36 6930.85 9.74 6914.4 9.74"/><polygon class="f" points="6843.07 7.77 6850.94 6.39 6859.52 7.77 6843.07 7.77"/><polygon class="f" points="6884.83 23.95 6892.69 22.57 6901.28 23.95 6884.83 23.95"/><polygon class="f" points="6748.06 14 6755.93 12.62 6764.51 14 6748.06 14"/><polygon class="f" points="6805.5 6.04 6813.37 4.66 6821.95 6.04 6805.5 6.04"/><polygon class="f" points="6710.87 16.93 6718.74 15.55 6727.32 16.93 6710.87 16.93"/><polygon class="f" points="6729.07 8.12 6736.93 6.74 6745.52 8.12 6729.07 8.12"/><polygon class="f" points="6692.1 10.39 6699.97 9.01 6708.55 10.39 6692.1 10.39"/><polygon class="f" points="6651.16 7.55 6659.03 6.17 6667.61 7.55 6651.16 7.55"/><polygon class="f" points="6670.49 13.8 6678.36 12.43 6686.95 13.8 6670.49 13.8"/><polygon class="f" points="6666.23 19.78 6674.1 18.4 6682.68 19.78 6666.23 19.78"/><polygon class="g" points="6706.92 38.06 6713.15 36.36 6719.94 38.06 6706.92 38.06"/></g><path class="d" d="M7330.85,.02V67.59h-441.39V.03c0,1.2,37.97,0,41.42-.02,16-.07,32,.23,47.99,.53,10.53,0,21.07,.39,31.59,.59,19.45,.36,38.89,.45,58.34,.7,38.61,.49,77.26,.98,115.85-.84,36.13-1.71,72.31-.3,108.7-.71,12.5-.14,25-.25,37.51-.25Z"/><g><polygon class="e" points="7113.86 44.93 7120.69 43.07 7128.14 44.93 7113.86 44.93"/><polygon class="e" points="7041.41 47.29 7051.35 44.58 7062.19 47.29 7041.41 47.29"/><polygon class="e" points="7067.55 44.42 7077.49 41.71 7088.33 44.42 7067.55 44.42"/><polygon class="e" points="7208.06 46.91 7218 44.2 7228.84 46.91 7208.06 46.91"/><polygon class="e" points="7186.09 41.93 7196.03 39.22 7206.87 41.93 7186.09 41.93"/><polygon class="e" points="7012.94 47.52 7022.88 44.81 7033.72 47.52 7012.94 47.52"/><polygon class="e" points="7026.38 41.46 7036.32 38.74 7047.16 41.46 7026.38 41.46"/><polygon class="e" points="7136.23 46.51 7146.17 43.8 7157.01 46.51 7136.23 46.51"/><polygon class="e" points="7091.05 47.83 7100.99 45.12 7111.83 47.83 7091.05 47.83"/><polygon class="e" points="7166.1 48 7172.33 46.31 7179.12 48 7166.1 48"/><polygon class="e" points="7235.74 46.35 7241.96 44.65 7248.75 46.35 7235.74 46.35"/><polygon class="e" points="7226.2 40.13 7232.43 38.43 7239.22 40.13 7226.2 40.13"/><polygon class="g" points="7088.18 38.47 7094.41 36.77 7101.2 38.47 7088.18 38.47"/><polygon class="g" points="7170.92 39.32 7177.15 37.63 7183.94 39.32 7170.92 39.32"/><polygon class="g" points="7207.03 37.33 7213.26 35.64 7220.05 37.33 7207.03 37.33"/><polygon class="g" points="7236.6 33.07 7242.83 31.37 7249.62 33.07 7236.6 33.07"/><polygon class="g" points="7191.39 33.07 7197.62 31.37 7204.41 33.07 7191.39 33.07"/><polygon class="g" points="7073.39 33.35 7079.62 31.65 7086.41 33.35 7073.39 33.35"/><polygon class="g" points="7044.39 32.78 7050.62 31.09 7057.41 32.78 7044.39 32.78"/><polygon class="g" points="7026.2 30.51 7032.42 28.81 7039.21 30.51 7026.2 30.51"/><polygon class="g" points="7061.17 27.38 7067.39 25.68 7074.19 27.38 7061.17 27.38"/><polygon class="g" points="7041.27 21.13 7047.49 19.43 7054.28 21.13 7041.27 21.13"/><polygon class="f" points="7079.37 21.11 7087.23 19.73 7095.82 21.11 7079.37 21.11"/><polygon class="f" points="7188.26 23.38 7196.13 22 7204.71 23.38 7188.26 23.38"/><polygon class="f" points="7214.42 27.93 7222.29 26.55 7230.87 27.93 7214.42 27.93"/><polygon class="f" points="7263.33 9.74 7271.19 8.36 7279.78 9.74 7263.33 9.74"/><polygon class="f" points="7192 7.77 7199.87 6.39 7208.45 7.77 7192 7.77"/><polygon class="f" points="7233.76 23.95 7241.62 22.57 7250.21 23.95 7233.76 23.95"/><polygon class="f" points="7096.99 14 7104.86 12.62 7113.44 14 7096.99 14"/><polygon class="f" points="7154.43 6.04 7162.3 4.66 7170.88 6.04 7154.43 6.04"/><polygon class="f" points="7059.8 16.93 7067.67 15.55 7076.25 16.93 7059.8 16.93"/><polygon class="f" points="7078 8.12 7085.86 6.74 7094.45 8.12 7078 8.12"/><polygon class="f" points="7041.03 10.39 7048.9 9.01 7057.48 10.39 7041.03 10.39"/><polygon class="f" points="7000.09 7.55 7007.96 6.17 7016.54 7.55 7000.09 7.55"/><polygon class="f" points="7019.42 13.8 7027.29 12.43 7035.88 13.8 7019.42 13.8"/><polygon class="f" points="7015.16 19.78 7023.03 18.4 7031.61 19.78 7015.16 19.78"/><polygon class="g" points="7055.85 38.06 7062.08 36.36 7068.87 38.06 7055.85 38.06"/></g><path class="d" d="M7765.64,.02V67.59h-441.39V.03c0,1.2,37.97,0,41.42-.02,16-.07,32,.23,47.99,.53,10.53,0,21.07,.39,31.59,.59,19.45,.36,38.89,.45,58.34,.7,38.61,.49,77.26,.98,115.85-.84,36.13-1.71,72.31-.3,108.7-.71,12.5-.14,25-.25,37.51-.25Z"/><g><polygon class="e" points="7548.64 44.93 7555.47 43.07 7562.93 44.93 7548.64 44.93"/><polygon class="e" points="7476.19 47.29 7486.13 44.58 7496.97 47.29 7476.19 47.29"/><polygon class="e" points="7502.33 44.42 7512.27 41.71 7523.11 44.42 7502.33 44.42"/><polygon class="e" points="7642.84 46.91 7652.78 44.2 7663.62 46.91 7642.84 46.91"/><polygon class="e" points="7620.87 41.93 7630.81 39.22 7641.66 41.93 7620.87 41.93"/><polygon class="e" points="7447.72 47.52 7457.66 44.81 7468.51 47.52 7447.72 47.52"/><polygon class="e" points="7461.16 41.46 7471.1 38.74 7481.94 41.46 7461.16 41.46"/><polygon class="e" points="7571.01 46.51 7580.95 43.8 7591.79 46.51 7571.01 46.51"/><polygon class="e" points="7525.83 47.83 7535.77 45.12 7546.62 47.83 7525.83 47.83"/><polygon class="e" points="7600.89 48 7607.11 46.31 7613.9 48 7600.89 48"/><polygon class="e" points="7670.52 46.35 7676.74 44.65 7683.54 46.35 7670.52 46.35"/><polygon class="e" points="7660.99 40.13 7667.21 38.43 7674 40.13 7660.99 40.13"/><polygon class="g" points="7522.96 38.47 7529.19 36.77 7535.98 38.47 7522.96 38.47"/><polygon class="g" points="7605.7 39.32 7611.93 37.63 7618.72 39.32 7605.7 39.32"/><polygon class="g" points="7641.81 37.33 7648.04 35.64 7654.83 37.33 7641.81 37.33"/><polygon class="g" points="7671.38 33.07 7677.61 31.37 7684.4 33.07 7671.38 33.07"/><polygon class="g" points="7626.17 33.07 7632.4 31.37 7639.19 33.07 7626.17 33.07"/><polygon class="g" points="7508.18 33.35 7514.4 31.65 7521.2 33.35 7508.18 33.35"/><polygon class="g" points="7479.18 32.78 7485.4 31.09 7492.19 32.78 7479.18 32.78"/><polygon class="g" points="7460.98 30.51 7467.2 28.81 7474 30.51 7460.98 30.51"/><polygon class="g" points="7495.95 27.38 7502.18 25.68 7508.97 27.38 7495.95 27.38"/><polygon class="g" points="7476.05 21.13 7482.27 19.43 7489.07 21.13 7476.05 21.13"/><polygon class="f" points="7514.15 21.11 7522.02 19.73 7530.6 21.11 7514.15 21.11"/><polygon class="f" points="7623.05 23.38 7630.91 22 7639.5 23.38 7623.05 23.38"/><polygon class="f" points="7649.2 27.93 7657.07 26.55 7665.66 27.93 7649.2 27.93"/><polygon class="f" points="7698.11 9.74 7705.98 8.36 7714.56 9.74 7698.11 9.74"/><polygon class="f" points="7626.78 7.77 7634.65 6.39 7643.23 7.77 7626.78 7.77"/><polygon class="f" points="7668.54 23.95 7676.41 22.57 7684.99 23.95 7668.54 23.95"/><polygon class="f" points="7531.78 14 7539.64 12.62 7548.23 14 7531.78 14"/><polygon class="f" points="7589.21 6.04 7597.08 4.66 7605.66 6.04 7589.21 6.04"/><polygon class="f" points="7494.58 16.93 7502.45 15.55 7511.03 16.93 7494.58 16.93"/><polygon class="f" points="7512.78 8.12 7520.65 6.74 7529.23 8.12 7512.78 8.12"/><polygon class="f" points="7475.82 10.39 7483.68 9.01 7492.27 10.39 7475.82 10.39"/><polygon class="f" points="7434.87 7.55 7442.74 6.17 7451.32 7.55 7434.87 7.55"/><polygon class="f" points="7454.21 13.8 7462.08 12.43 7470.66 13.8 7454.21 13.8"/><polygon class="f" points="7449.94 19.78 7457.81 18.4 7466.39 19.78 7449.94 19.78"/><polygon class="g" points="7490.63 38.06 7496.86 36.36 7503.65 38.06 7490.63 38.06"/></g><path class="d" d="M8203.87,.02V67.59h-441.39V.03c0,1.2,37.97,0,41.42-.02,16-.07,32,.23,47.99,.53,10.53,0,21.07,.39,31.59,.59,19.45,.36,38.89,.45,58.34,.7,38.61,.49,77.26,.98,115.85-.84,36.13-1.71,72.31-.3,108.7-.71,12.5-.14,25-.25,37.51-.25Z"/><g><polygon class="e" points="7986.87 44.93 7993.71 43.07 8001.16 44.93 7986.87 44.93"/><polygon class="e" points="7914.43 47.29 7924.37 44.58 7935.21 47.29 7914.43 47.29"/><polygon class="e" points="7940.57 44.42 7950.51 41.71 7961.35 44.42 7940.57 44.42"/><polygon class="e" points="8081.08 46.91 8091.02 44.2 8101.86 46.91 8081.08 46.91"/><polygon class="e" points="8059.11 41.93 8069.05 39.22 8079.89 41.93 8059.11 41.93"/><polygon class="e" points="7885.96 47.52 7895.9 44.81 7906.74 47.52 7885.96 47.52"/><polygon class="e" points="7899.4 41.46 7909.33 38.74 7920.18 41.46 7899.4 41.46"/><polygon class="e" points="8009.24 46.51 8019.18 43.8 8030.03 46.51 8009.24 46.51"/><polygon class="e" points="7964.07 47.83 7974.01 45.12 7984.85 47.83 7964.07 47.83"/><polygon class="e" points="8039.12 48 8045.35 46.31 8052.14 48 8039.12 48"/><polygon class="e" points="8108.75 46.35 8114.98 44.65 8121.77 46.35 8108.75 46.35"/><polygon class="e" points="8099.22 40.13 8105.45 38.43 8112.24 40.13 8099.22 40.13"/><polygon class="g" points="7961.2 38.47 7967.42 36.77 7974.22 38.47 7961.2 38.47"/><polygon class="g" points="8043.94 39.32 8050.16 37.63 8056.96 39.32 8043.94 39.32"/><polygon class="g" points="8080.05 37.33 8086.27 35.64 8093.07 37.33 8080.05 37.33"/><polygon class="g" points="8109.62 33.07 8115.84 31.37 8122.64 33.07 8109.62 33.07"/><polygon class="g" points="8064.41 33.07 8070.64 31.37 8077.43 33.07 8064.41 33.07"/><polygon class="g" points="7946.41 33.35 7952.64 31.65 7959.43 33.35 7946.41 33.35"/><polygon class="g" points="7917.41 32.78 7923.64 31.09 7930.43 32.78 7917.41 32.78"/><polygon class="g" points="7899.21 30.51 7905.44 28.81 7912.23 30.51 7899.21 30.51"/><polygon class="g" points="7934.19 27.38 7940.41 25.68 7947.2 27.38 7934.19 27.38"/><polygon class="g" points="7914.28 21.13 7920.51 19.43 7927.3 21.13 7914.28 21.13"/><polygon class="f" points="7952.38 21.11 7960.25 19.73 7968.83 21.11 7952.38 21.11"/><polygon class="f" points="8061.28 23.38 8069.15 22 8077.73 23.38 8061.28 23.38"/><polygon class="f" points="8087.44 27.93 8095.31 26.55 8103.89 27.93 8087.44 27.93"/><polygon class="f" points="8136.34 9.74 8144.21 8.36 8152.8 9.74 8136.34 9.74"/><polygon class="f" points="8065.02 7.77 8072.88 6.39 8081.47 7.77 8065.02 7.77"/><polygon class="f" points="8106.77 23.95 8114.64 22.57 8123.22 23.95 8106.77 23.95"/><polygon class="f" points="7970.01 14 7977.88 12.62 7986.46 14 7970.01 14"/><polygon class="f" points="8027.45 6.04 8035.31 4.66 8043.9 6.04 8027.45 6.04"/><polygon class="f" points="7932.82 16.93 7940.69 15.55 7949.27 16.93 7932.82 16.93"/><polygon class="f" points="7951.01 8.12 7958.88 6.74 7967.47 8.12 7951.01 8.12"/><polygon class="f" points="7914.05 10.39 7921.92 9.01 7930.5 10.39 7914.05 10.39"/><polygon class="f" points="7873.11 7.55 7880.98 6.17 7889.56 7.55 7873.11 7.55"/><polygon class="f" points="7892.44 13.8 7900.31 12.43 7908.89 13.8 7892.44 13.8"/><polygon class="f" points="7888.18 19.78 7896.05 18.4 7904.63 19.78 7888.18 19.78"/><polygon class="g" points="7928.87 38.06 7935.09 36.36 7941.89 38.06 7928.87 38.06"/></g><path class="d" d="M8638.66,.02V67.59h-441.39V.03c0,1.2,37.97,0,41.42-.02,16-.07,32,.23,47.99,.53,10.53,0,21.07,.39,31.59,.59,19.45,.36,38.89,.45,58.34,.7,38.61,.49,77.26,.98,115.85-.84,36.13-1.71,72.31-.3,108.7-.71,12.5-.14,25-.25,37.51-.25Z"/><g><polygon class="e" points="8421.66 44.93 8428.49 43.07 8435.95 44.93 8421.66 44.93"/><polygon class="e" points="8349.21 47.29 8359.15 44.58 8369.99 47.29 8349.21 47.29"/><polygon class="e" points="8375.35 44.42 8385.29 41.71 8396.13 44.42 8375.35 44.42"/><polygon class="e" points="8515.86 46.91 8525.8 44.2 8536.64 46.91 8515.86 46.91"/><polygon class="e" points="8493.89 41.93 8503.83 39.22 8514.67 41.93 8493.89 41.93"/><polygon class="e" points="8320.74 47.52 8330.68 44.81 8341.52 47.52 8320.74 47.52"/><polygon class="e" points="8334.18 41.46 8344.12 38.74 8354.96 41.46 8334.18 41.46"/><polygon class="e" points="8444.03 46.51 8453.97 43.8 8464.81 46.51 8444.03 46.51"/><polygon class="e" points="8398.85 47.83 8408.79 45.12 8419.63 47.83 8398.85 47.83"/><polygon class="e" points="8473.9 48 8480.13 46.31 8486.92 48 8473.9 48"/><polygon class="e" points="8543.54 46.35 8549.76 44.65 8556.55 46.35 8543.54 46.35"/><polygon class="e" points="8534 40.13 8540.23 38.43 8547.02 40.13 8534 40.13"/><polygon class="g" points="8395.98 38.47 8402.21 36.77 8409 38.47 8395.98 38.47"/><polygon class="g" points="8478.72 39.32 8484.95 37.63 8491.74 39.32 8478.72 39.32"/><polygon class="g" points="8514.83 37.33 8521.06 35.64 8527.85 37.33 8514.83 37.33"/><polygon class="g" points="8544.4 33.07 8550.63 31.37 8557.42 33.07 8544.4 33.07"/><polygon class="g" points="8499.19 33.07 8505.42 31.37 8512.21 33.07 8499.19 33.07"/><polygon class="g" points="8381.19 33.35 8387.42 31.65 8394.21 33.35 8381.19 33.35"/><polygon class="g" points="8352.19 32.78 8358.42 31.09 8365.21 32.78 8352.19 32.78"/><polygon class="g" points="8334 30.51 8340.22 28.81 8347.01 30.51 8334 30.51"/><polygon class="g" points="8368.97 27.38 8375.2 25.68 8381.99 27.38 8368.97 27.38"/><polygon class="g" points="8349.07 21.13 8355.29 19.43 8362.08 21.13 8349.07 21.13"/><polygon class="f" points="8387.17 21.11 8395.03 19.73 8403.62 21.11 8387.17 21.11"/><polygon class="f" points="8496.06 23.38 8503.93 22 8512.51 23.38 8496.06 23.38"/><polygon class="f" points="8522.22 27.93 8530.09 26.55 8538.67 27.93 8522.22 27.93"/><polygon class="f" points="8571.13 9.74 8578.99 8.36 8587.58 9.74 8571.13 9.74"/><polygon class="f" points="8499.8 7.77 8507.67 6.39 8516.25 7.77 8499.8 7.77"/><polygon class="f" points="8541.56 23.95 8549.42 22.57 8558.01 23.95 8541.56 23.95"/><polygon class="f" points="8404.79 14 8412.66 12.62 8421.25 14 8404.79 14"/><polygon class="f" points="8462.23 6.04 8470.1 4.66 8478.68 6.04 8462.23 6.04"/><polygon class="f" points="8367.6 16.93 8375.47 15.55 8384.05 16.93 8367.6 16.93"/><polygon class="f" points="8385.8 8.12 8393.67 6.74 8402.25 8.12 8385.8 8.12"/><polygon class="f" points="8348.83 10.39 8356.7 9.01 8365.29 10.39 8348.83 10.39"/><polygon class="f" points="8307.89 7.55 8315.76 6.17 8324.34 7.55 8307.89 7.55"/><polygon class="f" points="8327.23 13.8 8335.09 12.43 8343.68 13.8 8327.23 13.8"/><polygon class="f" points="8322.96 19.78 8330.83 18.4 8339.41 19.78 8322.96 19.78"/><polygon class="g" points="8363.65 38.06 8369.88 36.36 8376.67 38.06 8363.65 38.06"/></g><path class="d" d="M9080.05,.02V67.59h-441.39V.03c0,1.2,37.97,0,41.42-.02,16-.07,32,.23,47.99,.53,10.53,0,21.07,.39,31.59,.59,19.45,.36,38.89,.45,58.34,.7,38.61,.49,77.26,.98,115.85-.84,36.13-1.71,72.31-.3,108.7-.71,12.5-.14,25-.25,37.51-.25Z"/><g><polygon class="e" points="8863.05 44.93 8869.88 43.07 8877.34 44.93 8863.05 44.93"/><polygon class="e" points="8790.6 47.29 8800.54 44.58 8811.38 47.29 8790.6 47.29"/><polygon class="e" points="8816.74 44.42 8826.68 41.71 8837.52 44.42 8816.74 44.42"/><polygon class="e" points="8957.25 46.91 8967.19 44.2 8978.03 46.91 8957.25 46.91"/><polygon class="e" points="8935.28 41.93 8945.22 39.22 8956.07 41.93 8935.28 41.93"/><polygon class="e" points="8762.13 47.52 8772.07 44.81 8782.92 47.52 8762.13 47.52"/><polygon class="e" points="8775.57 41.46 8785.51 38.74 8796.35 41.46 8775.57 41.46"/><polygon class="e" points="8885.42 46.51 8895.36 43.8 8906.2 46.51 8885.42 46.51"/><polygon class="e" points="8840.24 47.83 8850.18 45.12 8861.03 47.83 8840.24 47.83"/><polygon class="e" points="8915.29 48 8921.52 46.31 8928.31 48 8915.29 48"/><polygon class="e" points="8984.93 46.35 8991.15 44.65 8997.95 46.35 8984.93 46.35"/><polygon class="e" points="8975.39 40.13 8981.62 38.43 8988.41 40.13 8975.39 40.13"/><polygon class="g" points="8837.37 38.47 8843.6 36.77 8850.39 38.47 8837.37 38.47"/><polygon class="g" points="8920.11 39.32 8926.34 37.63 8933.13 39.32 8920.11 39.32"/><polygon class="g" points="8956.22 37.33 8962.45 35.64 8969.24 37.33 8956.22 37.33"/><polygon class="g" points="8985.79 33.07 8992.02 31.37 8998.81 33.07 8985.79 33.07"/><polygon class="g" points="8940.58 33.07 8946.81 31.37 8953.6 33.07 8940.58 33.07"/><polygon class="g" points="8822.59 33.35 8828.81 31.65 8835.6 33.35 8822.59 33.35"/><polygon class="g" points="8793.58 32.78 8799.81 31.09 8806.6 32.78 8793.58 32.78"/><polygon class="g" points="8775.39 30.51 8781.61 28.81 8788.41 30.51 8775.39 30.51"/><polygon class="g" points="8810.36 27.38 8816.59 25.68 8823.38 27.38 8810.36 27.38"/><polygon class="g" points="8790.46 21.13 8796.68 19.43 8803.48 21.13 8790.46 21.13"/><polygon class="f" points="8828.56 21.11 8836.42 19.73 8845.01 21.11 8828.56 21.11"/><polygon class="f" points="8937.46 23.38 8945.32 22 8953.91 23.38 8937.46 23.38"/><polygon class="f" points="8963.61 27.93 8971.48 26.55 8980.06 27.93 8963.61 27.93"/><polygon class="f" points="9012.52 9.74 9020.39 8.36 9028.97 9.74 9012.52 9.74"/><polygon class="f" points="8941.19 7.77 8949.06 6.39 8957.64 7.77 8941.19 7.77"/><polygon class="f" points="8982.95 23.95 8990.82 22.57 8999.4 23.95 8982.95 23.95"/><polygon class="f" points="8846.19 14 8854.05 12.62 8862.64 14 8846.19 14"/><polygon class="f" points="8903.62 6.04 8911.49 4.66 8920.07 6.04 8903.62 6.04"/><polygon class="f" points="8808.99 16.93 8816.86 15.55 8825.44 16.93 8808.99 16.93"/><polygon class="f" points="8827.19 8.12 8835.06 6.74 8843.64 8.12 8827.19 8.12"/><polygon class="f" points="8790.23 10.39 8798.09 9.01 8806.68 10.39 8790.23 10.39"/><polygon class="f" points="8749.28 7.55 8757.15 6.17 8765.73 7.55 8749.28 7.55"/><polygon class="f" points="8768.62 13.8 8776.48 12.43 8785.07 13.8 8768.62 13.8"/><polygon class="f" points="8764.35 19.78 8772.22 18.4 8780.8 19.78 8764.35 19.78"/><polygon class="g" points="8805.04 38.06 8811.27 36.36 8818.06 38.06 8805.04 38.06"/></g><path class="d" d="M9514.83,.02V67.59h-441.39V.03c0,1.2,37.97,0,41.42-.02,16-.07,32,.23,47.99,.53,10.53,0,21.07,.39,31.59,.59,19.45,.36,38.89,.45,58.34,.7,38.61,.49,77.26,.98,115.85-.84,36.13-1.71,72.31-.3,108.7-.71,12.5-.14,25-.25,37.51-.25Z"/><g><polygon class="e" points="9297.83 44.93 9304.66 43.07 9312.12 44.93 9297.83 44.93"/><polygon class="e" points="9225.38 47.29 9235.32 44.58 9246.17 47.29 9225.38 47.29"/><polygon class="e" points="9251.52 44.42 9261.46 41.71 9272.31 44.42 9251.52 44.42"/><polygon class="e" points="9392.03 46.91 9401.97 44.2 9412.82 46.91 9392.03 46.91"/><polygon class="e" points="9370.07 41.93 9380.01 39.22 9390.85 41.93 9370.07 41.93"/><polygon class="e" points="9196.92 47.52 9206.86 44.81 9217.7 47.52 9196.92 47.52"/><polygon class="e" points="9210.35 41.46 9220.29 38.74 9231.13 41.46 9210.35 41.46"/><polygon class="e" points="9320.2 46.51 9330.14 43.8 9340.98 46.51 9320.2 46.51"/><polygon class="e" points="9275.03 47.83 9284.97 45.12 9295.81 47.83 9275.03 47.83"/><polygon class="e" points="9350.08 48 9356.3 46.31 9363.1 48 9350.08 48"/><polygon class="e" points="9419.71 46.35 9425.94 44.65 9432.73 46.35 9419.71 46.35"/><polygon class="e" points="9410.18 40.13 9416.4 38.43 9423.2 40.13 9410.18 40.13"/><polygon class="g" points="9272.15 38.47 9278.38 36.77 9285.17 38.47 9272.15 38.47"/><polygon class="g" points="9354.89 39.32 9361.12 37.63 9367.91 39.32 9354.89 39.32"/><polygon class="g" points="9391 37.33 9397.23 35.64 9404.02 37.33 9391 37.33"/><polygon class="g" points="9420.57 33.07 9426.8 31.37 9433.59 33.07 9420.57 33.07"/><polygon class="g" points="9375.37 33.07 9381.59 31.37 9388.38 33.07 9375.37 33.07"/><polygon class="g" points="9257.37 33.35 9263.6 31.65 9270.39 33.35 9257.37 33.35"/><polygon class="g" points="9228.37 32.78 9234.59 31.09 9241.39 32.78 9228.37 32.78"/><polygon class="g" points="9210.17 30.51 9216.4 28.81 9223.19 30.51 9210.17 30.51"/><polygon class="g" points="9245.14 27.38 9251.37 25.68 9258.16 27.38 9245.14 27.38"/><polygon class="g" points="9225.24 21.13 9231.47 19.43 9238.26 21.13 9225.24 21.13"/><polygon class="f" points="9263.34 21.11 9271.21 19.73 9279.79 21.11 9263.34 21.11"/><polygon class="f" points="9372.24 23.38 9380.11 22 9388.69 23.38 9372.24 23.38"/><polygon class="f" points="9398.4 27.93 9406.26 26.55 9414.85 27.93 9398.4 27.93"/><polygon class="f" points="9447.3 9.74 9455.17 8.36 9463.75 9.74 9447.3 9.74"/><polygon class="f" points="9375.97 7.77 9383.84 6.39 9392.42 7.77 9375.97 7.77"/><polygon class="f" points="9417.73 23.95 9425.6 22.57 9434.18 23.95 9417.73 23.95"/><polygon class="f" points="9280.97 14 9288.84 12.62 9297.42 14 9280.97 14"/><polygon class="f" points="9338.4 6.04 9346.27 4.66 9354.85 6.04 9338.4 6.04"/><polygon class="f" points="9243.77 16.93 9251.64 15.55 9260.23 16.93 9243.77 16.93"/><polygon class="f" points="9261.97 8.12 9269.84 6.74 9278.42 8.12 9261.97 8.12"/><polygon class="f" points="9225.01 10.39 9232.88 9.01 9241.46 10.39 9225.01 10.39"/><polygon class="f" points="9184.07 7.55 9191.93 6.17 9200.52 7.55 9184.07 7.55"/><polygon class="f" points="9203.4 13.8 9211.27 12.43 9219.85 13.8 9203.4 13.8"/><polygon class="f" points="9199.13 19.78 9207 18.4 9215.59 19.78 9199.13 19.78"/><polygon class="g" points="9239.82 38.06 9246.05 36.36 9252.84 38.06 9239.82 38.06"/></g><path class="d" d="M9953.06,.02V67.59h-441.39V.03c0,1.2,37.97,0,41.42-.02,16-.07,32,.23,47.99,.53,10.53,0,21.07,.39,31.59,.59,19.45,.36,38.89,.45,58.34,.7,38.61,.49,77.26,.98,115.85-.84,36.13-1.71,72.31-.3,108.7-.71,12.5-.14,25-.25,37.51-.25Z"/><g><polygon class="e" points="9736.07 44.93 9742.9 43.07 9750.35 44.93 9736.07 44.93"/><polygon class="e" points="9663.62 47.29 9673.56 44.58 9684.4 47.29 9663.62 47.29"/><polygon class="e" points="9689.76 44.42 9699.7 41.71 9710.54 44.42 9689.76 44.42"/><polygon class="e" points="9830.27 46.91 9840.21 44.2 9851.05 46.91 9830.27 46.91"/><polygon class="e" points="9808.3 41.93 9818.24 39.22 9829.08 41.93 9808.3 41.93"/><polygon class="e" points="9635.15 47.52 9645.09 44.81 9655.93 47.52 9635.15 47.52"/><polygon class="e" points="9648.59 41.46 9658.53 38.74 9669.37 41.46 9648.59 41.46"/><polygon class="e" points="9758.44 46.51 9768.37 43.8 9779.22 46.51 9758.44 46.51"/><polygon class="e" points="9713.26 47.83 9723.2 45.12 9734.04 47.83 9713.26 47.83"/><polygon class="e" points="9788.31 48 9794.54 46.31 9801.33 48 9788.31 48"/><polygon class="e" points="9857.94 46.35 9864.17 44.65 9870.96 46.35 9857.94 46.35"/><polygon class="e" points="9848.41 40.13 9854.64 38.43 9861.43 40.13 9848.41 40.13"/><polygon class="g" points="9710.39 38.47 9716.62 36.77 9723.41 38.47 9710.39 38.47"/><polygon class="g" points="9793.13 39.32 9799.36 37.63 9806.15 39.32 9793.13 39.32"/><polygon class="g" points="9829.24 37.33 9835.46 35.64 9842.26 37.33 9829.24 37.33"/><polygon class="g" points="9858.81 33.07 9865.04 31.37 9871.83 33.07 9858.81 33.07"/><polygon class="g" points="9813.6 33.07 9819.83 31.37 9826.62 33.07 9813.6 33.07"/><polygon class="g" points="9695.6 33.35 9701.83 31.65 9708.62 33.35 9695.6 33.35"/><polygon class="g" points="9666.6 32.78 9672.83 31.09 9679.62 32.78 9666.6 32.78"/><polygon class="g" points="9648.4 30.51 9654.63 28.81 9661.42 30.51 9648.4 30.51"/><polygon class="g" points="9683.38 27.38 9689.6 25.68 9696.4 27.38 9683.38 27.38"/><polygon class="g" points="9663.47 21.13 9669.7 19.43 9676.49 21.13 9663.47 21.13"/><polygon class="f" points="9701.57 21.11 9709.44 19.73 9718.03 21.11 9701.57 21.11"/><polygon class="f" points="9810.47 23.38 9818.34 22 9826.92 23.38 9810.47 23.38"/><polygon class="f" points="9836.63 27.93 9844.5 26.55 9853.08 27.93 9836.63 27.93"/><polygon class="f" points="9885.54 9.74 9893.4 8.36 9901.99 9.74 9885.54 9.74"/><polygon class="f" points="9814.21 7.77 9822.08 6.39 9830.66 7.77 9814.21 7.77"/><polygon class="f" points="9855.97 23.95 9863.83 22.57 9872.42 23.95 9855.97 23.95"/><polygon class="f" points="9719.2 14 9727.07 12.62 9735.65 14 9719.2 14"/><polygon class="f" points="9776.64 6.04 9784.51 4.66 9793.09 6.04 9776.64 6.04"/><polygon class="f" points="9682.01 16.93 9689.88 15.55 9698.46 16.93 9682.01 16.93"/><polygon class="f" points="9700.21 8.12 9708.07 6.74 9716.66 8.12 9700.21 8.12"/><polygon class="f" points="9663.24 10.39 9671.11 9.01 9679.69 10.39 9663.24 10.39"/><polygon class="f" points="9622.3 7.55 9630.17 6.17 9638.75 7.55 9622.3 7.55"/><polygon class="f" points="9641.63 13.8 9649.5 12.43 9658.09 13.8 9641.63 13.8"/><polygon class="f" points="9637.37 19.78 9645.24 18.4 9653.82 19.78 9637.37 19.78"/><polygon class="g" points="9678.06 38.06 9684.29 36.36 9691.08 38.06 9678.06 38.06"/></g><path class="d" d="M10387.85,.02V67.59h-441.39V.03c0,1.2,37.97,0,41.42-.02,16-.07,32,.23,47.99,.53,10.53,0,21.07,.39,31.59,.59,19.45,.36,38.89,.45,58.34,.7,38.61,.49,77.26,.98,115.85-.84,36.13-1.71,72.31-.3,108.7-.71,12.5-.14,25-.25,37.51-.25Z"/><g><polygon class="e" points="10170.85 44.93 10177.68 43.07 10185.14 44.93 10170.85 44.93"/><polygon class="e" points="10098.4 47.29 10108.34 44.58 10119.18 47.29 10098.4 47.29"/><polygon class="e" points="10124.54 44.42 10134.48 41.71 10145.32 44.42 10124.54 44.42"/><polygon class="e" points="10265.05 46.91 10274.99 44.2 10285.83 46.91 10265.05 46.91"/><polygon class="e" points="10243.08 41.93 10253.02 39.22 10263.87 41.93 10243.08 41.93"/><polygon class="e" points="10069.93 47.52 10079.87 44.81 10090.72 47.52 10069.93 47.52"/><polygon class="e" points="10083.37 41.46 10093.31 38.74 10104.15 41.46 10083.37 41.46"/><polygon class="e" points="10193.22 46.51 10203.16 43.8 10214 46.51 10193.22 46.51"/><polygon class="e" points="10148.04 47.83 10157.98 45.12 10168.83 47.83 10148.04 47.83"/><polygon class="e" points="10223.09 48 10229.32 46.31 10236.11 48 10223.09 48"/><polygon class="e" points="10292.73 46.35 10298.95 44.65 10305.75 46.35 10292.73 46.35"/><polygon class="e" points="10283.19 40.13 10289.42 38.43 10296.21 40.13 10283.19 40.13"/><polygon class="g" points="10145.17 38.47 10151.4 36.77 10158.19 38.47 10145.17 38.47"/><polygon class="g" points="10227.91 39.32 10234.14 37.63 10240.93 39.32 10227.91 39.32"/><polygon class="g" points="10264.02 37.33 10270.25 35.64 10277.04 37.33 10264.02 37.33"/><polygon class="g" points="10293.59 33.07 10299.82 31.37 10306.61 33.07 10293.59 33.07"/><polygon class="g" points="10248.38 33.07 10254.61 31.37 10261.4 33.07 10248.38 33.07"/><polygon class="g" points="10130.39 33.35 10136.61 31.65 10143.41 33.35 10130.39 33.35"/><polygon class="g" points="10101.38 32.78 10107.61 31.09 10114.4 32.78 10101.38 32.78"/><polygon class="g" points="10083.19 30.51 10089.41 28.81 10096.21 30.51 10083.19 30.51"/><polygon class="g" points="10118.16 27.38 10124.39 25.68 10131.18 27.38 10118.16 27.38"/><polygon class="g" points="10098.26 21.13 10104.48 19.43 10111.28 21.13 10098.26 21.13"/><polygon class="f" points="10136.36 21.11 10144.23 19.73 10152.81 21.11 10136.36 21.11"/><polygon class="f" points="10245.26 23.38 10253.12 22 10261.71 23.38 10245.26 23.38"/><polygon class="f" points="10271.41 27.93 10279.28 26.55 10287.87 27.93 10271.41 27.93"/><polygon class="f" points="10320.32 9.74 10328.19 8.36 10336.77 9.74 10320.32 9.74"/><polygon class="f" points="10248.99 7.77 10256.86 6.39 10265.44 7.77 10248.99 7.77"/><polygon class="f" points="10290.75 23.95 10298.62 22.57 10307.2 23.95 10290.75 23.95"/><polygon class="f" points="10153.99 14 10161.85 12.62 10170.44 14 10153.99 14"/><polygon class="f" points="10211.42 6.04 10219.29 4.66 10227.87 6.04 10211.42 6.04"/><polygon class="f" points="10116.79 16.93 10124.66 15.55 10133.24 16.93 10116.79 16.93"/><polygon class="f" points="10134.99 8.12 10142.86 6.74 10151.44 8.12 10134.99 8.12"/><polygon class="f" points="10098.03 10.39 10105.89 9.01 10114.48 10.39 10098.03 10.39"/><polygon class="f" points="10057.08 7.55 10064.95 6.17 10073.53 7.55 10057.08 7.55"/><polygon class="f" points="10076.42 13.8 10084.29 12.43 10092.87 13.8 10076.42 13.8"/><polygon class="f" points="10072.15 19.78 10080.02 18.4 10088.6 19.78 10072.15 19.78"/><polygon class="g" points="10112.84 38.06 10119.07 36.36 10125.86 38.06 10112.84 38.06"/></g></g></g></svg>