<?xml version="1.0" encoding="UTF-8"?><svg xmlns="http://www.w3.org/2000/svg" viewBox="0 0 193.51 84.63"><defs><style>.d{fill:#00567f;}.e{fill:#7da8bf;}.f{fill:#b3cdde;}.g{fill:#87b5ce;}</style></defs><g id="a"/><g id="b"><g id="c"><g><path class="f" d="M161.9,52.34s44.73,23.54-10.2,9.42l10.2-9.42Z"/><path class="f" d="M192.01,30.5c.17,6.66-12.32,14.98-12.32,14.98-5.49,3.5-19.14,16.64-19.14,16.64-17.64,20.14-48.27,21.97-48.27,21.97C44.87,90.58,30.89,36.16,30.89,36.16c14.48,15.31,35.29,14.81,35.29,14.81,19.97,.17,50.43-18.97,50.43-18.97,24.13-16.64,37.62-21.47,37.62-21.47,33.65-16.31,30.96,8.49,30.96,8.49,12.48,2.5,7.23,9.67,7.23,9.67l-.4,1.81Z"/><path class="d" d="M165.64,30.49c.92-.8,2.07-.45,2.96,.23,4.34,3.3,9.15,1.58,13.39-1.03,2.98-1.84,7.71-4.21,10.38-.8l-.31,1.39s-.05-.09-.08-.14c-2.24-3.25-8.52,.36-10.88,1.76-3.82,2.26-9.38,5.33-13.84,3.09-1.62-.82-3.47-2.9-1.62-4.49Z"/><path class="d" d="M163.2,18.57c0,1.21,.98,2.18,2.18,2.18s2.18-.98,2.18-2.18-.98-2.18-2.18-2.18-2.18,.98-2.18,2.18Z"/><path class="g" d="M148.63,46.54c6.69-7.56,20.08-3.02,20.08-3.02,9.07,.97,18.39-6.08,22.47-9.66-2.76,5.8-11.49,11.61-11.49,11.61-5.49,3.5-19.14,16.64-19.14,16.64-17.64,20.14-48.27,21.97-48.27,21.97-40.67,3.92-61.89-14.34-72.33-29.44,15.58,15.33,35.91,18.23,35.91,18.23,40.59,6.69,72.76-26.34,72.76-26.34Z"/><path class="g" d="M119.11,43.03s-14.89,17.69-15.48,31.26l13.12-4.72,2.36-26.54Z"/><path class="f" d="M135.33,56.74s-51.31,52.64-16.22-13.71l16.22,13.71Z"/><path class="e" d="M22.11,19.36C19.99,5.53,33.15,0,33.15,0c6.49,22.99-1.04,36.44-1.49,37.22l.06,.16s-15.82-.79-31.72-19.59c0,0,11.86-7.76,22.11,1.57Z"/></g></g></g></svg>